<?xml version="1.0" encoding="UTF-8" standalone="no"?>
<!-- Created with Inkscape (http://www.inkscape.org/) -->

<svg
   width="48"
   height="48"
   viewBox="0 0 12.7 12.7"
   version="1.1"
   id="svg2460"
   inkscape:version="1.1.2 (b8e25be833, 2022-02-05)"
   sodipodi:docname="Ambrozija.svg"
   xmlns:inkscape="http://www.inkscape.org/namespaces/inkscape"
   xmlns:sodipodi="http://sodipodi.sourceforge.net/DTD/sodipodi-0.dtd"
   xmlns="http://www.w3.org/2000/svg"
   xmlns:svg="http://www.w3.org/2000/svg">
  <sodipodi:namedview
     id="namedview2462"
     pagecolor="#ffffff"
     bordercolor="#666666"
     borderopacity="1.0"
     inkscape:pageshadow="2"
     inkscape:pageopacity="0.0"
     inkscape:pagecheckerboard="0"
     inkscape:document-units="mm"
     showgrid="false"
     inkscape:zoom="12.22963"
     inkscape:cx="17.294064"
     inkscape:cy="22.200182"
     inkscape:window-width="1746"
     inkscape:window-height="1051"
     inkscape:window-x="165"
     inkscape:window-y="-9"
     inkscape:window-maximized="1"
     inkscape:current-layer="layer1"
     units="px" />
  <defs
     id="defs2457" />
  <g
     inkscape:label="Layer 1"
     inkscape:groupmode="layer"
     id="layer1">
    <path
       style="fill:#2c2828;stroke:none;stroke-width:0.0205662"
       d="M 6.2471684,0.08589943 C 5.3595317,0.22562 5.5463961,1.624929 6.4322641,1.4869097 7.34602,1.3445521 7.1649964,-0.05857142 6.2471684,0.08589943 m 0.082265,0.2249899 C 6.9127309,0.27507331 6.9996238,1.1992107 6.4116977,1.2472229 5.7797603,1.2988293 5.6961382,0.34977783 6.3294324,0.31088933 M 6.206036,1.6905965 C 5.3065531,1.8528229 5.5964542,3.2227158 6.4939628,3.07283 7.3956869,2.9222651 7.1060534,1.5282477 6.206036,1.6905965 M 6.288301,1.9134722 C 6.8931934,1.8270127 7.0195316,2.7745791 6.4116979,2.8495016 5.8077306,2.923951 5.6846419,1.9997481 6.2883008,1.9134722 M 4.0054538,2.2042376 C 3.101613,2.3494138 3.3063062,3.7476472 4.2111157,3.6052265 5.1119765,3.4634228 4.9029006,2.0600893 4.0054538,2.2042376 m 4.4834287,4.858e-4 C 7.5784798,2.3688008 7.8119258,3.7643398 8.7151112,3.6015585 9.6124348,3.4398258 9.3814761,2.043834 8.4888825,2.2047234 M 3.9848877,2.4499748 C 4.572546,2.3219711 4.8259008,3.2191916 4.231682,3.3565531 3.6358177,3.4942847 3.3836146,2.5809817 3.9848877,2.4499748 m 4.5039948,-0.00125 C 9.0807981,2.3446975 9.3060805,3.2548952 8.7151112,3.360667 8.1126447,3.4684753 7.8807406,2.5555832 8.4888825,2.4487213 M 6.2677346,3.2736311 C 5.3411249,3.4180466 5.5491314,4.8234379 6.4733964,4.6746209 7.3519431,4.5331661 7.1423118,3.1373192 6.2677346,3.2736311 M 6.2471684,3.5181635 C 6.8740259,3.4059955 7.0432443,4.3492014 6.4116979,4.4475906 5.8377984,4.5369914 5.6714384,3.6212001 6.2471684,3.5181635 M 3.9643214,3.8088871 C 3.0745871,3.9693442 3.3469039,5.3623948 4.231682,5.1958709 5.1430314,5.0243488 4.8700771,3.6455093 3.9643214,3.8088871 m 4.5039956,0 C 7.5469514,3.975 7.8454082,5.3733364 8.7562432,5.1913664 9.6390467,5.0149911 9.3478917,3.6503014 8.468317,3.8088871 M 4.0465863,4.0318239 C 4.647448,3.9502176 4.775637,4.8943494 4.1699834,4.9678116 3.5626638,5.0414592 3.4387525,4.1143562 4.0465863,4.0318239 m 4.5039948,-2.04e-5 C 9.1367174,3.9543101 9.2608967,4.8946788 8.6739782,4.9677911 8.0510491,5.0453672 7.9239092,4.1146448 8.5505811,4.0318035 M 6.2266022,6.267266 V 8.2827516 C 5.6002178,7.8072413 4.9373696,7.2904123 4.3756452,6.740288 5.2274762,6.4896276 4.7016604,5.1148806 3.8614906,5.4336776 3.4231222,5.5999964 3.2502016,6.1891964 3.559764,6.5548843 3.7155939,6.7389927 3.9278576,6.7294495 4.1082849,6.8545741 4.6279924,7.2149963 5.103318,7.6734787 5.5890504,8.0787353 5.7669891,8.2272025 6.0954927,8.408843 6.2054602,8.6136619 c 0.044669,0.08317 0.021143,0.215122 0.021143,0.3066419 V 9.6195535 12.190326 C 6.0086211,11.976294 5.7846965,11.768987 5.5684842,11.552774 5.4757512,11.460041 5.343634,11.363093 5.2842389,11.244282 5.1945086,11.064822 5.2599914,10.723093 5.2599914,10.524465 V 8.8174722 H 5.0337633 V 11.018054 L 4.5813071,10.565598 4.3703391,10.337539 4.3550791,9.6195535 V 7.9331268 H 4.1288509 V 10.113141 L 3.6352624,9.6401201 3.4214358,9.3933257 3.4090343,8.9408693 V 7.9331268 L 3.1833821,7.9660946 3.1622396,8.282752 V 9.1670985 L 1.948835,7.9742861 H 1.928269 C 1.7170214,8.1882159 1.920069,8.295139 2.0927985,8.4678746 2.3911419,8.7662284 2.6993406,9.0546687 2.9977108,9.3522209 H 2.1133645 l -0.3372157,0.021141 -0.032976,0.2256525 h 1.0488757 c 0.1300938,0 0.3339127,-0.03813 0.4524563,0.021141 0.2578794,0.1289295 0.4955833,0.4744206 0.6992503,0.6781076 H 1.743173 c 0,0.0602 -0.01873,0.163481 0.021139,0.213827 0.075589,0.09543 0.4794165,0.03297 0.5958478,0.03297 h 1.2545376 c 0.1628224,0 0.401781,-0.04418 0.5552871,0.01241 0.2403158,0.08862 0.4995116,0.445977 0.6786842,0.62515 H 3.1005415 c -0.1018479,0 -0.6328668,-0.04068 -0.4313182,0.213827 0.077123,0.09738 0.4971095,0.03297 0.6164139,0.03297 h 1.192839 c 0.178206,0 0.40283,-0.03683 0.5758532,0.0066 0.1223483,0.03066 0.2229376,0.175266 0.3084928,0.260822 0.2192768,0.219275 0.4361472,0.441288 0.6581181,0.657808 0.074696,0.07288 0.2223617,0.256708 0.3290591,0.269294 0.1155614,0.01361 0.2762034,-0.21613 0.3496246,-0.289551 l 0.6375522,-0.637551 c 0.085555,-0.08555 0.1861451,-0.230158 0.3084929,-0.260822 0.1730232,-0.04337 0.3976477,-0.0066 0.5758536,-0.0066 H 9.414361 c 0.1193049,0 0.5392873,0.06441 0.61641,-0.03297 C 10.232319,11.14193 9.701301,11.18261 9.5994567,11.18261 H 7.8513313 v -0.02057 c 0.2678952,-0.127449 0.4030762,-0.502967 0.6786842,-0.604584 0.153506,-0.05658 0.392464,-0.01241 0.5552871,-0.01241 h 1.2545364 c 0.116425,0 0.520264,0.06246 0.595844,-0.03297 0.03988,-0.05035 0.02114,-0.153629 0.02114,-0.213827 H 8.7562432 C 8.9599107,10.094597 9.1976144,9.749086 9.455494,9.6201569 9.5740368,9.5608855 9.7778482,9.5990157 9.9079493,9.5990157 h 1.0488757 l -0.03297,-0.225653 -0.316658,-0.021142 H 9.7228538 L 10.566068,8.5090066 10.888011,8.1593818 10.771729,7.9742861 h -0.02056 L 9.5377581,9.1671252 V 7.933154 c -0.06176,0 -0.182072,-0.022047 -0.2256516,0.032968 -0.060115,0.07591 -0.021142,0.285541 -0.021142,0.378356 v 0.7198162 c 0,0.1002603 0.022705,0.2338376 -0.012395,0.3290594 C 9.1835476,9.6510465 8.7852416,9.9196413 8.5917141,10.113168 V 7.933154 H 8.3449199 v 1.7275593 c 0,0.190669 0.064804,0.5273777 -0.021143,0.6992497 -0.123808,0.247637 -0.4626771,0.463253 -0.6575415,0.658118 V 8.8174994 H 7.4400069 V 10.48336 l -0.012395,0.740382 -0.2755254,0.308494 -0.6786842,0.658117 V 9.6195807 8.920331 c 0,-0.090306 -0.024042,-0.2233906 0.021141,-0.304997 C 6.6109638,8.4050042 6.9471384,8.2185093 7.131514,8.0650655 7.6120642,7.6650945 8.0811376,7.2184377 8.5917141,6.8579331 8.7754727,6.7281815 8.9810525,6.7458068 9.1402348,6.5551379 9.4536838,6.179722 9.2914788,5.6055765 8.8385084,5.4337047 8.002143,5.1163477 7.4765325,6.4890582 8.3243533,6.7403152 7.7634103,7.2896787 7.1041617,7.8152068 6.4733964,8.2827789 V 6.2672931 C 7.3073549,6.144122 7.1853151,4.8689569 6.3499998,4.8689569 c -0.8296812,0 -0.9570065,1.2733757 -0.1233966,1.3983362 M 6.3294348,5.1028148 C 6.9139052,5.0668854 6.997589,5.9912946 6.4117,6.0391523 5.7797627,6.0907533 5.6961406,5.1417471 6.3294348,5.1028148 M 4.02602,5.6359323 C 4.6402293,5.5446592 4.7847273,6.4749502 4.1699834,6.5666546 3.5782941,6.6549244 3.4307523,5.7243866 4.02602,5.6359323 m 4.483429,5.829e-4 C 9.1272159,5.5284194 9.2786241,6.4734772 8.6534127,6.5666624 8.0715952,6.6533902 7.9255134,5.7386881 8.509449,5.6365152 Z"
       id="path2551" />
  </g>
</svg>
