<?xml version="1.0" encoding="UTF-8" standalone="no"?>
<!-- Created with Inkscape (http://www.inkscape.org/) -->

<svg
   width="48"
   height="48"
   viewBox="0 0 12.7 12.7"
   version="1.1"
   id="svg2460"
   inkscape:version="1.1.2 (b8e25be833, 2022-02-05)"
   sodipodi:docname="Ambrozija_0.svg"
   xmlns:inkscape="http://www.inkscape.org/namespaces/inkscape"
   xmlns:sodipodi="http://sodipodi.sourceforge.net/DTD/sodipodi-0.dtd"
   xmlns="http://www.w3.org/2000/svg"
   xmlns:svg="http://www.w3.org/2000/svg">
  <sodipodi:namedview
     id="namedview2462"
     pagecolor="#ffffff"
     bordercolor="#666666"
     borderopacity="1.0"
     inkscape:pageshadow="2"
     inkscape:pageopacity="0.0"
     inkscape:pagecheckerboard="0"
     inkscape:document-units="mm"
     showgrid="false"
     inkscape:zoom="8.647654"
     inkscape:cx="23.532394"
     inkscape:cy="35.790054"
     inkscape:window-width="1746"
     inkscape:window-height="1051"
     inkscape:window-x="165"
     inkscape:window-y="-9"
     inkscape:window-maximized="1"
     inkscape:current-layer="layer1"
     units="px" />
  <defs
     id="defs2457">
    <inkscape:path-effect
       effect="fill_between_many"
       method="originald"
       linkedpaths="#path2551,0,1"
       id="path-effect2102"
       is_visible="true"
       lpeversion="0"
       join="true"
       close="true"
       autoreverse="true"
       applied="false" />
  </defs>
  <g
     inkscape:label="Layer 1"
     inkscape:groupmode="layer"
     id="layer1">
    <path
       style="fill:#808080;stroke-width:0.0955683"
       d="M 6.1962342,0.15939644 C 5.937577,0.16838241 5.6802066,0.31446734 5.5715043,0.554784 5.4072835,0.89692802 5.5099772,1.3692697 5.8453224,1.5689044 6.112651,1.7235458 6.4739845,1.6661031 6.7018875,1.4656209 7.049665,1.1564653 7.0077035,0.52505463 6.6193922,0.26768518 6.4960551,0.18432114 6.3437484,0.15072158 6.1962342,0.15939644 Z"
       id="path2104"
       inkscape:original-d="M 1.5503458,0.0640148"
       inkscape:path-effect="#path-effect2102" />
    <path
       style="fill:#000000;stroke:none;stroke-width:0.0202286"
       d="m 4.036428,5.7228895 c 0.2158164,0.00436 0.3777599,0.212422 0.3735178,0.4197008 0.00992,0.1859198 -0.1274579,0.3657646 -0.3135017,0.3942714 -0.1758094,0.048587 -0.3739591,-0.04523 -0.443321,-0.2147455 -0.095905,-0.19249 -0.041041,-0.4738836 0.1716501,-0.561418 0.066096,-0.02966 0.1396361,-0.039894 0.2116548,-0.037809 z"
       id="path1423" />
    <path
       style="fill:#000000;stroke:none;stroke-width:0.0202286"
       d="M 8.4919264,5.7245696 C 8.7313907,5.7522918 8.8702659,6.0239894 8.8137518,6.2449351 8.7666339,6.4957891 8.4481909,6.6211454 8.2313534,6.5046086 7.9754796,6.3615876 7.9468359,5.9274767 8.2106777,5.7776135 8.2947449,5.7295294 8.3962795,5.7137149 8.4919264,5.7245696 Z"
       id="path1421" />
    <path
       style="fill:#000000;stroke:none;stroke-width:0.0202286"
       d="m 6.2919891,5.2077169 c 0.2256773,0.02933 0.357345,0.2765843 0.3234998,0.4882327 C 6.599639,5.8708144 6.4497186,6.0190035 6.2725768,6.0241538 6.0866991,6.0477488 5.8948484,5.9310053 5.8425291,5.7488408 5.7717775,5.5536165 5.8579204,5.2981925 6.0658867,5.2310704 c 0.071964,-0.025705 0.150401,-0.033165 0.2261024,-0.023353 z"
       id="path1419" />
    <path
       style="fill:#000000;stroke:none;stroke-width:0.0202286"
       d="M 6.1773817,4.8737878 C 5.9138286,4.8798307 5.667192,5.0500386 5.5637127,5.2917782 5.4193413,5.598103 5.4808969,6.0136991 5.7641489,6.2196119 c 0.082568,0.061303 0.1797849,0.1013418 0.2803333,0.1216719 v 1.837823 C 5.4678902,7.7382317 4.8892114,7.2875567 4.3697971,6.7840337 4.5925855,6.6992046 4.7460717,6.4743635 4.7509278,6.2370893 4.7671249,5.8701297 4.5237184,5.4813961 4.1545915,5.3973091 3.8292069,5.3234129 3.4765582,5.5143046 3.3428879,5.8166247 3.2016073,6.1038003 3.2582712,6.4904551 3.5162794,6.6931698 3.6755504,6.816525 3.8932117,6.8292353 4.0465554,6.9633619 4.5650895,7.3322063 5.0205035,7.7847887 5.518,8.1834203 c 0.1788892,0.138131 0.3910726,0.2510152 0.5124828,0.448516 0.043192,0.1223928 0.00287,0.2548216 0.014,0.3815639 V 12.005199 C 5.7915048,11.762558 5.5403933,11.517768 5.2880099,11.274716 5.1419796,11.135322 5.1714759,10.913019 5.1803747,10.73423 c 0.028399,-0.336712 0.00889,-0.675113 0.014631,-1.0125906 V 8.7566231 H 4.871344 V 10.84942 C 4.6850277,10.662642 4.495284,10.479162 4.3195863,10.282169 4.2967363,9.5372652 4.3069994,8.7920055 4.3048406,8.0468792 4.2980122,7.9971631 4.3180311,7.9205994 4.2952838,7.8868023 H 3.9811776 V 9.9631726 C 3.7883691,9.774458 3.5827254,9.5979534 3.4138329,9.3864865 3.3599182,9.3383894 3.3939219,9.2561218 3.3815147,9.1918921 3.3675742,8.754406 3.3771892,8.3165998 3.3743566,7.8789627 c -0.106783,0.015512 -0.2135463,0.031159 -0.3203031,0.046851 -0.019,0.2296005 -0.028544,0.4594896 -0.023519,0.6898836 V 9.0304487 C 2.6564852,8.6627237 2.2823497,8.2950861 1.9083539,7.9273067 c -0.052034,-0.012043 -0.086544,0.014656 -0.1144207,0.056744 -0.073826,0.080023 -0.090768,0.2094826 -0.018035,0.2962487 0.10259,0.1278543 0.2366642,0.226573 0.3475849,0.3471906 0.2225441,0.2202795 0.4504546,0.4354888 0.6722377,0.6551322 -0.354833,0.00342 -0.7102426,-0.011843 -1.064189,0.019848 -0.077898,-0.021347 -0.062096,0.059284 -0.073465,0.1103687 -0.010404,0.071205 -0.020886,0.14239 -0.031191,0.2136052 0.3940817,-0.00265 0.7884732,0.00529 1.1823649,-0.00396 0.1345207,-0.00763 0.2906796,-0.030626 0.4056259,0.064427 0.2031205,0.1424324 0.3517612,0.3448729 0.517498,0.5262089 H 1.6369549 c 0.00257,0.105 -0.039749,0.243938 0.058237,0.318809 0.1355466,0.06948 0.2955801,0.0402 0.4417014,0.03521 0.3067395,-0.02088 0.6147377,-0.0051 0.9220133,-0.01 0.25855,5.72e-4 0.5189081,0.0039 0.7751059,-0.01548 0.1339044,-0.01119 0.2705824,0.02452 0.3724948,0.11455 0.1568767,0.1233 0.2824526,0.279906 0.4160236,0.426746 -0.6084553,5.73e-4 -1.2170762,-8.61e-4 -1.8254245,9.5e-5 -0.1015207,0.0096 -0.2366782,0.01431 -0.2875308,0.118976 -0.0335,0.106746 0.060282,0.225988 0.169759,0.233655 0.2316262,0.03469 0.4646694,-0.02284 0.6973739,-0.0088 0.3832008,-0.0034 0.7667151,0.0071 1.1497175,-0.0056 0.1505273,-0.0033 0.3125441,-0.03215 0.4542993,0.03187 0.1284509,0.08705 0.2142048,0.221407 0.3300713,0.323249 0.2389316,0.241397 0.4801988,0.480367 0.7195806,0.721182 0.073348,0.07162 0.1877431,0.144004 0.2874436,0.07746 0.1536053,-0.09545 0.2456214,-0.259431 0.381278,-0.376029 0.2288588,-0.230091 0.4616983,-0.456627 0.6840235,-0.692747 0.1123321,-0.117069 0.2888281,-0.09247 0.4356504,-0.08974 0.378544,0.02119 0.7580174,0.0055 1.136959,0.01029 0.1979956,-0.0058 0.3953096,0.0066 0.5926727,0.01961 0.1100191,-0.0026 0.2456828,0.0142 0.329076,-0.07261 0.060404,-0.06275 0.081441,-0.180935 -0.00392,-0.232574 -0.1640583,-0.08934 -0.3595266,-0.0517 -0.5384315,-0.05836 H 7.8330276 c 0.1931541,-0.150463 0.299217,-0.398281 0.5246925,-0.50864 0.1867601,-0.06854 0.3851702,-0.01125 0.5778146,-0.01717 0.4257011,0.0025 0.8516779,-0.005 1.2772033,0.0039 0.168872,0.0064 0.348709,0.04426 0.510484,-0.02063 0.106788,-0.05796 0.0754,-0.198152 0.07415,-0.297959 0.0036,-0.06096 -0.09531,-0.01443 -0.13571,-0.02925 H 8.7006085 C 8.8867738,10.012712 9.0482339,9.7771215 9.2938039,9.6419305 9.4499522,9.5844351 9.6119958,9.6355184 9.7733626,9.6264395 h 1.0327344 c -0.01551,-0.1067924 -0.03116,-0.2135553 -0.04685,-0.3203121 -0.229601,-0.019 -0.45949,-0.028544 -0.689884,-0.023519 H 9.6562915 c 0.3447705,-0.349561 0.7023695,-0.6867995 1.0290345,-1.0537261 0.05352,-0.038472 0.0679,-0.080287 0.01717,-0.1282555 -0.03625,-0.057794 -0.07276,-0.1154241 -0.108819,-0.1733333 -0.05834,-0.014899 -0.09669,0.018909 -0.131513,0.061459 L 9.4024382,9.0306219 V 7.8890287 c -0.1035179,0.0025 -0.2381963,-0.038302 -0.3150768,0.053571 -0.078426,0.1332527 -0.021028,0.2946145 -0.028744,0.4395395 4.014e-4,0.2976866 -0.00268,0.5956307 0.00573,0.8930422 -0.015659,0.1706741 -0.1549328,0.29287 -0.2688965,0.4072175 -0.1048828,0.097698 -0.2158565,0.1884756 -0.3234988,0.283 V 7.886789 H 8.1281322 c 0.00186,0.6099109 -0.00374,1.2199912 0.0028,1.8297959 0.00676,0.1908908 0.051177,0.3907841 -0.01439,0.5756921 -0.1249719,0.23833 -0.3609693,0.386421 -0.5549129,0.563289 V 8.7566096 H 7.2379661 c -0.00204,0.7992182 0.007,1.5985274 -0.01176,2.3976074 -0.1522461,0.174228 -0.3072776,0.345784 -0.478066,0.502213 -0.1198832,0.116252 -0.2397666,0.232503 -0.3596498,0.348754 -0.00131,-1.048858 0.0026,-2.0978262 -0.00195,-3.1466196 C 6.378869,8.7563504 6.3702087,8.6399997 6.4515855,8.5622999 6.6446855,8.3422561 6.9147311,8.2118416 7.1274059,8.0132281 7.575535,7.6357583 8.0014861,7.2326342 8.483154,6.8999343 8.6493342,6.8063806 8.8605748,6.7833686 8.9877477,6.6276664 9.2121063,6.383337 9.2290994,5.9881929 9.0414941,5.7178798 8.8505661,5.4207669 8.4237582,5.283427 8.1086941,5.4624122 7.7811782,5.6452601 7.601245,6.0734955 7.7223409,6.432359 7.7778857,6.5927557 7.9079432,6.721657 8.0646695,6.7843936 7.5404526,7.2893023 6.9706191,7.7442829 6.3884912,8.1802134 V 6.3414571 C 6.6425876,6.2975504 6.8594007,6.0974367 6.9191761,5.8460236 7.0167916,5.4975521 6.853279,5.0741665 6.5098181,4.9305182 6.4052766,4.8859617 6.2906035,4.8686358 6.1773824,4.8737745 Z"
       id="path1417" />
    <path
       style="fill:#000000;stroke:none;stroke-width:0.0202286"
       d="M 8.4790471,4.1476928 C 8.6934096,4.1591784 8.8351826,4.3783898 8.8281184,4.5797259 8.8356719,4.7625699 8.7035952,4.9465035 8.5157531,4.966966 8.3317698,5.0073035 8.127775,4.9071266 8.0617155,4.7276449 7.9754137,4.532943 8.0500647,4.2670497 8.2577781,4.1857818 c 0.06942,-0.029383 0.1459963,-0.042913 0.221269,-0.038089 z"
       id="path1415" />
    <path
       style="fill:#000000;stroke:none;stroke-width:0.0202286"
       d="m 4.0522939,4.1469461 c 0.216275,0.00927 0.3657952,0.2266503 0.3582249,0.4314731 C 4.4174408,4.762449 4.2817931,4.9424281 4.0950532,4.9655008 3.9174481,5.0073378 3.7185295,4.9136875 3.6506676,4.7415354 3.5553945,4.5442028 3.6257506,4.2633978 3.8420318,4.1812253 3.908095,4.1537895 3.9810004,4.1431351 4.0522939,4.1469461 Z"
       id="path1413" />
    <path
       style="fill:#000000;stroke:none;stroke-width:0.0202286"
       d="M 8.3767592,3.8199234 C 8.1169134,3.8361742 7.8558693,3.985611 7.7565677,4.2341686 7.5915065,4.6188923 7.788795,5.132813 8.1943954,5.2693137 8.4991921,5.3696879 8.8811501,5.2668346 9.0545101,4.9859685 9.2924395,4.6004584 9.1082494,4.0165802 8.6772766,3.8593081 8.5815368,3.824375 8.4781837,3.8122365 8.3767592,3.8199234 Z"
       id="path1411" />
    <path
       style="fill:#000000;stroke:none;stroke-width:0.0202286"
       d="M 3.9882707,3.8174969 C 3.7302068,3.8216801 3.4645924,3.9573018 3.3546051,4.1988965 3.1742076,4.5733546 3.3380923,5.0936534 3.7302061,5.2579766 4.0066754,5.3690748 4.350524,5.2934005 4.5551473,5.0768704 4.8656918,4.741383 4.7597034,4.1389049 4.3690578,3.9114921 4.2547873,3.8437656 4.1205993,3.8129883 3.9882707,3.8174969 Z"
       id="path1409" />
    <path
       style="fill:#000000;stroke:none;stroke-width:0.0202286"
       d="m 6.2690304,3.6397996 c 0.248487,0.02489 0.399789,0.3074988 0.3343904,0.5368065 C 6.5396868,4.4596121 6.123104,4.5663361 5.9332946,4.3460039 5.769805,4.1689091 5.7643011,3.8342185 5.9824968,3.6978241 6.0668347,3.6456131 6.17143,3.6299512 6.2690304,3.6397996 Z"
       id="path1407" />
    <path
       style="fill:#000000;stroke:none;stroke-width:0.0202286"
       d="M 6.2130332,3.2956043 C 5.9383038,3.3054661 5.6634189,3.4651372 5.5577424,3.7257121 5.4032301,4.0790229 5.5408418,4.5545285 5.8985033,4.7254158 6.1650553,4.8503106 6.5097549,4.8024906 6.7265261,4.6010822 7.0646689,4.275619 6.9939205,3.6438226 6.6009061,3.3924794 6.4859935,3.3198289 6.3482547,3.2882422 6.2130332,3.2956043 Z"
       id="path1405" />
    <path
       style="fill:#000000;stroke:none;stroke-width:0.0202286"
       d="M 8.4680344,2.5892949 C 8.7708495,2.625451 8.9455826,3.0392039 8.7498861,3.2763787 8.5800095,3.4590758 8.2445275,3.431173 8.1087212,3.2202511 7.984286,3.053687 7.9803794,2.7737377 8.1702796,2.6530362 8.2573687,2.5973954 8.3660974,2.5776874 8.4680344,2.5892949 Z"
       id="path1403" />
    <path
       style="fill:#000000;stroke:none;stroke-width:0.0202286"
       d="M 4.0394146,2.584442 C 4.3454074,2.6073929 4.5285054,3.0187863 4.3384387,3.259953 4.1799817,3.4461805 3.847545,3.4475159 3.7025792,3.2431402 3.5654838,3.0755143 3.5576154,2.7821446 3.753294,2.6548285 3.8364741,2.5998429 3.9404933,2.5771212 4.0394146,2.584442 Z"
       id="path1401" />
    <path
       style="fill:#000000;stroke:none;stroke-width:0.0202286"
       d="M 3.9895772,2.2430466 C 3.7262885,2.253419 3.4637013,2.4033763 3.3563143,2.6500755 3.1925823,3.0020194 3.318698,3.4844795 3.6733421,3.6670323 3.9404674,3.8011657 4.2894568,3.7487817 4.5101631,3.5488978 4.8598787,3.224746 4.7871773,2.5751875 4.3779423,2.3327239 4.2618161,2.2632322 4.1239973,2.235019 3.9895772,2.2430466 Z"
       id="path1399" />
    <path
       style="fill:#000000;stroke:none;stroke-width:0.0202286"
       d="M 8.3982248,2.2419266 C 8.1304912,2.2580908 7.8657326,2.4166339 7.7634125,2.6710701 7.6105326,3.0247586 7.7467633,3.4995163 8.1026065,3.673205 8.3731379,3.8015342 8.721091,3.7410929 8.9380361,3.5365784 9.280676,3.2068524 9.2001456,2.5594511 8.7868792,2.3242861 8.6700321,2.2566672 8.532025,2.2318478 8.3982248,2.2419266 Z"
       id="path1397" />
    <path
       style="fill:#000000;stroke:none;stroke-width:0.0202286"
       d="M 6.2583909,2.0625494 C 6.4750046,2.070105 6.6184346,2.2870811 6.6175453,2.4923426 6.6167425,2.6774357 6.487823,2.8578535 6.3004074,2.8818727 6.1207469,2.9248211 5.9198659,2.8273413 5.8547156,2.6517806 5.7657501,2.4559461 5.8349829,2.1819646 6.046616,2.0992087 6.113022,2.0706787 6.1863416,2.0591737 6.2583909,2.0625494 Z"
       id="path1395" />
    <path
       style="fill:#000000;stroke:none;stroke-width:0.0202286"
       d="M 6.1534898,1.7360866 C 5.9007142,1.7514983 5.6464099,1.8942552 5.5466684,2.1347856 5.3731515,2.5288247 5.5868481,3.056977 6.0062175,3.1856634 6.3119146,3.2785453 6.6936242,3.1735623 6.8564393,2.8847728 7.0800427,2.4909585 6.8783476,1.9128599 6.4414638,1.770018 6.3492608,1.7385318 6.2503939,1.7290999 6.1534898,1.7360866 Z"
       id="path1393" />
    <path
       style="fill:#000000;stroke:none;stroke-width:0.0202286"
       d="M 6.2918023,0.49444541 C 6.5177407,0.52392824 6.6490238,0.7711077 6.6160323,0.98286295 6.6004014,1.1579128 6.4499319,1.3057169 6.2729501,1.3106957 6.0869339,1.3347992 5.8947193,1.2177229 5.8425156,1.0353868 5.7714843,0.83971093 5.8584889,0.58413279 6.067019,0.51727705 6.1387177,0.49202142 6.2164926,0.48489966 6.2918023,0.49444541 Z"
       id="path1391" />
    <path
       style="fill:#000000;stroke:none;stroke-width:0.0202286"
       d="M 6.1962342,0.15939644 C 5.937577,0.16838241 5.6802066,0.31446734 5.5715043,0.554784 5.4072835,0.89692802 5.5099772,1.3692697 5.8453224,1.5689044 6.112651,1.7235458 6.4739845,1.6661031 6.7018875,1.4656209 7.049665,1.1564653 7.0077035,0.52505463 6.6193922,0.26768518 6.4960551,0.18432114 6.3437484,0.15072158 6.1962342,0.15939644 Z"
       id="path2551" />
    <path
       style="fill:#808080;stroke-width:0.011696"
       d="m 3.9981276,2.5390577 c -0.1277131,0.00392 -0.2604358,0.050807 -0.3449861,0.1500873 -0.072033,0.08273 -0.097331,0.1966616 -0.088743,0.3040726 0.00569,0.1270365 0.066036,0.2498483 0.1603189,0.3346062 0.1086121,0.097952 0.2662973,0.1346819 0.4077218,0.099552 C 4.2658565,3.3965995 4.38786,3.3019352 4.4336509,3.1705008 4.4886957,3.0172868 4.4460323,2.8410151 4.3468161,2.7154885 4.27378,2.6203621 4.1637737,2.5501722 4.04257,2.540871 4.0278,2.539341 4.012962,2.539101 3.998127,2.539061 Z"
       id="path4012" />
    <path
       style="fill:#808080;stroke-width:0.011696"
       d="m 6.2241155,2.0213908 c -0.1264511,0.00296 -0.2570263,0.0483 -0.3416647,0.1456372 -0.096275,0.108496 -0.1229872,0.264541 -0.096797,0.4041645 0.025262,0.13853 0.1165647,0.2652176 0.2453725,0.3247262 0.055937,0.027416 0.1182484,0.041133 0.1805707,0.037554 0.087096,-0.0019 0.1782555,-0.015798 0.2504982,-0.068108 C 6.6039175,2.7668188 6.6844788,2.583388 6.6524943,2.4124431 6.6321497,2.2999798 6.5805156,2.1890836 6.4927769,2.1136444 6.4285382,2.0605972 6.3489876,2.0232522 6.2646292,2.0216253 6.2511332,2.0209658 6.2376209,2.0210614 6.2241157,2.0213863 Z"
       id="path4052" />
    <path
       style="fill:#808080;stroke-width:0.011696"
       d="m 8.371135,2.5517995 c -0.062472,-1.72e-4 -0.1265936,0.00846 -0.181353,0.040527 -0.1128989,0.057965 -0.1938867,0.172956 -0.2091832,0.2990913 -0.016919,0.1316388 0.026958,0.2673784 0.107059,0.3717914 0.072295,0.092218 0.1800319,0.15844 0.2967584,0.1739323 0.084203,0.00707 0.1710037,-0.00265 0.2499749,-0.03341 C 8.7201169,3.367716 8.7988448,3.3055551 8.8357684,3.2181457 8.8757282,3.1284963 8.8872171,3.0257888 8.8625433,2.930327 8.8283348,2.7918796 8.7413279,2.6627739 8.6154818,2.5925038 8.5679116,2.5646307 8.5131007,2.5520146 8.4582166,2.5522589 8.4292024,2.5513032 8.4001593,2.5515613 8.371135,2.5517995 Z"
       id="path4092" />
    <path
       style="fill:#808080;stroke-width:0.011696"
       d="M 3.9867193,4.107665 C 3.9308552,4.1073687 3.8749094,4.1179614 3.82482,4.1432984 3.7365699,4.1816447 3.6606449,4.249272 3.6182041,4.3362456 c -0.028029,0.053298 -0.047517,0.1119336 -0.046933,0.1727246 -0.00149,0.076687 -0.00543,0.1574269 0.029678,0.2281334 0.053595,0.1280718 0.1641,0.2346239 0.3002665,0.2690697 0.1202776,0.029168 0.2505323,0.00313 0.3563367,-0.05904 C 4.3623385,4.8857408 4.4262192,4.7706744 4.446604,4.653334 4.4771215,4.4764199 4.406031,4.2823756 4.2586548,4.1768196 4.2060819,4.1393007 4.1451483,4.1087874 4.0791706,4.1084059 c -0.030793,-0.00144 -0.061636,-0.00115 -0.092451,-7.454e-4 z"
       id="path4132" />
    <path
       style="fill:#808080;stroke-width:0.011696"
       d="m 6.196953,3.5961712 c -0.1223958,0.00292 -0.2480569,0.050232 -0.3271727,0.1465603 -0.064313,0.07512 -0.09428,0.1745901 -0.094461,0.272529 -0.00234,0.1077052 0.02226,0.2185043 0.08575,0.3071174 0.059885,0.087247 0.1519291,0.154029 0.2555376,0.1776823 0.084183,0.012329 0.1706965,-3.44e-4 0.251666,-0.024665 C 6.4822347,4.4361904 6.5803012,4.3487687 6.6289623,4.2381502 6.706556,4.0420097 6.6364944,3.797979 6.4645935,3.6748737 6.4154215,3.6407434 6.3604103,3.6123475 6.3013062,3.600715 6.2668277,3.5953579 6.2317525,3.5955079 6.196953,3.5961712 Z"
       id="path4172" />
    <path
       style="fill:#808080;stroke-width:0.011696"
       d="m 8.4450167,4.1080106 c -0.1238995,-7e-5 -0.2524431,0.040377 -0.3394755,0.1317083 -0.049997,0.052374 -0.087641,0.1174675 -0.1061867,0.1875247 -0.011982,0.064084 -0.00762,0.1298605 -0.00666,0.1946808 0.00147,0.091833 0.046878,0.177498 0.1068243,0.2448247 0.087205,0.096738 0.2161046,0.1604891 0.3480425,0.1517897 0.1090681,-0.0048 0.2208694,-0.041048 0.2986424,-0.1204892 0.095609,-0.094736 0.1312949,-0.2356787 0.1202088,-0.3670597 -0.00823,-0.1286704 -0.06554,-0.2565363 -0.1675996,-0.3376898 -0.045801,-0.03528 -0.096647,-0.067838 -0.153854,-0.080103 -0.032912,-0.00604 -0.066619,-0.00524 -0.099937,-0.00519 z"
       id="path4212" />
    <path
       style="fill:#808080;stroke-width:0.011696"
       d="M 4.0064739,5.6867914 C 3.9196488,5.686629 3.8278845,5.6966699 3.754939,5.7480287 3.667725,5.8039678 3.6068801,5.8955184 3.5823492,5.9955598 3.5501872,6.1240446 3.5673471,6.2662742 3.635478,6.3805246 3.7113981,6.5038939 3.8493348,6.5936702 3.9967248,6.5921802 4.1239529,6.5920369 4.2549391,6.5439404 4.3412634,6.4483279 4.4436132,6.3330201 4.4763699,6.164888 4.4348813,6.0176285 4.3997169,5.8832052 4.3028521,5.7664356 4.1759461,5.709192 4.1235163,5.6828786 4.0633067,5.6873873 4.0064739,5.6867914 Z"
       id="path4252" />
    <path
       style="fill:#808080;stroke-width:0.011696"
       d="m 6.2093985,5.1633955 c -0.1111574,0.00194 -0.2256254,0.03914 -0.3037166,0.1210366 -0.052836,0.054442 -0.089779,0.1230978 -0.1136432,0.1946661 -0.016196,0.061493 -0.011089,0.1260095 -0.010232,0.1889262 0.00251,0.084088 0.043206,0.1617756 0.092547,0.2278563 0.068625,0.089286 0.1722009,0.1523633 0.2837982,0.1690582 0.082053,0.0086 0.1671093,0.00228 0.2451375,-0.025528 C 6.4898942,6.002897 6.5619869,5.9348208 6.6093984,5.8542132 6.6535872,5.7808485 6.6576768,5.6929349 6.6580529,5.6095913 6.6585455,5.5203287 6.6333993,5.4309289 6.5824721,5.35724 6.5447211,5.2992 6.4973876,5.2448511 6.4337607,5.2146598 6.3811754,5.1863449 6.3240717,5.1624379 6.2632308,5.1636014 6.2453032,5.1629132 6.2273344,5.163028 6.2093985,5.1633911 Z"
       id="path4292" />
    <path
       style="fill:#808080;stroke-width:0.011696"
       d="M 8.4417574,5.6812109 C 8.3293575,5.6823709 8.2123174,5.7105599 8.125932,5.786008 8.033884,5.864279 7.990301,5.9863228 7.9872089,6.1047847 c -0.00681,0.1474925 0.049242,0.301911 0.1659867,0.3960923 0.05841,0.047281 0.1299737,0.082411 0.206358,0.083549 0.067971,0.0016 0.1378093,0.00225 0.2034471,-0.01777 C 8.6865631,6.524301 8.7928936,6.4291036 8.8395933,6.3060223 8.8853026,6.1914381 8.8764371,6.0601579 8.8277032,5.9480458 8.786849,5.845823 8.7066047,5.7601251 8.6059695,5.7149426 8.5599903,5.6915148 8.5088844,5.6775466 8.4569799,5.6809141 c -0.00507,9.56e-5 -0.010146,2.007e-4 -0.015223,2.968e-4 z"
       id="path4332" />
    <path
       style="fill:#808080;stroke-width:0.011696"
       d="m 6.2093985,0.44991914 c -0.1103644,0.001918 -0.2239906,0.0385295 -0.3020132,0.11931259 -0.05429,0.0552748 -0.092114,0.1255003 -0.1160462,0.19872137 -0.015379,0.0621576 -0.010532,0.127077 -0.00932,0.19049818 0.00331,0.076504 0.03792,0.14809532 0.080443,0.21032862 0.063818,0.089809 0.1626677,0.1519528 0.2685832,0.1793285 0.07958,0.014098 0.1622341,0.00737 0.2403853,-0.011893 C 6.4364697,1.3190835 6.491978,1.2772519 6.5404853,1.2320988 6.6471828,1.1264656 6.6821973,0.96409266 6.6533185,0.81961625 6.6269784,0.67958293 6.5383041,0.54728295 6.4064137,0.48743219 6.3586918,0.46213424 6.3052836,0.44848761 6.2511692,0.44975724 c -0.013925,-8.014e-5 -0.027847,-2.6753e-4 -0.041771,1.619e-4 z"
       id="path4372" />
  </g>
</svg>
