<?xml version="1.0" encoding="UTF-8" standalone="no"?>
<!-- Created with Inkscape (http://www.inkscape.org/) -->

<svg
   width="48"
   height="48"
   viewBox="0 0 12.7 12.7"
   version="1.1"
   id="svg2210"
   inkscape:version="1.1.2 (b8e25be833, 2022-02-05)"
   sodipodi:docname="Bor.svg"
   xmlns:inkscape="http://www.inkscape.org/namespaces/inkscape"
   xmlns:sodipodi="http://sodipodi.sourceforge.net/DTD/sodipodi-0.dtd"
   xmlns="http://www.w3.org/2000/svg"
   xmlns:svg="http://www.w3.org/2000/svg">
  <sodipodi:namedview
     id="namedview2212"
     pagecolor="#ffffff"
     bordercolor="#666666"
     borderopacity="1.0"
     inkscape:pageshadow="2"
     inkscape:pageopacity="0.0"
     inkscape:pagecheckerboard="0"
     inkscape:document-units="mm"
     showgrid="false"
     showguides="false"
     inkscape:zoom="11.816274"
     inkscape:cx="15.444802"
     inkscape:cy="27.12361"
     inkscape:window-width="1746"
     inkscape:window-height="1051"
     inkscape:window-x="165"
     inkscape:window-y="-9"
     inkscape:window-maximized="1"
     inkscape:current-layer="layer1"
     units="px" />
  <defs
     id="defs2207" />
  <g
     inkscape:label="Layer 1"
     inkscape:groupmode="layer"
     id="layer1">
    <path
       style="fill:#000000;stroke:none;stroke-width:0.0245701"
       d="M 4.9364334,0.88129726 4.7330419,1.249849 4.2976103,1.7658214 h -0.04914 C 4.2173889,1.6579438 4.0997718,1.5161665 4.1106809,1.4043803 4.120337,1.3054287 4.870438,0.76781713 4.6474012,0.60850658 4.556756,0.5437606 3.8190336,1.1099419 3.7088859,1.2252783 3.2914642,1.6624124 3.1795719,2.3250348 3.513578,2.8469059 4.1043418,3.7698816 5.4616441,4.0929785 6.4843506,4.1736918 6.3786256,4.2794168 6.2590918,4.4500079 6.1157988,4.5028574 5.80081,4.6189756 5.2726508,4.5176737 4.9364334,4.5176737 c -0.1653815,0 -0.4648174,-0.057371 -0.6115748,0.025258 -0.2201482,0.1239319 -0.021916,0.3208116 0.1447426,0.3390185 0.4401491,0.048108 0.9084799,0.00427 1.3513563,0.00427 C 5.7153551,4.9921213 5.6111532,5.1615812 5.4768776,5.2295183 5.3742479,5.2814588 5.2202427,5.2547766 5.1084241,5.2547766 H 4.2976103 c -0.1751112,0 -0.5056283,-0.063121 -0.657791,0.032383 -0.1684773,0.105746 -0.040517,0.3158207 0.1172486,0.333487 0.4549401,0.050958 0.9425095,0.00267 1.4004965,0.00267 C 5.0676624,5.7337864 4.9667037,5.900544 4.8377843,5.9666136 4.7194056,6.0273016 4.5256701,5.9918716 4.3958908,5.9918716 H 3.4622265 c -0.126659,0 -0.2976915,-0.029263 -0.4172252,0.018231 -0.159288,0.063292 -0.1782807,0.2889446 0,0.3396573 0.2371262,0.067469 0.5640807,0.010664 0.810347,0.010664 H 4.5187414 C 4.440977,6.4848972 4.3338022,6.6602048 4.1992316,6.7282886 4.0910248,6.7830548 3.9242674,6.7535465 3.8062081,6.7535465 h -0.835384 c -0.166831,0 -0.633867,-0.085922 -0.6692506,0.1475433 -0.03516,0.2319663 0.2777505,0.2210085 0.4235495,0.2210085 h 1.0073747 c 0.113563,0 0.3112296,-0.03742 0.4108369,0.025258 C 4.2449317,7.2112633 4.2540475,7.4093232 4.283458,7.51522 4.376652,7.8505043 4.4710753,8.1858369 4.5587661,8.522595 4.5973651,8.6708264 4.6734103,9.1161844 4.9267526,8.9377317 5.1125519,8.8068461 4.8960401,8.3493507 4.8485706,8.1786129 4.7712976,7.9005779 4.6960885,7.6218056 4.6207319,7.3432293 4.5930659,7.2409681 4.5203876,7.0794201 4.5510019,6.9746775 4.5932134,6.830377 4.7602902,6.6861508 4.862723,6.581556 4.9033374,7.0472577 5.0909302,7.6154417 5.2500708,8.0557378 5.3071472,8.2136995 5.5295067,8.3095475 5.605797,8.1044363 5.6627505,7.9512906 5.5318164,7.6910929 5.4924305,7.5397904 5.4112017,7.2278233 5.3206608,6.9183624 5.2403657,6.6061258 5.2126506,6.4983122 5.1374169,6.349442 5.1686701,6.2375741 5.2111518,6.0856328 5.3949117,5.9313077 5.5015459,5.8198818 5.5671727,6.307255 5.7320628,6.8546525 5.8957488,7.318561 5.9511297,7.475515 6.1664132,7.5656623 6.2448902,7.3667181 6.3017951,7.2224177 6.1900496,6.9930069 6.150787,6.8518266 6.0713024,6.5658556 6.0007857,6.2772053 5.9192377,5.9918732 5.8797289,5.8536413 5.7976896,5.6734194 5.8014487,5.5292174 5.8059201,5.3586523 6.0694842,5.210199 6.1403687,5.0582085 h 0.024571 C 6.2669786,5.5526329 6.3990184,6.0808169 6.5669062,6.5569611 6.6238845,6.7185834 6.855236,6.8291735 6.9270055,6.6056587 6.9693401,6.4738892 6.8718214,6.2674017 6.835457,6.1392939 6.745113,5.8209637 6.6658745,5.4994389 6.5755054,5.1810594 6.5430728,5.0668327 6.4554803,4.8814021 6.4819919,4.7633671 6.5151367,4.6157013 6.7249161,4.4736611 6.8283325,4.3702456 6.8681115,4.6657008 6.9595616,4.9988223 7.0613055,5.2793154 7.1002005,5.3865634 7.1964172,5.4808885 7.318383,5.4329766 7.451995,5.3804948 7.4337891,5.2436391 7.4038378,5.1319188 7.3237394,4.833245 7.270005,4.5069776 7.1477438,4.2228249 l 1.2285051,-0.07371 C 8.1875997,4.3295575 7.9062968,4.4588457 7.7500801,4.6672981 7.6728066,4.7703941 7.697303,4.9202961 7.8360753,4.9517461 7.9679182,4.9815989 8.0836437,4.8692156 8.1796886,4.7971016 8.3998613,4.6318186 8.6096408,4.4424079 8.8430818,4.2965352 8.8427104,4.4272972 8.8557354,4.6449634 8.7932531,4.7611561 8.7269877,4.8843997 8.5572083,4.9773235 8.4499593,5.0631228 8.1316049,5.3178166 7.6525856,5.5751142 7.4116755,5.9043791 7.3018478,6.054478 7.4335189,6.254921 7.6145756,6.1878439 7.8439381,6.1029054 8.0609413,5.8545997 8.253399,5.705631 8.4252668,5.5725836 8.5880927,5.4237877 8.7693715,5.3039093 8.7682943,5.4339841 8.7799858,5.6542302 8.7195428,5.7697839 8.6534491,5.8961477 8.4855371,5.9846985 8.3762489,6.0707672 8.0679683,6.3134714 7.5463442,6.596052 7.3345748,6.9259056 7.240987,7.0716799 7.3741328,7.2517793 7.5408652,7.1946785 7.7788027,7.1132288 8.0097374,6.8502052 8.2042584,6.6945782 8.3754633,6.5576242 8.5495423,6.4243066 8.7202309,6.2867146 8.7191538,6.4178452 8.7303539,6.6362238 8.6704032,6.7531778 8.6045547,6.8816794 8.4372574,6.9750212 8.3271093,7.0631299 8.0245277,7.3051943 7.4971062,7.5822718 7.291774,7.9105533 7.2049671,8.0493006 7.3276211,8.2334534 7.4917257,8.1842395 7.7263209,8.1138954 7.9661984,7.8383418 8.1551179,7.6872112 8.3317525,7.5458833 8.5037188,7.3894706 8.6956611,7.2695189 8.6853869,7.3996419 8.7070861,7.6202325 8.645833,7.7341398 8.5835721,7.8499636 8.4277482,7.9359338 8.3271093,8.0164502 8.0159779,8.2653455 7.5048454,8.5344377 7.28541,8.8675341 7.1852373,9.019599 7.3142061,9.2064297 7.4917257,9.1431864 7.7254119,9.0599184 7.9606461,8.7934068 8.1551179,8.6402611 8.3280918,8.5040685 8.4996895,8.365911 8.6710904,8.2277535 c 0,0.1320155 0.04037,0.3444972 -0.025258,0.4626307 C 8.5826629,8.8041187 8.4270601,8.8901148 8.3271093,8.9697462 8.0155599,9.217978 7.5012832,9.4888632 7.2854342,9.825179 c -0.09317,0.1451847 0.039459,0.327004 0.2062915,0.2687 0.2427524,-0.08481 0.486635,-0.3614273 0.6879629,-0.5199541 0.172973,-0.1361916 0.3445708,-0.2743497 0.5159725,-0.4125068 0,0.1309579 0.033906,0.3171503 -0.014817,0.44005 C 8.6365944,9.7130899 8.4914589,9.7890855 8.4008195,9.8597982 8.1942336,10.021004 7.9911869,10.186925 7.786567,10.350613 c -0.130566,0.104447 -0.5287496,0.31688 -0.4131959,0.528035 0.1087226,0.198674 0.3233672,0.02973 0.4377657,-0.06122 0.2537112,-0.201721 0.5085767,-0.401918 0.7616734,-0.604401 0.083121,-0.06648 0.2079862,-0.211893 0.3194112,-0.2203446 0.1091163,-0.00832 0.238502,0.1310816 0.3194121,0.1914986 0.2605162,0.194523 0.5259719,0.382533 0.7862431,0.577423 0.1127274,0.0844 0.4524104,0.378724 0.5297814,0.09408 0.06351,-0.233714 -0.350788,-0.436 -0.505211,-0.54659 C 9.7995221,10.149438 9.5785638,9.985997 9.3590541,9.8216961 9.2743356,9.7583038 9.1429108,9.6932194 9.0894707,9.5991646 9.0260548,9.4875666 9.0642124,9.2864847 9.0642124,9.1614243 9.249201,9.3040034 9.44129,9.4376901 9.6293244,9.5762654 9.8435762,9.7342014 10.110039,10.020125 10.366428,10.097005 10.5267,10.145068 10.660926,9.9676431 10.569231,9.8270284 10.482645,9.6942941 10.296945,9.5961604 10.169868,9.5053986 9.9215624,9.3280513 9.6783921,9.1430642 9.4327646,8.9620069 9.3192502,8.8783453 9.1354409,8.7917353 9.064901,8.6657401 8.9990525,8.548148 9.0396421,8.3348055 9.0396421,8.2031837 c 0.1897553,0.13629 0.3781102,0.274546 0.565113,0.414571 0.2199275,0.1646934 0.4784539,0.4281831 0.7371039,0.5228518 0.160591,0.058772 0.315898,-0.091941 0.224251,-0.2490913 C 10.491836,8.7641187 10.334513,8.6842905 10.219008,8.5991551 9.9571151,8.4061079 9.6965246,8.2112172 9.4327646,8.0207748 9.3166955,7.9369414 9.1329847,7.8407989 9.064901,7.7108226 9.0006989,7.588267 9.0396421,7.3803059 9.0396421,7.2449491 9.2020268,7.325809 9.3514376,7.5170139 9.5310448,7.5527143 9.6969174,7.5856874 9.7980234,7.4051459 9.7093751,7.27173 9.5623712,7.0505749 9.2135985,6.9895914 9.0894708,6.7525882 9.0135494,6.6076488 9.0855891,6.3924637 9.0888207,6.2375741 c 0.3761443,0.3254557 0.8107646,0.639192 1.2285063,0.9096344 0.138206,0.08946 0.405726,0.05118 0.325357,-0.1721623 C 10.591039,6.831458 10.386025,6.7262001 10.268186,6.6411139 10.004377,6.4506213 9.7438598,6.255805 9.4819423,6.0627336 9.3755784,5.9843299 9.2067332,5.9046494 9.1386494,5.7879414 9.0556509,5.6456802 9.1379065,5.3881606 9.1379993,5.230199 9.3310958,5.379021 9.5319566,5.5179642 9.7276821,5.6633707 9.9488131,5.8276461 10.204981,6.0935438 10.464785,6.1879181 10.632403,6.2488021 10.778669,6.077328 10.683361,5.9226835 10.612501,5.8077445 10.448963,5.7239363 10.341935,5.6450413 10.080165,5.4520925 9.8162572,5.2619685 9.5556907,5.0673973 9.4492534,4.9879379 9.2544613,4.8983311 9.1982454,4.7728271 9.1375815,4.6373719 9.2113159,4.4170023 9.2117097,4.2719645 c 0.3512541,0.2389199 0.6908872,0.4992403 1.0319453,0.7525828 0.109362,0.081229 0.264669,0.2436616 0.415038,0.1804681 0.223391,-0.093858 0.04329,-0.3085277 -0.07115,-0.395628 C 10.227684,4.5355526 9.8053726,4.1147652 9.3837002,3.9525533 V 3.9034127 C 9.754684,3.7965334 10.054759,3.4717167 10.235989,3.1417399 10.405593,2.7749247 10.561416,2.4656738 10.269249,2.4639841 10.132629,2.438924 9.8465028,3.0620342 9.740827,3.19088 9.523676,3.4556968 9.2078029,3.6320612 8.8677278,3.6822817 9.0031831,3.5272444 9.4092775,3.2414451 9.3776065,3.0192576 9.3306538,2.6895275 8.739619,2.5367012 8.7394964,2.1589355 8.7394035,1.780882 9.3305303,1.6292333 9.3776065,1.2986227 9.4100883,1.070681 9.0004064,0.79851501 8.8677278,0.63558801 9.4175823,0.74938468 9.8259622,1.0914081 10.031983,1.6183933 c 0.06423,0.1643023 0.07867,0.429958 0.101996,0.7926593 C 9.9566773,2.9469831 10.492246,3.019367 10.495498,2.109795 10.48995,1.7889193 10.38965,1.517331 10.268224,1.2252708 c 0.371353,-0.1569884 0.785482,-0.50601099 1.105189,-0.75577642 0.115135,-0.0899512 0.188036,-0.2914018 0,-0.35514881 -0.13118,-0.04446807 -0.290247,0.0978583 -0.392655,0.16338297 -0.318281,0.20367279 -0.606169,0.4661029 -0.933665,0.65270089 C 9.8440706,0.53905745 9.3648062,0.37586014 8.9660079,0.27082885 7.9695916,0.00840142 6.8509392,0.04331153 5.8456034,0.23291176 5.5234896,0.29366208 4.6362325,0.53446855 4.3833252,0.73836954 4.3479581,1.155234 4.4520703,0.91319177 4.9365095,0.88128976 M 8.1060544,0.48816735 C 8.041533,0.57977273 7.829223,0.90077809 7.710746,0.90077809 c -0.1458236,0 -0.3337363,-0.32235961 -0.3909356,-0.43718052 l 0.786244,0.0245699 M 6.5335673,0.51273837 C 6.468038,0.60687091 6.322485,0.86404594 6.2096346,0.89461662 6.0801747,0.92968557 5.9078647,0.69934992 5.8456034,0.61101823 L 6.5335673,0.51273806 M 6.9758293,0.61101823 7.5163716,1.2744114 6.9758293,1.8395243 H 6.9512586 C 6.7974006,1.6856709 6.5178668,1.4632519 6.5055328,1.2252708 6.4937391,0.99765603 6.8103244,0.72760827 6.9758293,0.61101823 m 1.4987768,0.0737107 0.466832,0.56511297 v 0.02457 L 8.4746061,1.8395247 C 8.298954,1.7576169 8.0046039,1.4844954 7.9913857,1.2744114 7.9781666,1.0648873 8.3046298,0.76398935 8.4746061,0.68472861 M 5.9930241,1.2252708 5.501622,1.8395243 C 5.2085743,1.6153808 5.0527507,1.3424487 5.284324,1.0287106 5.3322112,0.96382491 5.4087963,0.83738308 5.5012782,0.83723071 5.6324088,0.83704506 5.8804932,1.1443645 5.9930241,1.2252708 M 6.2387259,1.5446829 6.5827069,1.9623743 6.7250415,2.1589355 6.5827812,2.3554968 6.2387259,2.7731882 C 6.0756781,2.6583476 5.7640555,2.3792921 5.7640555,2.1589355 c 0,-0.21776 0.3129989,-0.5003481 0.4746704,-0.6142526 m 1.4742069,0.02457 0.4863156,0.5896827 -0.4863156,0.5896828 H 7.6883621 C 7.5424895,2.6027456 7.3030541,2.420698 7.2567635,2.208076 7.2055837,1.9729319 7.5465681,1.6864353 7.7129328,1.5692528 M 4.8873692,1.6429635 5.2508841,2.1589359 4.8873692,2.6749084 c -0.4546946,-0.3203204 -0.4546946,-0.7116245 0,-1.0319449 m -1.0565148,0.073711 0.2251113,0.4422621 -0.2251113,0.442262 h -0.049141 c -0.119853,-0.3111166 -0.119853,-0.5734075 0,-0.8845241 h 0.049141 M 5.501622,2.4783467 5.9930241,3.0926003 c -0.1192626,0.085749 -0.3499273,0.388035 -0.4913774,0.388035 -0.093096,0 -0.1689688,-0.126831 -0.2179369,-0.1914751 C 5.0483281,2.9783977 5.2111542,2.7005095 5.501622,2.4783467 m 1.4742073,0 0.5405423,0.565113 -0.5405423,0.6633927 H 6.9512586 C 6.8035185,3.5591123 6.5696355,3.3800456 6.5193898,3.1663103 6.4588002,2.9085449 6.7916756,2.6080528 6.9758293,2.4783467 m 1.4987768,0 0.466832,0.565113 v 0.02457 L 8.4746061,3.6331421 C 8.3028116,3.5530186 7.9779214,3.2559902 7.9913857,3.0434597 8.0044814,2.8363334 8.301141,2.5592317 8.4746061,2.4783467 m -4.1769195,0.07371 0.6388229,0.8845238 C 4.7346168,3.3886197 4.1379562,3.1553276 4.1043935,2.9202402 4.0879314,2.8050561 4.2054995,2.6554234 4.2485463,2.5520571 h 0.04914 m 2.2358812,1.2530755 -0.6879639,-0.09828 c 0.062261,-0.08833 0.2345713,-0.3186747 0.3640312,-0.2835881 0.1128504,0.030565 0.2584036,0.28774 0.3239327,0.3818683 m 1.5724871,0.02457 -0.786244,0.024571 c 0.05629,-0.1129739 0.2484041,-0.437176 0.3910089,-0.437176 0.1146445,0 0.3320406,0.322876 0.3952351,0.4126053 M 3.3640222,7.8592017 C 3.2716381,7.9659584 3.1795989,8.1604312 3.0436524,8.212938 2.9319567,8.256058 2.7696711,8.2277535 2.6514888,8.2277535 H 1.791535 c -0.1315067,0 -0.3201732,-0.033047 -0.4395889,0.032383 -0.1611995,0.08833 -0.096885,0.3062172 0.071057,0.332532 0.4363504,0.06833 0.9338141,0.00364 1.3759066,0.00364 C 2.7344127,8.7120368 2.6423979,8.8969753 2.5241175,8.964175 2.4331825,9.015846 2.2855392,8.989433 2.1846567,8.989433 c -0.283141,0 -0.742892,-0.088772 -1.0062934,0.014817 -0.1401725,0.055135 -0.1512733,0.2429497 -0.021008,0.3150863 0.1497672,0.082975 0.3949351,0.038652 0.5604689,0.038652 h 0.4914021 v 0.024576 C 1.8723457,9.4323198 1.437521,9.5781887 1.1282545,9.7217028 1.0005539,9.7809648 0.91878204,9.9522687 1.05807,10.052196 1.242213,10.184285 1.7591978,9.8966664 1.9635252,9.8493934 1.8256334,10.057773 1.6984019,10.273621 1.5704236,10.488217 c -0.050771,0.08513 -0.1294796,0.189093 -0.1045188,0.294375 0.036772,0.155136 0.2160401,0.170885 0.3163205,0.06857 C 1.9527689,10.677156 2.1062166,10.3646 2.2092267,10.14423 h 0.02457 c 0,0.247052 -0.056259,0.572951 0.014067,0.810445 0.04132,0.139509 0.2168681,0.193858 0.3116842,0.06848 0.070688,-0.09352 0.042801,-0.253024 0.042801,-0.36295 V 9.7511088 h 0.02457 c 0.023293,0.2672252 0.1148899,0.6667852 0.2371507,0.9064412 0.072359,0.141868 0.2894851,0.138232 0.3355296,-0.02299 0.034374,-0.120392 -0.038797,-0.276757 -0.070861,-0.39204 -0.1251111,-0.4501735 -0.442729,-1.0239596 -0.010418,-1.3759268 0.036265,0.4158485 0.196266,0.9637136 0.3537851,1.3509888 0.059411,0.14607 0.2941533,0.217076 0.3479865,0.02386 C 3.8603372,10.09711 3.7666513,9.8908193 3.7288636,9.7511129 3.6246127,9.3657456 3.4073639,8.9003883 3.3929412,8.5022048 3.3876591,8.3560127 3.5784702,8.2124003 3.6342934,8.0803365 c 0.1721137,0.3887978 0.244276,0.8434674 0.358134,1.2530749 0.036438,0.1311069 0.055602,0.3721392 0.231647,0.3848423 0.2600255,0.01875 0.1750129,-0.2925321 0.1382069,-0.433982 C 4.2489394,8.8488649 4.1240495,8.4163572 4.0065552,7.9820563 3.9701177,7.8473625 3.9555231,7.6035533 3.825326,7.523037 3.703925,7.4479504 3.477143,7.4906537 3.339452,7.4906537 H 2.1354403 c -0.1494526,0 -0.4351538,-0.035749 -0.4129719,0.1965612 0.01869,0.1957255 0.2465438,0.1719906 0.3884017,0.1719906 h 1.253076 M 10.049695,7.6317596 C 9.7255909,7.7687871 10.300581,8.2829413 10.5124,8.1738499 10.828937,8.0108031 10.270237,7.5385164 10.049695,7.6317596 M 8.7202309,11.053321 c -0.1423104,0.255628 -0.3230236,0.492115 -0.4829502,0.737103 -0.063195,0.0968 -0.1723351,0.223244 -0.174497,0.343884 -0.00309,0.173341 0.195627,0.216683 0.3089446,0.11602 0.1783053,-0.158453 0.3528514,-0.463295 0.4467828,-0.681035 h 0.024571 c 0.00604,0.293368 0.043784,0.622828 0.1100496,0.90907 0.024471,0.10575 0.1105652,0.218305 0.2334652,0.177274 0.110983,-0.03708 0.1273464,-0.149411 0.121106,-0.25096 -0.015627,-0.253637 -0.064202,-0.509609 -0.096068,-0.761673 0.1735626,0.188576 0.3126795,0.471746 0.5201735,0.621452 0.1146196,0.0827 0.3041286,0.03315 0.3011566,-0.130075 -0.0023,-0.125701 -0.1341046,-0.251818 -0.2071509,-0.343957 -0.1800743,-0.227101 -0.3806157,-0.446242 -0.5404689,-0.687963 0.2178381,0.188502 0.479805,0.415383 0.7371038,0.546145 0.114472,0.05818 0.269755,0.01619 0.283711,-0.128821 C 10.327437,11.298826 9.8788849,11.08337 9.7276067,10.970421 9.5496943,10.83757 9.1497668,10.417175 8.9167929,10.451943 c -0.11145,0.01663 -0.2093374,0.120786 -0.2948414,0.18661 -0.2238836,0.172334 -0.4427785,0.351303 -0.6633933,0.52779 -0.094717,0.07577 -0.2386738,0.159338 -0.2796322,0.280124 -0.043882,0.129362 0.074153,0.256979 0.205922,0.227322 0.160467,-0.03611 0.3171267,-0.215749 0.4422621,-0.315799 0.1294348,-0.103514 0.2599758,-0.205996 0.3931215,-0.304669 m 0.02457,-0.02457 -0.02457,0.02457 z"
       id="path2324"
       sodipodi:nodetypes="ccccssccccsccccssccccssccsccsscssccscccccccccccscccccccccccccccccccccccccccccscccccccccccccccccccccscsscccccccccccscscccccccccccccccccscccccccccccccccccccccccccccccccccccsccccccccccccccccccccccccccccscccccccccccccccccccscccccccccccccccccccccccccscccssccccsccscccccsccccccsccccccscccccccccsscscccccscccccccccccccccscscsccccc" />
  </g>
</svg>
