<?xml version="1.0" encoding="UTF-8" standalone="no"?>
<!-- Created with Inkscape (http://www.inkscape.org/) -->

<svg
   width="48"
   height="48"
   viewBox="0 0 12.7 12.7"
   version="1.1"
   id="svg2210"
   inkscape:version="1.1.2 (b8e25be833, 2022-02-05)"
   sodipodi:docname="Bor_0.svg"
   xmlns:inkscape="http://www.inkscape.org/namespaces/inkscape"
   xmlns:sodipodi="http://sodipodi.sourceforge.net/DTD/sodipodi-0.dtd"
   xmlns="http://www.w3.org/2000/svg"
   xmlns:svg="http://www.w3.org/2000/svg">
  <sodipodi:namedview
     id="namedview2212"
     pagecolor="#ffffff"
     bordercolor="#666666"
     borderopacity="1.0"
     inkscape:pageshadow="2"
     inkscape:pageopacity="0.0"
     inkscape:pagecheckerboard="0"
     inkscape:document-units="mm"
     showgrid="false"
     showguides="false"
     inkscape:zoom="11.816274"
     inkscape:cx="12.398156"
     inkscape:cy="25.3464"
     inkscape:window-width="1746"
     inkscape:window-height="1051"
     inkscape:window-x="165"
     inkscape:window-y="-9"
     inkscape:window-maximized="1"
     inkscape:current-layer="layer1"
     units="px" />
  <defs
     id="defs2207">
    <inkscape:path-effect
       effect="fill_between_many"
       method="originald"
       linkedpaths="#path2324,0,1"
       id="path-effect4671"
       is_visible="true"
       lpeversion="0"
       join="true"
       close="true"
       autoreverse="true"
       applied="false" />
  </defs>
  <g
     inkscape:label="Layer 1"
     inkscape:groupmode="layer"
     id="layer1">
    <path
       d="M 4.9852431,0.8597201 4.7816444,1.2286474 4.3457691,1.7451457 h -0.04919 C 4.2654659,1.6371581 4.1477289,1.4952363 4.1586491,1.3833362 4.168315,1.2842837 4.9191805,0.74612432 4.6959165,0.58665139 4.6051788,0.52183942 3.8667046,1.0885977 3.7564446,1.2040516 3.3385975,1.6416313 3.2265911,2.3049291 3.5609376,2.827332 4.1523035,3.7512485 5.5109892,4.0746747 6.5347381,4.1554702 6.4289052,4.2613029 6.3092497,4.4320679 6.1658107,4.4849712 c -0.31531,0.1162366 -0.8440075,0.014831 -1.1805676,0.014831 -0.1655499,0 -0.4652911,-0.05743 -0.612198,0.025284 C 4.1526724,4.6491443 4.3511071,4.8462247 4.5179352,4.86445 4.9585328,4.912607 5.4273411,4.86873 5.8706689,4.86873 5.7649587,4.9747337 5.6606507,5.1443664 5.5262382,5.2123727 5.423504,5.2643662 5.2693418,5.2376567 5.1574092,5.2376567 H 4.3457691 c -0.1752898,0 -0.5061437,-0.063185 -0.6584615,0.032417 -0.1686491,0.1058569 -0.040558,0.3161458 0.1173681,0.3338301 0.4554038,0.05101 0.9434702,0.00267 1.4019238,0.00267 C 5.1166059,5.7171565 5.0155444,5.8840841 4.8864936,5.950221 4.7679942,6.010971 4.5740613,5.9755047 4.4441497,5.9755047 H 3.5095338 c -0.126788,0 -0.2979949,-0.029293 -0.4176504,0.018249 -0.1594504,0.063356 -0.1784625,0.289239 0,0.3400035 0.2373678,0.067538 0.5646556,0.010675 0.8111728,0.010675 H 4.5671255 C 4.4892817,6.4690312 4.3819978,6.6445175 4.2472901,6.7126705 4.138973,6.7674926 3.9720457,6.7379542 3.853866,6.7379542 H 3.0176306 c -0.1670011,0 -0.6345131,-0.086009 -0.6699327,0.1476937 -0.035195,0.2322028 0.2780335,0.2212337 0.4239811,0.2212337 h 1.0084015 c 0.1136787,0 0.3115468,-0.037458 0.4112556,0.025284 0.1017006,0.063972 0.1108257,0.2622338 0.1402661,0.3682385 0.09329,0.3356261 0.1878087,0.6713005 0.2755888,1.0084018 C 4.64583,8.6571884 4.7219521,9.1030004 4.9755526,8.9243657 5.1615412,8.7933465 4.9448087,8.3353849 4.8972909,8.1644731 4.8199391,7.8861547 4.7446533,7.6070983 4.6692199,7.328238 4.6415258,7.2258726 4.5687734,7.0641599 4.5994189,6.9593107 4.6416734,6.8148631 4.8089205,6.6704899 4.9114577,6.5657884 4.9521133,7.0319648 5.1398975,7.6007279 5.2992003,8.0414728 5.3563351,8.1995954 5.578921,8.2955412 5.6552889,8.0902204 5.7123006,7.9369192 5.581233,7.6764562 5.541807,7.5249996 5.4604954,7.2127143 5.3698621,6.902938 5.2894853,6.5903833 5.2617419,6.4824599 5.1864315,6.3334379 5.2177166,6.2214559 5.2602415,6.0693598 5.4441887,5.9148775 5.5509317,5.8033379 c 0.065694,0.48787 0.2307517,1.0358254 0.3946046,1.5002067 0.055437,0.1571141 0.2709403,0.2473531 0.3494973,0.048206 C 6.3519965,7.2073033 6.2401372,6.9776587 6.2008345,6.8363346 6.1212689,6.550072 6.0506803,6.2611276 5.9690491,5.9755047 5.9295001,5.8371319 5.8473771,5.6567263 5.8511402,5.5123773 5.8556161,5.3416384 6.1194488,5.1930338 6.1904055,5.0408884 h 0.024596 C 6.3171444,5.5358167 6.449319,6.0645389 6.6173778,6.5411685 6.6744139,6.7029555 6.9060015,6.8136584 6.9778442,6.5899161 7.0202218,6.4580119 6.9226037,6.2513141 6.8862024,6.1230756 6.7957662,5.8044209 6.7164469,5.4825685 6.6259857,5.1638645 6.5935201,5.0495214 6.5058383,4.8639018 6.5323769,4.7457465 6.5655555,4.5979301 6.7755487,4.4557452 6.8790706,4.3522242 6.9188901,4.6479806 7.0104334,4.9814417 7.112281,5.2622207 7.1512155,5.3695779 7.2475304,5.4639992 7.3696205,5.4160383 7.5033687,5.363503 7.4851442,5.226508 7.4551624,5.1146738 7.3749824,4.8156956 7.3211931,4.4890957 7.1988074,4.2046533 L 8.4285646,4.1308678 C 8.239723,4.3114947 7.9581335,4.4409146 7.8017576,4.6495795 7.7244053,4.7527806 7.7489267,4.9028354 7.8878404,4.9343175 8.0198176,4.9642008 8.1356611,4.8517029 8.2318039,4.7795154 8.452201,4.614064 8.6621943,4.4244601 8.8958733,4.2784388 8.8955014,4.409334 8.9085398,4.6272222 8.8459938,4.7435331 8.7796608,4.8669025 8.6097083,4.959921 8.50235,5.0458077 8.1836711,5.3007611 7.7041636,5.5583209 7.4630081,5.8879215 7.3530685,6.0381733 7.4848737,6.2388205 7.666115,6.171675 7.8957113,6.08665 8.1129357,5.8380913 8.3055894,5.6889707 8.4776325,5.5557878 8.6406243,5.4068402 8.8220878,5.2868397 8.8210095,5.4170469 8.8327129,5.6375174 8.7722083,5.7531889 8.7060473,5.8796816 8.5379641,5.9683227 8.4285646,6.054479 8.1199698,6.2974305 7.597814,6.5802992 7.3858288,6.9104891 7.2921456,7.0564119 7.425427,7.2366947 7.5923295,7.1795358 7.8305095,7.0980032 8.0616795,6.8347115 8.2563988,6.6789259 8.4277781,6.5418323 8.6020346,6.4083788 8.7728972,6.2706466 8.7718188,6.4019108 8.7830305,6.620512 8.7230187,6.7375852 8.6571031,6.8662178 8.4896352,6.9596546 8.3793748,7.0478532 8.0764849,7.2901643 7.5485258,7.5675242 7.3429844,7.8961403 7.256089,8.0350289 7.3788681,8.2193694 7.5431399,8.1701054 7.7779742,8.0996897 8.0180961,7.8238551 8.2072082,7.6725705 8.3840227,7.5310985 8.5561644,7.3745265 8.7483023,7.2544526 8.7380175,7.3847082 8.7597389,7.6055235 8.6984233,7.7195469 8.6360991,7.8354889 8.4801163,7.9215467 8.3793748,8.002145 8.0679263,8.2512941 7.556273,8.5206605 7.3366139,8.8540965 7.2363391,9.0063162 7.3654393,9.1933375 7.5431399,9.1300297 7.7770641,9.0466768 8.0125381,8.7798937 8.2072082,8.6265918 8.3803584,8.4902604 8.5521309,8.351962 8.7237065,8.2136637 c 0,0.1321501 0.040411,0.3448484 -0.025284,0.4631023 C 8.635189,8.7906163 8.4794275,8.8767002 8.3793748,8.9564126 8.067508,9.2048975 7.552707,9.4760588 7.3366381,9.8127164 7.243373,9.9580501 7.3761377,10.140055 7.5431399,10.081691 7.7861397,9.9967907 8.0302708,9.7198956 8.2318039,9.5612072 8.4049532,9.4248758 8.5767258,9.2865779 8.7483023,9.14828 c 0,0.1310914 0.033941,0.3174735 -0.014832,0.4404985 C 8.6891753,9.700514 8.5438918,9.7765872 8.4531601,9.8473719 8.2463637,10.008742 8.04311,10.174832 7.8382815,10.338685 7.7075825,10.44324 7.3089931,10.655889 7.4246646,10.86726 7.533498,11.066136 7.7483613,10.89702 7.8628764,10.80597 8.1168461,10.604044 8.3719715,10.403642 8.625326,10.200954 8.708532,10.134404 8.8335242,9.9888447 8.9450627,9.9803845 c 0.1092277,-0.00833 0.2387452,0.1312145 0.3197377,0.1916945 0.2607818,0.19472 0.5265081,0.382922 0.7870446,0.57801 0.112843,0.08449 0.452871,0.37911 0.530321,0.09418 0.06358,-0.233949 -0.351145,-0.436441 -0.505725,-0.547144 C 9.8532882,10.137307 9.6321047,9.9736994 9.4123714,9.8092309 9.3275665,9.7457741 9.1960077,9.6806233 9.1425132,9.5864727 9.0790327,9.4747609 9.1172292,9.2734741 9.1172292,9.1482862 9.3024064,9.2910106 9.494691,9.4248336 9.6829172,9.5635501 9.8973872,9.7216471 10.164122,10.007862 10.420772,10.084821 10.581207,10.132933 10.71557,9.9553267 10.62378,9.8145687 10.537108,9.6816991 10.351217,9.5834654 10.224012,9.4926111 9.975453,9.3150831 9.7320348,9.1299063 9.486157,8.9486655 9.372527,8.8649186 9.1885304,8.7782204 9.1179185,8.6520967 9.0520028,8.5343849 9.0926339,8.3208248 9.0926339,8.1890688 9.2825826,8.3254979 9.4711295,8.4638948 9.6583229,8.6040625 9.8784745,8.7689236 10.137264,9.032682 10.396178,9.1274472 10.556933,9.186279 10.712398,9.0354122 10.620658,8.878102 10.546308,8.7505756 10.388824,8.670666 10.273201,8.585444 10.011042,8.3921999 9.7501859,8.1971107 9.486157,8.0064741 9.3699697,7.9225552 9.1860716,7.8263148 9.1179185,7.6962061 9.053651,7.5735256 9.0926339,7.3653524 9.0926339,7.2298577 9.2551841,7.3108 9.4047471,7.5021997 9.5845374,7.5379365 9.750579,7.5709432 9.8517881,7.3902178 9.7630494,7.2566659 9.6158958,7.0352853 9.2667677,6.9742397 9.1425134,6.7369949 9.0665145,6.5919078 9.1386277,6.3765035 9.1418627,6.2214559 9.5183902,6.5472433 9.9534536,6.8612993 10.371621,7.1320175 10.509969,7.2215687 10.777761,7.1832495 10.69731,6.9596797 10.645612,6.8159452 10.440389,6.71058 10.32243,6.6254071 10.058352,6.4347204 9.7975694,6.2397055 9.5353848,6.0464373 9.4289126,5.9679537 9.2598952,5.8881919 9.1917421,5.771365 9.1086589,5.6289588 9.1909984,5.3711768 9.1910914,5.2130542 9.3843847,5.3620278 9.5854502,5.5011127 9.7813752,5.6466674 10.002732,5.8111102 10.259161,6.0772789 10.51923,6.1717493 10.687018,6.2326955 10.833433,6.0610466 10.738029,5.9062444 10.667096,5.7911883 10.503391,5.7072946 10.396254,5.6283193 10.134217,5.4351738 9.8700404,5.244856 9.6092084,5.0500866 9.5026627,4.970546 9.3076719,4.8808481 9.2513989,4.7552162 9.190673,4.6196229 9.2644827,4.3990287 9.2648768,4.253843 9.616489,4.4930065 9.9564682,4.7535921 10.297873,5.0071929 c 0.109473,0.081311 0.26494,0.24391 0.415462,0.1806519 0.223619,-0.093953 0.04334,-0.308842 -0.07123,-0.3960311 C 10.281887,4.5176999 9.8591448,4.0964836 9.4370427,3.9341063 V 3.8849157 C 9.8084046,3.7779274 10.108786,3.4527795 10.2902,3.1224665 10.459976,2.7552775 10.615959,2.4457114 10.323494,2.44402 10.186735,2.4189343 9.9003168,3.0426796 9.7945334,3.1716568 9.5771611,3.4367434 9.2609661,3.6132875 8.9205443,3.6635592 9.0561376,3.5083638 9.4626461,3.2222733 9.4309428,2.9998594 9.3839422,2.6697932 8.7923049,2.5168112 8.7921822,2.1386605 8.7920892,1.7602216 9.3838186,1.6084183 9.4309428,1.2774708 9.4634576,1.0492968 9.0533582,0.77685347 8.9205443,0.61376042 9.4709594,0.72767308 9.8797555,1.0700451 10.085986,1.5975673 c 0.06429,0.1644698 0.07875,0.4303963 0.1021,0.7934671 -0.177482,0.5364768 0.358633,0.6089345 0.361888,-0.3015646 C 10.54442,1.7682672 10.444017,1.496402 10.322468,1.2040441 10.6942,1.0468958 11.108751,0.6975175 11.428783,0.44749751 c 0.115253,-0.0900429 0.188228,-0.2916988 0,-0.35551078 C 11.29747,0.04747334 11.13824,0.18994477 11.035728,0.25553622 10.717123,0.4594166 10.428941,0.72211418 10.101112,0.90890235 9.8978821,0.51713148 9.4181292,0.35376783 9.0189244,0.2486295 8.0214926,-0.0140654 6.9017001,0.0208803 5.8953397,0.21067377 5.5728974,0.271486 4.6847361,0.5125379 4.4315711,0.71664671 4.3961679,1.1339359 4.5003863,0.89164712 4.9853192,0.85971259 Z"
       id="path4673"
       style="fill:#808080;stroke-width:0.0929581"
       inkscape:original-d="M 0.95729572,-0.0538439"
       inkscape:path-effect="#path-effect4671" />
    <path
       style="fill:#000000;stroke:none;stroke-width:0.0245951"
       d="M 4.9852431,0.8597201 4.7816444,1.2286474 4.3457691,1.7451457 h -0.04919 C 4.2654659,1.6371581 4.1477289,1.4952363 4.1586491,1.3833362 4.168315,1.2842837 4.9191805,0.74612432 4.6959165,0.58665139 4.6051788,0.52183942 3.8667046,1.0885977 3.7564446,1.2040516 3.3385975,1.6416313 3.2265911,2.3049291 3.5609376,2.827332 4.1523035,3.7512485 5.5109892,4.0746747 6.5347381,4.1554702 6.4289052,4.2613029 6.3092497,4.4320679 6.1658107,4.4849712 c -0.31531,0.1162366 -0.8440075,0.014831 -1.1805676,0.014831 -0.1655499,0 -0.4652911,-0.05743 -0.612198,0.025284 C 4.1526724,4.6491443 4.3511071,4.8462247 4.5179352,4.86445 4.9585328,4.912607 5.4273411,4.86873 5.8706689,4.86873 5.7649587,4.9747337 5.6606507,5.1443664 5.5262382,5.2123727 5.423504,5.2643662 5.2693418,5.2376567 5.1574092,5.2376567 H 4.3457691 c -0.1752898,0 -0.5061437,-0.063185 -0.6584615,0.032417 -0.1686491,0.1058569 -0.040558,0.3161458 0.1173681,0.3338301 0.4554038,0.05101 0.9434702,0.00267 1.4019238,0.00267 C 5.1166059,5.7171565 5.0155444,5.8840841 4.8864936,5.950221 4.7679942,6.010971 4.5740613,5.9755047 4.4441497,5.9755047 H 3.5095338 c -0.126788,0 -0.2979949,-0.029293 -0.4176504,0.018249 -0.1594504,0.063356 -0.1784625,0.289239 0,0.3400035 0.2373678,0.067538 0.5646556,0.010675 0.8111728,0.010675 H 4.5671255 C 4.4892817,6.4690312 4.3819978,6.6445175 4.2472901,6.7126705 4.138973,6.7674926 3.9720457,6.7379542 3.853866,6.7379542 H 3.0176306 c -0.1670011,0 -0.6345131,-0.086009 -0.6699327,0.1476937 -0.035195,0.2322028 0.2780335,0.2212337 0.4239811,0.2212337 h 1.0084015 c 0.1136787,0 0.3115468,-0.037458 0.4112556,0.025284 0.1017006,0.063972 0.1108257,0.2622338 0.1402661,0.3682385 0.09329,0.3356261 0.1878087,0.6713005 0.2755888,1.0084018 C 4.64583,8.6571884 4.7219521,9.1030004 4.9755526,8.9243657 5.1615412,8.7933465 4.9448087,8.3353849 4.8972909,8.1644731 4.8199391,7.8861547 4.7446533,7.6070983 4.6692199,7.328238 4.6415258,7.2258726 4.5687734,7.0641599 4.5994189,6.9593107 4.6416734,6.8148631 4.8089205,6.6704899 4.9114577,6.5657884 4.9521133,7.0319648 5.1398975,7.6007279 5.2992003,8.0414728 5.3563351,8.1995954 5.578921,8.2955412 5.6552889,8.0902204 5.7123006,7.9369192 5.581233,7.6764562 5.541807,7.5249996 5.4604954,7.2127143 5.3698621,6.902938 5.2894853,6.5903833 5.2617419,6.4824599 5.1864315,6.3334379 5.2177166,6.2214559 5.2602415,6.0693598 5.4441887,5.9148775 5.5509317,5.8033379 c 0.065694,0.48787 0.2307517,1.0358254 0.3946046,1.5002067 0.055437,0.1571141 0.2709403,0.2473531 0.3494973,0.048206 C 6.3519965,7.2073033 6.2401372,6.9776587 6.2008345,6.8363346 6.1212689,6.550072 6.0506803,6.2611276 5.9690491,5.9755047 5.9295001,5.8371319 5.8473771,5.6567263 5.8511402,5.5123773 5.8556161,5.3416384 6.1194488,5.1930338 6.1904055,5.0408884 h 0.024596 C 6.3171444,5.5358167 6.449319,6.0645389 6.6173778,6.5411685 6.6744139,6.7029555 6.9060015,6.8136584 6.9778442,6.5899161 7.0202218,6.4580119 6.9226037,6.2513141 6.8862024,6.1230756 6.7957662,5.8044209 6.7164469,5.4825685 6.6259857,5.1638645 6.5935201,5.0495214 6.5058383,4.8639018 6.5323769,4.7457465 6.5655555,4.5979301 6.7755487,4.4557452 6.8790706,4.3522242 6.9188901,4.6479806 7.0104334,4.9814417 7.112281,5.2622207 7.1512155,5.3695779 7.2475304,5.4639992 7.3696205,5.4160383 7.5033687,5.363503 7.4851442,5.226508 7.4551624,5.1146738 7.3749824,4.8156956 7.3211931,4.4890957 7.1988074,4.2046533 L 8.4285646,4.1308678 C 8.239723,4.3114947 7.9581335,4.4409146 7.8017576,4.6495795 7.7244053,4.7527806 7.7489267,4.9028354 7.8878404,4.9343175 8.0198176,4.9642008 8.1356611,4.8517029 8.2318039,4.7795154 8.452201,4.614064 8.6621943,4.4244601 8.8958733,4.2784388 8.8955014,4.409334 8.9085398,4.6272222 8.8459938,4.7435331 8.7796608,4.8669025 8.6097083,4.959921 8.50235,5.0458077 8.1836711,5.3007611 7.7041636,5.5583209 7.4630081,5.8879215 7.3530685,6.0381733 7.4848737,6.2388205 7.666115,6.171675 7.8957113,6.08665 8.1129357,5.8380913 8.3055894,5.6889707 8.4776325,5.5557878 8.6406243,5.4068402 8.8220878,5.2868397 8.8210095,5.4170469 8.8327129,5.6375174 8.7722083,5.7531889 8.7060473,5.8796816 8.5379641,5.9683227 8.4285646,6.054479 8.1199698,6.2974305 7.597814,6.5802992 7.3858288,6.9104891 7.2921456,7.0564119 7.425427,7.2366947 7.5923295,7.1795358 7.8305095,7.0980032 8.0616795,6.8347115 8.2563988,6.6789259 8.4277781,6.5418323 8.6020346,6.4083788 8.7728972,6.2706466 8.7718188,6.4019108 8.7830305,6.620512 8.7230187,6.7375852 8.6571031,6.8662178 8.4896352,6.9596546 8.3793748,7.0478532 8.0764849,7.2901643 7.5485258,7.5675242 7.3429844,7.8961403 7.256089,8.0350289 7.3788681,8.2193694 7.5431399,8.1701054 7.7779742,8.0996897 8.0180961,7.8238551 8.2072082,7.6725705 8.3840227,7.5310985 8.5561644,7.3745265 8.7483023,7.2544526 8.7380175,7.3847082 8.7597389,7.6055235 8.6984233,7.7195469 8.6360991,7.8354889 8.4801163,7.9215467 8.3793748,8.002145 8.0679263,8.2512941 7.556273,8.5206605 7.3366139,8.8540965 7.2363391,9.0063162 7.3654393,9.1933375 7.5431399,9.1300297 7.7770641,9.0466768 8.0125381,8.7798937 8.2072082,8.6265918 8.3803584,8.4902604 8.5521309,8.351962 8.7237065,8.2136637 c 0,0.1321501 0.040411,0.3448484 -0.025284,0.4631023 C 8.635189,8.7906163 8.4794275,8.8767002 8.3793748,8.9564126 8.067508,9.2048975 7.552707,9.4760588 7.3366381,9.8127164 7.243373,9.9580501 7.3761377,10.140055 7.5431399,10.081691 7.7861397,9.9967907 8.0302708,9.7198956 8.2318039,9.5612072 8.4049532,9.4248758 8.5767258,9.2865779 8.7483023,9.14828 c 0,0.1310914 0.033941,0.3174735 -0.014832,0.4404985 C 8.6891753,9.700514 8.5438918,9.7765872 8.4531601,9.8473719 8.2463637,10.008742 8.04311,10.174832 7.8382815,10.338685 7.7075825,10.44324 7.3089931,10.655889 7.4246646,10.86726 7.533498,11.066136 7.7483613,10.89702 7.8628764,10.80597 8.1168461,10.604044 8.3719715,10.403642 8.625326,10.200954 8.708532,10.134404 8.8335242,9.9888447 8.9450627,9.9803845 c 0.1092277,-0.00833 0.2387452,0.1312145 0.3197377,0.1916945 0.2607818,0.19472 0.5265081,0.382922 0.7870446,0.57801 0.112843,0.08449 0.452871,0.37911 0.530321,0.09418 0.06358,-0.233949 -0.351145,-0.436441 -0.505725,-0.547144 C 9.8532882,10.137307 9.6321047,9.9736994 9.4123714,9.8092309 9.3275665,9.7457741 9.1960077,9.6806233 9.1425132,9.5864727 9.0790327,9.4747609 9.1172292,9.2734741 9.1172292,9.1482862 9.3024064,9.2910106 9.494691,9.4248336 9.6829172,9.5635501 9.8973872,9.7216471 10.164122,10.007862 10.420772,10.084821 10.581207,10.132933 10.71557,9.9553267 10.62378,9.8145687 10.537108,9.6816991 10.351217,9.5834654 10.224012,9.4926111 9.975453,9.3150831 9.7320348,9.1299063 9.486157,8.9486655 9.372527,8.8649186 9.1885304,8.7782204 9.1179185,8.6520967 9.0520028,8.5343849 9.0926339,8.3208248 9.0926339,8.1890688 9.2825826,8.3254979 9.4711295,8.4638948 9.6583229,8.6040625 9.8784745,8.7689236 10.137264,9.032682 10.396178,9.1274472 10.556933,9.186279 10.712398,9.0354122 10.620658,8.878102 10.546308,8.7505756 10.388824,8.670666 10.273201,8.585444 10.011042,8.3921999 9.7501859,8.1971107 9.486157,8.0064741 9.3699697,7.9225552 9.1860716,7.8263148 9.1179185,7.6962061 9.053651,7.5735256 9.0926339,7.3653524 9.0926339,7.2298577 9.2551841,7.3108 9.4047471,7.5021997 9.5845374,7.5379365 9.750579,7.5709432 9.8517881,7.3902178 9.7630494,7.2566659 9.6158958,7.0352853 9.2667677,6.9742397 9.1425134,6.7369949 9.0665145,6.5919078 9.1386277,6.3765035 9.1418627,6.2214559 9.5183902,6.5472433 9.9534536,6.8612993 10.371621,7.1320175 10.509969,7.2215687 10.777761,7.1832495 10.69731,6.9596797 10.645612,6.8159452 10.440389,6.71058 10.32243,6.6254071 10.058352,6.4347204 9.7975694,6.2397055 9.5353848,6.0464373 9.4289126,5.9679537 9.2598952,5.8881919 9.1917421,5.771365 9.1086589,5.6289588 9.1909984,5.3711768 9.1910914,5.2130542 9.3843847,5.3620278 9.5854502,5.5011127 9.7813752,5.6466674 10.002732,5.8111102 10.259161,6.0772789 10.51923,6.1717493 10.687018,6.2326955 10.833433,6.0610466 10.738029,5.9062444 10.667096,5.7911883 10.503391,5.7072946 10.396254,5.6283193 10.134217,5.4351738 9.8700404,5.244856 9.6092084,5.0500866 9.5026627,4.970546 9.3076719,4.8808481 9.2513989,4.7552162 9.190673,4.6196229 9.2644827,4.3990287 9.2648768,4.253843 9.616489,4.4930065 9.9564682,4.7535921 10.297873,5.0071929 c 0.109473,0.081311 0.26494,0.24391 0.415462,0.1806519 0.223619,-0.093953 0.04334,-0.308842 -0.07123,-0.3960311 C 10.281887,4.5176999 9.8591448,4.0964836 9.4370427,3.9341063 V 3.8849157 C 9.8084046,3.7779274 10.108786,3.4527795 10.2902,3.1224665 10.459976,2.7552775 10.615959,2.4457114 10.323494,2.44402 10.186735,2.4189343 9.9003168,3.0426796 9.7945334,3.1716568 9.5771611,3.4367434 9.2609661,3.6132875 8.9205443,3.6635592 9.0561376,3.5083638 9.4626461,3.2222733 9.4309428,2.9998594 9.3839422,2.6697932 8.7923049,2.5168112 8.7921822,2.1386605 8.7920892,1.7602216 9.3838186,1.6084183 9.4309428,1.2774708 9.4634576,1.0492968 9.0533582,0.77685347 8.9205443,0.61376042 9.4709594,0.72767308 9.8797555,1.0700451 10.085986,1.5975673 c 0.06429,0.1644698 0.07875,0.4303963 0.1021,0.7934671 -0.177482,0.5364768 0.358633,0.6089345 0.361888,-0.3015646 C 10.54442,1.7682672 10.444017,1.496402 10.322468,1.2040441 10.6942,1.0468958 11.108751,0.6975175 11.428783,0.44749751 c 0.115253,-0.0900429 0.188228,-0.2916988 0,-0.35551078 C 11.29747,0.04747334 11.13824,0.18994477 11.035728,0.25553622 10.717123,0.4594166 10.428941,0.72211418 10.101112,0.90890235 9.8978821,0.51713148 9.4181292,0.35376783 9.0189244,0.2486295 8.0214926,-0.0140654 6.9017001,0.0208803 5.8953397,0.21067377 5.5728974,0.271486 4.6847361,0.5125379 4.4315711,0.71664671 4.3961679,1.1339359 4.5003863,0.89164712 4.9853192,0.85971259 M 8.1580944,0.46618951 c -0.064587,0.0916988 -0.2771136,0.41303128 -0.3957113,0.41303128 -0.1459721,0 -0.3340765,-0.32268816 -0.391334,-0.43762621 l 0.7870453,0.0245949 M 6.5840047,0.49078526 C 6.5184086,0.58501406 6.3727073,0.8424512 6.2597418,0.87305303 6.1301501,0.90815773 5.9576646,0.67758732 5.8953399,0.5891656 L 6.5840049,0.4907853 M 7.0267177,0.5891656 7.5678109,1.2532348 7.0267177,1.8189237 H 7.002122 C 6.8481072,1.6649135 6.5682885,1.4422678 6.5559417,1.2040441 6.5441361,0.97619746 6.8610441,0.70587447 7.0267177,0.5891656 m 1.5003044,0.0737858 0.4673077,0.565689 v 0.024595 L 8.5270221,1.8189242 C 8.3511909,1.7369329 8.0565407,1.4635329 8.0433091,1.2532348 8.0300766,1.0434972 8.3568725,0.74229263 8.5270221,0.662951 M 6.0429108,1.2040441 5.5510079,1.8189237 C 5.2576615,1.5945517 5.1016791,1.3213415 5.3334884,1.0072836 5.3814246,0.94233238 5.4580875,0.81576116 5.5506636,0.81560864 5.6819279,0.8154228 5.9302651,1.1230554 6.0429108,1.2040441 M 6.288863,1.5237818 6.6331946,1.9418989 6.7756742,2.1386605 6.633269,2.3354221 6.288863,2.7535391 C 6.1256491,2.6385816 5.8137089,2.3592416 5.8137089,2.1386605 c 0,-0.2179821 0.3133178,-0.5008581 0.4751541,-0.6148787 M 7.7645725,1.5483767 8.2513837,2.1386605 7.7645725,2.7289442 H 7.7399767 C 7.5939553,2.5829229 7.354276,2.4006898 7.3079382,2.1878511 7.2567062,1.9524673 7.598038,1.6656786 7.7645725,1.5483767 M 4.936129,1.6221626 5.3000145,2.1386609 4.936129,2.6551592 c -0.455158,-0.3206468 -0.455158,-0.7123498 0,-1.0329966 M 3.8785373,1.6959476 4.1038781,2.1386605 3.8785373,2.5813733 h -0.04919 c -0.1199752,-0.3114338 -0.1199752,-0.573992 0,-0.8854257 h 0.04919 M 5.5510079,2.4583972 6.0429108,3.0732767 C 5.9235267,3.159113 5.6926268,3.4617073 5.5510326,3.4617073 5.4578415,3.4617073 5.3818916,3.334747 5.3328735,3.2700371 5.0972519,2.9589578 5.260244,2.6807863 5.5510079,2.4583972 m 1.4757098,0 L 7.5678109,3.0240861 7.0267177,3.688155 H 7.002122 C 6.8542312,3.5402643 6.6201098,3.3610151 6.569813,3.1470618 6.5091616,2.8890338 6.8423763,2.5882355 7.0267177,2.4583972 m 1.5003044,0 0.4673077,0.5656889 v 0.024595 L 8.5270221,3.6143696 C 8.3550524,3.5341643 8.0298312,3.2368333 8.0433091,3.0240861 8.056418,2.8167488 8.3533801,2.5393646 8.5270221,2.4583972 M 4.3458453,2.5321826 4.9853194,3.417608 C 4.7832209,3.3695979 4.1859522,3.1360681 4.1523553,2.900741 4.1358764,2.7854395 4.2535643,2.6356543 4.296655,2.5321826 h 0.04919 m 2.23816,1.2543527 -0.688665,-0.09838 c 0.062325,-0.08842 0.2348101,-0.3189999 0.364402,-0.2838775 0.1129655,0.030596 0.258667,0.2880334 0.3242629,0.3822575 m 1.5740897,0.024595 -0.7870453,0.024596 c 0.056347,-0.1130891 0.2486573,-0.4376216 0.3914074,-0.4376216 0.1147615,0 0.3323791,0.3232051 0.3956379,0.4130258 M 3.4112294,7.8447363 C 3.3187515,7.9516019 3.2266181,8.1462728 3.0905331,8.1988332 2.9787235,8.2419973 2.8162725,8.2136637 2.6979698,8.2136637 H 1.8371395 c -0.1316407,0 -0.3204995,-0.033081 -0.4400369,0.032416 -0.1613638,0.08842 -0.096984,0.3065293 0.071129,0.3328708 0.4367951,0.0684 0.9347659,0.00364 1.3773089,0.00364 -0.064562,0.1158465 -0.1566712,0.3009735 -0.2750722,0.3682416 -0.091027,0.051724 -0.2388215,0.025284 -0.3398067,0.025284 -0.2834297,0 -0.7436492,-0.088862 -1.0073191,0.014832 -0.1403154,0.055191 -0.1514275,0.2431973 -0.021029,0.3154075 0.1499198,0.08306 0.3953376,0.038691 0.5610401,0.038691 h 0.491903 v 0.024601 C 1.9180326,9.4194578 1.4827648,9.5654754 1.1731831,9.7091357 1.0453522,9.7684581 0.96349705,9.9399366 1.102927,10.039966 1.2872577,10.17219 1.8047694,9.8842776 2.009305,9.8369565 1.8712723,10.045549 1.7439111,10.261617 1.6158024,10.476431 c -0.050823,0.08522 -0.1296116,0.189285 -0.1046254,0.294675 0.036809,0.155294 0.2162603,0.171059 0.316643,0.06864 0.1707173,-0.174182 0.3243215,-0.487057 0.4274366,-0.70765 h 0.024595 c 0,0.247303 -0.056316,0.573534 0.014081,0.81127 0.041362,0.139651 0.2170891,0.194056 0.3120017,0.06855 0.07076,-0.09361 0.042845,-0.253281 0.042845,-0.36332 V 9.7385727 h 0.024595 c 0.023316,0.2674983 0.1150069,0.6674643 0.2373924,0.9073643 0.072432,0.142013 0.2897801,0.138373 0.3358715,-0.02302 0.034409,-0.120515 -0.038836,-0.277039 -0.070933,-0.392439 C 3.0504667,9.7798474 2.7325251,9.2054776 3.1652766,8.8531516 c 0.036302,0.4162724 0.1964661,0.9646959 0.3541456,1.3523644 0.059472,0.146219 0.2944532,0.217298 0.3483412,0.02388 C 3.9080498,10.084926 3.8142684,9.8784246 3.7764421,9.7385758 3.6720855,9.3528157 3.4546152,8.8869841 3.4401778,8.4883948 3.4348904,8.3420536 3.6258959,8.198295 3.681776,8.0660964 3.8540651,8.4552906 3.9263011,8.9104235 4.0402751,9.3204486 4.07675,9.4516891 4.0959341,9.6929671 4.2721582,9.7056831 4.5324487,9.7244528 4.4473495,9.4128529 4.410506,9.2712588 4.2970485,8.8354082 4.1720313,8.4024597 4.0544173,7.9677161 4.0179427,7.8328851 4.0033331,7.5888274 3.8730034,7.508229 3.7514787,7.4330659 3.5244655,7.4758127 3.3866342,7.4758127 H 2.1813954 c -0.1496051,0 -0.4355974,-0.035786 -0.4133928,0.1967616 0.018709,0.1959249 0.246795,0.1721657 0.3887975,0.1721657 h 1.254353 M 10.103717,7.6170625 C 9.7792817,7.7542296 10.354858,8.2689077 10.566892,8.1597053 10.883752,7.9964922 10.324483,7.5237242 10.103717,7.6170625 M 8.7728972,11.042111 c -0.1424555,0.255888 -0.323353,0.492616 -0.4834426,0.737854 -0.063259,0.0969 -0.1725107,0.223471 -0.1746747,0.344234 -0.0031,0.173518 0.1958264,0.216904 0.3092595,0.116139 0.178487,-0.158615 0.353211,-0.463767 0.4472381,-0.68173 h 0.024596 c 0.00605,0.293667 0.043828,0.623463 0.1101618,0.909997 0.024496,0.105858 0.1106777,0.218527 0.2337031,0.177454 0.111096,-0.03712 0.1274762,-0.149562 0.1212295,-0.251216 -0.015643,-0.253895 -0.064267,-0.510127 -0.096167,-0.762449 0.1737396,0.188768 0.3129982,0.472227 0.5207038,0.622086 0.1147362,0.08278 0.3044383,0.03318 0.3014623,-0.130208 -0.0023,-0.125828 -0.1342401,-0.252075 -0.2073609,-0.344307 -0.1802578,-0.227333 -0.3810035,-0.446697 -0.5410197,-0.688664 0.2180602,0.188694 0.4802939,0.415806 0.7378546,0.546702 0.114588,0.05824 0.27003,0.01621 0.284,-0.128953 0.0213,-0.221184 -0.4277093,-0.436859 -0.5791418,-0.549924 -0.1780937,-0.132987 -0.5784288,-0.553809 -0.8116401,-0.519007 -0.1115637,0.01665 -0.2095508,0.12091 -0.2951419,0.186801 -0.2241118,0.17251 -0.4432298,0.351661 -0.6640694,0.528328 -0.094814,0.07585 -0.2389171,0.1595 -0.2799172,0.280409 -0.043927,0.129494 0.074228,0.257241 0.2061317,0.227554 0.1606307,-0.03615 0.31745,-0.215969 0.4427128,-0.316121 0.1295669,-0.103619 0.2602409,-0.206206 0.3935224,-0.304979 m 0.024595,-0.02459 -0.024595,0.02459 z"
       id="path2324"
       sodipodi:nodetypes="ccccssccccsccccssccccssccsccsscssccscccccccccccscccccccccccccccccccccccccccccscccccccccccccccccccccscsscccccccccccscscccccccccccccccccscccccccccccccccccccccccccccccccccccsccccccccccccccccccccccccccccscccccccccccccccccccscccccccccccccccccccccccccscccssccccsccscccccsccccccsccccccscccccccccsscscccccscccccccccccccccscscsccccc" />
    <path
       id="path4731"
       style="fill:#808080;stroke-width:0.0166517"
       d="M 4.9599656,0.81659402 C 4.8537043,0.8323811 4.747725,0.85219157 4.6443597,0.88163678 4.5612734,0.90892322 4.5016135,0.97664207 4.4396006,1.0346778 4.3363609,1.136614 4.2311158,1.2372131 4.1382986,1.3489418 c -0.018137,0.020259 -0.031904,0.048205 -0.021101,0.075325 0.027953,0.084589 0.065451,0.1658337 0.1050518,0.2455322 0.021171,0.03767 0.038318,0.080398 0.072879,0.1080231 0.01379,0.00562 0.027498,0.013106 0.041937,0.0049 0.032129,-0.012183 0.052347,-0.042925 0.076517,-0.065932 0.1198284,-0.131262 0.2345587,-0.2673296 0.3426726,-0.4083937 0.073311,-0.095648 0.1380181,-0.1977423 0.1928652,-0.3050645 0.036175,-0.0673033 0.072349,-0.13460813 0.108506,-0.20192196 -0.032553,0.00506 -0.065107,0.0101202 -0.09766,0.0151803 z" />
    <path
       id="path4771"
       style="fill:#808080;stroke-width:0.0166517"
       d="m 8.9997201,0.59370045 c -0.035709,-0.002139 -0.066651,0.0334182 -0.057981,0.0685498 0.01317,0.0441534 0.051238,0.0744718 0.080747,0.10791563 0.071977,0.073541 0.1470125,0.14410988 0.2168932,0.21969933 0.0087,0.009431 0.018871,0.0205993 0.027834,0.0308974 0.049734,0.05847 0.1032117,0.1195395 0.1220318,0.1958575 0.01319,0.062746 -0.013415,0.1267451 -0.04849,0.1777197 -0.025183,0.034237 -0.056037,0.066193 -0.084227,0.094357 -0.1004619,0.1007848 -0.2103828,0.1914604 -0.313544,0.2893346 -0.082031,0.080825 -0.1593976,0.1770648 -0.1783068,0.2940007 -0.014566,0.093549 1.115e-4,0.1937941 0.053361,0.2734935 0.062983,0.096837 0.1499142,0.1746548 0.2336154,0.2530762 0.066862,0.063063 0.1390172,0.1204063 0.2042008,0.1852206 0.058377,0.061471 0.1142219,0.1316897 0.1335925,0.2159761 0.012735,0.067753 -0.025669,0.1310511 -0.062753,0.1843597 -0.1049865,0.1470805 -0.2472158,0.261364 -0.3641742,0.3980409 -0.018838,0.022019 -0.038165,0.05401 -0.022528,0.082472 0.011167,0.026008 0.044415,0.034395 0.069608,0.024785 C 9.2256,3.6313931 9.4390281,3.5455343 9.6127539,3.4015053 9.7640276,3.278427 9.8788661,3.1174163 9.9746188,2.9490194 10.028675,2.8564464 10.085529,2.7638166 10.142335,2.6717318 c 0.06329,-0.1085275 0.07723,-0.2370323 0.07607,-0.3604051 -0.002,-0.1454293 -0.01611,-0.2904584 -0.03344,-0.4347706 C 10.168666,1.7447704 10.137197,1.6140206 10.080129,1.4936366 9.9450829,1.1947688 9.7197308,0.93580496 9.4364459,0.76915884 9.3156252,0.69669431 9.1836691,0.64511695 9.049871,0.60225108 c -0.01636,-0.004371 -0.033084,-0.00902 -0.050152,-0.008547 z" />
  </g>
</svg>
