<?xml version="1.0" encoding="UTF-8" standalone="no"?>
<!-- Created with Inkscape (http://www.inkscape.org/) -->

<svg
   width="48"
   height="48"
   viewBox="0 0 12.7 12.7"
   version="1.1"
   id="svg2261"
   inkscape:version="1.1.2 (b8e25be833, 2022-02-05)"
   sodipodi:docname="Breza_0.svg"
   xmlns:inkscape="http://www.inkscape.org/namespaces/inkscape"
   xmlns:sodipodi="http://sodipodi.sourceforge.net/DTD/sodipodi-0.dtd"
   xmlns="http://www.w3.org/2000/svg"
   xmlns:svg="http://www.w3.org/2000/svg">
  <sodipodi:namedview
     id="namedview2263"
     pagecolor="#ffffff"
     bordercolor="#666666"
     borderopacity="1.0"
     inkscape:pageshadow="2"
     inkscape:pageopacity="0.0"
     inkscape:pagecheckerboard="0"
     inkscape:document-units="mm"
     showgrid="false"
     inkscape:zoom="12.22963"
     inkscape:cx="24.816778"
     inkscape:cy="25.389158"
     inkscape:window-width="1746"
     inkscape:window-height="1051"
     inkscape:window-x="165"
     inkscape:window-y="-9"
     inkscape:window-maximized="1"
     inkscape:current-layer="layer1"
     units="px" />
  <defs
     id="defs2258">
    <inkscape:path-effect
       effect="fill_between_many"
       method="originald"
       linkedpaths="#path2352,0,1"
       id="path-effect1829"
       join="true"
       close="true"
       autoreverse="true"
       is_visible="true"
       lpeversion="0"
       applied="false" />
  </defs>
  <g
     inkscape:label="Layer 1"
     inkscape:groupmode="layer"
     id="layer1">
    <path
       inkscape:original-d="M 1.4501917,1.1478256"
       inkscape:path-effect="#path-effect1829"
       d="M 6.3193319,0.0113809 C 6.149854,0.0421198 6.0381845,0.1893887 5.9011125,0.280713 4.8641449,1.0679831 3.900666,1.9789213 3.1901163,3.0774091 2.6843479,3.8609663 2.3124044,4.7522622 2.2427293,5.6895446 c -0.096857,1.1698786 0.2548744,2.3742902 0.9867165,3.2946467 0.4027243,0.505356 0.9088581,0.9354374 1.4913014,1.2191547 0.3029178,0.14344 0.6236594,0.252603 0.952923,0.315261 0.1572946,0.01879 0.3222753,0.0037 0.4727679,0.05991 0.061779,0.04555 0.046527,0.139328 0.050597,0.207689 -0.00947,0.176937 -0.024735,0.353587 -0.018133,0.531086 0,0.416137 0,0.832273 0,1.24841 0.1054142,0 0.2108284,0 0.3162426,0 -0.00209,-0.51379 0.00416,-1.02782 -0.00309,-1.541463 -0.00462,-0.142418 -0.043107,-0.295189 0.014942,-0.430767 0.099311,-0.06117 0.2273252,-0.04767 0.3366481,-0.05834 0.2633507,-0.01124 0.5177015,-0.09506 0.7643649,-0.1824 C 8.2161043,10.122668 8.7743472,9.7564962 9.2134893,9.2754153 9.961986,8.4628011 10.413172,7.3823703 10.470402,6.2795852 10.518309,5.2979907 10.222451,4.3258957 9.7491468,3.4736893 9.2120125,2.500426 8.4602115,1.6598998 7.6190298,0.9393487 7.3357067,0.69026259 7.0382442,0.4580339 6.7345909,0.2344186 6.6116412,0.1413012 6.485688,0.0062289 6.3193319,0.0113809 Z"
       id="path1831"
       style="fill:#808080;stroke-width:0.0933773" />
    <path
       id="path2352"
       style="fill:#000000;stroke:none;stroke-width:0.0197649"
       d="M 6.3193319,0.0113809 C 6.149854,0.0421198 6.0381845,0.1893887 5.9011125,0.280713 4.8641449,1.0679831 3.900666,1.9789213 3.1901163,3.0774091 2.6843479,3.8609663 2.3124044,4.7522622 2.2427293,5.6895446 c -0.096857,1.1698786 0.2548744,2.3742902 0.9867165,3.2946467 0.4027243,0.505356 0.9088581,0.9354374 1.4913014,1.2191547 0.3029178,0.14344 0.6236594,0.252603 0.952923,0.315261 0.1572946,0.01879 0.3222753,0.0037 0.4727679,0.05991 0.061779,0.04555 0.046527,0.139328 0.050597,0.207689 -0.00947,0.176937 -0.024735,0.353587 -0.018133,0.531086 0,0.416137 0,0.832273 0,1.24841 0.1054142,0 0.2108284,0 0.3162426,0 -0.00209,-0.51379 0.00416,-1.02782 -0.00309,-1.541463 -0.00462,-0.142418 -0.043107,-0.295189 0.014942,-0.430767 0.099311,-0.06117 0.2273252,-0.04767 0.3366481,-0.05834 0.2633507,-0.01124 0.5177015,-0.09506 0.7643649,-0.1824 C 8.2161043,10.122668 8.7743472,9.7564962 9.2134893,9.2754153 9.961986,8.4628011 10.413172,7.3823703 10.470402,6.2795852 10.518309,5.2979907 10.222451,4.3258957 9.7491468,3.4736893 9.2120125,2.500426 8.4602115,1.6598998 7.6190298,0.9393487 7.3357067,0.69026259 7.0382442,0.4580339 6.7345909,0.2344186 6.6116412,0.1413012 6.485688,0.0062289 6.3193319,0.0113809 Z m 0.2071808,0.4765524 c 0.1990458,0.11083179 0.3676744,0.2810917 0.5536216,0.4182723 0.8416023,0.674588 1.5984012,1.4662607 2.178403,2.378482 0.3295905,0.5211975 0.595903,1.0976767 0.7460967,1.6877264 0.136785,0.5350369 0.180973,1.0964801 0.100863,1.6412195 C 9.9799876,7.4988945 9.5967627,8.3414005 9.0086443,9.0158023 8.5489869,9.5429932 7.9401419,9.9614263 7.2660536,10.143364 7.0157828,10.211231 6.756823,10.248732 6.4935025,10.252243 6.4901063,10.07998 6.4440064,9.8974418 6.5104635,9.7321023 6.6244131,9.5525773 6.8254014,9.4550362 6.9973151,9.3446972 7.2817462,9.1727613 7.5393868,8.9601353 7.8088831,8.7659692 8.1874173,8.4839274 8.564006,8.2051636 8.9658122,7.9581164 8.9837089,7.8756588 8.9038474,7.8257727 8.8662555,7.7618621 8.835285,7.72201 8.8084817,7.6542478 8.7614221,7.7180548 8.0067859,8.2527746 7.259251,8.7976172 6.4951439,9.3188353 6.4967397,8.8775123 6.489023,8.4360611 6.5064512,7.9949566 6.6373983,7.8704228 6.7811161,7.7619221 6.9301024,7.6600363 7.5517575,7.2185305 8.1667193,6.7675198 8.792518,6.3319116 8.9710222,6.2086745 9.1494777,6.0853674 9.3280139,5.9621769 9.2597877,5.8905766 9.1917691,5.8187787 9.1235687,5.7471537 9.0002685,5.8072705 8.8772482,5.8679429 8.7706605,5.9555965 8.1901788,6.3694208 7.6141119,6.7897439 7.0312268,7.1999966 6.8525323,7.3204187 6.6738382,7.4408408 6.4951439,7.5612629 6.4920326,7.2232164 6.5013525,6.8847877 6.4905413,6.5469731 6.4829993,6.4139393 6.4574234,6.253859 6.5695384,6.1542539 6.7060026,6.0134171 6.8750822,5.9283011 7.0430075,5.8225884 7.2925812,5.6636267 7.5263759,5.4804971 7.76978,5.3121833 8.0804924,5.087065 8.3970742,4.8698015 8.6954129,4.6284188 8.8078309,4.5420117 8.9297156,4.4671278 9.0632015,4.4179864 9.0137891,4.3193752 8.9643576,4.2207726 8.9152933,4.1219877 8.3894161,4.4821798 7.870351,4.8519753 7.3533523,5.2247653 7.0723072,5.4307662 6.7830879,5.6250651 6.4951436,5.821199 6.4919323,5.4807488 6.5016212,5.1399134 6.4902198,4.7997025 6.4851504,4.6658974 6.4516537,4.4990371 6.571925,4.4028491 6.7305175,4.268091 6.9241187,4.1838075 7.0852732,4.0519374 7.4651414,3.7745544 7.8360923,3.4811616 8.2344785,3.234174 8.2523394,3.1517366 8.1725698,3.1017929 8.1350099,3.0378535 8.1041088,2.9979611 8.077297,2.930361 8.0302675,2.9941077 7.6321445,3.2736684 7.2410775,3.5634959 6.8381442,3.836057 6.7238108,3.9119136 6.6094774,3.9877702 6.4951441,4.0636268 6.4979183,3.625341 6.4848251,3.1866859 6.51382,2.7490101 6.5444232,2.7005117 6.6087629,2.6690279 6.6519026,2.6268521 6.8893088,2.4326761 7.1489109,2.2676923 7.3960846,2.086363 7.450549,2.0602558 7.4221933,1.986123 7.3862929,1.9539358 7.3465783,1.9010895 7.306964,1.8481679 7.2671481,1.7953977 7.0097857,1.9711084 6.7524833,2.1469066 6.4951441,2.3226511 c 0,-0.6166183 0,-1.2332367 0,-1.8498551 0.010456,0.00505 0.020913,0.0100921 0.031369,0.0151373 z M 6.1789013,2.3226511 C 5.9188858,2.1450848 5.6589184,1.9674483 5.3988725,1.7899264 c -0.032637,0.091411 -0.1295543,0.1768 -0.090094,0.2815909 0.066697,0.1220411 0.2102141,0.1672126 0.3146011,0.2494924 0.1807094,0.116348 0.3848277,0.2103846 0.5214173,0.3733267 0.075435,0.1022014 0.038227,0.2357375 0.036761,0.3505827 -0.00625,0.3394119 -8.497e-4,0.6791663 -0.00266,1.0187077 C 5.6829429,3.7433314 5.208977,3.3909809 4.7257089,3.0521908 4.6786749,3.0188408 4.6316639,2.9854598 4.5845532,2.9522178 4.5496962,3.0412938 4.5147982,3.1303535 4.4798685,3.219401 4.719223,3.4111876 4.9573469,3.6046203 5.2110639,3.7773827 5.526165,4.0022177 5.8422578,4.225697 6.1489876,4.461939 c 0.01946,0.2251254 0.037034,0.4503236 0.02991,0.6764747 0,0.2273517 0,0.4547036 0,0.6820554 C 5.5715108,5.4075316 4.9809091,4.9707067 4.38056,4.5478138 4.170609,4.4041793 3.9607181,4.2604572 3.7507271,4.1168811 c -0.028711,0.089359 -0.057256,0.1787726 -0.086082,0.268095 0.1155585,0.1105805 0.239417,0.2108003 0.3726489,0.299354 0.7048295,0.5068157 1.4152847,1.0059021 2.1118801,1.5240563 0.019679,0.222739 0.036722,0.4455811 0.029727,0.6693621 0,0.2336742 0,0.4673484 0,0.7010227 C 5.9082856,7.4428023 5.6953575,7.2208262 5.4439889,7.0552508 4.8572644,6.6357609 4.2729581,6.2126339 3.6832901,5.7974203 3.613516,5.7409853 3.4993347,5.7481653 3.455093,5.8326883 c -0.065265,0.088377 0.00218,0.1981782 0.0828,0.2478511 0.3646253,0.2492828 0.7234017,0.5175761 1.0861935,0.7739421 0.3774557,0.2677514 0.7499467,0.5428301 1.1305234,0.8059798 0.1426888,0.095071 0.3130617,0.1676954 0.4098842,0.3157099 0.057148,0.1479575 0.00602,0.3026234 0.014408,0.4559439 0,0.2955123 0,0.5910252 0,0.8865372 C 5.3999741,8.7792423 4.631107,8.2255108 3.8572359,7.6788959 3.825386,7.7711989 3.724745,7.8593694 3.768783,7.9635871 c 0.066329,0.1160296 0.206255,0.1559403 0.3027645,0.2411073 0.563674,0.4045505 1.1256817,0.8117228 1.6926279,1.2115298 0.140396,0.09451 0.3110099,0.1648331 0.4047759,0.312599 0.059858,0.1572128 0.019332,0.3299448 0.013323,0.4932208 0.0077,0.05632 -0.071277,0.0188 -0.106566,0.02669 C 5.2581758,10.208814 4.4890122,9.8140861 3.9031822,9.2551673 3.2723427,8.6544423 2.81798,7.8740043 2.6206806,7.0248968 2.4948753,6.4992057 2.5003324,5.9486031 2.5936874,5.4242605 2.7633263,4.4375871 3.245534,3.5310641 3.8494195,2.7426875 4.4200537,2.0018928 5.0860084,1.3359926 5.8160367,0.7523079 5.9328557,0.65629886 6.046,0.5534556 6.1789013,0.47954389 c 0,0.61436911 0,1.22873821 0,1.84310721 z" />
  </g>
</svg>
