<?xml version="1.0" encoding="UTF-8" standalone="no"?>
<!-- Created with Inkscape (http://www.inkscape.org/) -->

<svg
   width="48"
   height="48"
   viewBox="0 0 12.7 12.7"
   version="1.1"
   id="svg2261"
   inkscape:version="1.1.2 (b8e25be833, 2022-02-05)"
   sodipodi:docname="Breza.svg"
   xmlns:inkscape="http://www.inkscape.org/namespaces/inkscape"
   xmlns:sodipodi="http://sodipodi.sourceforge.net/DTD/sodipodi-0.dtd"
   xmlns="http://www.w3.org/2000/svg"
   xmlns:svg="http://www.w3.org/2000/svg">
  <sodipodi:namedview
     id="namedview2263"
     pagecolor="#ffffff"
     bordercolor="#666666"
     borderopacity="1.0"
     inkscape:pageshadow="2"
     inkscape:pageopacity="0.0"
     inkscape:pagecheckerboard="0"
     inkscape:document-units="mm"
     showgrid="false"
     inkscape:zoom="8.647654"
     inkscape:cx="39.259203"
     inkscape:cy="16.709734"
     inkscape:window-width="1746"
     inkscape:window-height="1051"
     inkscape:window-x="165"
     inkscape:window-y="-9"
     inkscape:window-maximized="1"
     inkscape:current-layer="layer1"
     units="px" />
  <defs
     id="defs2258" />
  <g
     inkscape:label="Layer 1"
     inkscape:groupmode="layer"
     id="layer1">
    <path
       style="fill:#2a2626;stroke:none;stroke-width:0.0198489"
       d="m 6.2263788,12.604833 h 0.2183377 v -1.429119 c 0,-0.131579 -0.053989,-0.418117 0.020404,-0.529608 0.060975,-0.09138 0.4069019,-0.07179 0.515515,-0.09067 C 7.400459,10.482486 7.7993022,10.321994 8.171568,10.117531 9.4199039,9.4318905 10.235712,8.0615249 10.408834,6.67002 10.668834,4.5803103 9.3551369,2.607511 7.8738355,1.2677518 7.5173697,0.94535254 7.1534801,0.63559306 6.7622984,0.35529121 6.6575162,0.28020685 6.4632949,0.0828813 6.3256232,0.09576912 6.2121274,0.10639429 6.0767382,0.24525498 5.9881924,0.3110282 5.708482,0.51880822 5.4389343,0.73839632 5.1743885,0.96504643 4.0272824,1.9478138 2.9314401,3.2391616 2.4754478,4.7049812 1.8614806,6.6786143 2.5705938,8.852681 4.3208869,10.004571 c 0.4003122,0.263453 0.8442918,0.434511 1.3100257,0.538281 0.1183196,0.02636 0.510136,0.0059 0.5750617,0.10325 0.074393,0.111491 0.020404,0.398029 0.020404,0.529608 v 1.429119 m 0,-12.16735922 V 2.4620584 L 5.412575,1.90629 c -0.020543,0.049007 -0.0814,0.1202247 -0.068657,0.1751862 0.018658,0.080527 0.165083,0.1489856 0.2274483,0.1935861 0.1771511,0.1266358 0.5226604,0.2839976 0.6346082,0.4713313 0.058753,0.098292 0.020404,0.2987255 0.020404,0.4103755 V 4.2087593 L 5.730157,3.8796847 4.5987713,3.0773735 4.5301139,3.2525596 4.9362021,3.5758978 5.8095525,4.2004029 6.1945611,4.4902957 6.2263788,4.9034698 v 1.071839 L 5.5713661,5.5215635 4.4201313,4.6966247 3.7651186,4.248457 3.7088872,4.4236431 3.8643635,4.5630418 4.3010388,4.8752646 5.6110644,5.8137396 6.1945617,6.2435668 6.2263794,6.6501707 V 7.7220098 C 5.97668,7.6273307 5.7480209,7.4034551 5.5316682,7.2484154 5.0751641,6.9213264 4.619434,6.5931841 4.162096,6.2672662 4.0032455,6.1540677 3.8454271,6.0392815 3.685723,5.9272748 3.6176215,5.8795183 3.544935,5.8295986 3.484515,5.9172709 3.4032538,6.0351735 3.5877694,6.1206222 3.6658742,6.1765763 3.9439371,6.375839 4.220948,6.5765111 4.4995267,6.7750395 4.9038682,7.0631861 5.3058278,7.3547067 5.7103081,7.642614 5.8511557,7.7428711 6.12247,7.8680181 6.2059743,8.0215884 c 0.059248,0.108971 0.020404,0.3133943 0.020404,0.4348301 V 9.4885592 L 5.6110638,9.0603599 3.8643629,7.821254 c -0.020424,0.04875 -0.0815,0.1203242 -0.068657,0.1749882 0.017348,0.073798 0.150375,0.1357457 0.2075993,0.1765159 l 0.5756172,0.4142456 1.1512348,0.8249392 c 0.1365602,0.097855 0.3903279,0.21411 0.4758172,0.3604559 0.080666,0.138088 0.020404,0.4509662 0.020404,0.6093592 C 4.130437,10.381477 2.4081166,8.1799036 2.4576513,6.1737978 2.5021089,4.3731874 3.5664512,2.8592146 4.79726,1.6284058 5.0925119,1.3331538 5.4045362,1.0563195 5.730157,0.79476702 5.8827552,0.67220026 6.0452777,0.51403851 6.2263788,0.43747347 M 6.4447165,10.381758 c 0,-0.161808 -0.055636,-0.4499731 0.020404,-0.5946714 C 6.5749647,9.578078 6.9683495,9.3952304 7.1592759,9.2587288 7.7437258,8.8409105 8.3145996,8.3771417 8.9258255,7.9998938 V 7.9800456 L 8.8067323,7.821254 7.1592759,8.9951165 6.4447165,9.4885592 V 8.4762667 L 6.4566853,8.0414376 6.6630541,7.8586492 7.1791247,7.4895989 8.5486966,6.5084498 9.2632561,6.0150071 9.1235203,5.8679466 8.9456746,5.958239 8.4891499,6.2855269 7.139427,7.2539931 6.4447165,7.7220098 V 6.7097173 c 0,-0.1232024 -0.038071,-0.3246088 0.020404,-0.4358812 C 6.5721065,6.0702663 6.9535225,5.895219 7.139427,5.762747 7.5437485,5.4746211 7.9476734,5.1856614 8.3502084,4.895054 8.5537191,4.7481127 8.7703694,4.5372779 9.0052213,4.4469458 L 8.9059763,4.248457 8.2311152,4.7164141 7.0600315,5.5557038 6.4447165,5.9753088 V 4.9630162 c 0,-0.1263577 -0.03545,-0.3165496 0.011967,-0.434829 C 6.5152971,4.3820399 6.7957221,4.2526253 6.9210876,4.1632856 7.3425387,3.8629324 7.7522395,3.529511 8.191415,3.2560133 V 3.2361645 L 8.0723236,3.0773735 7.0004849,3.8400467 6.4447165,4.2087593 V 3.1964668 l 0.020405,-0.4348889 0.2773284,-0.2259 0.635164,-0.450748 V 2.065081 L 7.2585203,1.90629 6.4447165,2.4620584 V 0.43747347 C 6.6347694,0.49813557 6.8051919,0.66510825 6.9607872,0.78632937 7.3281898,1.0725897 7.6834055,1.378449 8.012777,1.7078012 9.0964861,2.7914307 10.043654,4.1720985 10.192779,5.7371223 10.397202,7.8823891 8.7665181,10.3815 6.4447165,10.381758 Z"
       id="path2352" />
  </g>
</svg>
