<?xml version="1.0" encoding="UTF-8" standalone="no"?>
<!-- Created with Inkscape (http://www.inkscape.org/) -->

<svg
   width="48"
   height="48"
   viewBox="0 0 12.7 12.7"
   version="1.1"
   id="svg5214"
   inkscape:version="1.1.2 (b8e25be833, 2022-02-05)"
   sodipodi:docname="Brijest.svg"
   xmlns:inkscape="http://www.inkscape.org/namespaces/inkscape"
   xmlns:sodipodi="http://sodipodi.sourceforge.net/DTD/sodipodi-0.dtd"
   xmlns="http://www.w3.org/2000/svg"
   xmlns:svg="http://www.w3.org/2000/svg">
  <sodipodi:namedview
     id="namedview5216"
     pagecolor="#ffffff"
     bordercolor="#666666"
     borderopacity="1.0"
     inkscape:pageshadow="2"
     inkscape:pageopacity="0.0"
     inkscape:pagecheckerboard="0"
     inkscape:document-units="mm"
     showgrid="false"
     inkscape:zoom="8.3553672"
     inkscape:cx="43.983704"
     inkscape:cy="47.21516"
     inkscape:window-width="1746"
     inkscape:window-height="1051"
     inkscape:window-x="165"
     inkscape:window-y="-9"
     inkscape:window-maximized="1"
     inkscape:current-layer="layer1"
     units="px" />
  <defs
     id="defs5211" />
  <g
     inkscape:label="Layer 1"
     inkscape:groupmode="layer"
     id="layer1">
    <path
       id="path5328"
       style="fill:#000000;stroke:none;stroke-width:0.0254794"
       d="M 6.308427,0.11938481 C 6.1758625,0.15691174 6.1237616,0.30445705 6.0693694,0.41674924 5.9899697,0.59357181 5.9576597,0.78876102 5.8704218,0.96175898 5.8124812,1.0740464 5.6814746,1.1099914 5.5640169,1.111947 5.4539436,1.1091781 5.3634819,1.1972306 5.347514,1.3030692 5.2910237,1.5840929 5.358306,1.8696019 5.3576478,2.1525974 5.1831493,2.1564557 5.0037053,2.108953 4.8403578,2.1695059 4.7277822,2.2250805 4.7314329,2.372965 4.724624,2.4811042 4.7217983,2.6434105 4.7442617,2.8035832 4.7467435,2.9679509 4.575056,2.9711624 4.3990859,2.9271583 4.2374058,2.9809285 4.1197365,3.0313397 4.1186683,3.181108 4.107034,3.2897953 4.0939418,3.5242104 4.1319032,3.7522337 4.1345223,3.9873781 3.9058965,3.988876 3.6714809,3.9306176 3.4470982,3.9941982 3.344611,4.0159012 3.3159122,4.130609 3.3348154,4.2207355 3.3869743,4.5274339 3.5674273,4.7832971 3.6693847,5.074517 3.4462987,5.0969815 3.2177504,5.1120788 3.0166732,5.2246773 2.938667,5.2640242 2.8985393,5.3566529 2.9332155,5.43884 c 0.095488,0.259196 0.336032,0.4254718 0.4634379,0.6664908 -0.0083,0.027942 -0.1007861,0.01534 -0.1406819,0.028112 -0.1468496,0.031945 -0.2971232,0.056576 -0.4386172,0.1075858 -0.091849,0.032309 -0.1258161,0.1472346 -0.073591,0.2271857 0.1253612,0.2088215 0.2983223,0.3812261 0.447009,0.5728947 0.090402,0.1126482 0.1754204,0.2298081 0.2512196,0.3528881 -0.1587604,0.078829 -0.3103161,0.1739128 -0.4511081,0.281221 -0.084887,0.06115 -0.080922,0.180921 -0.02325,0.2590054 C 3.090507,8.1287848 3.2939207,8.2530187 3.425816,8.4405091 3.2633731,8.4992681 3.117539,8.5970858 2.9824966,8.7028894 2.9169726,8.7553164 2.8803033,8.8566362 2.9480766,8.9231385 3.1066602,9.1019567 3.3614405,9.16504 3.5089146,9.355328 3.6427372,9.5829871 3.3547453,9.7417591 3.2138424,9.8694001 3.1338534,9.9338951 3.088497,10.05672 3.1588464,10.144904 c 0.124679,0.152502 0.3227181,0.214499 0.4967249,0.292474 0.1732176,0.06367 0.336412,0.152402 0.4785288,0.270817 0.1827363,0.146611 0.3556282,0.292789 0.5671805,0.393022 0.4522401,0.231811 0.9642862,0.329931 1.4702177,0.324974 0,0.407395 0,0.81479 0,1.222184 0.1019425,0 0.2038855,0 0.3058284,0 0,-0.407394 0,-0.814789 0,-1.222184 0.61304,0.006 1.2419595,-0.140342 1.7503708,-0.492774 C 8.460129,10.764918 8.6689829,10.552386 8.9459359,10.45629 9.131962,10.373643 9.3417836,10.311594 9.482194,10.156045 9.5577988,10.072044 9.5244685,9.9427543 9.4419849,9.8769736 9.3264683,9.7569258 9.1388069,9.6774204 9.1054579,9.4979306 9.0832865,9.3723026 9.2146735,9.3042893 9.2998917,9.2428467 9.4450793,9.1343189 9.623709,9.047565 9.71166,8.8813838 9.7656075,8.764492 9.6493646,8.668405 9.559856,8.6151374 9.4592318,8.5492652 9.3600679,8.4809122 9.2546103,8.4228294 9.2424327,8.3617195 9.265139,8.3184615 9.322429,8.2927658 9.4758084,8.1735174 9.6466496,8.0490838 9.7189412,7.8615724 9.760434,7.7302405 9.631333,7.6295272 9.5370531,7.5633946 9.4345312,7.4927023 9.3192173,7.4439976 9.2040151,7.3981354 9.3970406,7.075211 9.6731355,6.8102808 9.8853707,6.5046972 9.942098,6.431422 9.9517385,6.3108166 9.8628814,6.2573921 9.7385562,6.187018 9.5916993,6.1744977 9.4549966,6.1404428 9.3852386,6.1274662 9.3141771,6.1255184 9.2437013,6.1185844 9.3675447,5.8847755 9.5876145,5.7210815 9.7003749,5.480972 9.739257,5.4035075 9.7420234,5.2954295 9.6601243,5.2443595 9.4984173,5.1334769 9.2962533,5.1106323 9.1103585,5.0869984 9.0663036,5.0716831 8.9452393,5.1040409 8.9964101,5.0295284 9.1017781,4.747062 9.278379,4.4947732 9.3169928,4.1914465 9.3332199,4.1032546 9.2849136,4.0077327 9.1919776,3.9905765 8.9696702,3.9336811 8.7397905,3.988167 8.5143027,3.9873793 8.5139753,3.6942751 8.5855231,3.395041 8.5101648,3.1061952 8.4870291,2.9981677 8.3722114,2.9566371 8.2729493,2.9566085 8.148709,2.9512937 8.0262846,2.9678644 7.9020817,2.9677637 7.9017061,2.7384884 7.9571464,2.510594 7.8956865,2.2852833 7.8663165,2.1555733 7.7153694,2.1368013 7.604306,2.1400195 7.4995991,2.1414947 7.396476,2.1518067 7.2915538,2.1524092 7.2894998,1.8633037 7.3614711,1.5765403 7.29531,1.2900338 7.2735977,1.1851656 7.1759601,1.1114516 7.0698424,1.1124227 6.952828,1.10976 6.8268682,1.0646573 6.7729997,0.95279542 6.6829919,0.7595288 6.6457318,0.54541795 6.5514345,0.35336408 6.5045457,0.2670638 6.437134,0.11206581 6.308427,0.11938481 Z M 6.1715002,1.3611303 c 0,0.4177397 0,0.8354793 0,1.2532188 C 6.0106692,2.4844657 5.849791,2.3546401 5.689059,2.2246345 5.6792304,1.962637 5.6697385,1.7006264 5.6600936,1.438622 c 0.1512155,0.0059 0.3101532,-0.017814 0.4296715,-0.1183181 0.048428,-0.036837 0.1031817,-0.08574 0.081735,0.010803 0,0.010009 0,0.020012 0,0.030019 z m 0.4203729,-0.033667 c 0.091393,0.12523 0.2602495,0.1098248 0.3968621,0.1102186 -0.00958,0.2623204 -0.019149,0.5246416 -0.028966,0.786953 -0.1601028,0.1295063 -0.3203692,0.2588114 -0.48056,0.3882098 0.0071,-0.3838707 -0.08495,-0.7708051 -0.00949,-1.1519599 0.013791,-0.068169 0.042296,-0.1317875 0.066478,-0.1966186 0.018557,0.021065 0.037116,0.042132 0.055673,0.063197 z M 7.5985108,2.509209 C 7.5931999,2.6850702 7.5877415,2.8609273 7.5825237,3.0367911 7.4312165,3.1871855 7.2847652,3.3429391 7.1131505,3.4708419 6.9022029,3.6434476 6.6913592,3.81618 6.4803379,3.9886956 6.4851511,3.6969981 6.4169676,3.4032033 6.4707089,3.1133758 6.5243433,2.8503359 6.7661508,2.6816222 6.9980497,2.5818779 7.1875278,2.4997165 7.3933049,2.4536516 7.6002037,2.454852 7.5996355,2.472971 7.5990737,2.49109 7.5985137,2.509209 Z M 5.1031702,2.4567328 C 5.411821,2.4666964 5.7248244,2.5691813 5.9638629,2.7679134 6.1086851,2.8855691 6.1939562,3.0661532 6.1962748,3.252383 6.2085579,3.4981999 6.1674032,3.7427041 6.1683031,3.9885074 5.8879401,3.7565174 5.6020351,3.530643 5.325337,3.2945786 5.2390342,3.208671 5.1529093,3.1225842 5.0664934,3.036791 5.0606952,2.8428713 5.054776,2.6489549 5.0488132,2.4550401 c 0.018119,5.681e-4 0.036238,0.00113 0.054357,0.00169 z m -0.6120327,0.815354 c 0.3123072,-0.0049 0.5928296,0.1658208 0.8183815,0.3673818 0.2018582,0.1787512 0.3880989,0.3707273 0.6101632,0.5259111 0.126509,0.095017 0.2546689,0.2202398 0.2622896,0.3886528 0.017561,0.179515 -0.01465,0.3589745 -0.013105,0.5387294 C 5.7378074,4.8331665 5.3015748,4.5818547 4.8737235,4.3171267 4.7378563,4.2284647 4.6019897,4.1398016 4.466122,4.0511402 4.456595,3.7910122 4.4465198,3.530904 4.4371568,3.2707702 c 0.017993,4.431e-4 0.035987,8.763e-4 0.053981,0.00132 z M 8.2099792,3.324939 C 8.2009645,3.5681979 8.1918463,3.8114528 8.1828948,4.0547138 7.9102853,4.2352968 7.6375728,4.4156949 7.3526392,4.5764944 7.0617593,4.7484794 6.7707686,4.9202771 6.4799617,5.0923858 6.4857165,4.8759714 6.4264677,4.6528801 6.4916451,4.4412504 6.571068,4.2434392 6.7756758,4.1433684 6.929676,4.011454 7.2214313,3.7646868 7.478214,3.4483863 7.851359,3.3221459 c 0.1155342,-0.040697 0.238714,-0.051939 0.3605011,-0.051376 -6.26e-4,0.018056 -0.00125,0.036113 -0.00188,0.054169 z m 0.3712823,0.9581115 c 0.122392,-6.742e-4 0.2445349,0.00992 0.3669563,0.00941 C 8.8458468,4.5386646 8.7434498,4.7848632 8.6410729,5.03107 8.2733353,5.2298313 7.9063946,5.4301439 7.5290206,5.610254 7.1793887,5.7835053 6.8298268,5.9568978 6.4801499,6.1300581 6.4843236,5.9224167 6.4250679,5.7089845 6.4851797,5.5054185 6.5507518,5.3443482 6.7206067,5.2637565 6.8646791,5.1849316 7.0606743,5.0918928 7.2486727,4.9822666 7.425318,4.8546276 7.7425067,4.6411521 8.0551187,4.3971403 8.4311685,4.298286 8.4805335,4.288243 8.5309695,4.284393 8.5812615,4.2830505 Z m -4.8027829,0.00809 c 0.1679085,0.00948 0.3395554,0.00606 0.5052063,0.023342 0.4328029,0.2581353 0.8708525,0.5077997 1.3003777,0.7712244 0.186681,0.1208115 0.3731853,0.2418971 0.559977,0.3625365 0.010701,0.2283886 0.020891,0.4568013 0.03141,0.6851984 C 5.6456966,5.8685813 5.1120908,5.6111721 4.5848205,5.3415009 4.3924732,5.2380096 4.200066,5.1346295 4.0077558,5.0310697 3.9048708,4.7834861 3.8019691,4.5359097 3.6991062,4.2883169 c 0.026458,9.438e-4 0.052914,0.00188 0.079372,0.00282 z m 5.0497402,1.0489537 c 0.161759,1.83e-4 0.3123971,0.072338 0.4734132,0.081818 C 9.2067179,5.6956939 9.015491,5.928557 8.7764509,6.0898482 8.3265375,6.4003455 7.7851968,6.5314765 7.3091454,6.7931297 7.0434617,6.9302371 6.7739253,7.0689668 6.4797736,7.133686 6.4832616,6.9307052 6.4226535,6.718929 6.4942562,6.5222175 6.5787944,6.3645783 6.7595903,6.2973638 6.9138326,6.2276035 7.2333887,6.1067884 7.5331511,5.937862 7.8408296,5.7884245 8.0788839,5.6721052 8.3143575,5.5508841 8.5463961,5.4232048 8.6350842,5.3815669 8.7289639,5.3430563 8.8282188,5.3400953 Z M 3.8234313,5.340288 c 0.2449106,0.018532 0.4400593,0.1877511 0.6572407,0.2844201 0.3478667,0.170727 0.6908191,0.3519462 1.0418873,0.515847 0.2047114,0.090444 0.4371048,0.15194 0.5937179,0.3212251 0.1039636,0.1367646 0.069465,0.3211338 0.062371,0.4806266 -0.00574,0.064249 -0.00701,0.1287425 -0.00959,0.1931647 C 5.6573175,7.0033721 5.2176943,6.6949326 4.7269083,6.5088309 4.3168023,6.3378391 3.8769933,6.1728179 3.578543,5.8274269 3.475247,5.7088281 3.4027105,5.5677377 3.3470088,5.4215367 3.5096056,5.4128976 3.6605227,5.3405623 3.8234313,5.3402835 Z M 3.62011,6.3578347 c 0.2586974,0.00748 0.4680256,0.1822862 0.6986125,0.2775009 0.3876799,0.1759318 0.7703823,0.3638172 1.1636349,0.5268265 0.2147412,0.085854 0.4531393,0.1455353 0.6250054,0.3089553 0.1113409,0.1287245 0.081704,0.3135431 0.074746,0.4700661 -0.00687,0.079025 -0.010542,0.1582423 -0.013054,0.2375144 C 5.7836415,8.0896498 5.4327723,7.8995793 5.0566321,7.7817159 4.5582106,7.6090962 4.0310358,7.4485916 3.6332326,7.0851323 3.4968584,6.955095 3.3762527,6.8084495 3.2663879,6.6556224 3.2219336,6.5914001 3.1965494,6.5170955 3.1758502,6.442469 3.3262495,6.4251245 3.4681736,6.362114 3.62011,6.3578302 Z m 5.4087968,0 C 9.180833,6.3621924 9.3229067,6.425058 9.4731666,6.4424738 9.4255515,6.6586112 9.2569555,6.8134656 9.1222751,6.9780867 8.7764963,7.3581068 8.2815722,7.5443515 7.8076084,7.707888 7.4946219,7.8103162 7.1868131,7.9271122 6.8828053,8.0535207 6.7516498,8.1046387 6.6170514,8.1468439 6.4795855,8.1773813 6.4834452,7.9683761 6.4202882,7.750704 6.4918744,7.5477309 6.5638822,7.4026346 6.7282939,7.3399661 6.8673615,7.2765206 7.0913154,7.1880182 7.3197916,7.1123434 7.5369133,7.0067547 7.8851941,6.8472124 8.240086,6.6905507 8.5729321,6.5133429 8.7151881,6.4401056 8.8647996,6.3591016 9.0289068,6.3578347 Z M 3.7429303,7.5978829 c 0.6036292,0.2120019 1.1991126,0.4462765 1.7959739,0.676295 0.2016431,0.085176 0.4033365,0.1702325 0.6049474,0.2554844 0.010236,0.2228187 0.020667,0.4456289 0.030658,0.6684586 C 5.6976312,9.0931846 5.2655731,8.8562217 4.8062075,8.6984758 4.3137022,8.5192787 3.8081172,8.3223277 3.4218068,7.9554175 3.3847064,7.9211775 3.3493735,7.8850757 3.3129651,7.8501066 3.448409,7.7632448 3.5838288,7.676345 3.7192315,7.589419 c 0.0079,0.00283 0.0158,0.00564 0.023699,0.00847 z m 5.2321839,0.00583 c 0.1101675,0.066751 0.2202391,0.1336614 0.3304675,0.2003119 0.013519,0.059073 -0.01306,0.101248 -0.060376,0.1346698 C 8.8711351,8.300689 8.3808782,8.5026461 7.8990396,8.6774483 7.5293788,8.805418 7.1759507,8.9748496 6.8071191,9.1046629 6.6981835,9.1425807 6.5864376,9.1713939 6.4743192,9.1981211 6.484311,8.9752914 6.4947414,8.7524814 6.5049771,8.5296625 6.889617,8.3661378 7.2747562,8.2039142 7.6670502,8.0594446 8.0456837,7.9151355 8.4215332,7.7631007 8.8081349,7.6409203 c 0.053922,-0.00858 0.11231,-0.057613 0.1633148,-0.039432 z M 3.7429303,8.6169343 c 0.6037477,0.2116644 1.1989603,0.4466864 1.7959701,0.6763043 0.2016453,0.085234 0.4033325,0.170367 0.6049512,0.2556632 0.010383,0.2250749 0.020793,0.4501487 0.031035,0.6752302 C 5.1740759,9.8873403 4.1852923,9.4735632 3.3266954,8.8492208 3.457801,8.7691517 3.5888701,8.6890212 3.7197957,8.6086586 c 0.00772,0.00276 0.015423,0.00552 0.023135,0.00827 z m 5.204347,0.00283 C 9.0581666,8.678479 9.1692264,8.7368765 9.280002,8.7958087 9.2922839,8.8579265 9.2699704,8.9020226 9.2107769,8.926834 8.3796307,9.5109132 7.4316897,9.9005982 6.4739428,10.224136 6.48419,9.9990546 6.4945961,9.7739808 6.5049773,9.5489063 6.889615,9.3853724 7.2747535,9.2231464 7.6670725,9.0787426 8.0852211,8.9170603 8.5039691,8.757008 8.9273403,8.6094112 c 0.00665,0.00345 0.013292,0.0069 0.019937,0.010349 z M 3.9836807,9.6544181 c 0.2099544,0.016991 0.3797192,0.1596493 0.5744595,0.2258461 0.3789458,0.1553818 0.7561399,0.3143878 1.1349707,0.4699378 0.1540276,0.05769 0.3376395,0.0887 0.44491,0.224898 0.087135,0.153971 0.031737,0.338401 0.033118,0.505231 0.015869,0.07482 -0.085844,0.02522 -0.1285748,0.03793 C 5.5149512,11.108218 5.0118549,10.907138 4.5641707,10.639509 4.2213196,10.439063 3.8938392,10.213539 3.5503299,10.01404 3.6522675,9.8760338 3.7520871,9.7036536 3.9301511,9.6589269 c 0.017569,-0.00443 0.035561,-0.00402 0.05353,-0.00451 z m 4.6842887,0 c 0.1710009,0.00273 0.2822743,0.1574681 0.3751765,0.2813208 0.043737,0.048548 0.073647,0.094324 -0.0082,0.1165711 -0.5913172,0.344127 -1.1431515,0.784044 -1.8118077,0.97118 -0.2413686,0.06968 -0.4930543,0.09831 -0.7439213,0.09725 0.00348,-0.173899 -0.051922,-0.358485 0.019185,-0.524761 0.084985,-0.136758 0.2558734,-0.175377 0.3976931,-0.22707 0.2962944,-0.0999 0.5818136,-0.234888 0.8723144,-0.352348 C 7.99294,9.922175 8.2192825,9.8317304 8.4357044,9.7196601 8.5092704,9.6869631 8.5864363,9.6566321 8.667977,9.6544191 Z" />
  </g>
</svg>
