<?xml version="1.0" encoding="UTF-8" standalone="no"?>
<!-- Created with Inkscape (http://www.inkscape.org/) -->

<svg
   width="48"
   height="48"
   viewBox="0 0 12.446 12.446"
   version="1.1"
   id="svg5214"
   inkscape:version="1.1.2 (b8e25be833, 2022-02-05)"
   sodipodi:docname="Brijest_0.svg"
   xmlns:inkscape="http://www.inkscape.org/namespaces/inkscape"
   xmlns:sodipodi="http://sodipodi.sourceforge.net/DTD/sodipodi-0.dtd"
   xmlns="http://www.w3.org/2000/svg"
   xmlns:svg="http://www.w3.org/2000/svg">
  <sodipodi:namedview
     id="namedview5216"
     pagecolor="#ffffff"
     bordercolor="#666666"
     borderopacity="1.0"
     inkscape:pageshadow="2"
     inkscape:pageopacity="0.0"
     inkscape:pagecheckerboard="0"
     inkscape:document-units="mm"
     showgrid="false"
     inkscape:zoom="11.816274"
     inkscape:cx="16.375721"
     inkscape:cy="24.584739"
     inkscape:window-width="1746"
     inkscape:window-height="1051"
     inkscape:window-x="165"
     inkscape:window-y="-9"
     inkscape:window-maximized="1"
     inkscape:current-layer="layer1"
     units="px" />
  <defs
     id="defs5211">
    <inkscape:path-effect
       effect="fill_between_many"
       method="originald"
       linkedpaths="#path5328,0,1"
       id="path-effect5495"
       is_visible="true"
       lpeversion="0"
       join="true"
       close="true"
       autoreverse="true"
       applied="false" />
  </defs>
  <g
     inkscape:label="Layer 1"
     inkscape:groupmode="layer"
     id="layer1">
    <path
       inkscape:original-d="M 2.6819506,1.256515"
       inkscape:path-effect="#path-effect5495"
       d="M 6.1291182,0.0511931 C 5.9989186,0.0880501 5.9477475,0.2329632 5.8943254,0.3432519 5.8163424,0.5169197 5.7846092,0.7086265 5.6989276,0.878538 5.6420206,0.9888221 5.5133514,1.0241258 5.3979894,1.0260463 5.2898803,1.0233263 5.2010323,1.1098083 5.1853492,1.2137586 c -0.055483,0.2760098 0.010602,0.556425 0.00995,0.8343713 -0.171385,0.00378 -0.3476275,-0.042866 -0.5080607,0.016607 -0.1105668,0.054583 -0.1069809,0.1998289 -0.113669,0.306039 -0.00278,0.1594104 0.019287,0.3167254 0.021724,0.4781606 -0.1686244,0.00316 -0.341455,-0.040066 -0.5002503,0.012747 -0.1155699,0.049512 -0.1166191,0.196608 -0.1280458,0.3033561 -0.012859,0.2302328 0.024425,0.454188 0.026998,0.6851369 -0.2245465,0.00148 -0.4547799,-0.055748 -0.6751592,0.0067 -0.1006535,0.021313 -0.1288408,0.1339738 -0.1102745,0.2224921 0.051228,0.3012268 0.2284616,0.5525249 0.3286,0.8385489 -0.2191058,0.022063 -0.4435764,0.036893 -0.6410661,0.1474812 -0.076615,0.038644 -0.1160263,0.129621 -0.08197,0.2103418 0.093784,0.2545714 0.3300367,0.4178804 0.4551695,0.6545996 -0.00815,0.027444 -0.098987,0.015064 -0.138172,0.027609 -0.1442296,0.031376 -0.291822,0.055567 -0.4307916,0.1056665 -0.090214,0.03173 -0.1235748,0.1446081 -0.072281,0.2231328 0.1231244,0.2050954 0.2929996,0.3744238 0.4390334,0.562673 0.088789,0.1106384 0.1722907,0.2257079 0.2467375,0.3465921 -0.1559279,0.077423 -0.3047796,0.1708099 -0.4430597,0.2762034 -0.083372,0.060058 -0.079478,0.1776931 -0.022835,0.2543842 0.120681,0.1910903 0.3204655,0.3131075 0.4500075,0.497253 -0.1595445,0.05771 -0.3027767,0.153783 -0.4354098,0.257699 -0.064356,0.05149 -0.1003709,0.151004 -0.033806,0.216319 0.1557543,0.175628 0.4059888,0.237585 0.5508318,0.424478 0.1314349,0.223598 -0.1514188,0.379537 -0.2898077,0.504901 -0.078562,0.06335 -0.1231091,0.1839781 -0.054015,0.2705891 0.1224545,0.1497798 0.3169603,0.2106698 0.4878624,0.2872528 0.1701273,0.06254 0.3304101,0.149684 0.4699913,0.265987 0.179476,0.143994 0.3492832,0.287566 0.5570611,0.38601 0.4441714,0.227675 0.9470819,0.324045 1.4439867,0.319175 0,0.400127 0,0.800254 0,1.200379 0.1001243,0 0.2002481,0 0.3003721,0 0,-0.400125 0,-0.800252 0,-1.200379 0.6021025,0.0059 1.2198008,-0.137837 1.7191413,-0.483982 0.2282836,-0.165492 0.4334113,-0.374232 0.7054229,-0.468614 0.1827071,-0.08117 0.3887852,-0.142114 0.5266905,-0.2948868 0.074255,-0.0825 0.041519,-0.2094851 -0.039492,-0.2740941 C 9.0933133,9.5167831 8.909,9.4386961 8.8762461,9.2624081 8.8544721,9.1390221 8.983513,9.0722221 9.0672106,9.0118751 9.2098083,8.9052841 9.3852503,8.8200781 9.4716323,8.6568621 9.5246173,8.5420561 9.4104483,8.4476831 9.3225371,8.3953661 9.2237081,8.3306691 9.1263134,8.2635354 9.0227374,8.206489 9.0107758,8.1464694 9.0330773,8.1039833 9.0893461,8.0787459 9.2399889,7.9616251 9.4077823,7.8394116 9.4787843,7.6552457 9.5195363,7.526257 9.3927383,7.4273405 9.3001409,7.3623879 9.199448,7.292957 9.0861918,7.2451211 8.9730449,7.2000773 9.1626265,6.8829143 9.4337953,6.6227108 9.6422442,6.3225794 9.6979592,6.2506112 9.7074272,6.1321576 9.6201572,6.0796864 9.4980503,6.0105678 9.3538133,5.9982709 9.2195499,5.9648236 9.1510365,5.9520805 9.081243,5.9501656 9.0120246,5.9433546 9.1336584,5.7137172 9.3498013,5.5529436 9.4605503,5.3171182 9.4987403,5.2410355 9.5014563,5.1348858 9.4210183,5.0847272 9.2621959,4.975823 9.063639,4.9533859 8.8810608,4.9301734 8.8377918,4.9151326 8.7188878,4.9469103 8.7691453,4.8737288 8.8726334,4.5963022 9.0460834,4.3485147 9.0840084,4.0505998 9.0999444,3.9639815 9.0525004,3.8701635 8.9612235,3.8533133 8.7428825,3.7974333 8.5171042,3.8509333 8.2956397,3.8501833 8.2953181,3.5623084 8.3655887,3.2684132 8.2915797,2.9847207 8.2688557,2.8786207 8.1560876,2.837831 8.0585967,2.8378028 7.936573,2.8325828 7.8163328,2.8488578 7.6943459,2.8487588 7.6939769,2.6235741 7.7484279,2.3997458 7.6880659,2.1784549 7.6592189,2.0510591 7.5109656,2.0326221 7.4018841,2.0357828 c -0.1028389,0.00145 -0.204122,0.011578 -0.3071724,0.01217 -0.00203,-0.2839481 0.06867,-0.5655951 0.00372,-0.8469899 C 7.0770688,1.0979586 6.981173,1.0255598 6.8769487,1.0265136 6.7620222,1.0238984 6.6383096,0.9796004 6.5854022,0.8697343 6.4970004,0.6799157 6.4604047,0.469625 6.36779,0.2809978 6.3217376,0.1962371 6.2555287,0.0440046 6.1291182,0.0511931 Z"
       id="path5497"
       style="fill:#808080;stroke-width:0.00206919" />
    <path
       id="path5328"
       style="fill:#000000;stroke:none;stroke-width:0.0250248"
       d="M 6.1291182,0.0511931 C 5.9989186,0.0880501 5.9477475,0.2329632 5.8943254,0.3432519 5.8163424,0.5169197 5.7846092,0.7086265 5.6989276,0.878538 5.6420206,0.9888221 5.5133514,1.0241258 5.3979894,1.0260463 5.2898803,1.0233263 5.2010323,1.1098083 5.1853492,1.2137586 c -0.055483,0.2760098 0.010602,0.556425 0.00995,0.8343713 -0.171385,0.00378 -0.3476275,-0.042866 -0.5080607,0.016607 -0.1105668,0.054583 -0.1069809,0.1998289 -0.113669,0.306039 -0.00278,0.1594104 0.019287,0.3167254 0.021724,0.4781606 -0.1686244,0.00316 -0.341455,-0.040066 -0.5002503,0.012747 -0.1155699,0.049512 -0.1166191,0.196608 -0.1280458,0.3033561 -0.012859,0.2302328 0.024425,0.454188 0.026998,0.6851369 -0.2245465,0.00148 -0.4547799,-0.055748 -0.6751592,0.0067 -0.1006535,0.021313 -0.1288408,0.1339738 -0.1102745,0.2224921 0.051228,0.3012268 0.2284616,0.5525249 0.3286,0.8385489 -0.2191058,0.022063 -0.4435764,0.036893 -0.6410661,0.1474812 -0.076615,0.038644 -0.1160263,0.129621 -0.08197,0.2103418 0.093784,0.2545714 0.3300367,0.4178804 0.4551695,0.6545996 -0.00815,0.027444 -0.098987,0.015064 -0.138172,0.027609 -0.1442296,0.031376 -0.291822,0.055567 -0.4307916,0.1056665 -0.090214,0.03173 -0.1235748,0.1446081 -0.072281,0.2231328 0.1231244,0.2050954 0.2929996,0.3744238 0.4390334,0.562673 0.088789,0.1106384 0.1722907,0.2257079 0.2467375,0.3465921 -0.1559279,0.077423 -0.3047796,0.1708099 -0.4430597,0.2762034 -0.083372,0.060058 -0.079478,0.1776931 -0.022835,0.2543842 0.120681,0.1910903 0.3204655,0.3131075 0.4500075,0.497253 -0.1595445,0.05771 -0.3027767,0.153783 -0.4354098,0.257699 -0.064356,0.05149 -0.1003709,0.151004 -0.033806,0.216319 0.1557543,0.175628 0.4059888,0.237585 0.5508318,0.424478 0.1314349,0.223598 -0.1514188,0.379537 -0.2898077,0.504901 -0.078562,0.06335 -0.1231091,0.1839781 -0.054015,0.2705891 0.1224545,0.1497798 0.3169603,0.2106698 0.4878624,0.2872528 0.1701273,0.06254 0.3304101,0.149684 0.4699913,0.265987 0.179476,0.143994 0.3492832,0.287566 0.5570611,0.38601 0.4441714,0.227675 0.9470819,0.324045 1.4439867,0.319175 0,0.400127 0,0.800254 0,1.200379 0.1001243,0 0.2002481,0 0.3003721,0 0,-0.400125 0,-0.800252 0,-1.200379 0.6021025,0.0059 1.2198008,-0.137837 1.7191413,-0.483982 0.2282836,-0.165492 0.4334113,-0.374232 0.7054229,-0.468614 0.1827071,-0.08117 0.3887852,-0.142114 0.5266905,-0.2948868 0.074255,-0.0825 0.041519,-0.2094851 -0.039492,-0.2740941 C 9.0933133,9.5167831 8.909,9.4386961 8.8762461,9.2624081 8.8544721,9.1390221 8.983513,9.0722221 9.0672106,9.0118751 9.2098083,8.9052841 9.3852503,8.8200781 9.4716323,8.6568621 9.5246173,8.5420561 9.4104483,8.4476831 9.3225371,8.3953661 9.2237081,8.3306691 9.1263134,8.2635354 9.0227374,8.206489 9.0107758,8.1464694 9.0330773,8.1039833 9.0893461,8.0787459 9.2399889,7.9616251 9.4077823,7.8394116 9.4787843,7.6552457 9.5195363,7.526257 9.3927383,7.4273405 9.3001409,7.3623879 9.199448,7.292957 9.0861918,7.2451211 8.9730449,7.2000773 9.1626265,6.8829143 9.4337953,6.6227108 9.6422442,6.3225794 9.6979592,6.2506112 9.7074272,6.1321576 9.6201572,6.0796864 9.4980503,6.0105678 9.3538133,5.9982709 9.2195499,5.9648236 9.1510365,5.9520805 9.081243,5.9501656 9.0120246,5.9433546 9.1336584,5.7137172 9.3498013,5.5529436 9.4605503,5.3171182 9.4987403,5.2410355 9.5014563,5.1348858 9.4210183,5.0847272 9.2621959,4.975823 9.063639,4.9533859 8.8810608,4.9301734 8.8377918,4.9151326 8.7188878,4.9469103 8.7691453,4.8737288 8.8726334,4.5963022 9.0460834,4.3485147 9.0840084,4.0505998 9.0999444,3.9639815 9.0525004,3.8701635 8.9612235,3.8533133 8.7428825,3.7974333 8.5171042,3.8509333 8.2956397,3.8501833 8.2953181,3.5623084 8.3655887,3.2684132 8.2915797,2.9847207 8.2688557,2.8786207 8.1560876,2.837831 8.0585967,2.8378028 7.936573,2.8325828 7.8163328,2.8488578 7.6943459,2.8487588 7.6939769,2.6235741 7.7484279,2.3997458 7.6880659,2.1784549 7.6592189,2.0510591 7.5109656,2.0326221 7.4018841,2.0357828 c -0.1028389,0.00145 -0.204122,0.011578 -0.3071724,0.01217 -0.00203,-0.2839481 0.06867,-0.5655951 0.00372,-0.8469899 C 7.0770688,1.0979586 6.981173,1.0255598 6.8769487,1.0265136 6.7620222,1.0238984 6.6383096,0.9796004 6.5854022,0.8697343 6.4970004,0.6799157 6.4604047,0.469625 6.36779,0.2809978 6.3217376,0.1962371 6.2555287,0.0440046 6.1291182,0.0511931 Z M 5.9946341,1.270784 c 0,0.4102865 0,0.8205729 0,1.2308594 C 5.8366729,2.3740774 5.6786651,2.2465679 5.5208007,2.1188818 5.5111507,1.8615588 5.5018247,1.6042228 5.4923527,1.346893 c 0.1485175,0.0058 0.3046195,-0.017496 0.4220054,-0.1162071 0.047563,-0.036179 0.1013413,-0.08421 0.080277,0.010613 0,0.00982 0,0.019655 0,0.029483 z m 0.412873,-0.033066 c 0.089763,0.1229954 0.2556062,0.1078654 0.3897814,0.1082513 -0.00941,0.2576402 -0.018808,0.5152812 -0.028448,0.7729125 -0.157247,0.127196 -0.3146537,0.2541941 -0.4719867,0.3812838 0.00698,-0.3770219 -0.083434,-0.7570527 -0.00932,-1.1314072 0.013545,-0.066952 0.041541,-0.1294362 0.065292,-0.1931106 0.018226,0.02069 0.036452,0.04138 0.05468,0.062069 z M 7.3961846,2.3983791 C 7.3909646,2.5711028 7.3856146,2.7438222 7.3804836,2.9165483 7.2318762,3.0642596 7.0880379,3.2172343 6.9194851,3.3428551 6.712301,3.5123811 6.505219,3.6820317 6.2979627,3.8514692 6.3026927,3.5649763 6.2357227,3.2764233 6.2885027,2.9917667 6.3411807,2.7334198 6.5786737,2.5677163 6.8064352,2.4697515 6.9925326,2.3890555 7.1946386,2.343813 7.3978457,2.344992 c -5.471e-4,0.017796 -0.00109,0.035591 -0.00168,0.053387 z m -2.4508197,-0.05154 c 0.303144,0.00978 0.610563,0.1104425 0.8453366,0.3056287 C 5.9329398,2.7680243 6.0166895,2.9453867 6.018967,3.1282937 6.03103,3.369725 5.990613,3.6098665 5.991495,3.8512844 5.7161333,3.6234334 5.4353293,3.4015891 5.1635678,3.1697364 5.0788048,3.0853614 4.9942166,3.0008107 4.9093424,2.9165482 c -0.00569,-0.19046 -0.011508,-0.3809165 -0.017364,-0.5713715 0.017795,5.588e-4 0.035591,0.00111 0.053387,0.00165 z M 4.3442518,3.147646 C 4.6509869,3.142836 4.9265044,3.3105082 5.1480322,3.508473 5.3462888,3.6840353 5.5292066,3.872586 5.747309,4.0250013 5.8715608,4.1183223 5.9974345,4.2413115 6.004919,4.4067198 6.022168,4.5830319 5.990531,4.7592896 5.992047,4.9358373 5.5686793,4.6808736 5.1402297,4.4340455 4.7200119,4.1740409 4.5865688,4.0869606 4.4531263,3.9998795 4.3196826,3.9127998 c -0.00936,-0.255487 -0.019252,-0.5109543 -0.028448,-0.766447 0.017672,4.338e-4 0.035346,8.598e-4 0.053017,0.0013 z m 3.6524918,0.051909 c -0.00886,0.2389184 -0.017807,0.4778334 -0.0266,0.7167542 C 7.7023981,4.0936706 7.4345509,4.2708501 7.1547012,4.428781 6.8690108,4.5976977 6.5832119,4.7664298 6.2975936,4.935468 6.3032436,4.7229147 6.2450536,4.5038036 6.3090666,4.29595 6.3870726,4.1016678 6.5880302,4.0033825 6.7392826,3.8738216 7.0258326,3.6314573 7.2780339,3.3207999 7.6445215,3.1968119 c 0.1134727,-0.039971 0.234455,-0.051012 0.3540689,-0.050459 -6.253e-4,0.017734 -0.00125,0.035468 -0.00185,0.053202 z m 0.364658,0.9410173 c 0.1202087,-6.644e-4 0.2401721,0.00975 0.3604096,0.00924 C 8.6212665,4.3916273 8.5206962,4.6334332 8.420146,4.8752473 8.0589693,5.0704622 7.6985755,5.2672009 7.3279343,5.4440976 6.9845403,5.6142581 6.6412155,5.7845569 6.2977772,5.9546279 6.3018765,5.7506908 6.243678,5.5410667 6.3027166,5.3411328 6.367119,5.1829362 6.5339435,5.1037825 6.6754453,5.0263638 6.8679437,4.9349851 7.0525882,4.827315 7.2260816,4.7019528 7.5376111,4.4922862 7.8446459,4.252628 8.2139861,4.1555373 c 0.048483,-0.00987 0.09802,-0.013646 0.1474152,-0.014963 z m -4.7170937,0.00795 c 0.1649127,0.00932 0.3334972,0.00596 0.4961926,0.02293 0.4250809,0.2535296 0.8553151,0.4987395 1.277177,0.7574644 0.1833504,0.118656 0.3665269,0.2375814 0.5499862,0.3560685 0.010503,0.2243136 0.020516,0.4486511 0.030851,0.6729733 C 5.4782117,5.6978151 4.9541263,5.4449984 4.4362633,5.1801383 4.2473478,5.0784936 4.0583736,4.9769582 3.8694943,4.8752457 3.768445,4.6320796 3.6673792,4.3889204 3.5663516,4.1457448 c 0.025985,9.37e-4 0.051971,0.00185 0.077956,0.00277 z m 4.9596449,1.0302451 c 0.1588734,1.797e-4 0.3068238,0.071047 0.4649667,0.080358 -0.09322,0.2688916 -0.2810357,0.4976 -0.5158108,0.6560138 C 8.1112226,6.2200929 7.57954,6.3488841 7.1119821,6.6058692 6.8510387,6.7405301 6.5863112,6.876785 6.2974075,6.9403492 6.3008464,6.7409901 6.2413068,6.5329924 6.3116317,6.3397907 6.3946616,6.1849639 6.5722319,6.1189486 6.7237224,6.0504329 7.0375769,5.9317735 7.3319913,5.7658607 7.6341801,5.6190897 7.8679873,5.5048456 8.0992598,5.3857874 8.3271585,5.2603859 8.4142646,5.2194904 8.506469,5.181667 8.6039528,5.1787594 Z m -4.9154943,1.892e-4 c 0.2405409,0.018202 0.432208,0.1844013 0.6455145,0.2793456 0.3416603,0.1676809 0.6784939,0.3456668 1.0232984,0.5066433 0.2010589,0.088831 0.4293062,0.1492293 0.5831252,0.3154942 0.1021087,0.1343246 0.068225,0.315404 0.061257,0.4720511 -0.00563,0.063103 -0.00689,0.1264457 -0.00942,0.1897185 C 5.4896255,6.8123592 5.0578457,6.5094229 4.5758161,6.3266415 4.1730271,6.1587006 3.7410649,5.9966238 3.4479393,5.657395 3.3464865,5.540912 3.2752441,5.4023391 3.2205361,5.2587461 3.380232,5.2502613 3.5284566,5.1792165 3.6884585,5.1789425 Z M 3.4887648,6.1783407 c 0.2540819,0.00735 0.4596753,0.1790337 0.6861481,0.2725496 0.3807632,0.1727932 0.7566376,0.3573263 1.142874,0.517427 0.2109098,0.084322 0.4450546,0.1429389 0.6138544,0.3034433 0.1093534,0.1264277 0.080246,0.3079488 0.073412,0.4616795 -0.00674,0.077616 -0.010361,0.1554189 -0.012821,0.2332765 C 5.6136958,7.8792561 5.2690866,7.6925768 4.8996571,7.5768161 4.4101282,7.4072765 3.8923591,7.2496354 3.5016533,6.8926607 3.3677121,6.7649438 3.2492583,6.6209144 3.1413537,6.4708139 3.0976926,6.4077375 3.0727612,6.3347587 3.0524313,6.2614634 3.2001472,6.2444295 3.3395391,6.1825423 3.4887648,6.1783351 Z m 5.3122955,0 C 8.950276,6.1826107 9.089815,6.2443647 9.2373939,6.2614687 9.1906285,6.4737507 9.0250403,6.6258421 8.892763,6.7875262 8.5531532,7.160766 8.0670592,7.3436881 7.6015516,7.5043066 7.2941495,7.6049077 6.9918325,7.7196196 6.6932486,7.843773 6.5644333,7.893979 6.4322362,7.9354312 6.2972227,7.9654235 6.3010132,7.7601473 6.2389836,7.5463588 6.3092938,7.347007 6.380017,7.2044997 6.5414952,7.1429491 6.6780815,7.0806359 6.8980396,6.9937123 7.1224396,6.9193877 7.3356873,6.8156827 7.6777542,6.6589868 8.0263142,6.5051205 8.3532219,6.3310741 8.49294,6.2591433 8.6398821,6.1795848 8.8010615,6.1783407 Z M 3.6093939,7.3962633 c 0.5928594,0.2082193 1.1777185,0.4383141 1.7639308,0.6642286 0.1980453,0.083655 0.3961404,0.1671954 0.5941542,0.2509262 0.010053,0.218843 0.020297,0.437678 0.030113,0.656532 C 5.5292199,8.8648861 5.1048702,8.6321511 4.6537004,8.4772201 4.1699823,8.3012201 3.6734178,8.1077827 3.2939997,7.747419 3.2575611,7.7137897 3.2228585,7.678332 3.1870998,7.6439867 3.3201272,7.5586747 3.4531309,7.4733253 3.5861179,7.3879503 c 0.00776,0.00277 0.015517,0.00554 0.023276,0.00831 z m 5.1388336,0.00573 C 8.8564298,7.4675553 8.964537,7.533272 9.0727992,7.598733 9.0860772,7.656753 9.0599702,7.698175 9.0135002,7.731 8.6461037,8.086532 8.1645935,8.2848861 7.6913517,8.4565691 7.328286,8.5822561 6.981164,8.7486651 6.6189127,8.8761621 c -0.1069922,0.03724 -0.2167443,0.06554 -0.3268622,0.09179 0.00981,-0.218853 0.020058,-0.437688 0.030109,-0.656532 0.377777,-0.1606068 0.756045,-0.3199363 1.1413398,-0.4618285 0.371878,-0.1417344 0.7410218,-0.2910563 1.1207257,-0.411057 0.05296,-0.00843 0.110306,-0.056584 0.1604013,-0.03873 z M 3.6093939,8.3971401 c 0.5929757,0.207888 1.1775689,0.438717 1.7639271,0.664238 0.1980476,0.08371 0.3961363,0.167327 0.5941579,0.251101 0.010196,0.22106 0.020422,0.4421181 0.03048,0.6631831 C 5.0150051,9.6448751 4.0438631,9.2384801 3.2005848,8.6252771 c 0.1287665,-0.07864 0.2574972,-0.157341 0.3860868,-0.23627 0.00758,0.0027 0.015149,0.0054 0.022722,0.0081 z m 5.1114935,0.0028 c 0.1089106,0.05767 0.2179889,0.115027 0.326788,0.172908 0.012063,0.06101 -0.00986,0.104319 -0.06799,0.128687 -0.8163172,0.573654 -1.7473453,0.956386 -2.6880044,1.2741521 0.010059,-0.221067 0.020285,-0.4421251 0.03048,-0.6631831 0.377775,-0.160612 0.7560422,-0.319944 1.1413616,-0.461771 0.4106882,-0.158798 0.8219653,-0.315995 1.2377827,-0.460958 0.00652,0.0034 0.013055,0.0068 0.019582,0.01016 z m -4.8750385,1.016196 c 0.2062085,0.01669 0.3729444,0.156802 0.5642102,0.221817 0.3721847,0.1526081 0.7426492,0.3087781 1.1147212,0.4615529 0.1512795,0.05666 0.3316154,0.08712 0.4369721,0.220887 0.08558,0.151222 0.031172,0.332363 0.032528,0.496215 0.015588,0.07349 -0.084311,0.02477 -0.1262808,0.03724 C 5.3497988,10.843948 4.8556785,10.646502 4.4159817,10.383649 4.0792476,10.18678 3.75761,9.9652802 3.4202294,9.7693392 3.5203483,9.6337951 3.6183869,9.4644911 3.7932739,9.4205611 c 0.017256,-0.0043 0.034927,-0.0039 0.052575,-0.0044 z m 4.6007135,0 c 0.1679502,0.0027 0.2772383,0.154659 0.3684829,0.276301 0.042958,0.04768 0.072334,0.09264 -0.00806,0.1144921 -0.580767,0.3379868 -1.1227558,0.7700548 -1.7794819,0.9538528 -0.2370623,0.06844 -0.4842578,0.09655 -0.7306486,0.09551 0.0034,-0.170797 -0.050995,-0.352089 0.018843,-0.515398 0.083468,-0.134319 0.2513084,-0.172247 0.3905976,-0.223019 0.2910081,-0.09811 0.5714331,-0.2306978 0.8567509,-0.3460618 0.2205247,-0.0927 0.442829,-0.1815321 0.6553897,-0.2916041 0.072253,-0.03211 0.1480427,-0.0619 0.2281279,-0.06407 z" />
  </g>
</svg>
