<?xml version="1.0" encoding="UTF-8" standalone="no"?>
<!-- Created with Inkscape (http://www.inkscape.org/) -->

<svg
   width="48"
   height="48"
   viewBox="0 0 12.7 12.7"
   version="1.1"
   id="svg5"
   inkscape:version="1.1.2 (b8e25be833, 2022-02-05)"
   sodipodi:docname="cempres.svg"
   xmlns:inkscape="http://www.inkscape.org/namespaces/inkscape"
   xmlns:sodipodi="http://sodipodi.sourceforge.net/DTD/sodipodi-0.dtd"
   xmlns="http://www.w3.org/2000/svg"
   xmlns:svg="http://www.w3.org/2000/svg">
  <sodipodi:namedview
     id="namedview7"
     pagecolor="#ffffff"
     bordercolor="#666666"
     borderopacity="1.0"
     inkscape:pageshadow="2"
     inkscape:pageopacity="0.0"
     inkscape:pagecheckerboard="0"
     inkscape:document-units="mm"
     showgrid="false"
     units="px"
     inkscape:zoom="8.647654"
     inkscape:cx="32.552181"
     inkscape:cy="23.185479"
     inkscape:window-width="1746"
     inkscape:window-height="1051"
     inkscape:window-x="165"
     inkscape:window-y="-9"
     inkscape:window-maximized="1"
     inkscape:current-layer="layer1" />
  <defs
     id="defs2" />
  <g
     inkscape:label="Layer 1"
     inkscape:groupmode="layer"
     id="layer1">
    <path
       style="fill:#000000;stroke:none;stroke-width:0.0243001"
       d="m 7.4083975,1.6641217 h -0.0243 c 0,-0.2691749 0.00707,-0.68177136 -0.1322419,-0.92085533 C 7.1500137,0.56853393 6.890707,0.60316157 6.822959,0.78942927 6.740435,1.0163268 6.898095,1.437924 6.898095,1.6884218 c 0,0.5383399 -0.1397988,0.9344367 -0.3645018,1.4094069 H 6.5092925 C 6.6160434,2.6506579 6.5932737,2.0856364 6.487714,1.6398216 6.4396241,1.4367771 6.1681436,1.2316452 6.0276404,1.4950901 c -0.072536,0.1360174 0.00331,0.319724 0.02311,0.460633 0.040023,0.2846128 0.044761,0.5649438 0.017009,0.8505041 C 5.9870348,3.6371698 5.5792059,4.295217 5.0026855,4.8717372 5.2424063,4.1350549 5.3568598,3.3859065 5.2630614,2.6118263 5.2411427,2.4310019 5.2373275,2.1589839 5.1307958,2.005655 c -0.09929,-0.1429163 -0.3020991,-0.1507677 -0.3988621,0 -0.085415,0.1330918 -0.00807,0.3189366 0.017448,0.4603706 0.058029,0.3218065 0.066534,0.6456298 0.058539,0.9720048 C 4.7808984,4.5414984 4.2722726,5.6727668 3.3259774,6.256844 3.7391037,5.5490057 3.8773714,4.7741725 3.9536494,3.972633 3.9682053,3.8198095 3.9784113,3.5527269 3.9048306,3.4147994 3.8367174,3.2871023 3.6373592,3.248052 3.5305601,3.3513761 3.4122672,3.4658053 3.4699799,3.6357847 3.471681,3.778232 3.4752288,4.0752523 3.4462873,4.3857107 3.387967,4.677336 3.1703352,5.7656899 2.584265,6.8618927 1.5277687,7.3017489 2.0433759,6.6308718 2.2825887,5.7941208 2.39226,4.9689374 2.4220835,4.7445503 2.507462,4.0766132 2.1110663,4.1747856 1.8482023,4.2398856 1.9148355,4.8732921 1.8885016,5.0904383 1.7897459,5.9047842 1.4116943,6.7377191 0.86761467,7.3503494 0.74870934,7.4842427 0.63318411,7.6424367 0.48286362,7.7427237 0.34410579,7.8352582 0.11035524,7.8600439 0.12584308,8.079353 0.15275528,8.4604519 0.63232391,8.2248129 0.82306523,8.1534684 1.7517769,7.8060981 2.7146594,7.6504316 3.6904792,7.9265051 3.9350356,7.9956877 4.5696088,8.3771997 4.7275596,8.0546885 4.8547464,7.7949686 4.4975104,7.6844034 4.3222822,7.6188652 3.7972539,7.4224966 3.2317901,7.3017489 2.6698743,7.3017489 v -0.0243 C 3.4783634,7.056755 4.1785227,6.8674574 5.0269857,6.9924575 5.3237873,7.036173 5.620832,7.1089273 5.9017899,7.2148764 6.0369717,7.2658575 6.1925647,7.3634223 6.3366406,7.2878255 6.7709568,7.0599383 6.1307213,6.7707431 5.9503902,6.7123493 5.2565975,6.487695 4.6017093,6.4754725 3.8848802,6.4755451 v -0.0243 C 4.2550196,6.2669045 4.5550288,6.0143529 4.9540854,5.869354 5.4935479,5.6733252 6.106956,5.5880077 6.6793939,5.6272283 6.9916986,5.6486121 7.2935066,5.7455698 7.6027988,5.7708413 7.2621587,6.1114805 6.9623686,6.4461903 6.7598025,6.8886474 6.1651303,8.1873667 6.6599297,9.752003 7.3318519,10.922468 c 0.5641758,0.982745 1.6009644,1.99691 2.8224581,1.529327 0.209637,-0.08024 0.406979,-0.200889 0.583203,-0.338987 0.28594,-0.224047 0.52775,-0.505174 0.735784,-0.801539 0.323289,-0.460511 0.5781,-0.975552 0.762464,-1.5066078 0.2309,-0.6650939 0.372424,-1.3616328 0.295928,-2.0655102 -0.0365,-0.3359735 -0.140334,-0.830626 -0.369946,-1.0908566 -0.121864,-0.1380969 -0.363408,-0.1279639 -0.417378,0.070349 -0.03232,0.1188274 0.03074,0.2292474 0.06235,0.3401047 C 11.162911,7.1096326 10.628358,7.1245773 10.03281,6.8216755 9.9062793,6.7573046 9.5682889,6.6046515 9.5429925,6.4490576 9.5287771,6.3617232 9.6226241,6.2574759 9.6593172,6.1839437 9.7452179,6.0117289 9.8226627,5.817741 9.8384091,5.6250406 c 0.15608,0.00323 0.3342239,0.090494 0.4859779,0.062354 0.18908,-0.03504 0.264191,-0.2854774 0.115985,-0.4144626 C 10.292529,5.1442877 10.020466,5.1585757 9.8384091,5.1147381 9.9932741,4.8490897 10.208938,4.9273114 10.418963,4.7808063 10.522894,4.7083192 10.551399,4.5444144 10.472788,4.4426698 10.271097,4.1816139 9.7443674,4.464151 9.575336,4.6329639 9.4539811,4.754125 9.4058186,5.0009171 9.2728236,5.0907304 9.1535343,5.1712849 8.9331084,5.1618563 8.7935043,5.1967511 8.5798574,5.2501633 8.3366379,5.4095715 8.1234042,5.4268738 7.995197,5.4372741 7.8232733,5.3444714 7.699999,5.3091394 7.4631212,5.2412445 7.2154786,5.1999105 6.9709954,5.1702645 6.4162473,5.1030254 5.8641005,5.1480055 5.3185872,5.2605388 5.9257742,4.6533521 6.5377482,4.2537853 7.4083975,4.1496593 c 0.284141,-0.033972 0.5924368,-0.020048 0.8748043,0.020558 0.1407466,0.020242 0.3291211,0.093483 0.4590532,0.00309 C 9.1090896,3.918079 8.5489237,3.7152945 8.3561022,3.6879569 7.775864,3.6057009 7.1650798,3.6482261 6.6064936,3.8268321 7.0008838,3.2777951 7.3236632,2.7618065 7.9187,2.4078072 8.1617009,2.2632409 8.4253821,2.1511809 8.6963041,2.0704366 8.8228344,2.0327252 9.0055716,2.0266064 9.082919,1.9044789 9.2032525,1.7144835 9.0394699,1.5331949 8.8421039,1.5449076 8.4914539,1.5657206 8.162454,1.7509871 7.8457997,1.8828226 8.0101168,1.4881255 8.2210902,1.1146788 8.380402,0.716417 8.4386497,0.57078638 8.5579142,0.37941566 8.4408126,0.2336582 8.3223003,0.0861579 8.1233308,0.12901229 8.0353158,0.28006489 7.7910025,0.69941907 7.5954109,1.2149071 7.4083975,1.6641215 M 9.3524064,5.6007408 C 9.2072137,6.5837775 8.0911582,7.1553411 7.1896965,7.1559481 7.228017,6.9409649 7.3790675,6.7432352 7.5087571,6.5727453 7.9292464,6.0199911 8.6469257,5.6065728 9.3524064,5.6007408 M 11.1529,5.743091 C 10.882512,5.86289 11.09567,6.2979355 11.368855,6.1552942 11.633945,6.0168804 11.426175,5.6220282 11.1529,5.743091 M 10.15431,7.3989499 C 10.041874,7.5585528 9.7402363,7.9498333 9.5468077,7.9980444 9.4597406,8.0197689 9.3814454,7.9135773 9.3281066,7.8606271 9.1817962,7.7153857 9.0359707,7.5695611 8.8907293,7.4232498 8.8431491,7.3753059 8.749934,7.3063658 8.749934,7.2311087 8.749934,7.1371647 9.1191988,6.85555 9.2066057,6.868599 9.3102221,6.884078 9.4139587,7.007596 9.4982072,7.0649198 9.6987325,7.2013406 9.919985,7.3319542 10.15431,7.3989499 M 9.1823059,8.3709544 v 0.0243 L 8.5505034,9.0270578 C 8.4742003,9.10336 8.3677662,9.2588079 8.258902,9.2859512 8.1200262,9.3205788 7.8855548,8.9939126 7.7971991,8.9055569 L 7.2382961,8.3466546 C 7.1548016,8.2631592 7.0256456,8.1701866 6.9860126,8.0550532 6.9431468,7.930515 7.0093894,7.7468787 7.019595,7.617651 L 7.7971991,7.5738134 8.2346013,7.4701246 8.5262027,7.7148512 9.1823059,8.3709544 M 12.00112,7.4961501 C 12.03203,7.6602 12.118732,7.9175872 12.05937,8.079353 11.953689,8.3672118 11.51201,8.6656667 11.296419,8.8812571 11.198809,8.9788711 10.961126,9.3140423 10.810416,9.2962789 10.701209,9.2833998 10.591349,9.1238934 10.518812,9.0513576 L 9.8627089,8.3952542 10.397312,7.8363521 l 0.291602,-0.2526242 0.486001,0.00962 0.826205,-0.0972 M 9.5468077,10.630866 h -0.0243 L 8.5748032,9.6831612 C 8.7586095,9.4222261 9.029628,9.2040107 9.2552063,8.9784573 9.3188002,8.9148643 9.4228528,8.7647864 9.5225079,8.7647864 c 0.1624463,0 0.4249362,0.3713055 0.5346021,0.4809725 0.09356,0.093555 0.383772,0.2961212 0.383772,0.4374023 0,0.099654 -0.150077,0.2037077 -0.213671,0.2673007 L 9.5468077,10.630866 M 12.00112,8.8569564 11.612317,10.096263 c -0.114891,-0.05358 -0.408071,-0.2725012 -0.408071,-0.4131018 0,-0.092632 0.130467,-0.1840735 0.18937,-0.2430018 0.194596,-0.1946926 0.382265,-0.4245471 0.607504,-0.583203 m -4.9086246,0.024301 0.558903,0.5589023 c 0.058904,0.058928 0.189371,0.1503699 0.189371,0.2430018 0,0.1380969 -0.2803258,0.3402495 -0.3837713,0.4131015 L 7.1382772,9.2214581 7.0924954,8.8812571 m 1.1421059,1.1421049 0.9477046,0.947705 v 0.0243 l -0.4374021,0.437402 c -0.056692,0.05657 -0.132849,0.161887 -0.2187011,0.17202 -0.1030083,0.01215 -0.1957615,-0.129275 -0.2532313,-0.19632 -0.1592392,-0.185774 -0.3078337,-0.375363 -0.4374747,-0.583203 -0.045587,-0.07312 -0.1354491,-0.174085 -0.115645,-0.2673 0.0382,-0.179724 0.3696533,-0.432397 0.5147496,-0.534604 m 2.6001127,0 c 0.134137,0.134137 0.451836,0.348465 0.499464,0.534604 0.02109,0.08242 -0.06175,0.17863 -0.103178,0.243001 -0.136615,0.212262 -0.279451,0.419857 -0.449017,0.607502 -0.05497,0.06082 -0.147453,0.189371 -0.23887,0.189371 -0.112607,0 -0.243366,-0.189735 -0.315902,-0.262271 -0.08111,-0.08111 -0.3108713,-0.239964 -0.3108713,-0.364502 0,-0.09965 0.1500773,-0.203707 0.2136703,-0.2673 0.225554,-0.225579 0.443769,-0.496599 0.704704,-0.680405 m -0.704704,1.919711 c -0.4307916,0.166188 -0.7621243,0.175786 -1.190705,0 0.065294,-0.140018 0.4175246,-0.578173 0.5832029,-0.578173 0.077031,0 0.1452414,0.092 0.1944003,0.140794 0.1408192,0.139774 0.2986968,0.274956 0.4131018,0.437379 z"
       id="path854" />
  </g>
</svg>
