<?xml version="1.0" encoding="UTF-8" standalone="no"?>
<!-- Generator: Adobe Illustrator 22.1.0, SVG Export Plug-In . SVG Version: 6.00 Build 0)  -->

<svg
   version="1.1"
   id="Layer_1"
   x="0px"
   y="0px"
   viewBox="0 0 48 48"
   xml:space="preserve"
   sodipodi:docname="Crkvina_0.svg"
   inkscape:version="1.1.2 (b8e25be833, 2022-02-05)"
   width="48"
   height="48"
   xmlns:inkscape="http://www.inkscape.org/namespaces/inkscape"
   xmlns:sodipodi="http://sodipodi.sourceforge.net/DTD/sodipodi-0.dtd"
   xmlns="http://www.w3.org/2000/svg"
   xmlns:svg="http://www.w3.org/2000/svg"><defs
   id="defs7606"><inkscape:path-effect
     effect="fill_between_many"
     method="originald"
     linkedpaths="#g7601,0,1"
     id="path-effect8034"
     is_visible="true"
     lpeversion="0"
     join="true"
     close="true"
     autoreverse="true"
     applied="false" /></defs><sodipodi:namedview
   id="namedview7604"
   pagecolor="#ffffff"
   bordercolor="#666666"
   borderopacity="1.0"
   inkscape:pageshadow="2"
   inkscape:pageopacity="0.0"
   inkscape:pagecheckerboard="0"
   showgrid="false"
   inkscape:zoom="6.6482759"
   inkscape:cx="39.183091"
   inkscape:cy="49.561722"
   inkscape:window-width="1746"
   inkscape:window-height="1051"
   inkscape:window-x="165"
   inkscape:window-y="-9"
   inkscape:window-maximized="1"
   inkscape:current-layer="Layer_1" />
<style
   type="text/css"
   id="style7553">
	.st0{fill:#00703C;}
</style>
<path
   inkscape:original-d="M -18.350622,-5.4149377"
   inkscape:path-effect="#path-effect8034"
   d="M -18.350622,-5.4149377"
   id="path8036"
   style="stroke-width:0.575547" /><g
   id="g7601"
   transform="matrix(0.57554704,0,0,0.57554704,-18.350622,-5.4149377)">
	
	<g
   id="g7559">
		
	</g>
	
	<g
   id="g7565">
		
	</g>
	
	<g
   id="g7571">
		
	</g>
	
	<g
   id="g7577">
		
	</g>
	
	<g
   id="g7583">
		
	</g>
	
	<g
   id="g7589">
		
	</g>
	
	<g
   id="g7597">
		
		
	</g>
	<path
   id="path7599"
   style="fill:#000000"
   class="st0"
   d="m 72.92,89.33 c -0.17,0 -0.31,-0.14 -0.31,-0.31 L 72.44,68.55 c 0,-0.17 0.14,-0.31 0.31,-0.31 v 0 c 0.17,0 0.31,0.14 0.31,0.31 l 0.17,20.47 c 0.01,0.17 -0.13,0.31 -0.31,0.31 z m 0.21,2.65 c -0.13,0 -0.26,-0.04 -0.38,-0.13 -0.27,-0.21 -0.33,-0.6 -0.12,-0.88 1.87,-2.47 3.75,-9.77 4.06,-14.18 0.25,-3.54 -2.91,-9.57 -4.19,-11.86 -1.89,3.66 -2.92,10.37 -2.93,12.61 0,2.54 2.47,12.09 2.5,12.19 0.09,0.33 -0.11,0.68 -0.45,0.76 -0.33,0.08 -0.68,-0.11 -0.76,-0.45 -0.1,-0.4 -2.54,-9.81 -2.54,-12.51 0.01,-2.62 1.27,-10.61 3.67,-14.19 l 0.54,-0.82 0.51,0.84 c 0.21,0.35 5.24,8.7 4.9,13.51 -0.33,4.77 -2.25,12.13 -4.31,14.84 -0.13,0.19 -0.32,0.27 -0.5,0.27 z M 78.12,30.3 c -0.08,0 -0.16,-0.03 -0.22,-0.1 -0.12,-0.12 -0.12,-0.32 0.01,-0.44 l 9.53,-9.27 c 0.12,-0.12 0.32,-0.12 0.44,0.01 0.12,0.12 0.12,0.32 -0.01,0.44 l -9.53,9.27 c -0.06,0.06 -0.14,0.09 -0.22,0.09 z m -4.03,4.48 c -0.31,0 -0.58,-0.23 -0.62,-0.55 -0.04,-0.34 0.2,-0.65 0.54,-0.7 2.57,-0.33 8.05,-3.39 10.86,-5.71 2.18,-1.79 3.87,-6.72 4.53,-8.88 -3.19,1.03 -7.71,4.11 -9.09,5.41 -1.51,1.42 -5.77,8.28 -5.81,8.34 -0.19,0.29 -0.57,0.38 -0.86,0.2 -0.29,-0.18 -0.38,-0.57 -0.2,-0.86 0.18,-0.29 4.39,-7.06 6.02,-8.6 1.58,-1.49 7.15,-5.33 10.74,-5.99 l 0.96,-0.18 -0.25,0.95 c -0.09,0.33 -2.12,8 -5.24,10.57 -3.07,2.52 -8.64,5.62 -11.5,5.98 -0.03,0.02 -0.06,0.02 -0.08,0.02 z m 5.05,14.39 c -0.08,0 -0.16,-0.03 -0.22,-0.1 -0.12,-0.12 -0.12,-0.32 0.01,-0.44 l 9.53,-9.27 c 0.12,-0.12 0.32,-0.12 0.44,0.01 0.12,0.12 0.12,0.32 -0.01,0.44 l -9.53,9.27 c -0.07,0.06 -0.15,0.09 -0.22,0.09 z m -4.04,4.48 c -0.31,0 -0.58,-0.23 -0.62,-0.55 -0.04,-0.34 0.2,-0.66 0.54,-0.7 2.57,-0.32 8.05,-3.39 10.87,-5.71 2.18,-1.79 3.87,-6.72 4.53,-8.88 -3.19,1.03 -7.71,4.11 -9.09,5.41 -1.51,1.43 -5.77,8.28 -5.81,8.34 -0.19,0.29 -0.57,0.38 -0.86,0.2 -0.29,-0.18 -0.38,-0.57 -0.2,-0.86 0.18,-0.29 4.39,-7.06 6.02,-8.59 1.58,-1.49 7.15,-5.33 10.74,-5.99 l 0.96,-0.18 -0.25,0.95 c -0.09,0.33 -2.12,8 -5.24,10.57 -3.08,2.53 -8.65,5.62 -11.51,5.98 -0.03,0.01 -0.05,0.01 -0.08,0.01 z M 68.92,30.3 c -0.08,0 -0.16,-0.03 -0.22,-0.09 l -9.54,-9.27 c -0.12,-0.12 -0.13,-0.32 -0.01,-0.44 0.12,-0.12 0.32,-0.12 0.44,-0.01 l 9.54,9.27 c 0.12,0.12 0.13,0.32 0.01,0.44 -0.06,0.07 -0.14,0.1 -0.22,0.1 z m 4.03,4.48 c -0.02,0 -0.05,0 -0.08,0 C 70.01,34.42 64.44,31.32 61.37,28.8 58.25,26.23 56.22,18.56 56.13,18.23 l -0.25,-0.95 0.96,0.18 c 3.59,0.66 9.15,4.5 10.73,5.99 1.63,1.54 5.84,8.31 6.02,8.6 0.18,0.29 0.09,0.68 -0.2,0.86 -0.29,0.18 -0.68,0.09 -0.86,-0.2 -0.04,-0.07 -4.3,-6.92 -5.81,-8.34 -1.38,-1.3 -5.89,-4.38 -9.08,-5.41 0.66,2.16 2.35,7.09 4.53,8.88 2.82,2.32 8.29,5.38 10.86,5.71 0.34,0.04 0.59,0.36 0.54,0.7 -0.04,0.3 -0.31,0.53 -0.62,0.53 z M 67.9,49.17 c -0.08,0 -0.16,-0.03 -0.22,-0.09 l -9.53,-9.27 c -0.12,-0.12 -0.13,-0.32 -0.01,-0.44 0.12,-0.12 0.32,-0.12 0.44,-0.01 l 9.53,9.27 c 0.12,0.12 0.13,0.32 0.01,0.44 -0.06,0.07 -0.14,0.1 -0.22,0.1 z m 4.03,4.48 c -0.02,0 -0.05,0 -0.08,0 C 68.99,53.29 63.42,50.2 60.35,47.67 57.23,45.1 55.2,37.43 55.11,37.1 l -0.25,-0.95 0.96,0.18 c 3.58,0.66 9.14,4.5 10.73,5.99 1.63,1.54 5.84,8.31 6.02,8.6 0.18,0.29 0.09,0.68 -0.2,0.86 -0.29,0.18 -0.68,0.09 -0.86,-0.2 -0.04,-0.07 -4.3,-6.92 -5.81,-8.35 -1.32,-1.24 -5.81,-4.36 -9.08,-5.41 0.66,2.16 2.34,7.09 4.52,8.89 2.82,2.32 8.29,5.38 10.86,5.7 0.34,0.04 0.59,0.36 0.54,0.7 -0.03,0.31 -0.3,0.54 -0.61,0.54 z m -7.7,29.23 c -0.08,0 -0.16,-0.03 -0.22,-0.09 L 44.28,63.61 c -0.12,-0.12 -0.13,-0.32 -0.01,-0.44 0.12,-0.12 0.32,-0.12 0.44,-0.01 l 19.74,19.18 c 0.12,0.12 0.13,0.32 0.01,0.44 -0.07,0.07 -0.15,0.1 -0.23,0.1 z m 8.34,8.94 c -0.02,0 -0.05,0 -0.08,0 C 66.76,91.1 55.18,84.65 49.02,79.59 42.72,74.41 38.57,58.74 38.4,58.07 l -0.25,-0.95 0.96,0.18 c 7.19,1.32 18.74,9.26 21.88,12.22 3.31,3.13 8.64,11.93 9.01,12.52 0.18,0.29 0.09,0.68 -0.2,0.86 -0.29,0.18 -0.68,0.09 -0.86,-0.2 -0.09,-0.14 -5.62,-9.26 -8.81,-12.27 -2.91,-2.75 -13.26,-9.91 -20.25,-11.68 1.03,3.56 4.82,15.67 9.93,19.88 6.02,4.96 17.3,11.26 22.83,11.95 0.34,0.04 0.59,0.36 0.54,0.7 -0.03,0.31 -0.3,0.54 -0.61,0.54 z m 10.3,-8.94 c -0.08,0 -0.16,-0.03 -0.22,-0.1 -0.12,-0.12 -0.12,-0.32 0.01,-0.44 l 19.73,-19.18 c 0.12,-0.12 0.32,-0.12 0.44,0.01 0.12,0.12 0.12,0.32 -0.01,0.44 L 83.09,82.8 c -0.06,0.05 -0.14,0.08 -0.22,0.08 z m -8.35,8.94 c -0.31,0 -0.58,-0.23 -0.62,-0.55 -0.04,-0.34 0.2,-0.66 0.54,-0.7 5.52,-0.7 16.8,-7 22.82,-11.95 5.11,-4.21 8.9,-16.32 9.93,-19.88 -6.99,1.77 -17.34,8.93 -20.25,11.68 -3.19,3.02 -10.31,14.55 -10.4,14.69 -0.18,0.29 -0.57,0.38 -0.86,0.2 -0.29,-0.18 -0.38,-0.57 -0.2,-0.86 0.37,-0.59 7.3,-11.82 10.6,-14.94 3.13,-2.95 14.68,-10.89 21.88,-12.22 l 0.96,-0.18 -0.25,0.95 c -0.17,0.66 -4.33,16.33 -10.62,21.52 -6.15,5.06 -17.74,11.51 -23.46,12.23 -0.01,0.01 -0.04,0.01 -0.07,0.01 z M 73.38,65.55 c 0,0 0,-0.42 0,-0.42 -0.52,0 -0.94,-0.01 -0.93,-0.53 l 0.44,-53.75 c 0,-0.52 0.44,-0.86 0.94,-0.93 0.52,0 0.94,0.42 0.93,0.94 l -0.44,54.99 c -0.01,0.53 -0.43,-0.3 -0.94,-0.3 z" />
</g>
<path
   style="fill:#808080;stroke-width:0.0865709"
   d="m 24.819485,46.03328 c 0.148217,-0.347114 0.394715,-1.001819 0.547775,-1.4549 0.295636,-0.875132 1.14755,-2.297436 3.058518,-5.106321 2.622105,-3.854166 3.498744,-4.747448 6.854256,-6.984388 1.565585,-1.043693 2.865348,-1.805388 4.350851,-2.549715 1.149068,-0.57575 2.824077,-1.273405 3.3778,-1.406883 0.227421,-0.05483 0.237154,-0.04507 0.181924,0.182354 -0.03211,0.132149 -0.322749,1.020855 -0.645913,1.974901 -1.329594,3.925265 -2.853338,6.914416 -4.314176,8.463165 -1.6497,1.74898 -6.639214,4.873515 -10.230508,6.406553 -0.947736,0.404566 -2.582241,0.952954 -3.127748,1.049383 l -0.322263,0.05698 z M 35.15957,36.784485 c 5.61727,-5.459837 6.055106,-5.926227 5.563399,-5.926227 -0.166627,0 -11.589467,11.082893 -11.589467,11.244562 0,0.138582 0.0846,0.226078 0.218606,0.226078 0.05674,0 2.670106,-2.494986 5.807462,-5.544413 z"
   id="path9477" /><path
   style="fill:#808080;stroke-width:0.0865709"
   d="m 23.1378,46.446894 c 0.02214,-0.115802 -0.143134,-0.963115 -0.367269,-1.882918 -1.153208,-4.732518 -1.20913,-5.546089 -0.592883,-8.625317 0.260689,-1.302599 0.646043,-2.621244 0.974469,-3.334536 l 0.245814,-0.533873 0.743414,1.514989 c 0.823503,1.678203 1.396346,3.272929 1.547024,4.306726 0.08237,0.565148 0.07354,0.871234 -0.05268,1.8264 -0.287184,2.17319 -1.055622,4.974638 -1.734112,6.321937 -0.275961,0.547986 -0.338421,0.617139 -0.557406,0.617139 -0.214543,0 -0.241385,-0.02738 -0.20637,-0.210547 z m 0.673373,-0.503661 c 0.0218,-0.05952 0.01084,-2.79624 -0.02436,-6.081604 l -0.064,-5.97339 -0.207162,-0.02928 -0.207162,-0.02928 0.04285,6.011858 c 0.02357,3.306523 0.07039,6.056424 0.104057,6.11089 0.08163,0.132075 0.306154,0.126279 0.355764,-0.0092 z"
   id="path9516" /><path
   style="fill:#808080;stroke-width:0.0865709"
   d="M 21.081062,46.018489 C 16.955262,44.476647 10.929067,40.735484 9.3284403,38.722265 8.2177308,37.325249 7.2001037,35.420424 6.1670591,32.804699 5.556769,31.25941 4.664215,28.591574 4.7341219,28.521666 c 0.069422,-0.06942 1.4192495,0.414365 2.4841607,0.890347 3.2100924,1.434812 7.8080694,4.455051 9.4046294,6.177545 0.925577,0.998586 2.448316,3.126371 4.10467,5.735624 l 0.702745,1.107031 0.440998,1.869171 c 0.242548,1.028044 0.460613,1.920284 0.484586,1.982757 0.0726,0.189181 -0.222073,0.127779 -1.274849,-0.265652 z m -2.268058,-3.873556 c 0.01692,-0.08786 -1.64841,-1.767009 -4.543978,-4.581673 C 11.755149,35.11962 9.1651838,32.597503 8.5135483,31.958558 7.8619118,31.319612 7.2775589,30.813905 7.2149855,30.834763 c -0.3739384,0.124646 -0.026294,0.49464 5.5952475,5.954981 3.392432,3.295152 5.763198,5.534874 5.842539,5.519594 0.07344,-0.01414 0.145542,-0.08812 0.160232,-0.164405 z"
   id="path9555" /><path
   style="fill:#808080;stroke-width:0.0865709"
   d="m 22.727257,24.622875 c -1.297831,-0.320848 -3.719243,-1.594217 -5.355742,-2.81647 -0.875223,-0.653679 -1.341029,-1.259567 -1.9594,-2.548645 -0.466529,-0.972543 -1.12032,-2.717751 -1.045977,-2.792095 0.0677,-0.0677 1.942132,0.865971 2.734013,1.361832 1.2386,0.775588 2.310682,1.616344 2.731105,2.141807 0.220225,0.275247 1.006122,1.409735 1.746437,2.521085 1.206418,1.811056 1.367265,2.016575 1.550793,1.981493 0.155988,-0.02982 0.204768,-7.49e-4 0.204768,0.121992 0,0.185031 0.02107,0.184023 -0.605997,0.029 z m -1.861274,-1.926288 c 0,-0.142046 -0.749976,-0.921046 -2.770091,-2.877297 -1.523549,-1.475383 -2.820089,-2.682517 -2.881198,-2.682517 -0.06111,0 -0.136605,0.06645 -0.167769,0.147658 -0.04316,0.112476 0.612388,0.80323 2.751342,2.899101 1.549411,1.518203 2.866208,2.74167 2.93786,2.729639 0.07142,-0.01199 0.129856,-0.109455 0.129856,-0.216584 z"
   id="path9594" /><path
   style="fill:#808080;stroke-width:0.0865709"
   d="m 24.545246,24.644118 c 0,-0.15984 0.0465,-0.19826 0.236634,-0.195517 0.21342,0.003 0.364168,-0.187968 1.536633,-1.94739 1.406119,-2.110045 1.920453,-2.785398 2.472653,-3.246749 1.18615,-0.991 3.6477,-2.453198 4.649866,-2.76209 0.191736,-0.0591 0.189661,-0.04434 -0.110335,0.784411 -0.748821,2.06865 -1.46673,3.378347 -2.240056,4.086581 -1.080692,0.989727 -4.410586,2.858883 -5.647626,3.170158 -0.327124,0.08232 -0.662947,0.185632 -0.746271,0.229595 -0.123522,0.06517 -0.151498,0.04319 -0.151498,-0.118999 z m 5.5714,-4.449132 c 1.554285,-1.50812 2.825377,-2.764479 2.824649,-2.79191 -0.0041,-0.157223 -0.16928,-0.278284 -0.312507,-0.229149 -0.08927,0.03063 -1.406114,1.274229 -2.926323,2.763565 -2.08556,2.043206 -2.750279,2.743677 -2.708056,2.853707 0.03077,0.0802 0.110026,0.145824 0.176109,0.145824 0.06608,0 1.391841,-1.233917 2.946128,-2.742037 z"
   id="path9633" /><path
   style="fill:#808080;stroke-width:0.0865709"
   d="m 24.631817,13.540401 c 0,-0.249295 1.768215,-3.00405 2.709723,-4.2215565 0.552714,-0.7147402 1.463468,-1.4592828 2.823129,-2.3079137 0.790165,-0.493181 2.559902,-1.388082 2.745041,-1.388082 0.08347,0 0.04198,0.2058254 -0.152676,0.7574948 -0.674976,1.9128835 -1.382991,3.2452174 -2.112678,3.9756114 -0.801078,0.801855 -3.296548,2.337171 -4.827994,2.970381 -1.181761,0.488625 -1.184545,0.489128 -1.184545,0.214065 z m 4.891254,-4.1992236 c 1.523647,-1.4776761 2.770268,-2.7532374 2.770268,-2.83458 0,-0.4365346 -0.442042,-0.080087 -3.086245,2.4886407 -1.492702,1.4500949 -2.74533,2.6872849 -2.783617,2.7493109 -0.09068,0.14691 -0.0018,0.284705 0.182936,0.283929 0.08052,-3.39e-4 1.393011,-1.209624 2.916658,-2.6873006 z"
   id="path9672" /><path
   style="fill:#808080;stroke-width:0.0865709"
   d="M 22.597402,13.551779 C 21.308698,13.054908 19.149697,11.835735 17.953044,10.929141 17.059759,10.252384 16.666549,9.7517452 16.063195,8.5229729 15.584381,7.5478385 14.890209,5.7262309 14.96784,5.6486016 c 0.13697,-0.1369703 2.181008,0.9472977 3.591026,1.9048733 1.23306,0.8374008 1.682883,1.2725269 2.493248,2.411789 0.920335,1.2938641 2.36771,3.5467961 2.36771,3.6854891 0,0.157324 -0.229224,0.129739 -0.822422,-0.09897 z m -1.082137,-1.682598 c 0,-0.217046 -5.495906,-5.5537654 -5.719426,-5.5537654 -0.100936,0 -0.168199,0.060148 -0.169421,0.1514989 -0.003,0.2290982 5.450835,5.5525965 5.694062,5.5579185 0.133237,0.0029 0.194785,-0.04626 0.194785,-0.155652 z"
   id="path9711" /></svg>
