<?xml version="1.0" encoding="UTF-8" standalone="no"?>
<!-- Generator: Adobe Illustrator 22.1.0, SVG Export Plug-In . SVG Version: 6.00 Build 0)  -->

<svg
   version="1.1"
   id="Layer_1"
   x="0px"
   y="0px"
   viewBox="0 0 48 48"
   xml:space="preserve"
   sodipodi:docname="Crkvina.svg"
   inkscape:version="1.1.2 (b8e25be833, 2022-02-05)"
   width="48"
   height="48"
   xmlns:inkscape="http://www.inkscape.org/namespaces/inkscape"
   xmlns:sodipodi="http://sodipodi.sourceforge.net/DTD/sodipodi-0.dtd"
   xmlns="http://www.w3.org/2000/svg"
   xmlns:svg="http://www.w3.org/2000/svg"><defs
   id="defs7606"><inkscape:path-effect
     effect="fill_between_many"
     method="originald"
     linkedpaths="#g7601,0,1"
     id="path-effect8034"
     is_visible="true"
     lpeversion="0"
     join="true"
     close="true"
     autoreverse="true"
     applied="false" /></defs><sodipodi:namedview
   id="namedview7604"
   pagecolor="#ffffff"
   bordercolor="#666666"
   borderopacity="1.0"
   inkscape:pageshadow="2"
   inkscape:pageopacity="0.0"
   inkscape:pagecheckerboard="0"
   showgrid="false"
   inkscape:zoom="6.6482759"
   inkscape:cx="51.216286"
   inkscape:cy="50.012967"
   inkscape:window-width="1746"
   inkscape:window-height="1051"
   inkscape:window-x="165"
   inkscape:window-y="-9"
   inkscape:window-maximized="1"
   inkscape:current-layer="Layer_1" />
<style
   type="text/css"
   id="style7553">
	.st0{fill:#00703C;}
</style>
<path
   inkscape:original-d="M 0,0"
   inkscape:path-effect="#path-effect8034"
   d="M 0,0"
   id="path8036" /><g
   id="g7601"
   transform="matrix(0.57291396,0,0,0.57291396,-18.129228,-5.1899663)">
	
	<g
   id="g7559">
		
	</g>
	
	<g
   id="g7565">
		
	</g>
	
	<g
   id="g7571">
		
	</g>
	
	<g
   id="g7577">
		
	</g>
	
	<g
   id="g7583">
		
	</g>
	
	<g
   id="g7589">
		
	</g>
	
	<g
   id="g7597">
		
		
	</g>
	<path
   id="path7599"
   style="fill:#000000"
   class="st0"
   d="m 72.92,89.33 c -0.17,0 -0.31,-0.14 -0.31,-0.31 L 72.44,68.55 c 0,-0.17 0.14,-0.31 0.31,-0.31 v 0 c 0.17,0 0.31,0.14 0.31,0.31 l 0.17,20.47 c 0.01,0.17 -0.13,0.31 -0.31,0.31 z m 0.21,2.65 c -0.13,0 -0.26,-0.04 -0.38,-0.13 -0.27,-0.21 -0.33,-0.6 -0.12,-0.88 1.87,-2.47 3.75,-9.77 4.06,-14.18 0.25,-3.54 -2.91,-9.57 -4.19,-11.86 -1.89,3.66 -2.92,10.37 -2.93,12.61 0,2.54 2.47,12.09 2.5,12.19 0.09,0.33 -0.11,0.68 -0.45,0.76 -0.33,0.08 -0.68,-0.11 -0.76,-0.45 -0.1,-0.4 -2.54,-9.81 -2.54,-12.51 0.01,-2.62 1.27,-10.61 3.67,-14.19 l 0.54,-0.82 0.51,0.84 c 0.21,0.35 5.24,8.7 4.9,13.51 -0.33,4.77 -2.25,12.13 -4.31,14.84 -0.13,0.19 -0.32,0.27 -0.5,0.27 z M 78.12,30.3 c -0.08,0 -0.16,-0.03 -0.22,-0.1 -0.12,-0.12 -0.12,-0.32 0.01,-0.44 l 9.53,-9.27 c 0.12,-0.12 0.32,-0.12 0.44,0.01 0.12,0.12 0.12,0.32 -0.01,0.44 l -9.53,9.27 c -0.06,0.06 -0.14,0.09 -0.22,0.09 z m -4.03,4.48 c -0.31,0 -0.58,-0.23 -0.62,-0.55 -0.04,-0.34 0.2,-0.65 0.54,-0.7 2.57,-0.33 8.05,-3.39 10.86,-5.71 2.18,-1.79 3.87,-6.72 4.53,-8.88 -3.19,1.03 -7.71,4.11 -9.09,5.41 -1.51,1.42 -5.77,8.28 -5.81,8.34 -0.19,0.29 -0.57,0.38 -0.86,0.2 -0.29,-0.18 -0.38,-0.57 -0.2,-0.86 0.18,-0.29 4.39,-7.06 6.02,-8.6 1.58,-1.49 7.15,-5.33 10.74,-5.99 l 0.96,-0.18 -0.25,0.95 c -0.09,0.33 -2.12,8 -5.24,10.57 -3.07,2.52 -8.64,5.62 -11.5,5.98 -0.03,0.02 -0.06,0.02 -0.08,0.02 z m 5.05,14.39 c -0.08,0 -0.16,-0.03 -0.22,-0.1 -0.12,-0.12 -0.12,-0.32 0.01,-0.44 l 9.53,-9.27 c 0.12,-0.12 0.32,-0.12 0.44,0.01 0.12,0.12 0.12,0.32 -0.01,0.44 l -9.53,9.27 c -0.07,0.06 -0.15,0.09 -0.22,0.09 z m -4.04,4.48 c -0.31,0 -0.58,-0.23 -0.62,-0.55 -0.04,-0.34 0.2,-0.66 0.54,-0.7 2.57,-0.32 8.05,-3.39 10.87,-5.71 2.18,-1.79 3.87,-6.72 4.53,-8.88 -3.19,1.03 -7.71,4.11 -9.09,5.41 -1.51,1.43 -5.77,8.28 -5.81,8.34 -0.19,0.29 -0.57,0.38 -0.86,0.2 -0.29,-0.18 -0.38,-0.57 -0.2,-0.86 0.18,-0.29 4.39,-7.06 6.02,-8.59 1.58,-1.49 7.15,-5.33 10.74,-5.99 l 0.96,-0.18 -0.25,0.95 c -0.09,0.33 -2.12,8 -5.24,10.57 -3.08,2.53 -8.65,5.62 -11.51,5.98 -0.03,0.01 -0.05,0.01 -0.08,0.01 z M 68.92,30.3 c -0.08,0 -0.16,-0.03 -0.22,-0.09 l -9.54,-9.27 c -0.12,-0.12 -0.13,-0.32 -0.01,-0.44 0.12,-0.12 0.32,-0.12 0.44,-0.01 l 9.54,9.27 c 0.12,0.12 0.13,0.32 0.01,0.44 -0.06,0.07 -0.14,0.1 -0.22,0.1 z m 4.03,4.48 c -0.02,0 -0.05,0 -0.08,0 C 70.01,34.42 64.44,31.32 61.37,28.8 58.25,26.23 56.22,18.56 56.13,18.23 l -0.25,-0.95 0.96,0.18 c 3.59,0.66 9.15,4.5 10.73,5.99 1.63,1.54 5.84,8.31 6.02,8.6 0.18,0.29 0.09,0.68 -0.2,0.86 -0.29,0.18 -0.68,0.09 -0.86,-0.2 -0.04,-0.07 -4.3,-6.92 -5.81,-8.34 -1.38,-1.3 -5.89,-4.38 -9.08,-5.41 0.66,2.16 2.35,7.09 4.53,8.88 2.82,2.32 8.29,5.38 10.86,5.71 0.34,0.04 0.59,0.36 0.54,0.7 -0.04,0.3 -0.31,0.53 -0.62,0.53 z M 67.9,49.17 c -0.08,0 -0.16,-0.03 -0.22,-0.09 l -9.53,-9.27 c -0.12,-0.12 -0.13,-0.32 -0.01,-0.44 0.12,-0.12 0.32,-0.12 0.44,-0.01 l 9.53,9.27 c 0.12,0.12 0.13,0.32 0.01,0.44 -0.06,0.07 -0.14,0.1 -0.22,0.1 z m 4.03,4.48 c -0.02,0 -0.05,0 -0.08,0 C 68.99,53.29 63.42,50.2 60.35,47.67 57.23,45.1 55.2,37.43 55.11,37.1 l -0.25,-0.95 0.96,0.18 c 3.58,0.66 9.14,4.5 10.73,5.99 1.63,1.54 5.84,8.31 6.02,8.6 0.18,0.29 0.09,0.68 -0.2,0.86 -0.29,0.18 -0.68,0.09 -0.86,-0.2 -0.04,-0.07 -4.3,-6.92 -5.81,-8.35 -1.32,-1.24 -5.81,-4.36 -9.08,-5.41 0.66,2.16 2.34,7.09 4.52,8.89 2.82,2.32 8.29,5.38 10.86,5.7 0.34,0.04 0.59,0.36 0.54,0.7 -0.03,0.31 -0.3,0.54 -0.61,0.54 z m -7.7,29.23 c -0.08,0 -0.16,-0.03 -0.22,-0.09 L 44.28,63.61 c -0.12,-0.12 -0.13,-0.32 -0.01,-0.44 0.12,-0.12 0.32,-0.12 0.44,-0.01 l 19.74,19.18 c 0.12,0.12 0.13,0.32 0.01,0.44 -0.07,0.07 -0.15,0.1 -0.23,0.1 z m 8.34,8.94 c -0.02,0 -0.05,0 -0.08,0 C 66.76,91.1 55.18,84.65 49.02,79.59 42.72,74.41 38.57,58.74 38.4,58.07 l -0.25,-0.95 0.96,0.18 c 7.19,1.32 18.74,9.26 21.88,12.22 3.31,3.13 8.64,11.93 9.01,12.52 0.18,0.29 0.09,0.68 -0.2,0.86 -0.29,0.18 -0.68,0.09 -0.86,-0.2 -0.09,-0.14 -5.62,-9.26 -8.81,-12.27 -2.91,-2.75 -13.26,-9.91 -20.25,-11.68 1.03,3.56 4.82,15.67 9.93,19.88 6.02,4.96 17.3,11.26 22.83,11.95 0.34,0.04 0.59,0.36 0.54,0.7 -0.03,0.31 -0.3,0.54 -0.61,0.54 z m 10.3,-8.94 c -0.08,0 -0.16,-0.03 -0.22,-0.1 -0.12,-0.12 -0.12,-0.32 0.01,-0.44 l 19.73,-19.18 c 0.12,-0.12 0.32,-0.12 0.44,0.01 0.12,0.12 0.12,0.32 -0.01,0.44 L 83.09,82.8 c -0.06,0.05 -0.14,0.08 -0.22,0.08 z m -8.35,8.94 c -0.31,0 -0.58,-0.23 -0.62,-0.55 -0.04,-0.34 0.2,-0.66 0.54,-0.7 5.52,-0.7 16.8,-7 22.82,-11.95 5.11,-4.21 8.9,-16.32 9.93,-19.88 -6.99,1.77 -17.34,8.93 -20.25,11.68 -3.19,3.02 -10.31,14.55 -10.4,14.69 -0.18,0.29 -0.57,0.38 -0.86,0.2 -0.29,-0.18 -0.38,-0.57 -0.2,-0.86 0.37,-0.59 7.3,-11.82 10.6,-14.94 3.13,-2.95 14.68,-10.89 21.88,-12.22 l 0.96,-0.18 -0.25,0.95 c -0.17,0.66 -4.33,16.33 -10.62,21.52 -6.15,5.06 -17.74,11.51 -23.46,12.23 -0.01,0.01 -0.04,0.01 -0.07,0.01 z M 73.38,65.55 c 0,0 0,-0.42 0,-0.42 -0.52,0 -0.94,-0.01 -0.93,-0.53 l 0.44,-53.75 c 0,-0.52 0.44,-0.86 0.94,-0.93 0.52,0 0.94,0.42 0.93,0.94 l -0.44,54.99 c -0.01,0.53 -0.43,-0.3 -0.94,-0.3 z" />
</g>
</svg>
