<?xml version="1.0" encoding="UTF-8" standalone="no"?>
<!-- Svg Vector Icons : http://www.onlinewebfonts.com/icon -->

<svg
   version="1.1"
   x="0px"
   y="0px"
   viewBox="0 0 48 48"
   enable-background="new 0 0 1000 1000"
   xml:space="preserve"
   id="svg846"
   sodipodi:docname="drvece_0.svg"
   width="48"
   height="48"
   inkscape:version="1.1.2 (b8e25be833, 2022-02-05)"
   xmlns:inkscape="http://www.inkscape.org/namespaces/inkscape"
   xmlns:sodipodi="http://sodipodi.sourceforge.net/DTD/sodipodi-0.dtd"
   xmlns="http://www.w3.org/2000/svg"
   xmlns:svg="http://www.w3.org/2000/svg"><defs
   id="defs850"><inkscape:path-effect
     effect="fill_between_many"
     method="originald"
     linkedpaths="#g844,0,1|"
     id="path-effect939"
     join="true"
     close="true"
     autoreverse="true" /></defs><sodipodi:namedview
   id="namedview848"
   pagecolor="#ffffff"
   bordercolor="#666666"
   borderopacity="1.0"
   inkscape:pageshadow="2"
   inkscape:pageopacity="0.0"
   inkscape:pagecheckerboard="0"
   showgrid="false"
   inkscape:zoom="13.264"
   inkscape:cx="23.258444"
   inkscape:cy="21.034379"
   inkscape:window-width="1746"
   inkscape:window-height="1051"
   inkscape:window-x="165"
   inkscape:window-y="-9"
   inkscape:window-maximized="1"
   inkscape:current-layer="svg846" />
<metadata
   id="metadata838"> Svg Vector Icons : http://www.onlinewebfonts.com/icon </metadata>
<path
   inkscape:original-d="M 0,0"
   inkscape:path-effect="#path-effect939"
   d="M 0,0"
   id="path941" /><g
   id="g844"
   transform="matrix(0.04842142,0,0,0.04842142,-1.1643798,-0.28279964)"><g
     transform="matrix(0.1,0,0,-0.1,0,511)"
     id="g842"><path
       d="M 5271,4979.7 C 4606.2,4860.6 4022.7,4424 3721,3822.7 c -170.7,-339.4 -238.1,-643 -226.2,-1026 l 6,-238.2 -200.4,-2 c -650.9,-7.9 -1262.2,-301.7 -1661.1,-801.8 -595.4,-744.2 -645,-1752.4 -125,-2556.2 109.2,-170.7 333.4,-406.8 506.1,-539.8 186.6,-140.9 529.9,-305.6 766.1,-367.1 470.3,-121 1020.1,-69.5 1446.8,131 l 129,61.5 73.4,-81.4 c 184.6,-202.4 541.8,-436.6 823.6,-537.8 l 176.6,-63.5 v -1214.6 -1214.6 l 45.6,-67.5 c 23.8,-37.7 69.5,-75.4 99.2,-85.4 77.4,-27.8 190.5,7.9 240.1,73.5 41.7,55.5 41.7,73.4 47.6,1242.3 l 4,1186.8 234.2,11.9 c 396.9,19.8 789.9,150.8 1117.3,371.1 174.7,119.1 434.6,375.1 555.7,549.7 136.9,198.5 267.9,482.2 329.5,714.5 41.7,156.8 51.6,250.1 57.5,488.2 l 6,291.7 111.1,125 c 309.6,339.4 498.1,768 549.7,1240.4 67.5,621.2 -182.6,1297.9 -652.9,1754.4 -123,119.1 -396.9,323.5 -462.4,343.3 -25.8,7.9 -71.4,75.4 -123,174.6 -218.3,436.6 -563.6,785.9 -988.3,1000.2 -389.2,196.8 -905.2,270.2 -1335.8,192.8 z m 807.7,-446.5 c 291.7,-75.4 531.9,-208.4 762.1,-424.7 166.7,-154.8 281.8,-319.5 398.9,-569.6 97.2,-204.4 99.2,-204.4 224.3,-271.9 466.4,-250.1 789.9,-660.9 908.9,-1153 53.6,-230.2 53.6,-563.6 0,-793.8 C 8297.5,1006.6 8069.3,621.6 7843,427.1 7718,317.9 7710,292.2 7737.8,71.9 c 75.4,-627.1 -226.2,-1260.2 -776,-1627.4 -269.9,-182.6 -573.5,-277.8 -903,-285.8 l -176.6,-4 -4,1270.1 -4,1270.2 446.5,406.8 c 551.7,502.1 563.6,516 563.6,613.2 0,148.8 -148.8,252.1 -281.8,192.5 -35.7,-15.9 -210.4,-162.7 -387,-327.5 -176.6,-164.7 -325.4,-299.7 -331.4,-299.7 -6,0 -13.9,508.1 -15.9,1131.2 l -5.9,1131.2 -61.5,61.5 c -69.5,67.5 -168.7,85.3 -250.1,39.7 -109.2,-57.6 -105.2,45.6 -115.1,-2058 l -9.9,-1944.9 -1022,542 c -746.2,394.9 -1039.9,541.8 -1087.6,541.8 -95.3,0 -202.4,-109.2 -202.4,-200.4 2,-37.7 13.9,-89.3 27.8,-117.1 21.8,-35.7 331.4,-210.4 1157,-647 l 1127.2,-599.3 5.9,-458.4 4,-458.5 -113.1,49.6 c -262,117.1 -490.2,291.8 -690.6,529.9 -138.9,168.7 -208.4,188.5 -345.3,107.1 -502.1,-299.7 -1000.2,-361.2 -1520.2,-188.5 -262,87.3 -464.4,214.3 -674.8,426.7 -345.3,347.3 -506.1,740.2 -506.1,1232.4 0,351.3 91.3,658.9 275.9,938.7 101.2,152.8 305.6,371.1 450.5,476.3 125,89.3 377.1,210.4 543.8,258 210.4,61.5 557.7,75.4 770,31.8 190.5,-37.7 244.1,-29.8 313.6,53.6 57.6,69.5 57.6,121.1 -2,410.8 -93.3,448.5 41.7,968.5 353.3,1359.4 273.9,345.3 692.6,583.5 1127.3,645 178.5,23.8 474.2,5.9 660.8,-41.7 z"
       id="path840" /></g></g>
<path
   style="fill:#808080;stroke-width:0.075392"
   d="m 27.36731,30.319955 c 0,-1.672562 -0.02236,-4.413238 -0.04969,-6.090392 l -0.04969,-3.049371 1.727164,-1.577693 c 3.077824,-2.811468 3.197308,-2.94109 3.197308,-3.468603 0,-0.579736 -0.443347,-1.016985 -1.031702,-1.01751 -0.27193,-2.26e-4 -0.391608,0.0607 -0.867008,0.441483 -0.303343,0.242972 -1.077391,0.924789 -1.720108,1.515148 l -1.168577,1.073382 -0.04718,-0.516204 c -0.02595,-0.283911 -0.05139,-2.723245 -0.05654,-5.420743 l -0.0094,-4.9045414 -0.245024,-0.231919 C 26.721741,6.7652295 26.526607,6.6721954 26.206248,6.6721954 c -0.394517,0 -0.77812,0.2109466 -0.879655,0.4837297 -0.128589,0.3454627 -0.209806,5.0527489 -0.215822,12.5088319 -0.0029,3.559133 -0.03207,6.459841 -0.06489,6.446019 -0.03282,-0.01382 -1.703695,-0.895634 -3.713058,-1.959584 -4.407313,-2.333654 -6.20276,-3.229995 -6.469198,-3.229619 -0.439019,6.03e-4 -0.990576,0.550066 -0.991205,0.987412 -6.64e-4,0.4637 0.144173,0.656999 0.779594,1.040428 0.653441,0.394303 3.168849,1.753744 7.686292,4.154025 l 2.766883,1.470145 1.5e-4,2.16432 1.51e-4,2.164319 -0.433504,-0.208371 c -1.298038,-0.623953 -1.949196,-1.098913 -3.072164,-2.240908 -0.918512,-0.934076 -1.114319,-1.087744 -1.386024,-1.087744 -0.08358,0 -0.586228,0.219113 -1.116989,0.486919 -1.599353,0.806983 -2.678901,1.096314 -4.090547,1.096314 -2.397908,0 -4.537157,-0.931423 -6.1904334,-2.695297 -1.6205517,-1.72896 -2.3460214,-3.71653 -2.2341628,-6.120937 0.077334,-1.662291 0.6304624,-3.246868 1.5674869,-4.490461 0.6318279,-0.838545 1.6975446,-1.840547 2.3545253,-2.213759 0.751948,-0.427161 1.828905,-0.889597 2.414279,-1.036671 0.683733,-0.171786 2.70105,-0.21709 3.583409,-0.08047 0.476624,0.0738 0.788023,0.08698 0.956403,0.04049 0.277254,-0.07655 0.610839,-0.426788 0.683951,-0.718089 0.02617,-0.104273 -0.0419,-0.720816 -0.151268,-1.370093 -0.22681,-1.346475 -0.243024,-1.878826 -0.0866,-2.8432638 0.512988,-3.1628134 2.751466,-5.7572281 5.81727,-6.7422656 1.238716,-0.3979974 2.3429,-0.4777082 3.721581,-0.26866 1.629504,0.2470802 2.944867,0.8554248 4.193964,1.9396734 0.951298,0.8257508 1.40087,1.4302117 2.176663,2.9265797 0.480558,0.926909 0.560567,1.0381476 0.894831,1.2441007 1.67645,1.032926 2.403864,1.6392486 3.149026,2.6248116 0.551367,0.729245 1.197383,2.033816 1.425571,2.878807 0.229667,0.850468 0.290106,2.749911 0.116787,3.670348 -0.296785,1.576125 -1.234073,3.281235 -2.492088,4.5336 -0.421342,0.419448 -0.641933,0.700274 -0.677588,0.86261 -0.02908,0.132382 -0.01269,0.630359 0.03641,1.106617 0.255133,2.474606 -0.624952,4.844398 -2.480422,6.678997 -1.100207,1.087831 -2.183129,1.736423 -3.570493,2.138465 -0.65233,0.189038 -1.777503,0.347421 -2.468123,0.347421 H 27.36731 Z"
   id="path1021" /></svg>
