<?xml version="1.0" encoding="UTF-8" standalone="no"?>
<!-- Svg Vector Icons : http://www.onlinewebfonts.com/icon -->

<svg
   version="1.1"
   x="0px"
   y="0px"
   viewBox="0 0 48 48"
   enable-background="new 0 0 1000 1000"
   xml:space="preserve"
   id="svg846"
   sodipodi:docname="drvece.svg"
   width="48"
   height="48"
   inkscape:version="1.1.2 (b8e25be833, 2022-02-05)"
   xmlns:inkscape="http://www.inkscape.org/namespaces/inkscape"
   xmlns:sodipodi="http://sodipodi.sourceforge.net/DTD/sodipodi-0.dtd"
   xmlns="http://www.w3.org/2000/svg"
   xmlns:svg="http://www.w3.org/2000/svg"><defs
   id="defs850" /><sodipodi:namedview
   id="namedview848"
   pagecolor="#ffffff"
   bordercolor="#666666"
   borderopacity="1.0"
   inkscape:pageshadow="2"
   inkscape:pageopacity="0.0"
   inkscape:pagecheckerboard="0"
   showgrid="false"
   inkscape:zoom="13.264"
   inkscape:cx="23.258444"
   inkscape:cy="21.222859"
   inkscape:window-width="1746"
   inkscape:window-height="1051"
   inkscape:window-x="165"
   inkscape:window-y="-9"
   inkscape:window-maximized="1"
   inkscape:current-layer="svg846" />
<metadata
   id="metadata838"> Svg Vector Icons : http://www.onlinewebfonts.com/icon </metadata>
<g
   id="g844"
   transform="matrix(0.04842142,0,0,0.04842142,-1.1643798,-0.28279964)"><g
     transform="matrix(0.1,0,0,-0.1,0,511)"
     id="g842"><path
       d="M 5271,4979.7 C 4606.2,4860.6 4022.7,4424 3721,3822.7 c -170.7,-339.4 -238.1,-643 -226.2,-1026 l 6,-238.2 -200.4,-2 c -650.9,-7.9 -1262.2,-301.7 -1661.1,-801.8 -595.4,-744.2 -645,-1752.4 -125,-2556.2 109.2,-170.7 333.4,-406.8 506.1,-539.8 186.6,-140.9 529.9,-305.6 766.1,-367.1 470.3,-121 1020.1,-69.5 1446.8,131 l 129,61.5 73.4,-81.4 c 184.6,-202.4 541.8,-436.6 823.6,-537.8 l 176.6,-63.5 v -1214.6 -1214.6 l 45.6,-67.5 c 23.8,-37.7 69.5,-75.4 99.2,-85.4 77.4,-27.8 190.5,7.9 240.1,73.5 41.7,55.5 41.7,73.4 47.6,1242.3 l 4,1186.8 234.2,11.9 c 396.9,19.8 789.9,150.8 1117.3,371.1 174.7,119.1 434.6,375.1 555.7,549.7 136.9,198.5 267.9,482.2 329.5,714.5 41.7,156.8 51.6,250.1 57.5,488.2 l 6,291.7 111.1,125 c 309.6,339.4 498.1,768 549.7,1240.4 67.5,621.2 -182.6,1297.9 -652.9,1754.4 -123,119.1 -396.9,323.5 -462.4,343.3 -25.8,7.9 -71.4,75.4 -123,174.6 -218.3,436.6 -563.6,785.9 -988.3,1000.2 -389.2,196.8 -905.2,270.2 -1335.8,192.8 z m 807.7,-446.5 c 291.7,-75.4 531.9,-208.4 762.1,-424.7 166.7,-154.8 281.8,-319.5 398.9,-569.6 97.2,-204.4 99.2,-204.4 224.3,-271.9 466.4,-250.1 789.9,-660.9 908.9,-1153 53.6,-230.2 53.6,-563.6 0,-793.8 C 8297.5,1006.6 8069.3,621.6 7843,427.1 7718,317.9 7710,292.2 7737.8,71.9 c 75.4,-627.1 -226.2,-1260.2 -776,-1627.4 -269.9,-182.6 -573.5,-277.8 -903,-285.8 l -176.6,-4 -4,1270.1 -4,1270.2 446.5,406.8 c 551.7,502.1 563.6,516 563.6,613.2 0,148.8 -148.8,252.1 -281.8,192.5 -35.7,-15.9 -210.4,-162.7 -387,-327.5 -176.6,-164.7 -325.4,-299.7 -331.4,-299.7 -6,0 -13.9,508.1 -15.9,1131.2 l -5.9,1131.2 -61.5,61.5 c -69.5,67.5 -168.7,85.3 -250.1,39.7 -109.2,-57.6 -105.2,45.6 -115.1,-2058 l -9.9,-1944.9 -1022,542 c -746.2,394.9 -1039.9,541.8 -1087.6,541.8 -95.3,0 -202.4,-109.2 -202.4,-200.4 2,-37.7 13.9,-89.3 27.8,-117.1 21.8,-35.7 331.4,-210.4 1157,-647 l 1127.2,-599.3 5.9,-458.4 4,-458.5 -113.1,49.6 c -262,117.1 -490.2,291.8 -690.6,529.9 -138.9,168.7 -208.4,188.5 -345.3,107.1 -502.1,-299.7 -1000.2,-361.2 -1520.2,-188.5 -262,87.3 -464.4,214.3 -674.8,426.7 -345.3,347.3 -506.1,740.2 -506.1,1232.4 0,351.3 91.3,658.9 275.9,938.7 101.2,152.8 305.6,371.1 450.5,476.3 125,89.3 377.1,210.4 543.8,258 210.4,61.5 557.7,75.4 770,31.8 190.5,-37.7 244.1,-29.8 313.6,53.6 57.6,69.5 57.6,121.1 -2,410.8 -93.3,448.5 41.7,968.5 353.3,1359.4 273.9,345.3 692.6,583.5 1127.3,645 178.5,23.8 474.2,5.9 660.8,-41.7 z"
       id="path840" /></g></g>
</svg>
