<?xml version="1.0" encoding="UTF-8" standalone="no"?>
<!-- Created with Inkscape (http://www.inkscape.org/) -->

<svg
   width="48"
   height="48"
   viewBox="0 0 12.7 12.7"
   version="1.1"
   id="svg1863"
   inkscape:version="1.1.2 (b8e25be833, 2022-02-05)"
   sodipodi:docname="Grab_0.svg"
   xmlns:inkscape="http://www.inkscape.org/namespaces/inkscape"
   xmlns:sodipodi="http://sodipodi.sourceforge.net/DTD/sodipodi-0.dtd"
   xmlns="http://www.w3.org/2000/svg"
   xmlns:svg="http://www.w3.org/2000/svg">
  <sodipodi:namedview
     id="namedview1865"
     pagecolor="#ffffff"
     bordercolor="#666666"
     borderopacity="1.0"
     inkscape:pageshadow="2"
     inkscape:pageopacity="0.0"
     inkscape:pagecheckerboard="0"
     inkscape:document-units="mm"
     showgrid="false"
     inkscape:zoom="12.22963"
     inkscape:cx="31.276499"
     inkscape:cy="28.659903"
     inkscape:window-width="1746"
     inkscape:window-height="1051"
     inkscape:window-x="165"
     inkscape:window-y="-9"
     inkscape:window-maximized="1"
     inkscape:current-layer="layer1"
     units="px" />
  <defs
     id="defs1860">
    <inkscape:path-effect
       effect="fill_between_many"
       method="originald"
       linkedpaths="#path1954,0,1"
       id="path-effect4574"
       is_visible="true"
       lpeversion="0"
       join="true"
       close="true"
       autoreverse="true"
       applied="false" />
  </defs>
  <g
     inkscape:label="Layer 1"
     inkscape:groupmode="layer"
     id="layer1">
    <path
       inkscape:original-d="M -2.1038964,2.8874069"
       inkscape:path-effect="#path-effect4574"
       d="M 6.1917745,0.088068 C 6.0052306,0.40850941 5.8445773,0.744878 5.6333329,1.0426432 5.0265191,1.9151157 4.3153245,2.7227401 3.8406266,3.6806767 3.3175059,4.7158242 3.0309879,5.8874802 3.1250226,7.0498982 3.1697543,7.6910867 3.3486664,8.3200301 3.6372129,8.8938369 3.970249,9.5618442 4.4712938,10.169387 5.1380251,10.52335 c 0.2904751,0.152875 0.6099501,0.251859 0.9370817,0.282485 -0.00159,0.483433 0.00318,0.967006 -0.00238,1.450352 -0.00341,0.120715 -0.033527,0.279115 0.063436,0.377894 0.073772,0.06653 0.2155261,0.04307 0.2413284,-0.06106 0.049854,-0.170273 -0.00168,-0.348667 0.010885,-0.522453 0,-0.414856 0,-0.829713 0,-1.244569 0.63619,-0.05627 1.2298303,-0.373968 1.6759997,-0.8236175 C 8.6189882,9.4291792 8.9914194,8.710315 9.1905785,7.9567764 9.5194783,6.69884 9.3672331,5.344352 8.8719117,4.1508023 8.4882002,3.2125367 7.8688969,2.3994342 7.2566288,1.6010604 6.96037,1.2081007 6.6456438,0.82385583 6.4263,0.38177773 6.3745886,0.25619338 6.3177283,0.13050714 6.2257883,0.02854379 6.2144534,0.04838496 6.2031128,0.06822613 6.1917745,0.088068 Z"
       id="path4576"
       style="fill:#808080;stroke-width:1.452" />
    <path
       id="path1954"
       style="fill:#000000;stroke:none;stroke-width:0.0184311"
       d="M 6.1917745,0.088068 C 6.0052306,0.40850941 5.8445773,0.744878 5.6333329,1.0426432 5.0265191,1.9151157 4.3153245,2.7227401 3.8406266,3.6806767 3.3175059,4.7158242 3.0309879,5.8874802 3.1250226,7.0498982 3.1697543,7.6910867 3.3486664,8.3200301 3.6372129,8.8938369 3.970249,9.5618442 4.4712938,10.169387 5.1380251,10.52335 c 0.2904751,0.152875 0.6099501,0.251859 0.9370817,0.282485 -0.00159,0.483433 0.00318,0.967006 -0.00238,1.450352 -0.00341,0.120715 -0.033527,0.279115 0.063436,0.377894 0.073772,0.06653 0.2155261,0.04307 0.2413284,-0.06106 0.049854,-0.170273 -0.00168,-0.348667 0.010885,-0.522453 0,-0.414856 0,-0.829713 0,-1.244569 0.63619,-0.05627 1.2298303,-0.373968 1.6759997,-0.8236175 C 8.6189882,9.4291792 8.9914194,8.710315 9.1905785,7.9567764 9.5194783,6.69884 9.3672331,5.344352 8.8719117,4.1508023 8.4882002,3.2125367 7.8688969,2.3994342 7.2566288,1.6010604 6.96037,1.2081007 6.6456438,0.82385583 6.4263,0.38177773 6.3745886,0.25619338 6.3177283,0.13050714 6.2257883,0.02854379 6.2144534,0.04838496 6.2031128,0.06822613 6.1917745,0.088068 Z M 6.0751068,2.5042425 C 5.922676,2.3776148 5.8015106,2.207918 5.6225525,2.1166546 5.5073509,2.0856927 5.3706339,2.2282397 5.4485716,2.3363843 5.588929,2.5790328 5.8995398,2.6461335 6.0511271,2.8780549 c 0.054301,0.1027055 0.013665,0.2232632 0.023981,0.3338121 0,0.1366904 0,0.2733807 0,0.4100711 C 5.7122635,3.3071775 5.3549315,2.9859722 4.9829218,2.681965 4.9058149,2.7493111 4.8285829,2.816513 4.7514574,2.8838373 c 0.41432,0.2080345 0.6988603,0.5861887 1.0413905,0.885802 0.1038367,0.091429 0.2493337,0.1627537 0.2867805,0.3067021 0.039573,0.1789473 0.00788,0.363118 -9.5e-4,0.5437334 C 5.6821834,4.2713945 5.2834361,3.925222 4.8984988,3.5636995 4.8329054,3.5032036 4.7670607,3.4429787 4.7016273,3.3823104 c -0.058647,-0.015826 -0.084708,0.026271 -0.1075807,0.074152 -0.027748,0.045464 -0.055398,0.090987 -0.083237,0.1363938 0.1352522,0.1507803 0.2864677,0.2850321 0.4384713,0.4184634 0.28909,0.2611269 0.5854563,0.5145846 0.8711058,0.7794361 0.081279,0.080748 0.1625572,0.1614982 0.243836,0.2422473 0.00311,0.1970536 0.00624,0.3941073 0.00935,0.5911609 C 5.587106,5.2710544 5.173468,4.8315917 4.7320696,4.4263659 4.6228919,4.3241927 4.5179349,4.1998552 4.3701621,4.1552755 4.2575643,4.1207232 4.176216,4.2683437 4.232066,4.3588484 4.297296,4.4611203 4.411628,4.5171892 4.4933062,4.6048355 4.9363346,5.0036915 5.3829451,5.3981407 5.829936,5.7924321 5.9343366,5.8780641 6.0743746,5.9578269 6.0885437,6.1070877 6.1181217,6.2980629 6.0875627,6.4972521 6.0762977,6.6847162 5.8729429,6.5445693 5.7156667,6.3500836 5.5246226,6.194777 5.1895185,5.8967439 4.8544975,5.598657 4.5209752,5.2990614 4.3949685,5.1784957 4.2848914,5.019799 4.1106364,4.9673564 4.001458,4.9363126 3.9028993,5.0171404 3.851686,5.1067303 c -0.01226,0.035961 0.072596,0.048193 0.1005412,0.077416 0.2068145,0.1424768 0.3660951,0.3405498 0.5592336,0.4996267 0.33377,0.2955434 0.661065,0.5983508 1.0016518,0.8858615 0.1885323,0.1536564 0.4091659,0.2840173 0.5393101,0.4956452 0.072327,0.1450122 0.046978,0.3136606 0.04088,0.466722 -0.00565,0.069125 -0.01115,0.1383168 -0.015817,0.2074845 C 5.8341559,7.5875112 5.6555265,7.3516447 5.4347586,7.1661568 5.0867327,6.8482633 4.7284678,6.5417243 4.3791305,6.2251964 4.245781,6.095674 4.1222846,5.9425466 3.9480036,5.8671825 c -0.084266,-0.04248 -0.194842,0.015939 -0.199955,0.1119163 -7.88e-4,0.1253045 0.1316173,0.1836163 0.2086781,0.2606297 0.5062825,0.4392227 0.9934018,0.8990167 1.5001602,1.3375934 0.1570713,0.1507227 0.3410869,0.2692418 0.4995072,0.4180222 0.090199,0.079715 0.1440473,0.1945437 0.1418422,0.315575 0.00587,0.1386513 -0.011323,0.2768074 -0.020068,0.4149695 C 5.8533769,8.5580342 5.66444,8.3481471 5.4485563,8.1694155 5.1153599,7.8732214 4.7797323,7.5801898 4.4518732,7.2778732 4.3251195,7.154895 4.2113805,7.002598 4.0410779,6.9384596 3.9206368,6.9190129 3.8169315,7.0870643 3.903832,7.1814887 c 0.080143,0.09441 0.1903921,0.156885 0.2774376,0.2447583 0.4437661,0.39722 0.8865186,0.7949211 1.3324942,1.1897626 0.1278915,0.1209505 0.2643563,0.2316181 0.403768,0.3387863 0.094059,0.072549 0.177475,0.1733192 0.1764528,0.2984776 0.00903,0.1317183 -0.00762,0.2632406 -0.015817,0.3945599 C 5.7868253,9.4385377 5.551691,9.163629 5.2759513,8.9355287 4.9808389,8.684531 4.709629,8.4084184 4.4083149,8.1633397 4.3288703,8.0982512 4.1767489,8.1223113 4.1613114,8.2370063 4.13777,8.3517374 4.2565068,8.4178117 4.3292063,8.4818575 4.8067052,8.8989108 5.2704579,9.3311772 5.7509548,9.744943 c 0.1128976,0.094507 0.2555889,0.1714548 0.3190759,0.310418 0.043761,0.14301 0.010101,0.294388 0.00643,0.440608 C 5.6002167,10.485165 5.1522152,10.267901 4.7969702,9.9549317 4.4055568,9.6131889 4.1059559,9.1757041 3.8816983,8.7133714 3.5175292,7.9690719 3.3751307,7.1144481 3.4176294,6.2899678 3.4611456,5.4494679 3.6985831,4.6163847 4.0836736,3.8685522 4.4434032,3.1573267 4.9161518,2.5122776 5.3903258,1.8747285 5.6185931,1.5540797 5.8165903,1.2105491 6.0751068,0.91222382 c 0,0.53067288 0,1.06134598 0,1.59201868 z M 6.4383749,0.99045572 C 7.0860608,1.9320804 7.8624799,2.7907687 8.3854985,3.8141164 8.7855295,4.6083503 9.0270916,5.4817404 9.060872,6.3732416 9.1124299,7.5759685 8.7346423,8.8178836 7.9109801,9.7118321 7.5606848,10.09074 7.1065138,10.403086 6.5868455,10.479132 c -0.063579,0.0085 -0.1312015,0.01522 -0.2000016,0.01701 -0.00261,-0.149365 -0.04132,-0.30495 0.016326,-0.449833 C 6.5022472,9.8800433 6.6860218,9.7937877 6.8183917,9.6581443 7.2604038,9.2533703 7.7182867,8.866834 8.1608368,8.4627908 8.2339889,8.4052145 8.3441194,8.3267375 8.3023345,8.2192516 8.2752611,8.1341049 8.1701919,8.1096597 8.0972641,8.1510118 7.9046776,8.248372 7.7790591,8.4335496 7.6120655,8.5650616 7.3057954,8.8411597 6.9916822,9.1088829 6.6905013,9.3904021 6.5942656,9.483304 6.5008319,9.5828419 6.3856534,9.6554876 6.3793736,9.4829708 6.3389304,9.3018784 6.398819,9.1348894 6.4928282,8.9599726 6.6759504,8.8617088 6.8219911,8.7356278 7.3755185,8.2577481 7.9104994,7.7587151 8.4623697,7.2799589 8.5310632,7.2275214 8.6276672,7.1498472 8.5902349,7.0520876 8.5685219,6.9938783 8.519438,6.9523026 8.4839686,6.9027451 8.4339182,6.8911184 8.4018235,6.9150562 8.378024,6.9575395 8.2158875,7.1447219 8.005766,7.2799109 7.8285637,7.451522 7.5116223,7.738913 7.185936,8.0158705 6.8720375,8.3067585 6.7146991,8.4577779 6.5748176,8.6206132 6.3861637,8.7347317 6.3797723,8.5368059 6.3337475,8.3302222 6.4000269,8.1380503 6.4897779,7.9709793 6.6683461,7.8820432 6.806377,7.7604552 7.3939028,7.2356541 7.9854661,6.7126501 8.5747019,6.1884006 8.6466872,6.1330052 8.7514107,6.0594023 8.7224057,5.9544386 8.7021217,5.8922872 8.6498327,5.8490118 8.613221,5.7967843 8.5568984,5.7818415 8.5258792,5.8183701 8.4986894,5.8628332 8.2446042,6.1688087 7.8982075,6.3797288 7.6120629,6.6568265 7.2100857,7.0261533 6.8292262,7.4289632 6.3856534,7.7456085 6.3775676,7.5299323 6.3300565,7.3063411 6.3963678,7.0956036 6.4750765,6.9393503 6.6381087,6.8525439 6.7666101,6.7421813 7.2633715,6.3126525 7.7464929,5.8670469 8.240155,5.4340029 8.3288043,5.3444573 8.4354365,5.2750871 8.5229201,5.1848549 8.5919135,5.121921 8.5829553,4.9983189 8.4968937,4.9554515 8.4139193,4.9058371 8.323093,4.963323 8.2596755,5.017733 8.1005237,5.1450101 7.9642648,5.2982259 7.8077252,5.4287623 7.3366037,5.8549553 6.8996565,6.323198 6.3853133,6.6944101 6.3752889,6.4823313 6.3319554,6.2714638 6.3886979,6.0624773 6.4560115,5.9022127 6.6018112,5.8079887 6.7339614,5.7001975 6.9822935,5.5098358 7.204591,5.2883336 7.4415097,5.0842892 7.6471281,4.9048365 7.8482253,4.7206926 8.0456323,4.5323359 8.1255303,4.4595246 8.211131,4.3925602 8.3052258,4.3389503 8.3202782,4.2808923 8.278058,4.2444259 8.2422108,4.2054947 8.2042742,4.1745009 8.1812551,4.1105956 8.1335577,4.1011934 8.072316,4.0896394 8.0425583,4.1600112 7.9968105,4.1888741 7.5143521,4.6208082 7.039694,5.0615968 6.5445945,5.4791706 6.4930884,5.5234768 6.4415812,5.567783 6.3900752,5.6120887 6.3931424,5.4197969 6.3961981,5.2275053 6.3992537,5.0352135 6.6604873,4.7828813 6.9276235,4.5369791 7.2009542,4.2978056 7.4557809,4.0644765 7.722431,3.8448235 7.9870263,3.6227885 7.9339675,3.5343847 7.8808768,3.4459998 7.8280116,3.3574802 7.3468568,3.7783044 6.8658867,4.1993394 6.3848033,4.620245 6.3780723,4.4265003 6.3351443,4.223245 6.4038511,4.0360568 6.472098,3.9232349 6.5953142,3.8609107 6.6835508,3.7656194 6.9186086,3.5520896 7.1565466,3.3352029 7.4098315,3.1402672 7.5000629,3.0579085 7.6141323,2.9718962 7.6317515,2.8428505 7.6395449,2.7425182 7.5183496,2.672611 7.4329931,2.7222732 7.304165,2.7854537 7.2215418,2.9101206 7.1109054,2.9978249 6.8746734,3.2166503 6.6585383,3.4615451 6.3883748,3.6406458 6.390705,3.3937435 6.3790873,3.1463181 6.405892,2.9003339 6.5662634,2.7472541 6.7366384,2.6039517 6.8906119,2.4446216 6.9410234,2.3880402 6.9912051,2.3312534 7.0417811,2.2748192 7.0042339,2.1988358 6.9666269,2.1228823 6.9290252,2.0469263 6.7487385,2.1979776 6.5686018,2.3492082 6.3883748,2.5003309 c 0.00319,-0.4428632 -0.00683,-0.8859492 0.00587,-1.3286528 0.00264,-0.078321 0.00527,-0.1566428 0.00791,-0.23496432 0.012075,0.0179144 0.02415,0.0358276 0.036224,0.0537419 z" />
  </g>
</svg>
