<?xml version="1.0" encoding="UTF-8" standalone="no"?>
<!-- Created with Inkscape (http://www.inkscape.org/) -->

<svg
   width="48"
   height="48"
   viewBox="0 0 12.7 12.7"
   version="1.1"
   id="svg1863"
   inkscape:version="1.1.2 (b8e25be833, 2022-02-05)"
   sodipodi:docname="Grab.svg"
   xmlns:inkscape="http://www.inkscape.org/namespaces/inkscape"
   xmlns:sodipodi="http://sodipodi.sourceforge.net/DTD/sodipodi-0.dtd"
   xmlns="http://www.w3.org/2000/svg"
   xmlns:svg="http://www.w3.org/2000/svg">
  <sodipodi:namedview
     id="namedview1865"
     pagecolor="#ffffff"
     bordercolor="#666666"
     borderopacity="1.0"
     inkscape:pageshadow="2"
     inkscape:pageopacity="0.0"
     inkscape:pagecheckerboard="0"
     inkscape:document-units="mm"
     showgrid="false"
     inkscape:zoom="8.647654"
     inkscape:cx="38.449734"
     inkscape:cy="38.218458"
     inkscape:window-width="1746"
     inkscape:window-height="1051"
     inkscape:window-x="165"
     inkscape:window-y="-9"
     inkscape:window-maximized="1"
     inkscape:current-layer="layer1"
     units="px"
     lock-margins="false"
     fit-margin-top="0"
     fit-margin-left="0"
     fit-margin-right="0"
     fit-margin-bottom="0"
     inkscape:showpageshadow="true"
     borderlayer="false" />
  <defs
     id="defs1860" />
  <g
     inkscape:label="Layer 1"
     inkscape:groupmode="layer"
     id="layer1"
     transform="translate(-28.026918,-0.21589096)">
    <path
       style="fill:#2b2828;stroke:none;stroke-width:0.0180379;image-rendering:auto"
       d="M 34.400478,0.53880372 C 34.22367,0.84172282 34.077455,1.1497448 33.876929,1.4406976 33.339328,2.2206735 32.714952,2.9367952 32.25148,3.7675838 c -0.683015,1.224321 -1.024961,2.6265856 -0.789715,4.0224463 0.07837,0.4649985 0.234608,0.9139614 0.445032,1.3348027 0.469225,0.9384562 1.295154,1.7538232 2.385453,1.8398642 v 1.406954 c 0,0.126085 -0.06315,0.4431 0.14324,0.412112 0.125958,-0.01891 0.07321,-0.334676 0.07321,-0.43015 V 10.964697 C 35.942319,10.851562 36.905867,9.5195915 37.24837,8.2229392 37.631945,6.7708366 37.358996,5.205455 36.649639,3.893849 36.204139,3.0700952 35.607013,2.3493017 35.047551,1.6030385 34.883947,1.3848055 34.729363,1.1559679 34.596405,0.91759908 34.528005,0.79498844 34.490343,0.64726905 34.400478,0.53880372 M 34.29225,1.2062052 v 1.767712 C 34.11952,2.85236 33.986292,2.6611946 33.806851,2.5515062 c -0.06153,-0.037609 -0.17733,0.051084 -0.145259,0.1203668 0.110879,0.2394347 0.490992,0.3332859 0.612116,0.5726846 0.03604,0.071195 0.01854,0.1749855 0.01854,0.2524581 V 4.0742278 L 33.480546,3.3656097 33.179043,3.1142881 33.029599,3.2444854 c 0.339815,0.1762842 0.654072,0.5555486 0.93797,0.8130574 0.09232,0.083732 0.268061,0.1873774 0.313805,0.3059945 0.0701,0.1818038 0.01088,0.4899088 0.01088,0.6847359 l -0.79367,-0.6983364 -0.613288,-0.564315 h -0.01804 l -0.09434,0.1546748 0.14845,0.1549634 0.396833,0.3547689 0.667402,0.5931035 0.295767,0.2938191 0.01088,0.6853675 C 33.808688,5.6916665 33.372298,5.2267942 32.939407,4.8318187 32.868857,4.7674417 32.519902,4.374847 32.472538,4.6154002 c -0.01621,0.082343 0.108626,0.1553061 0.160225,0.2013749 0.192681,0.1720633 0.385217,0.3442528 0.577212,0.5170557 0.256931,0.2312454 0.520266,0.4554926 0.775629,0.6884882 0.08797,0.080268 0.251935,0.1756524 0.295767,0.2893089 0.07529,0.1952778 0.01088,0.5294125 0.01088,0.7388494 C 34.104296,6.9529649 33.946068,6.7620698 33.787191,6.6227091 33.436372,6.3150008 33.091758,6.0001858 32.740994,5.6924959 32.568054,5.5407975 32.310358,5.1513417 32.127706,5.4270684 c 0.186802,0.096899 0.348148,0.2897964 0.505061,0.4299152 0.33628,0.3002768 0.671207,0.6024828 1.010121,0.8997474 0.183138,0.1606447 0.521168,0.3641123 0.630821,0.5823703 0.08912,0.1773849 0.01854,0.5416051 0.01854,0.7395351 C 34.068814,7.9744675 33.861703,7.7226411 33.67896,7.5568907 33.321505,7.2326593 32.95952,6.9126317 32.596688,6.5943901 32.495525,6.5056614 32.120311,6.0522798 32.022469,6.2567021 c -0.04124,0.086168 0.0857,0.162648 0.14131,0.2114226 0.193137,0.1694116 0.388108,0.3378501 0.577213,0.5117521 0.349627,0.321525 0.70712,0.6360878 1.064234,0.9493153 0.139668,0.1224958 0.384478,0.2708571 0.46848,0.4380682 0.08335,0.1658949 0.01854,0.5006229 0.01854,0.6854211 C 34.09383,8.9285812 33.926762,8.7428994 33.751109,8.5888378 33.394284,8.2758625 33.040904,7.9588646 32.686875,7.6427327 32.564881,7.5338027 32.40857,7.3293791 32.257029,7.2680138 c -0.05241,-0.021212 -0.108588,0.041304 -0.120434,0.088422 -0.01981,0.078771 0.121475,0.1634048 0.171485,0.2067496 0.188454,0.1633329 0.374422,0.331193 0.559173,0.4987655 0.340195,0.308556 0.687983,0.6086707 1.028159,0.9172259 0.111781,0.1013907 0.326757,0.2256537 0.385957,0.3672684 0.06555,0.156804 0.01088,0.4382669 0.01088,0.6081299 C 34.036145,9.7943804 33.814081,9.5454754 33.588769,9.3442809 33.445043,9.2159418 33.298576,9.0905965 33.15586,8.9611391 32.971549,8.793983 32.790269,8.617464 32.596686,8.4611116 c -0.06521,-0.05267 -0.185301,-0.045637 -0.180087,0.067771 0.0029,0.06297 0.101824,0.1234337 0.144012,0.1616919 0.148727,0.1349231 0.302206,0.2646334 0.450947,0.3995381 0.298382,0.2706402 0.599055,0.539585 0.901893,0.8052112 0.106568,0.093491 0.313481,0.2173562 0.367919,0.3509262 0.05419,0.132994 0.01088,0.358864 0.01088,0.501995 C 33.018235,10.744745 32.114231,9.3852085 31.795368,8.2950902 31.423847,7.0249538 31.583423,5.6506839 32.133271,4.4530229 32.482155,3.6931051 32.964969,3.0090186 33.464799,2.3425912 33.736918,1.9797593 33.980826,1.5316479 34.29225,1.2062048 m 0.234493,0 c 0.59736,0.9027417 1.328994,1.7089987 1.868237,2.6515681 0.853931,1.4926885 1.131443,3.3962428 0.410054,4.9964919 -0.40172,0.891106 -1.22506,1.8932732 -2.296329,1.8939772 0,-0.140931 -0.04545,-0.377695 0.01854,-0.505043 0.06764,-0.134635 0.250258,-0.242375 0.360252,-0.3427385 0.296777,-0.2707846 0.598298,-0.5381962 0.901894,-0.8013146 0.158608,-0.137466 0.311533,-0.2814257 0.468984,-0.4201198 0.04745,-0.041793 0.158031,-0.1086411 0.127691,-0.1853563 -0.08216,-0.2076881 -0.408937,0.1783764 -0.488448,0.2493737 l -0.919931,0.8176919 c -0.143077,0.1277628 -0.294883,0.3126688 -0.468985,0.3938397 0,-0.1668149 -0.05731,-0.4633213 0.01854,-0.6132166 0.08097,-0.1600135 0.316475,-0.3025851 0.450441,-0.4200831 0.344958,-0.3025675 0.688308,-0.6078942 1.028159,-0.9161437 0.166942,-0.1514101 0.338571,-0.2976795 0.505062,-0.4495936 0.04663,-0.042552 0.160861,-0.1094724 0.161348,-0.180452 3.41e-4,-0.050737 -0.06182,-0.1049623 -0.0892,-0.144231 h -0.01804 c -0.117877,0.1601587 -0.302748,0.2855405 -0.450947,0.4178664 -0.31808,0.2840242 -0.635871,0.5682112 -0.956007,0.8499264 -0.19867,0.1748407 -0.408918,0.4420543 -0.649364,0.5540331 0,-0.1899566 -0.05748,-0.4893857 0.01088,-0.6666975 0.06061,-0.1571823 0.316872,-0.3051829 0.440071,-0.4169278 0.375657,-0.3407179 0.758095,-0.6739669 1.136387,-1.0117621 0.180269,-0.1609703 0.362127,-0.3203172 0.541135,-0.4826757 0.04789,-0.043434 0.160844,-0.1086065 0.161348,-0.1817493 3.42e-4,-0.050778 -0.0618,-0.1049806 -0.0892,-0.1442859 h -0.01804 c -0.202384,0.27497 -0.538808,0.4969441 -0.793666,0.72451 -0.450171,0.4019739 -0.891035,0.8831523 -1.388916,1.2235813 0,-0.2094383 -0.06442,-0.5435717 0.01088,-0.7388495 0.055,-0.1426258 0.289851,-0.288173 0.403993,-0.3871475 0.310108,-0.2688898 0.613777,-0.5457172 0.919933,-0.8190997 0.204063,-0.1822186 0.410649,-0.3616955 0.613288,-0.5454833 0.05121,-0.046444 0.197748,-0.1350132 0.187034,-0.2150837 -0.01001,-0.074821 -0.09253,-0.1045832 -0.150959,-0.069878 -0.144483,0.085788 -0.270586,0.2348171 -0.396832,0.3455692 -0.521801,0.4576937 -1.017824,1.0053593 -1.587334,1.4018132 0,-0.2025642 -0.0724,-0.5760028 0.01854,-0.7575907 0.09115,-0.1820192 0.354517,-0.3370004 0.504555,-0.4720327 0.275367,-0.2478403 0.553385,-0.4927227 0.829743,-0.7394987 0.16593,-0.1481632 0.330345,-0.3365327 0.523098,-0.4479527 V 4.6334019 L 36.258379,4.489099 h -0.01804 l -1.064234,0.959002 -0.667401,0.574218 0.01088,-0.6838166 0.403994,-0.3834129 0.68544,-0.6107445 0.450946,-0.3783444 -0.108227,-0.1803788 -1.44303,1.2626514 c 0,-0.1926265 -0.05581,-0.4865717 0.01088,-0.6674015 0.03635,-0.098505 0.149715,-0.1660747 0.223616,-0.2349433 0.188315,-0.1754545 0.382692,-0.3463994 0.577212,-0.5149995 0.09091,-0.078771 0.495194,-0.3456958 0.387056,-0.4745224 -0.09499,-0.1131696 -0.262235,0.103357 -0.332942,0.1653712 -0.276196,0.2422488 -0.54754,0.5684818 -0.865819,0.7524501 V 3.4970157 L 34.52725,3.2475519 34.977692,2.8309671 35.139315,2.6492175 35.067885,2.5049325 34.50871,2.9739172 V 1.7473416 Z"
       id="path1954" />
  </g>
</svg>
