<?xml version="1.0" encoding="UTF-8" standalone="no"?>
<!-- Generator: Adobe Illustrator 17.1.0, SVG Export Plug-In . SVG Version: 6.00 Build 0)  -->

<svg
   version="1.1"
   id="Capa_1"
   x="0px"
   y="0px"
   viewBox="0 0 48 48"
   xml:space="preserve"
   sodipodi:docname="Hrast crnika_0.svg"
   inkscape:version="1.1.2 (b8e25be833, 2022-02-05)"
   width="48"
   height="48"
   xmlns:inkscape="http://www.inkscape.org/namespaces/inkscape"
   xmlns:sodipodi="http://sodipodi.sourceforge.net/DTD/sodipodi-0.dtd"
   xmlns="http://www.w3.org/2000/svg"
   xmlns:svg="http://www.w3.org/2000/svg"><defs
   id="defs6070"><inkscape:path-effect
     effect="fill_between_many"
     method="originald"
     linkedpaths="#path6027,0,1"
     id="path-effect6193"
     is_visible="true"
     lpeversion="0"
     join="true"
     close="true"
     autoreverse="true"
     applied="false" /></defs><sodipodi:namedview
   id="namedview6068"
   pagecolor="#ffffff"
   bordercolor="#666666"
   borderopacity="1.0"
   inkscape:pageshadow="2"
   inkscape:pageopacity="0.0"
   inkscape:pagecheckerboard="0"
   showgrid="false"
   inkscape:zoom="9.1771667"
   inkscape:cx="38.08365"
   inkscape:cy="34.378802"
   inkscape:window-width="1746"
   inkscape:window-height="1051"
   inkscape:window-x="165"
   inkscape:window-y="-9"
   inkscape:window-maximized="1"
   inkscape:current-layer="Capa_1" />
<g
   id="g6035"
   style="fill:#000000"
   transform="matrix(0.09298689,0,0,0.09298689,0.24184005,0.24184961)">
	<path
   d="m 255.5,88 c -4.142,0 -7.5,3.358 -7.5,7.5 v 8 c 0,4.142 3.358,7.5 7.5,7.5 4.142,0 7.5,-3.358 7.5,-7.5 v -8 c 0,-4.142 -3.358,-7.5 -7.5,-7.5 z"
   id="path6025"
   style="fill:#000000" />
	<path
   inkscape:original-d="M 0,0"
   inkscape:path-effect="#path-effect6193"
   d="m 393.375,238.451 c -4.497,-5.071 -8.744,-9.861 -10.631,-16.894 -2.307,-8.599 0.411,-14.827 3.852,-22.712 3.986,-9.135 8.503,-19.489 4.058,-33.599 -5.5,-17.458 -18.597,-22.211 -28.159,-25.682 -6.475,-2.35 -10.533,-3.968 -12.307,-7.46 -3.206,-6.312 -1.292,-12.481 2.095,-22.024 4.226,-11.905 9.486,-26.722 -2.782,-43.079 C 339.884,54.179 329.055,52.484 320.353,51.123 313.011,49.975 307.212,49.067 300.988,42.388 297.355,38.49 295.085,33.301 292.682,27.806 287.262,15.417 280.518,0 255.5,0 c -25.018,0 -31.762,15.417 -37.181,27.805 -2.403,5.494 -4.673,10.684 -8.306,14.582 -6.224,6.68 -12.023,7.587 -19.365,8.735 -8.702,1.361 -19.531,3.056 -29.148,15.878 -12.268,16.357 -7.008,31.174 -2.782,43.079 3.388,9.543 5.301,15.712 2.095,22.024 -1.774,3.493 -5.833,5.11 -12.307,7.46 -9.563,3.471 -22.659,8.224 -28.159,25.682 -4.445,14.109 0.072,24.463 4.058,33.599 3.44,7.885 6.158,14.113 3.852,22.712 -1.887,7.033 -6.134,11.823 -10.631,16.894 -6.988,7.881 -14.909,16.813 -13.603,33.63 1.775,22.86 17.495,32.117 30.125,39.556 10.124,5.962 16.41,9.994 18.022,17.448 0.784,3.627 -0.95,6.893 -4.081,12.354 -8.518,14.854 -13.827,30.285 14.399,55.641 27.301,24.524 72.564,54.19 85.512,62.527 V 503.5 c 0,4.142 3.358,7.5 7.5,7.5 4.142,0 7.5,-3.358 7.5,-7.5 v -43.894 c 12.948,-8.337 58.211,-38.002 85.512,-62.527 28.226,-25.355 22.917,-40.787 14.399,-55.641 -3.131,-5.46 -4.865,-8.727 -4.081,-12.354 1.612,-7.454 7.898,-11.486 18.022,-17.448 12.63,-7.438 28.35,-16.695 30.125,-39.556 1.307,-16.816 -6.614,-25.748 -13.602,-33.629 z"
   id="path6195"
   style="fill:#808080" /><path
   d="m 393.375,238.451 c -4.497,-5.071 -8.744,-9.861 -10.631,-16.894 -2.307,-8.599 0.411,-14.827 3.852,-22.712 3.986,-9.135 8.503,-19.489 4.058,-33.599 -5.5,-17.458 -18.597,-22.211 -28.159,-25.682 -6.475,-2.35 -10.533,-3.968 -12.307,-7.46 -3.206,-6.312 -1.292,-12.481 2.095,-22.024 4.226,-11.905 9.486,-26.722 -2.782,-43.079 C 339.884,54.179 329.055,52.484 320.353,51.123 313.011,49.975 307.212,49.067 300.988,42.388 297.355,38.49 295.085,33.301 292.682,27.806 287.262,15.417 280.518,0 255.5,0 c -25.018,0 -31.762,15.417 -37.181,27.805 -2.403,5.494 -4.673,10.684 -8.306,14.582 -6.224,6.68 -12.023,7.587 -19.365,8.735 -8.702,1.361 -19.531,3.056 -29.148,15.878 -12.268,16.357 -7.008,31.174 -2.782,43.079 3.388,9.543 5.301,15.712 2.095,22.024 -1.774,3.493 -5.833,5.11 -12.307,7.46 -9.563,3.471 -22.659,8.224 -28.159,25.682 -4.445,14.109 0.072,24.463 4.058,33.599 3.44,7.885 6.158,14.113 3.852,22.712 -1.887,7.033 -6.134,11.823 -10.631,16.894 -6.988,7.881 -14.909,16.813 -13.603,33.63 1.775,22.86 17.495,32.117 30.125,39.556 10.124,5.962 16.41,9.994 18.022,17.448 0.784,3.627 -0.95,6.893 -4.081,12.354 -8.518,14.854 -13.827,30.285 14.399,55.641 27.301,24.524 72.564,54.19 85.512,62.527 V 503.5 c 0,4.142 3.358,7.5 7.5,7.5 4.142,0 7.5,-3.358 7.5,-7.5 v -43.894 c 12.948,-8.337 58.211,-38.002 85.512,-62.527 28.226,-25.355 22.917,-40.787 14.399,-55.641 -3.131,-5.46 -4.865,-8.727 -4.081,-12.354 1.612,-7.454 7.898,-11.486 18.022,-17.448 12.63,-7.438 28.35,-16.695 30.125,-39.556 1.307,-16.816 -6.614,-25.748 -13.602,-33.629 z m -1.353,32.468 c -1.17,15.065 -11.185,20.963 -22.782,27.792 -10.307,6.07 -21.989,12.95 -25.071,27.204 -2.04,9.437 2.268,16.949 5.73,22.986 2.817,4.912 5.25,9.155 4.741,14.02 -0.651,6.219 -6.085,13.957 -16.152,23 -22.041,19.799 -57.383,43.833 -75.488,55.767 v -90.185 c 0,-10e-4 0,-0.003 0,-0.005 v -44.891 l 29.803,-29.803 c 2.929,-2.929 2.929,-7.677 0,-10.606 -2.929,-2.929 -7.678,-2.929 -10.606,0 L 263,285.394 v -37.891 c 0,-10e-4 0,-0.003 0,-0.005 v -68.891 l 21.803,-21.803 c 2.929,-2.929 2.929,-7.677 0,-10.606 -2.929,-2.929 -7.678,-2.929 -10.606,0 L 263,157.394 V 135.5 c 0,-4.142 -3.358,-7.5 -7.5,-7.5 -4.142,0 -7.5,3.358 -7.5,7.5 v 39.998 c 0,0.001 0,0.003 0,0.005 v 53.891 l -19.197,-19.197 c -2.929,-2.929 -7.678,-2.929 -10.606,0 -2.929,2.929 -2.929,7.677 0,10.606 L 248,250.606 v 52.891 c 0,10e-4 0,0.003 0,0.005 v 29.891 l -19.197,-19.197 c -2.929,-2.929 -7.678,-2.929 -10.606,0 -2.929,2.929 -2.929,7.677 0,10.606 L 248,354.606 v 87.082 c -18.103,-11.931 -53.438,-35.959 -75.488,-55.767 -10.067,-9.043 -15.501,-16.781 -16.152,-23 -0.509,-4.865 1.923,-9.108 4.741,-14.02 3.462,-6.037 7.77,-13.549 5.73,-22.986 -3.082,-14.254 -14.764,-21.134 -25.071,-27.204 -11.597,-6.83 -21.612,-12.727 -22.782,-27.792 -0.813,-10.468 3.668,-15.521 9.871,-22.517 5.199,-5.863 11.091,-12.509 13.895,-22.959 3.668,-13.67 -0.72,-23.726 -4.591,-32.598 -3.496,-8.012 -6.257,-14.34 -3.5,-23.092 3.274,-10.393 10.201,-12.907 18.97,-16.09 7.507,-2.725 16.015,-5.813 20.563,-14.768 6.285,-12.374 2.238,-23.776 -1.333,-33.836 C 168.641,93.194 166.419,85.441 173.5,76 c 5.958,-7.944 11.625,-8.831 19.466,-10.058 8.137,-1.273 18.263,-2.857 28.021,-13.329 5.376,-5.77 8.403,-12.69 11.074,-18.796 C 237.195,22.083 240.293,15 255.5,15 c 15.207,0 18.305,7.083 23.438,18.817 2.671,6.106 5.698,13.027 11.074,18.796 9.758,10.472 19.884,12.056 28.021,13.329 7.842,1.227 13.508,2.114 19.466,10.058 7.081,9.441 4.859,17.194 0.646,29.061 -3.571,10.06 -7.618,21.462 -1.333,33.836 4.548,8.955 13.057,12.043 20.563,14.768 8.769,3.183 15.696,5.697 18.97,16.09 2.757,8.751 -0.004,15.08 -3.5,23.092 -3.871,8.872 -8.259,18.927 -4.591,32.598 2.804,10.45 8.696,17.096 13.895,22.959 6.205,6.993 10.686,12.047 9.873,22.515 z"
   id="path6027"
   style="fill:#000000" />
	<path
   d="m 196.803,282.197 c -2.929,-2.929 -7.678,-2.929 -10.606,0 -2.929,2.929 -2.929,7.677 0,10.606 l 8,8 c 1.464,1.464 3.384,2.197 5.303,2.197 1.919,0 3.839,-0.732 5.303,-2.197 2.929,-2.929 2.929,-7.677 0,-10.606 z"
   id="path6029"
   style="fill:#000000" />
	<path
   d="m 314.197,234.197 -8,8 c -2.929,2.929 -2.929,7.677 0,10.606 1.464,1.464 3.384,2.197 5.303,2.197 1.919,0 3.839,-0.732 5.303,-2.197 l 8,-8 c 2.929,-2.929 2.929,-7.677 0,-10.606 -2.928,-2.929 -7.678,-2.929 -10.606,0 z"
   id="path6031"
   style="fill:#000000" />
	<path
   d="m 196.803,178.197 c -2.929,-2.929 -7.678,-2.929 -10.606,0 -2.929,2.929 -2.929,7.677 0,10.606 l 8,8 c 1.464,1.464 3.384,2.197 5.303,2.197 1.919,0 3.839,-0.732 5.303,-2.197 2.929,-2.929 2.929,-7.677 0,-10.606 z"
   id="path6033"
   style="fill:#000000" />
</g>
<g
   id="g6037">
</g>
<g
   id="g6039">
</g>
<g
   id="g6041">
</g>
<g
   id="g6043">
</g>
<g
   id="g6045">
</g>
<g
   id="g6047">
</g>
<g
   id="g6049">
</g>
<g
   id="g6051">
</g>
<g
   id="g6053">
</g>
<g
   id="g6055">
</g>
<g
   id="g6057">
</g>
<g
   id="g6059">
</g>
<g
   id="g6061">
</g>
<g
   id="g6063">
</g>
<g
   id="g6065">
</g>
</svg>
