<?xml version="1.0" encoding="UTF-8" standalone="no"?>
<!-- Created with Inkscape (http://www.inkscape.org/) -->

<svg
   width="48"
   height="48"
   viewBox="0 0 12.7 12.7"
   version="1.1"
   id="svg985"
   inkscape:version="1.1.2 (b8e25be833, 2022-02-05)"
   sodipodi:docname="Hrast.svg"
   xmlns:inkscape="http://www.inkscape.org/namespaces/inkscape"
   xmlns:sodipodi="http://sodipodi.sourceforge.net/DTD/sodipodi-0.dtd"
   xmlns="http://www.w3.org/2000/svg"
   xmlns:svg="http://www.w3.org/2000/svg">
  <sodipodi:namedview
     id="namedview987"
     pagecolor="#ffffff"
     bordercolor="#666666"
     borderopacity="1.0"
     inkscape:pageshadow="2"
     inkscape:pageopacity="0.0"
     inkscape:pagecheckerboard="0"
     inkscape:document-units="mm"
     showgrid="false"
     inkscape:zoom="6.1148148"
     inkscape:cx="68.113265"
     inkscape:cy="66.804967"
     inkscape:window-width="1746"
     inkscape:window-height="1051"
     inkscape:window-x="165"
     inkscape:window-y="-9"
     inkscape:window-maximized="1"
     inkscape:current-layer="layer1"
     units="px" />
  <defs
     id="defs982" />
  <g
     inkscape:label="Layer 1"
     inkscape:groupmode="layer"
     id="layer1">
    <path
       style="fill:#2a2626;stroke:none;stroke-width:0.0194913"
       d="M 6.4402548,0.11279417 C 6.2929984,0.48590765 6.1441628,0.86935352 5.9197994,1.2043051 5.8060673,1.3740623 5.7021792,1.5254042 5.4851825,1.4576916 5.4434129,1.7717349 5.4346224,2.0855054 5.3487636,2.3932724 5.3193121,2.4988372 5.2791015,2.6559757 5.1690152,2.7048793 4.9047135,2.8222946 4.4644638,2.5513661 4.2182505,2.4712375 4.4712274,3.1703698 4.7937109,3.8370487 4.9924822,4.5568032 5.0295942,4.6912339 5.2117397,5.1693157 5.0610531,5.269248 4.8840525,5.3866247 4.7037782,4.9138635 4.6519309,4.8101899 4.3484325,4.203173 3.9900273,3.6160573 3.7114776,2.9975017 H 3.6919863 C 3.6455387,3.2712175 3.6652638,3.7006105 3.397025,3.8723871 3.2498464,3.9666267 3.0021514,3.8601076 2.8538618,3.808845 2.3819978,3.6457813 1.9449647,3.4121393 1.4894732,3.2119057 1.5855652,3.6067015 1.839279,3.9624165 1.9446528,4.3618901 1.9799128,4.495542 2.0538038,4.6941577 1.9831868,4.8259576 1.8300461,5.1117195 1.3162231,5.232507 1.0411741,5.3559448 1.5351997,5.7823358 2.1586669,6.0795585 2.6784404,6.4801427 2.8732947,6.6303228 3.1781771,6.8223507 3.2007089,7.0906681 3.2131249,7.2385866 3.1633636,7.3903459 3.0283477,7.4668296 2.8034769,7.5942638 2.4780897,7.6089596 2.2301414,7.6842545 1.9324902,7.7746357 1.6653195,7.9353217 1.3725256,8.0385478 1.2329838,8.0877428 0.93315152,8.1239778 0.85824067,8.2653865 0.79922897,8.3767796 0.90448367,8.463964 1.0024078,8.4900239 1.2915063,8.5669569 1.5970144,8.5782999 1.8792985,8.6841763 2.103838,8.7683783 2.297698,8.925849 2.5030191,9.0469091 2.6033214,9.1060461 2.7425083,9.1420651 2.8246249,9.225605 2.92826,9.3310523 2.7919379,9.5606402 2.9205609,9.6209659 3.0447203,9.6792249 3.2874061,9.5734069 3.4191086,9.5559239 3.744964,9.5126729 4.0505676,9.5411099 4.3741807,9.5855499 4.0449732,9.9209943 3.9301697,10.464372 3.8089339,10.910956 4.1224509,10.752668 4.3692298,10.477607 4.6860409,10.314679 4.8774059,10.216249 5.0932717,10.212291 5.2902705,10.130311 5.6857089,9.9657466 6.0369808,9.7071175 6.3427988,9.4101286 V 12.587206 H 6.5572024 V 9.4101286 c 0.3210405,0.2606569 0.6118312,0.5219562 0.9940547,0.6946304 0.2208946,0.0998 0.4654321,0.10695 0.6821951,0.218496 0.2907317,0.149596 0.5243534,0.376825 0.7991416,0.548718 C 8.9801627,10.391241 8.8938553,9.934794 8.5453119,9.58555 9.061909,9.49435 9.5436935,9.540272 10.04614,9.683006 10.07606,9.5494914 10.00905,9.3609129 10.06618,9.2424643 c 0.04161,-0.086267 0.193217,-0.1017827 0.272332,-0.1405899 0.239197,-0.1173565 0.432784,-0.3201436 0.682194,-0.4165674 0.2061,-0.079661 0.826508,-0.071202 0.831439,-0.3666506 0.0038,-0.2287493 -0.31695,-0.2754501 -0.4806,-0.3409997 C 11.056742,7.8515873 10.765991,7.7034533 10.435965,7.6152555 10.247992,7.5650269 9.9688373,7.5600755 9.8174485,7.4290169 9.526366,7.1769948 9.7953067,6.8369112 10.007157,6.6573967 10.57751,6.1741497 11.222963,5.7661196 11.858827,5.3754363 V 5.3559448 C 11.577959,5.2298946 11.092119,5.1145843 10.929152,4.8288813 10.850042,4.6901621 10.924952,4.4836722 10.965072,4.3423995 11.077733,3.9458302 11.265082,3.587093 11.430018,3.2119057 10.949284,3.3735857 10.514376,3.6595223 10.026647,3.8140496 9.8707186,3.8634596 9.6346207,3.9740339 9.4851423,3.8597761 9.2400202,3.6724261 9.2549692,3.2703599 9.2080152,2.9975017 H 9.1885236 C 8.9163673,3.6158041 8.5639258,4.2120997 8.2492981,4.8101899 8.1962233,4.9110761 8.0179176,5.3929003 7.8404685,5.2694229 7.6943235,5.1677181 7.8693159,4.691839 7.9077327,4.5568032 8.111904,3.8392127 8.4520659,3.1766264 8.681751,2.4712375 8.4453024,2.5549135 7.987491,2.8222557 7.7332865,2.7048793 7.6201788,2.6526622 7.5790325,2.4828348 7.5496198,2.3737811 7.467971,2.0712182 7.4661782,1.7638019 7.4148188,1.4576916 7.1923844,1.533688 7.0796857,1.3582997 6.9684491,1.1848139 6.7561497,0.85371565 6.6710321,0.42263119 6.4402548,0.11279417 m 0.019491,0.58473798 c 0.130455,0.25975424 0.2492738,0.52858575 0.4284771,0.76013025 0.08547,0.1104277 0.2481038,0.1854887 0.3141599,0.3020464 0.048261,0.085138 0.039743,0.2075819 0.055142,0.302212 C 7.3219428,2.457847 7.4101801,3.0046355 7.9215919,2.9376635 8.0407805,2.922051 8.1567143,2.8929505 8.2724344,2.8610628 8.077073,3.4986806 7.7704757,4.0946262 7.6296515,4.7517161 7.5830282,4.9692387 7.4867803,5.3143897 7.7103058,5.4680588 7.9243392,5.6151983 8.1514719,5.4397382 8.2686534,5.2584105 8.5876082,4.7648336 8.8033765,4.1930768 9.0910676,3.6796962 c 0.098431,0.1511156 0.1635315,0.3185459 0.3314295,0.4093359 0.1524215,0.08239 0.3280187,0.038457 0.4872042,-0.00218 0.3662407,-0.093518 0.6995217,-0.2785885 1.0525277,-0.4071526 -0.110828,0.3405902 -0.454789,0.9350348 -0.22647,1.2842017 0.137941,0.2109734 0.424618,0.3126985 0.635786,0.4310301 -0.353591,0.3544686 -0.878802,0.6164506 -1.286423,0.9116844 -0.1949321,0.1411751 -0.4500528,0.3272782 -0.5548379,0.5501611 -0.117572,0.2500137 -0.054225,0.5941711 0.1659284,0.7653437 0.2162568,0.168132 0.5782865,0.1801574 0.8372085,0.2538343 0.371075,0.105604 0.705272,0.302037 1.07202,0.4231754 v 0.019491 c -0.246351,0.048611 -0.512133,0.083325 -0.740668,0.1921649 -0.195498,0.09311 -0.359322,0.2398402 -0.545755,0.3485038 C 10.052747,9.0144962 9.8000427,9.0074011 9.8317354,9.390638 L 8.8571724,9.3175458 8.0385392,9.4880949 C 8.3283933,9.7905215 8.6466078,9.8787977 8.7012426,10.345711 8.5216304,10.24036 8.3513353,10.120235 8.1554868,10.044902 8.0230633,9.9939512 7.8798025,9.9900144 7.74617,9.9413437 7.3502638,9.7971478 6.7914098,9.4659725 6.5935344,9.0787787 6.5012039,8.898114 6.5570661,8.5952004 6.5572024,8.3965833 6.5572614,8.3120495 6.5490529,8.2199151 6.5963606,8.1453412 6.7180248,7.9535084 6.9708461,7.7955703 7.1419405,7.6477678 8.1168941,6.8054725 9.0525725,5.8732049 10.085122,5.1025598 V 5.0830683 C 10.043391,5.0422922 9.9927723,4.9721237 9.9266393,4.980973 9.84,4.9925508 9.7580005,5.0929895 9.6952972,5.147 9.5124491,5.3045081 9.3316095,5.4642981 9.1495414,5.6227032 8.5840997,6.1146244 8.0182288,6.6060769 7.453801,7.0991666 7.1719766,7.345381 6.8854357,7.6700072 6.5572024,7.8508284 V 2.5297113 H 6.3427988 V 7.8508275 C 5.8537626,7.5754353 5.4207444,7.0735735 4.9979014,6.7044869 4.3300717,6.1215234 3.5768515,5.5737989 2.9708094,4.9271376 H 2.951318 L 2.8148792,5.0830673 v 0.019491 c 0.2468765,0.15823 0.4616897,0.3811119 0.6821943,0.5737449 0.3957507,0.3457358 0.7918721,0.69114 1.1889673,1.035337 0.3514864,0.3046678 0.7022316,0.6102519 1.0525283,0.9162844 0.1750126,0.1528892 0.3899622,0.298781 0.5376082,0.4784327 0.1324629,0.1611925 0.06672,0.5019782 0.066621,0.6995414 -5.9e-5,0.084105 0.00688,0.1743302 -0.027131,0.2533868 C 6.1442797,9.4576681 5.5444168,9.803228 5.1538312,9.9416938 5.0197705,9.9892094 4.8771718,9.9959525 4.7445146,10.046991 4.5657404,10.115774 4.411818,10.229956 4.2377419,10.306731 L 4.4095768,9.8782898 4.8614623,9.488094 4.0428291,9.3160244 3.1072483,9.3711464 C 3.0964307,9.0555052 2.8561423,8.9928406 2.6199667,8.8578242 2.410455,8.7380311 2.2200059,8.5875776 1.9962462,8.4930066 1.7755407,8.3997399 1.5283583,8.3647533 1.2945605,8.318618 V 8.2991263 C 1.7961117,8.1479913 2.2423234,7.8984446 2.7564055,7.7756689 3.008837,7.7153819 3.2618141,7.6687199 3.3774753,7.4025277 3.5332495,7.0439471 3.3338928,6.7392599 3.0682463,6.5098668 2.5915873,6.0982702 2.0503539,5.7642089 1.5284557,5.4144186 V 5.394928 C 1.7371878,5.2816831 2.0086231,5.1807573 2.1540279,4.9832917 2.4131838,4.6312794 2.0412125,4.0534413 1.9572636,3.6991877 c 0.3609587,0.08736 0.6890163,0.2951555 1.0525283,0.3872522 0.1527336,0.03869 0.3203585,0.087789 0.4677126,0.00651 C 3.6457725,4.0001326 3.7104056,3.8316893 3.8089339,3.6796962 4.0975217,4.1893345 4.3230162,4.7373113 4.6245854,5.2389198 4.7389988,5.4292516 4.9684887,5.6169525 5.1908843,5.4680588 5.4126363,5.3196137 5.3224117,4.9660028 5.2725717,4.7517161 5.1202093,4.0966144 4.8238834,3.4993823 4.6275671,2.8610628 4.7508298,2.8915276 4.8719489,2.9211154 4.9979014,2.93895 5.6951034,3.0376538 5.4962925,2.1400808 5.699041,1.7597088 5.7672408,1.6317291 5.9504,1.5426735 6.0409378,1.4187071 6.2062814,1.1922575 6.2972666,0.92248865 6.4597458,0.69753215 Z"
       id="path1338" />
  </g>
</svg>
