<?xml version="1.0" encoding="UTF-8" standalone="no"?>
<!-- Created with Inkscape (http://www.inkscape.org/) -->

<svg
   width="48"
   height="48"
   viewBox="0 0 12.7 12.7"
   version="1.1"
   id="svg985"
   inkscape:version="1.1.2 (b8e25be833, 2022-02-05)"
   sodipodi:docname="Hrast_0.svg"
   xmlns:inkscape="http://www.inkscape.org/namespaces/inkscape"
   xmlns:sodipodi="http://sodipodi.sourceforge.net/DTD/sodipodi-0.dtd"
   xmlns="http://www.w3.org/2000/svg"
   xmlns:svg="http://www.w3.org/2000/svg">
  <sodipodi:namedview
     id="namedview987"
     pagecolor="#ffffff"
     bordercolor="#666666"
     borderopacity="1.0"
     inkscape:pageshadow="2"
     inkscape:pageopacity="0.0"
     inkscape:pagecheckerboard="0"
     inkscape:document-units="mm"
     showgrid="false"
     inkscape:zoom="8.647654"
     inkscape:cx="27.695373"
     inkscape:cy="17.634841"
     inkscape:window-width="1746"
     inkscape:window-height="1051"
     inkscape:window-x="165"
     inkscape:window-y="-9"
     inkscape:window-maximized="1"
     inkscape:current-layer="layer1"
     units="px" />
  <defs
     id="defs982">
    <inkscape:path-effect
       effect="fill_between_many"
       method="originald"
       linkedpaths="#path1338,0,1"
       id="path-effect4769"
       is_visible="true"
       lpeversion="0"
       join="true"
       close="true"
       autoreverse="true"
       applied="false" />
  </defs>
  <g
     inkscape:label="Layer 1"
     inkscape:groupmode="layer"
     id="layer1">
    <path
       inkscape:original-d="M 2.4321605,3.9582878"
       inkscape:path-effect="#path-effect4769"
       d="M 6.2168855,0.19034907 C 6.0564787,0.61551434 5.8990585,1.0566246 5.6291449,1.4156725 c -0.060389,0.086175 -0.1700324,0.123564 -0.2649035,0.082055 -0.066997,-0.04293 -0.041326,0.057964 -0.054846,0.098091 -0.04147,0.3491726 -0.049692,0.7059488 -0.174099,1.037921 -0.030773,0.095389 -0.1257733,0.1421681 -0.216419,0.1351071 -0.2834292,-0.015916 -0.5258555,-0.192843 -0.7912101,-0.2799371 -0.069358,-0.040497 0.00185,0.065915 0.00494,0.1011439 C 4.3773697,3.2977384 4.6854994,3.9822691 4.872598,4.711499 4.918912,4.8811477 4.9853014,5.0588739 4.966818,5.2414653 4.9659516,5.3003403 4.89865,5.3343113 4.8590837,5.2893003 4.7098159,5.1419311 4.6589676,4.9224321 4.5590231,4.7400143 4.2828534,4.1689987 3.9702922,3.6174444 3.7223282,3.0313771 3.6731224,3.0299299 3.6155385,3.0179207 3.6266799,3.0906794 3.5890812,3.3326311 3.6020933,3.5994301 3.4688975,3.8115207 3.4132381,3.9038347 3.3094589,3.9594294 3.2061099,3.9358879 3.0214168,3.9018128 2.8484151,3.8193053 2.6732887,3.7512236 2.2866892,3.5860134 1.9158606,3.3832989 1.5337769,3.2071933 1.5916297,3.4861899 1.7084522,3.7444231 1.8235789,4.000797 1.9263583,4.2302363 2.0087802,4.4725171 2.0470524,4.7236532 2.0729097,4.8741663 1.9578673,4.99297 1.8483981,5.066738 1.6163207,5.2252669 1.3434168,5.2924912 1.0946456,5.4142357 1.6048359,5.8907994 2.230657,6.1963833 2.7630009,6.6407276 2.919555,6.7691388 3.1059866,6.8997024 3.1603895,7.1140571 3.1928963,7.2657465 3.1351238,7.4504827 2.988526,7.508306 2.7131851,7.6390938 2.3989472,7.6299709 2.1229539,7.7604038 1.841564,7.8758802 1.5778765,8.0437626 1.2798514,8.1101408 c -0.123892,0.038574 -0.28060767,0.08534 -0.32556737,0.2300474 -0.036171,0.1267615 0.08039,0.2336789 0.18800507,0.2567785 0.3192715,0.088339 0.665093,0.089421 0.9598548,0.2618474 0.1592724,0.090382 0.3142239,0.2193981 0.4790901,0.3120734 0.088747,0.051394 0.2053774,0.075825 0.2618172,0.1716996 0.033371,0.114763 -0.039704,0.26244 0.056837,0.3550364 0.1123031,0.080112 0.254851,0.025971 0.3746629,-0.00325 0.2716179,-0.082825 0.5597243,-0.062039 0.8376168,-0.03401 0.029035,0.014073 0.1457803,-0.0089 0.089605,0.042582 -0.2688899,0.3693465 -0.3556088,0.8381195 -0.4704123,1.2775675 -0.037631,0.08591 0.0016,0.06918 0.058241,0.02919 0.3302111,-0.170412 0.5746969,-0.484109 0.9141759,-0.636626 0.1957436,-0.07336 0.4090442,-0.09015 0.5941638,-0.196045 0.3038213,-0.150122 0.5783251,-0.3607006 0.8240466,-0.6009005 0,1.0329495 0,2.0658975 0,3.0988485 0.097773,0 0.1955455,0 0.2933184,0 0,-1.036232 0,-2.072465 0,-3.1086955 0.3082266,0.2654224 0.6199043,0.5503615 1.0031007,0.6853425 0.2073594,0.06441 0.4295666,0.09551 0.6122551,0.227071 0.2505653,0.164952 0.4705042,0.37658 0.7240836,0.536932 -0.043015,-0.41565 -0.094766,-0.852265 -0.3229576,-1.2063891 -0.030621,-0.048013 -0.064344,-0.093725 -0.1001039,-0.1374943 0.4464391,-0.072143 0.9035684,-0.015806 1.3322961,0.1175883 0.04474,0.018235 0.02907,-0.07099 0.0394,-0.1045191 0.01061,-0.1245365 -0.03776,-0.2568187 0.01235,-0.3752681 0.0759,-0.079277 0.196187,-0.073589 0.28207,-0.1379175 C 10.228632,9.0399375 10.41794,8.8170355 10.682538,8.759726 10.885681,8.712704 11.108053,8.704975 11.286567,8.5806149 11.41088,8.5022219 11.432042,8.3022872 11.328457,8.1963864 11.191354,8.0522898 10.985454,8.0388886 10.818775,7.9508142 10.487791,7.8043301 10.154407,7.6309992 9.7926463,7.5811306 9.6367633,7.5528798 9.4510177,7.5061366 9.3807851,7.3370198 9.3193961,7.1725075 9.4233489,7.0056476 9.5225893,6.8857335 9.6814633,6.7064627 9.8740643,6.565344 10.05624,6.4142594 10.485199,6.0763619 10.9443,5.7719138 11.401545,5.4741109 c 0.01247,-0.060673 -0.009,-0.09783 -0.06753,-0.1090406 C 11.081491,5.2515371 10.805711,5.1822871 10.59799,4.9820975 10.51592,4.9083585 10.4763,4.7921121 10.5001,4.6803406 10.59872,4.1611323 10.839919,3.6913547 11.038031,3.2099546 10.625034,3.3473657 10.250292,3.5814641 9.8518813,3.7563724 9.6867393,3.8226854 9.5210243,3.8910234 9.3485091,3.9322898 9.2511951,3.9583698 9.1443759,3.9225598 9.0870377,3.8332698 8.9419858,3.6280263 8.9501517,3.3580296 8.9142954,3.11585 8.9148741,3.054695 8.8994954,3.012977 8.8355664,3.031451 8.7874764,3.037071 8.7878714,3.122054 8.7597954,3.160412 8.5008362,3.7653181 8.1757531,4.3349192 7.8916331,4.9261592 7.8293235,5.0583362 7.7792994,5.2104299 7.6645233,5.3024111 7.6005194,5.3436698 7.5618517,5.2511608 7.5689143,5.1954903 7.5736335,4.9468541 7.6710993,4.7147015 7.7315947,4.4777418 7.9362316,3.7974205 8.2386901,3.1555163 8.441806,2.4746355 8.1744781,2.5685194 7.9278731,2.7392714 7.6428542,2.7683257 7.5516147,2.7789606 7.4469011,2.7448855 7.4113025,2.6466933 7.2664514,2.2821543 7.2793959,1.8782879 7.2148814,1.4945373 7.1879544,1.477536 7.1302026,1.5224268 7.0895356,1.5159156 6.9463556,1.5188095 6.8697906,1.3673452 6.8003474,1.2582504 6.5855325,0.90059156 6.5126461,0.46452742 6.2622759,0.12802266 6.240673,0.07301008 6.2314086,0.17443674 6.2168866,0.19042174 Z"
       id="path4771"
       style="fill:#808080;stroke-width:0.00199145" />
    <path
       id="path1338"
       style="fill:#000000;stroke:none;stroke-width:0.0188601"
       d="M 6.2168855,0.19034907 C 6.0564787,0.61551434 5.8990585,1.0566246 5.6291449,1.4156725 c -0.060389,0.086175 -0.1700324,0.123564 -0.2649035,0.082055 -0.066997,-0.04293 -0.041326,0.057964 -0.054846,0.098091 -0.04147,0.3491726 -0.049692,0.7059488 -0.174099,1.037921 C 5.1045237,2.7291284 5.0095231,2.7759076 4.9188774,2.7688466 4.6354482,2.7529304 4.3930219,2.5760036 4.1276673,2.4889095 c -0.069358,-0.040497 0.00185,0.065915 0.00494,0.1011439 C 4.3773697,3.2977384 4.6854994,3.9822691 4.872598,4.711499 4.918912,4.8811477 4.9853014,5.0588739 4.966818,5.2414653 4.9659516,5.3003403 4.89865,5.3343113 4.8590837,5.2893003 4.7098159,5.1419311 4.6589676,4.9224321 4.5590231,4.7400143 4.2828534,4.1689987 3.9702922,3.6174444 3.7223282,3.0313771 3.6731224,3.0299299 3.6155385,3.0179207 3.6266799,3.0906794 3.5890812,3.3326311 3.6020933,3.5994301 3.4688975,3.8115207 3.4132381,3.9038347 3.3094589,3.9594294 3.2061099,3.9358879 3.0214168,3.9018128 2.8484151,3.8193053 2.6732887,3.7512236 2.2866892,3.5860134 1.9158606,3.3832989 1.5337769,3.2071933 1.5916297,3.4861899 1.7084522,3.7444231 1.8235789,4.000797 1.9263583,4.2302363 2.0087802,4.4725171 2.0470524,4.7236532 2.0729097,4.8741663 1.9578673,4.99297 1.8483981,5.066738 1.6163207,5.2252669 1.3434168,5.2924912 1.0946456,5.4142357 1.6048359,5.8907994 2.230657,6.1963833 2.7630009,6.6407276 2.919555,6.7691388 3.1059866,6.8997024 3.1603895,7.1140571 3.1928963,7.2657465 3.1351238,7.4504827 2.988526,7.508306 2.7131851,7.6390938 2.3989472,7.6299709 2.1229539,7.7604038 1.841564,7.8758802 1.5778765,8.0437626 1.2798514,8.1101408 c -0.123892,0.038574 -0.28060767,0.08534 -0.32556737,0.2300474 -0.036171,0.1267615 0.08039,0.2336789 0.18800507,0.2567785 0.3192715,0.088339 0.665093,0.089421 0.9598548,0.2618474 0.1592724,0.090382 0.3142239,0.2193981 0.4790901,0.3120734 0.088747,0.051394 0.2053774,0.075825 0.2618172,0.1716996 0.033371,0.114763 -0.039704,0.26244 0.056837,0.3550364 0.1123031,0.080112 0.254851,0.025971 0.3746629,-0.00325 0.2716179,-0.082825 0.5597243,-0.062039 0.8376168,-0.03401 0.029035,0.014073 0.1457803,-0.0089 0.089605,0.042582 -0.2688899,0.3693465 -0.3556088,0.8381195 -0.4704123,1.2775675 -0.037631,0.08591 0.0016,0.06918 0.058241,0.02919 0.3302111,-0.170412 0.5746969,-0.484109 0.9141759,-0.636626 0.1957436,-0.07336 0.4090442,-0.09015 0.5941638,-0.196045 0.3038213,-0.150122 0.5783251,-0.3607006 0.8240466,-0.6009005 0,1.0329495 0,2.0658975 0,3.0988485 0.097773,0 0.1955455,0 0.2933184,0 0,-1.036232 0,-2.072465 0,-3.1086955 0.3082266,0.2654224 0.6199043,0.5503615 1.0031007,0.6853425 0.2073594,0.06441 0.4295666,0.09551 0.6122551,0.227071 0.2505653,0.164952 0.4705042,0.37658 0.7240836,0.536932 -0.043015,-0.41565 -0.094766,-0.852265 -0.3229576,-1.2063891 -0.030621,-0.048013 -0.064344,-0.093725 -0.1001039,-0.1374943 0.4464391,-0.072143 0.9035684,-0.015806 1.3322961,0.1175883 0.04474,0.018235 0.02907,-0.07099 0.0394,-0.1045191 0.01061,-0.1245365 -0.03776,-0.2568187 0.01235,-0.3752681 0.0759,-0.079277 0.196187,-0.073589 0.28207,-0.1379175 C 10.228632,9.0399375 10.41794,8.8170355 10.682538,8.759726 10.885681,8.712704 11.108053,8.704975 11.286567,8.5806149 11.41088,8.5022219 11.432042,8.3022872 11.328457,8.1963864 11.191354,8.0522898 10.985454,8.0388886 10.818775,7.9508142 10.487791,7.8043301 10.154407,7.6309992 9.7926463,7.5811306 9.6367633,7.5528798 9.4510177,7.5061366 9.3807851,7.3370198 9.3193961,7.1725075 9.4233489,7.0056476 9.5225893,6.8857335 9.6814633,6.7064627 9.8740643,6.565344 10.05624,6.4142594 10.485199,6.0763619 10.9443,5.7719138 11.401545,5.4741109 c 0.01247,-0.060673 -0.009,-0.09783 -0.06753,-0.1090406 C 11.081491,5.2515371 10.805711,5.1822871 10.59799,4.9820975 10.51592,4.9083585 10.4763,4.7921121 10.5001,4.6803406 10.59872,4.1611323 10.839919,3.6913547 11.038031,3.2099546 10.625034,3.3473657 10.250292,3.5814641 9.8518813,3.7563724 9.6867393,3.8226854 9.5210243,3.8910234 9.3485091,3.9322898 9.2511951,3.9583698 9.1443759,3.9225598 9.0870377,3.8332698 8.9419858,3.6280263 8.9501517,3.3580296 8.9142954,3.11585 8.9148741,3.054695 8.8994954,3.012977 8.8355664,3.031451 8.7874764,3.037071 8.7878714,3.122054 8.7597954,3.160412 8.5008362,3.7653181 8.1757531,4.3349192 7.8916331,4.9261592 7.8293235,5.0583362 7.7792994,5.2104299 7.6645233,5.3024111 7.6005194,5.3436698 7.5618517,5.2511608 7.5689143,5.1954903 7.5736335,4.9468541 7.6710993,4.7147015 7.7315947,4.4777418 7.9362316,3.7974205 8.2386901,3.1555163 8.441806,2.4746355 8.1744781,2.5685194 7.9278731,2.7392714 7.6428542,2.7683257 7.5516147,2.7789606 7.4469011,2.7448855 7.4113025,2.6466933 7.2664514,2.2821543 7.2793959,1.8782879 7.2148814,1.4945373 7.1879544,1.477536 7.1302026,1.5224268 7.0895356,1.5159156 6.9463556,1.5188095 6.8697906,1.3673452 6.8003474,1.2582504 6.5855325,0.90059156 6.5126461,0.46452742 6.2622759,0.12802266 6.240673,0.07301008 6.2314086,0.17443674 6.2168866,0.19042174 Z M 6.3276833,1.0065971 c 0.1039838,0.2162976 0.2059758,0.4409042 0.3615892,0.6219474 0.093731,0.1043235 0.2509108,0.1682777 0.2725023,0.326351 0.026367,0.2607003 0.058909,0.5261824 0.1552862,0.7698886 0.068557,0.1786738 0.2183288,0.3353941 0.407915,0.3472336 0.1318425,0.010598 0.2614858,-0.026913 0.3887216,-0.058188 C 7.7155763,3.6567613 7.4260947,4.2701212 7.3084605,4.9389999 7.271826,5.1263626 7.2387115,5.3494678 7.3588428,5.5118567 7.4563152,5.6441528 7.6438785,5.6814871 7.7802247,5.5956988 7.9819542,5.4836596 8.0767014,5.2513445 8.1871814,5.0538172 8.3901929,4.661772 8.5538806,4.2486959 8.7549123,3.855504 c 0.086614,0.1648088 0.1967132,0.3461594 0.382634,0.3920994 0.1897527,0.043057 0.379924,-0.032122 0.560153,-0.087782 0.252215,-0.088751 0.4906277,-0.2146047 0.7376187,-0.3175681 -0.108465,0.3037246 -0.257962,0.6076374 -0.25306,0.9403258 -6.88e-4,0.188032 0.103793,0.3584366 0.246801,0.4631798 0.120843,0.094314 0.258869,0.1585398 0.39109,0.2320365 -0.402809,0.39249 -0.9078707,0.6328319 -1.3333357,0.9948532 -0.1903937,0.1584242 -0.3880485,0.3574888 -0.4156901,0.626686 -0.037081,0.2775247 0.092653,0.5867476 0.3438626,0.6998541 0.2722455,0.1311427 0.5822045,0.1237234 0.8579642,0.2451273 0.23823,0.093092 0.464555,0.2146449 0.7035,0.3113934 -0.266911,0.04949 -0.540765,0.1140984 -0.764615,0.285005 -0.171906,0.1247477 -0.3398487,0.2598499 -0.5362887,0.3395937 -0.125038,0.053049 -0.2489032,0.1532914 -0.267012,0.3042673 -0.00572,0.03534 -0.00833,0.071214 -0.00743,0.107069 -0.2925411,-0.021925 -0.5854281,-0.048956 -0.8777541,-0.067686 -0.2844712,0.062635 -0.568889,0.12555 -0.8533974,0.187995 0.1392846,0.1618387 0.309081,0.287801 0.4607663,0.4351593 0.094348,0.094344 0.1650037,0.2161323 0.1928566,0.3510113 C 8.1214128,10.166382 7.9123584,10.025957 7.6727943,9.9918636 7.4209602,9.9420871 7.1927915,9.8064975 6.9764278,9.6668262 6.7609876,9.5142945 6.5435407,9.3343903 6.4314073,9.0801076 6.3644009,8.8568715 6.4232361,8.6274368 6.4148946,8.3991797 6.4032829,8.2964725 6.4498743,8.2025709 6.5169994,8.1320838 6.6881753,7.9432959 6.901357,7.8055022 7.0800997,7.6252323 c 0.87965,-0.81491 1.7148442,-1.6846435 2.6532486,-2.4258467 0.0091,-0.047217 -0.0079,-0.083372 -0.04397,-0.1113628 -0.05062,-0.067514 -0.141294,-0.1102017 -0.217198,-0.06177 C 9.3579757,5.0950467 9.2762204,5.2089893 9.1720262,5.2924481 8.4739472,5.938986 7.7701394,6.5788572 7.0753395,7.2291867 6.862695,7.4365601 6.6612799,7.6617129 6.4153429,7.8261021 c 0,-1.7534742 0,-3.5069445 0,-5.2604148 -0.097773,0 -0.195545,0 -0.2933179,0 0,1.7534124 0,3.5068212 0,5.2602384 C 5.6326852,7.5002352 5.2633251,7.0191429 4.821361,6.631583 4.2122883,6.0802095 3.5658442,5.5733435 3.0159268,4.9523112 c -0.053123,-0.014903 -0.08352,0.023078 -0.1123327,0.064934 -0.030268,0.047463 -0.088127,0.08398 -0.09979,0.1388146 -0.01581,0.066526 0.063402,0.07821 0.099051,0.1163837 0.2631027,0.206198 0.4893104,0.4585241 0.7410175,0.6793724 0.6696087,0.617404 1.338764,1.2345697 2.0100722,1.8494016 C 5.8063414,7.936657 5.9671154,8.0534284 6.087139,8.2230368 6.171128,8.4049841 6.126619,8.6140548 6.123538,8.8080587 6.120388,8.9318393 6.136173,9.0663791 6.062524,9.1729994 5.9006219,9.4483394 5.6362316,9.634172 5.3723869,9.7870611 5.1895607,9.8911284 4.9952289,9.9757075 4.7890543,10.009277 4.6014436,10.048029 4.440176,10.161754 4.2749614,10.256594 4.3159671,10.156201 4.3477486,10.048844 4.394344,9.9526737 4.5543731,9.8063559 4.714488,9.6601442 4.8744535,9.5137475 4.5835526,9.4504112 4.2929731,9.3819395 4.0019422,9.321458 3.7235664,9.3388218 3.4451905,9.3561855 3.1668148,9.373557 3.1557218,9.1994344 3.0323034,9.0613838 2.8909199,8.9859376 2.6869597,8.8804592 2.499388,8.7451474 2.3063421,8.61977 2.0840788,8.4702052 1.8246485,8.4054478 1.5684514,8.3575001 2.0143335,8.1953296 2.4411632,7.9600802 2.9033662,7.8587307 3.0939816,7.8143341 3.2994022,7.7308211 3.3960222,7.5376671 3.5063106,7.3330282 3.5006786,7.0696043 3.3841383,6.8692479 3.2419953,6.6086022 2.9994487,6.437579 2.7820751,6.2537576 2.437203,5.9792574 2.0732181,5.7333086 1.7144339,5.4799479 1.9265538,5.3629711 2.1722791,5.2602934 2.2978122,5.0301849 2.4098427,4.8097598 2.3466654,4.5480684 2.2760801,4.3249233 2.2242393,4.164383 2.1588489,4.0090264 2.1092464,3.8476253 2.4416301,3.9531027 2.7554839,4.1549418 3.1020971,4.2321426 3.2527103,4.2768562 3.4307432,4.2830602 3.55706,4.1697222 3.6579754,4.0886219 3.719653,3.9685955 3.7827152,3.8553263 4.0439067,4.3545744 4.2531183,4.8933668 4.541022,5.3822947 4.6402983,5.5355967 4.8126209,5.6777971 4.9981075,5.6323093 5.1498834,5.5974385 5.2551855,5.4432068 5.2610252,5.282493 5.2769595,5.0392101 5.2004126,4.8032667 5.1456124,4.570239 5.0008667,4.0396362 4.7826335,3.5352444 4.6229174,3.0115036 4.8099986,3.0528894 5.0174617,3.1251851 5.2008775,3.0311818 5.3847777,2.9325555 5.4422851,2.7023493 5.474744,2.5039104 5.5159984,2.2875947 5.5123026,2.0548456 5.6112479,1.8556435 5.7094823,1.7115041 5.8776385,1.6358768 5.9600866,1.4766135 6.0782829,1.2865994 6.1570214,1.0771132 6.2716897,0.88663595 c 0.018661,0.039986 0.037327,0.0799717 0.055991,0.11995755 z" />
  </g>
</svg>
