<?xml version="1.0" encoding="UTF-8" standalone="no"?>
<!-- Created with Inkscape (http://www.inkscape.org/) -->

<svg
   width="48"
   height="48"
   viewBox="0 0 12.7 12.7"
   version="1.1"
   id="svg1664"
   inkscape:version="1.1.2 (b8e25be833, 2022-02-05)"
   sodipodi:docname="Jasen.svg"
   xmlns:inkscape="http://www.inkscape.org/namespaces/inkscape"
   xmlns:sodipodi="http://sodipodi.sourceforge.net/DTD/sodipodi-0.dtd"
   xmlns="http://www.w3.org/2000/svg"
   xmlns:svg="http://www.w3.org/2000/svg">
  <sodipodi:namedview
     id="namedview1666"
     pagecolor="#ffffff"
     bordercolor="#666666"
     borderopacity="1.0"
     inkscape:pageshadow="2"
     inkscape:pageopacity="0.0"
     inkscape:pagecheckerboard="0"
     inkscape:document-units="mm"
     showgrid="false"
     inkscape:zoom="8.647654"
     inkscape:cx="34.864947"
     inkscape:cy="38.218458"
     inkscape:window-width="1746"
     inkscape:window-height="1051"
     inkscape:window-x="165"
     inkscape:window-y="-9"
     inkscape:window-maximized="1"
     inkscape:current-layer="layer1"
     units="px" />
  <defs
     id="defs1661" />
  <g
     inkscape:label="Layer 1"
     inkscape:groupmode="layer"
     id="layer1">
    <path
       style="fill:#2a2626;stroke:none;stroke-width:0.0184271"
       d="M 6.4758452,0.14068067 C 5.9741504,1.1994429 5.1465351,2.0445839 4.5304075,3.0337305 3.435381,4.7917465 2.9650764,6.985397 3.9283604,8.9119651 4.39132,9.8378704 5.2768334,10.768677 6.3837102,10.791526 V 12.65266 H 6.5864076 V 10.791526 C 8.0330617,10.761674 9.0192043,9.2984912 9.3766525,8.0458932 9.7773306,6.6418613 9.5405435,5.0837049 8.8933112,3.7892403 8.4786464,2.9598748 7.9037777,2.2410901 7.3488093,1.5042838 7.1366401,1.2226021 6.9247285,0.94210694 6.7449357,0.63821161 6.6546438,0.48557274 6.6003385,0.26491599 6.4758452,0.14068067 M 6.3837104,0.82248229 V 3.1995741 C 6.2291257,3.0973224 6.1005232,2.9588981 5.9598879,2.8388827 5.9084023,2.7949525 5.8453818,2.7262195 5.7779753,2.781206 5.6397723,2.8939616 5.9189615,3.0705478 5.9967417,3.1390227 6.1055903,3.2348437 6.3169121,3.3608846 6.372599,3.4975397 6.416897,3.6062411 6.383711,3.7833989 6.383711,3.8998027 V 4.821156 C 6.0679805,4.6739606 5.7814028,4.3048665 5.5176383,4.0762602 5.4542486,4.0213107 5.2972134,3.8229065 5.2046727,3.8483359 c -0.076823,0.021099 -0.093738,0.1046472 -0.05084,0.1617528 0.094678,0.1260595 0.2484894,0.2240731 0.363806,0.331503 0.1861314,0.1734355 0.3789704,0.3419694 0.5712384,0.5086054 0.086994,0.075404 0.2231706,0.1616607 0.2758906,0.2658657 0.05342,0.1055499 0.018943,0.2892678 0.018943,0.4053218 V 6.461165 C 5.9012524,6.131265 5.4745738,5.6681374 5.038534,5.2787741 4.9534384,5.2027994 4.7151024,4.9095506 4.5965612,4.9249005 c -0.049606,0.00643 -0.093314,0.068051 -0.1292656,0.098954 v 0.018427 c 0.4813886,0.3390394 0.9020968,0.8038812 1.3451752,1.192508 0.1531663,0.1343516 0.4846507,0.3321661 0.5601282,0.5228678 0.04369,0.1103966 0.011112,0.2859693 0.011112,0.4037374 V 8.0827471 L 5.7019084,7.4983325 4.8911177,6.777484 4.4304408,6.3506025 H 4.4120143 L 4.3156405,6.5085596 4.4488681,6.6484951 4.7989827,6.9600782 5.8677519,7.9138443 6.3541717,8.359227 6.3837102,8.7645488 V 9.7227567 C 5.9017138,9.3931884 5.4743161,8.9294897 5.038534,8.5403648 4.9417554,8.4539607 4.8278761,8.3071338 4.7071236,8.2571779 4.646996,8.2323197 4.5752959,8.2953219 4.5781521,8.3588771 c 0.00302,0.06689 0.1026938,0.1255797 0.147122,0.1661196 0.1515994,0.1383318 0.3081374,0.2712279 0.460677,0.4085098 0.2874065,0.2586603 0.5814842,0.5106877 0.8660719,0.7724072 0.093314,0.085814 0.2741581,0.1920286 0.320576,0.3123943 0.057419,0.148964 0.011112,0.392884 0.011112,0.552094 C 5.0506958,10.570227 4.1262915,9.1506145 3.8013338,8.0090386 3.1886814,5.8567942 4.1458427,3.827845 5.4186293,2.1308041 5.6344471,1.8430286 5.8521078,1.556414 6.0626369,1.2647318 6.1643544,1.1237833 6.2500585,0.93321047 6.3837102,0.82248229 m 0.2211247,0 C 7.1866508,1.6849244 7.8978439,2.4640208 8.4213011,3.3654177 9.3449394,4.9559868 9.7489344,7.0141249 8.8943428,8.7276941 8.4562023,9.6062238 7.6629171,10.57029 6.5864076,10.570402 c 0,-0.157755 -0.04708,-0.404106 0.011112,-0.551173 C 6.6529295,9.8792573 6.8795277,9.7385853 6.9918034,9.6412347 7.283393,9.3884151 7.5700081,9.1291096 7.8578752,8.8720521 7.9995613,8.7455504 8.1407861,8.6186065 8.2816983,8.4912568 8.3429316,8.4359199 8.4367799,8.3744472 8.3638461,8.2876009 8.2562872,8.159514 7.9787016,8.4996412 7.8947298,8.5724645 7.5966162,8.8309411 7.3069061,9.0992396 7.0102307,9.3594668 6.8780903,9.4753546 6.7483449,9.6321504 6.5864076,9.7043292 V 8.7461215 L 6.6159469,8.359227 7.1023657,7.9138443 8.1711359,6.9602811 8.5212495,6.6484951 8.6544773,6.5057773 8.5581043,6.3506025 H 8.5396769 C 8.4192562,6.5142166 8.2303973,6.6423035 8.0789999,6.777484 L 7.2313555,7.5329943 C 7.0369868,7.7065589 6.8224957,7.9726826 6.5864076,8.0827471 V 7.161394 c 0,-0.1177681 -0.032578,-0.2933411 0.011112,-0.4037373 C 6.6646129,6.5881828 6.9490897,6.4188012 7.0839384,6.2983805 L 8.0237187,5.4630441 C 8.1698822,5.3325257 8.3249647,5.1436294 8.502823,5.0607079 8.3404992,4.7801373 8.110068,5.1173712 7.9500111,5.2634059 7.5163479,5.6590904 7.0758491,6.1374199 6.5864076,6.461165 V 5.5213846 c 0,-0.1160723 -0.034476,-0.2997713 0.018943,-0.4053218 C 6.6580712,5.0118578 6.7942466,4.9256007 6.8812409,4.8501971 7.0735455,4.6835243 7.2644868,4.5135899 7.4524803,4.3420522 7.568644,4.2360598 7.7217728,4.1359271 7.8162855,4.0100887 7.8591836,3.9529831 7.8422493,3.8694348 7.765445,3.8483359 7.6729042,3.8229065 7.5158691,4.0213107 7.4524803,4.0762602 7.1883285,4.3051982 6.9027823,4.6738317 6.5864076,4.821156 V 3.8998027 c 0,-0.1173068 -0.032487,-0.2929168 0.013673,-0.402263 C 6.6586048,3.3589129 6.8626299,3.2365203 6.9733759,3.1390227 7.0511571,3.0705478 7.3303454,2.8939611 7.1921424,2.781206 7.1247551,2.7262379 7.0616788,2.7949157 7.0102307,2.8388827 6.8694665,2.9591745 6.7413977,3.0970643 6.5864076,3.1995741 V 1.5411379 c 0,-0.2056092 -0.060956,-0.529489 0.018427,-0.71865561 z"
       id="path1755" />
  </g>
</svg>
