<?xml version="1.0" encoding="UTF-8" standalone="no"?>
<!-- Created with Inkscape (http://www.inkscape.org/) -->

<svg
   width="48"
   height="48"
   viewBox="0 0 13.97 13.97"
   version="1.1"
   id="svg1664"
   inkscape:version="1.1.2 (b8e25be833, 2022-02-05)"
   sodipodi:docname="Jasen_0.svg"
   xmlns:inkscape="http://www.inkscape.org/namespaces/inkscape"
   xmlns:sodipodi="http://sodipodi.sourceforge.net/DTD/sodipodi-0.dtd"
   xmlns="http://www.w3.org/2000/svg"
   xmlns:svg="http://www.w3.org/2000/svg">
  <sodipodi:namedview
     id="namedview1666"
     pagecolor="#ffffff"
     bordercolor="#666666"
     borderopacity="1.0"
     inkscape:pageshadow="2"
     inkscape:pageopacity="0.0"
     inkscape:pagecheckerboard="0"
     inkscape:document-units="mm"
     showgrid="false"
     inkscape:zoom="6.1148148"
     inkscape:cx="48.979407"
     inkscape:cy="43.092066"
     inkscape:window-width="1746"
     inkscape:window-height="1051"
     inkscape:window-x="165"
     inkscape:window-y="-9"
     inkscape:window-maximized="1"
     inkscape:current-layer="layer1"
     units="px" />
  <defs
     id="defs1661">
    <inkscape:path-effect
       effect="fill_between_many"
       method="originald"
       linkedpaths="#path1755,0,1"
       id="path-effect4884"
       is_visible="true"
       lpeversion="0"
       join="true"
       close="true"
       autoreverse="true"
       applied="false" />
  </defs>
  <g
     inkscape:label="Layer 1"
     inkscape:groupmode="layer"
     id="layer1">
    <path
       inkscape:original-d="M 4.8829098,93.958366"
       inkscape:path-effect="#path-effect4884"
       d="M 6.8867723,0.1863144 C 6.2690528,1.4046817 5.2156325,2.3631789 4.5086729,3.5321227 3.851192,4.6051402 3.4204061,5.8210893 3.401532,7.0656211 3.3814892,8.2101189 3.7442267,9.370419 4.4834754,10.287778 c 0.4337894,0.532865 1.0061969,0.99664 1.6998875,1.195206 0.1924677,0.05546 0.3925673,0.08763 0.5936866,0.09611 0,0.660149 0,1.320299 0,1.980449 0.1114575,0 0.2229174,0 0.3343753,0 0,-0.66015 0,-1.3203 0,-1.980449 C 7.7550159,11.558764 8.3649444,11.28106 8.8369151,10.879728 9.4718857,10.340716 9.9136047,9.624851 10.192134,8.870881 10.611224,7.7137558 10.579397,6.4406271 10.223212,5.2732478 9.9965237,4.5173491 9.6199297,3.80685 9.1555609,3.1553127 8.6417678,2.4223489 8.0371721,1.7512176 7.5026204,1.0323829 7.3679545,0.84733527 7.2372254,0.65805634 7.1516786,0.44770089 7.0976771,0.32611956 7.0224377,0.2128954 6.9205186,0.12141426 c -0.01124,0.0216337 -0.022504,0.0432668 -0.033744,0.0649001 z"
       id="path4886"
       style="fill:#808080;stroke-width:0.000298422" />
    <path
       id="path1755"
       style="fill:#000000;stroke:none;stroke-width:0.0202345"
       d="M 6.8867723,0.1863144 C 6.2690528,1.4046817 5.2156325,2.3631789 4.5086729,3.5321227 3.851192,4.6051402 3.4204061,5.8210893 3.401532,7.0656211 3.3814892,8.2101189 3.7442267,9.370419 4.4834754,10.287778 c 0.4337894,0.532865 1.0061969,0.99664 1.6998875,1.195206 0.1924677,0.05546 0.3925673,0.08763 0.5936866,0.09611 0,0.660149 0,1.320299 0,1.980449 0.1114575,0 0.2229174,0 0.3343753,0 0,-0.66015 0,-1.3203 0,-1.980449 C 7.7550159,11.558764 8.3649444,11.28106 8.8369151,10.879728 9.4718857,10.340716 9.9136047,9.624851 10.192134,8.870881 10.611224,7.7137558 10.579397,6.4406271 10.223212,5.2732478 9.9965237,4.5173491 9.6199297,3.80685 9.1555609,3.1553127 8.6417678,2.4223489 8.0371721,1.7512176 7.5026204,1.0323829 7.3679545,0.84733527 7.2372254,0.65805634 7.1516786,0.44770089 7.0976771,0.32611956 7.0224377,0.2128954 6.9205186,0.12141426 c -0.01124,0.0216337 -0.022504,0.0432668 -0.033744,0.0649001 z m 0.2755609,0.944939 C 7.900345,2.1179906 8.7806492,3.0175 9.3500776,4.1060931 c 0.3556091,0.6688502 0.6149691,1.398957 0.7351544,2.1456051 0.06253,0.3892755 0.08681,0.8033259 0.06199,1.2010826 -0.0426,0.6986266 -0.2383193,1.3875971 -0.5928883,1.999258 C 9.233267,10.009837 8.8091902,10.541664 8.2377641,10.897967 7.9042159,11.105408 7.5123511,11.239141 7.1098845,11.246819 7.1069745,11.069614 7.0563865,10.882069 7.1289335,10.711963 7.2429178,10.536026 7.4499967,10.442039 7.6054013,10.302939 8.1088792,9.8884257 8.6082054,9.4687004 9.1045647,9.0465405 9.1856256,8.9800709 9.1663793,8.8503354 9.0715866,8.8050179 8.9523086,8.7559386 8.8367547,8.8493701 8.7496836,8.9160419 8.6081933,9.0374367 8.4783155,9.1705003 8.3286792,9.2838478 8.0159854,9.5463524 7.7003061,9.8062178 7.391033,10.072288 c -0.088228,0.079 -0.1756197,0.160873 -0.2796101,0.221817 0.00296,-0.3302523 -0.00597,-0.6609289 0.00451,-0.9909122 0.00908,-0.1114626 0.018197,-0.2229261 0.027298,-0.3343889 C 7.8542958,8.3515826 8.5863555,7.7558552 9.3050882,7.1467526 9.3601138,7.0915426 9.4151505,7.0363399 9.4701717,6.9811247 9.4214077,6.9078848 9.3728744,6.8345133 9.3243883,6.7611155 9.2662977,6.7487808 9.2275414,6.7722556 9.2002076,6.8193575 9.0229346,7.0127849 8.7956651,7.1489042 8.5992226,7.3260653 8.2742697,7.6021628 7.9391367,7.868105 7.6210601,8.1510822 7.4593519,8.2984894 7.3056808,8.4587817 7.1114248,8.5698225 7.1080361,8.2352463 7.1182616,7.9002891 7.1062199,7.5659493 7.0966281,7.4277231 7.0738087,7.2652888 7.1914138,7.1585401 7.3646485,6.9805229 7.5939716,6.8621184 7.7761799,6.6927343 8.126723,6.3968908 8.4854439,6.1092273 8.8307139,5.8081227 8.9741409,5.6768495 9.11759,5.533632 9.3076192,5.4582311 9.2547796,5.3634773 9.1632715,5.2565428 9.0349515,5.2765468 8.8532251,5.3128207 8.738885,5.4669432 8.6117525,5.5806197 8.1173549,6.0041642 7.6606911,6.4710916 7.1114267,6.834693 7.1078894,6.4970469 7.1185342,6.1589911 7.1060219,5.8215998 7.099189,5.6965716 7.0732427,5.5396225 7.1873597,5.4432979 7.3120959,5.3291584 7.4564912,5.2383467 7.5838162,5.1234836 7.8388487,4.9159008 8.083022,4.6966107 8.3465317,4.4982874 8.4251683,4.4227751 8.5484999,4.344354 8.5301104,4.2240436 8.5156559,4.1176496 8.3708435,4.0622748 8.2794251,4.1262416 8.1365999,4.2105601 8.0356389,4.3418887 7.906112,4.4417591 7.6481701,4.6687594 7.4192334,4.9322456 7.1114263,5.1031783 7.1079639,4.7682422 7.1183623,4.4329186 7.1062216,4.0982203 7.0979041,3.9648623 7.074256,3.8044339 7.1910686,3.7012268 7.3657425,3.5344723 7.5858841,3.4155568 7.7598369,3.2480632 7.8321724,3.1840518 7.8800071,3.0634051 7.7946428,2.9903987 7.7297518,2.9190843 7.6149791,2.9408711 7.5516711,3.0019787 7.4007225,3.1201296 7.2647845,3.2537937 7.11143,3.364443 7.10936,2.7784354 7.11555,2.1922542 7.10833,1.6063542 7.09917,1.4197034 7.068164,1.2336897 7.10023,1.0466582 c 0.020705,0.028202 0.041396,0.056404 0.062091,0.084604 z M 6.7770495,3.3642523 C 6.6028625,3.2425177 6.4579503,3.0813115 6.2768369,2.9629198 6.1601216,2.8941814 6.003565,3.0252586 6.0566196,3.1422537 c 0.071566,0.153918 0.2415127,0.2346828 0.3687275,0.3432044 0.1252672,0.09851 0.2866415,0.1796468 0.3499669,0.3285754 0.037906,0.1651452 -0.010645,0.3342817 0.00174,0.5013766 0,0.262529 0,0.5250582 0,0.7875874 C 6.4192762,4.9021164 6.1650347,4.5829632 5.8529822,4.3298003 5.7522602,4.2407509 5.6593917,4.1159319 5.512629,4.0980398 5.3890631,4.0970038 5.3132776,4.2405575 5.3809231,4.3348622 5.5235117,4.5175681 5.739698,4.6314509 5.9068087,4.7921147 c 0.2501515,0.2141448 0.505528,0.4231298 0.7668776,0.6248984 0.086971,0.065591 0.1251773,0.1695709 0.1153146,0.2722192 -0.02203,0.3350474 -0.0081,0.6781916 -0.01195,1.0167087 -0.011003,0.032692 0.026252,0.1540666 -0.027383,0.1089292 C 6.2358072,6.4597243 5.7938838,6.0160678 5.3178396,5.6149563 5.1732672,5.4869478 5.0497954,5.3223721 4.8596913,5.2512377 4.7502239,5.2176137 4.6727205,5.3174742 4.6036072,5.3786882 c -0.017156,0.059952 0.026994,0.090543 0.077537,0.1181354 0.5610472,0.3820725 1.0195997,0.8758565 1.550132,1.2914087 0.1767011,0.1317186 0.3671606,0.2391795 0.5024272,0.4138714 0.098535,0.1379966 0.039887,0.3111087 0.04345,0.4652452 -2.468e-4,0.2926269 -3.5e-5,0.5852599 -1.084e-4,0.8778888 C 6.323644,8.184633 5.8755146,7.8183778 5.4332817,7.4457798 5.1613522,7.2233984 4.8996643,6.9904482 4.6344605,6.7611155 c -0.06643,-0.016816 -0.095842,0.028045 -0.1218171,0.078805 -0.031455,0.04821 -0.062686,0.096549 -0.094351,0.1446386 0.2097465,0.2203761 0.4583107,0.4030851 0.6895704,0.6026134 0.5472088,0.4590805 1.0986281,0.9137745 1.6373641,1.3816316 0.019594,0.2316455 0.039733,0.4632728 0.031817,0.6958598 0,0.2121039 0,0.4242081 0,0.6363111 C 6.2479491,9.9415697 5.7983306,9.4859204 5.3103399,9.0768257 5.1870621,8.9716223 5.0807432,8.8282838 4.9135843,8.7836328 4.7784473,8.765309 4.6692311,8.9373244 4.7673138,9.0346109 c 0.087262,0.091082 0.1987597,0.1591355 0.2913427,0.245632 0.4718275,0.3902381 0.9434166,0.7830891 1.4135543,1.1766941 0.1214787,0.09793 0.295198,0.180612 0.3159318,0.345893 0.022338,0.147496 -0.00414,0.296245 -0.00956,0.443989 C 6.3189569,11.238209 5.8779661,11.073983 5.5123547,10.821665 4.9118583,10.405127 4.4840242,9.8044214 4.1854804,9.1698074 4.0769514,8.937751 3.984869,8.6890497 3.9175951,8.4453298 3.6780304,7.5956088 3.6848397,6.699069 3.8978361,5.8477114 4.1678323,4.7549624 4.7391364,3.7431724 5.4166836,2.8218774 5.7848051,2.3197188 6.1985316,1.8484104 6.5676684,1.3471487 6.6358106,1.2478202 6.6969583,1.143744 6.7770505,1.0520715 c 0,0.770727 0,1.5414539 -10e-7,2.3121808 z" />
  </g>
</svg>
