<?xml version="1.0" encoding="UTF-8" standalone="no"?>
<!-- Created with Inkscape (http://www.inkscape.org/) -->

<svg
   width="48"
   height="48"
   viewBox="0 0 13.97 13.97"
   version="1.1"
   id="svg5"
   inkscape:version="1.1.2 (b8e25be833, 2022-02-05)"
   sodipodi:docname="Joha_0.svg"
   xmlns:inkscape="http://www.inkscape.org/namespaces/inkscape"
   xmlns:sodipodi="http://sodipodi.sourceforge.net/DTD/sodipodi-0.dtd"
   xmlns="http://www.w3.org/2000/svg"
   xmlns:svg="http://www.w3.org/2000/svg">
  <sodipodi:namedview
     id="namedview7"
     pagecolor="#ffffff"
     bordercolor="#666666"
     borderopacity="1.0"
     inkscape:pageshadow="2"
     inkscape:pageopacity="0.0"
     inkscape:pagecheckerboard="0"
     inkscape:document-units="mm"
     showgrid="false"
     inkscape:zoom="6.1148148"
     inkscape:cx="55.520897"
     inkscape:cy="34.261054"
     inkscape:window-width="1746"
     inkscape:window-height="1051"
     inkscape:window-x="165"
     inkscape:window-y="-9"
     inkscape:window-maximized="1"
     inkscape:current-layer="layer1"
     units="px" />
  <defs
     id="defs2">
    <inkscape:path-effect
       effect="fill_between_many"
       method="originald"
       linkedpaths="#path866,0,1"
       id="path-effect5017"
       is_visible="true"
       lpeversion="0"
       join="true"
       close="true"
       autoreverse="true"
       applied="false" />
  </defs>
  <g
     inkscape:label="Layer 1"
     inkscape:groupmode="layer"
     id="layer1">
    <path
       inkscape:original-d="M 0,0"
       inkscape:path-effect="#path-effect5017"
       d="m 7.4631333,0.21619002 c -0.193443,0.0229365 -0.334265,0.1765869 -0.485702,0.28441036 -0.564391,0.39997495 -1.104541,0.83521502 -1.612089,1.30530702 -0.97724,0.9384623 -1.729371,2.1202451 -2.128009,3.4175961 -0.322317,1.0545037 -0.385727,2.2083217 -0.05594,3.2693103 0.374784,1.2015224 1.236842,2.2572742 2.369796,2.8170882 0.417304,0.198689 0.86025,0.359082 1.3211,0.413958 0.131593,0.01136 0.274916,-0.0096 0.395364,0.05417 0.07671,0.102159 0.04301,0.243068 0.04171,0.362364 -0.01962,0.326855 -0.0037,0.654939 -0.0088,0.982283 0,0.221114 0,0.442226 0,0.66334 0.109003,5.4e-4 0.264795,0.03494 0.325175,-0.0852 0.06592,-0.163952 0.0031,-0.343769 0.01771,-0.514333 -0.0037,-0.362737 0.0075,-0.725976 -0.0056,-1.088406 2.06e-4,-0.106564 -0.03363,-0.243974 0.04438,-0.333549 0.268308,-0.07464 0.555647,-0.04138 0.822533,-0.127167 C 9.7153123,11.322797 10.762628,10.474169 11.360093,9.3802473 11.85093,8.4990436 12.023057,7.4605628 11.90993,6.4629503 11.771898,5.2072609 11.243876,4.0154858 10.505697,2.9986843 9.8878773,2.1374768 9.0772393,1.4407346 8.2528403,0.78448702 8.0142573,0.61608224 7.8359413,0.3650072 7.5668803,0.24089147 c -0.03294,-0.0134213 -0.06768,-0.0262299 -0.103747,-0.0247014 z"
       id="path5019"
       style="fill:#808080" />
    <path
       id="path866"
       style="fill:#000000;stroke:none;stroke-width:0.0228537"
       d="m 7.4631333,0.21619002 c -0.193443,0.0229365 -0.334265,0.1765869 -0.485702,0.28441036 -0.564391,0.39997495 -1.104541,0.83521502 -1.612089,1.30530702 -0.97724,0.9384623 -1.729371,2.1202451 -2.128009,3.4175961 -0.322317,1.0545037 -0.385727,2.2083217 -0.05594,3.2693103 0.374784,1.2015224 1.236842,2.2572742 2.369796,2.8170882 0.417304,0.198689 0.86025,0.359082 1.3211,0.413958 0.131593,0.01136 0.274916,-0.0096 0.395364,0.05417 0.07671,0.102159 0.04301,0.243068 0.04171,0.362364 -0.01962,0.326855 -0.0037,0.654939 -0.0088,0.982283 0,0.221114 0,0.442226 0,0.66334 0.109003,5.4e-4 0.264795,0.03494 0.325175,-0.0852 0.06592,-0.163952 0.0031,-0.343769 0.01771,-0.514333 -0.0037,-0.362737 0.0075,-0.725976 -0.0056,-1.088406 2.06e-4,-0.106564 -0.03363,-0.243974 0.04438,-0.333549 0.268308,-0.07464 0.555647,-0.04138 0.822533,-0.127167 C 9.7153123,11.322797 10.762628,10.474169 11.360093,9.3802473 11.85093,8.4990436 12.023057,7.4605628 11.90993,6.4629503 11.771898,5.2072609 11.243876,4.0154858 10.505697,2.9986843 9.8878773,2.1374768 9.0772393,1.4407346 8.2528403,0.78448702 8.0142573,0.61608224 7.8359413,0.3650072 7.5668803,0.24089147 7.5339403,0.22747016 7.4992003,0.21466157 7.4631333,0.21619002 Z M 7.3005453,2.1883271 c -0.0064,0.2172769 -0.01309,0.4345504 -0.01961,0.6518259 -0.278135,-0.1829958 -0.556399,-0.3657937 -0.834449,-0.5489171 -0.05769,0.1037234 -0.115483,0.2073919 -0.17292,0.3112568 0.326644,0.1500454 0.590763,0.389288 0.899996,0.5692705 0.08943,0.048199 0.145087,0.1427614 0.134806,0.2448362 -0.02692,0.3430786 0.03376,0.6858403 0.01242,1.0289728 -0.0046,0.060859 -0.01231,0.1214811 -0.02531,0.1811447 -0.647668,-0.2818828 -1.110756,-0.8577779 -1.755138,-1.1463364 -0.04706,0.1185642 -0.07924,0.269124 0.0145,0.3749263 0.120674,0.1379996 0.301742,0.1999776 0.446467,0.3081211 0.42525,0.2770663 0.887106,0.5085814 1.258963,0.8597408 0.08394,0.1280423 0.02471,0.2886448 0.04219,0.4311413 0.0068,0.3132005 0.05595,0.6274946 -0.0038,0.93957 -0.78386,-0.5254902 -1.575599,-1.0393468 -2.347169,-1.582885 -0.07513,-0.043508 -0.141507,-0.1150887 -0.22198,-0.1414698 -0.07227,-0.020286 -0.08712,0.063776 -0.121088,0.1103139 -0.06218,0.086504 -0.03251,0.2047835 0.05065,0.265261 0.137398,0.1086815 0.30007,0.1794833 0.439757,0.2856785 0.548146,0.3643132 1.085748,0.7438131 1.638662,1.1007994 0.172076,0.129241 0.388827,0.2014513 0.531553,0.3672343 0.0751,0.1295537 0.01678,0.2859393 0.0332,0.4272599 0.0056,0.3090066 0.05521,0.6217549 -0.0038,0.9284335 -0.970786,-0.6232379 -1.924626,-1.2722289 -2.885889,-1.9099278 -0.05836,0.1044695 -0.116293,0.2091758 -0.174397,0.3137874 0.357795,0.1512178 0.645532,0.4200884 0.972868,0.6229654 0.455926,0.3019226 0.906054,0.6130349 1.365567,0.9092788 0.234835,0.1429362 0.502928,0.2530653 0.683668,0.4679398 0.08586,0.1215635 0.03436,0.2720572 0.04053,0.4080895 0.0011,0.3227888 0.05813,0.6489482 -0.0024,0.9693697 -0.84002,-0.5601093 -1.680165,-1.1200922 -2.520172,-1.680281 -0.05808,0.1039792 -0.115763,0.2081741 -0.173554,0.3123113 0.740741,0.3434588 1.350397,0.8989996 2.033715,1.3352836 0.214978,0.1307936 0.461172,0.2315316 0.624133,0.4307026 0.08776,0.130323 0.04269,0.297282 0.04092,0.443899 -0.01496,0.199948 0.04922,0.404632 -0.005,0.601339 -0.0429,0.06651 -0.142634,0.04221 -0.210636,0.0412 -0.210333,-0.02927 -0.417649,-0.08503 -0.628081,-0.135681 -0.833518,-0.226203 -1.591118,-0.73495 -2.140329,-1.405689 -0.386822,-0.4716151 -0.679403,-1.0426621 -0.834959,-1.6398638 -0.21124,-0.797345 -0.189581,-1.6391364 -0.011537,-2.4330253 0.268785,-1.187979 0.860878,-2.2935332 1.646828,-3.2226502 0.384212,-0.4530621 0.822853,-0.851969 1.282763,-1.2176619 0.215964,-0.168235 0.434246,-0.3372229 0.650487,-0.50890685 0.07746,-0.055615 0.157829,-0.10944763 0.247575,-0.14312133 0,0.49148788 0,0.98297558 0,1.47446348 z m 0.453811,-1.34624927 c 0.571288,0.48906447 1.187178,0.92505507 1.710743,1.46612257 0.8613837,0.8658746 1.5663847,1.9179217 1.8933697,3.1038915 0.264213,0.9493822 0.307788,1.9589192 0.04743,2.9128001 -0.152391,0.558753 -0.418415,1.0964328 -0.791424,1.5511966 -0.394758,0.4820034 -0.9094057,0.8778914 -1.4717397,1.1552024 -0.466155,0.224209 -0.976229,0.366921 -1.489683,0.379051 -0.02235,-0.04533 -0.0033,-0.132661 -0.0096,-0.194215 -2.05e-4,-0.284519 -0.0033,-0.569092 0.01265,-0.8533 0.28239,-0.214402 0.57253,-0.417812 0.868874,-0.6124309 C 9.0101463,9.419824 9.5019983,9.0989147 9.9865413,8.767698 10.076291,8.698322 10.166125,8.6290545 10.255817,8.5596036 10.221537,8.4557968 10.187617,8.3518683 10.153752,8.2479249 9.3187423,8.8088358 8.4854503,9.3723167 7.6434513,9.9227232 c -0.0043,-0.3578045 0.0087,-0.7161643 -0.0067,-1.0736207 -0.0087,-0.1178902 -0.02053,-0.2671241 0.08501,-0.3538206 C 7.9725643,8.2538258 8.3133143,8.1419048 8.5890923,7.9343052 9.2777393,7.4607307 9.9197573,6.9134987 10.681995,6.5568891 10.624215,6.4526752 10.566364,6.3485018 10.508442,6.244367 9.7855233,6.7260654 9.0683533,7.2165156 8.3418103,7.6926918 8.1090213,7.842342 7.8762323,7.9919921 7.6434433,8.1416422 c -0.0041,-0.3959051 0.01106,-0.7923731 -0.01371,-1.1876685 -0.0098,-0.1118219 0.05183,-0.2121941 0.142419,-0.2733971 0.212447,-0.161126 0.464753,-0.2598121 0.67405,-0.4261517 0.518116,-0.3631494 1.066843,-0.6893423 1.5773877,-1.067965 0.128921,-0.091114 0.26643,-0.1702736 0.41315,-0.2290853 -0.0638,-0.096017 -0.127683,-0.1919729 -0.191689,-0.2878494 -0.06476,-0.016144 -0.107397,0.019759 -0.144452,0.068957 -0.3378917,0.3197805 -0.7745837,0.5026255 -1.1455107,0.778019 -0.430602,0.3016859 -0.841678,0.6373477 -1.311648,0.8778005 -0.0041,-0.3699756 0.0084,-0.7404645 -0.0065,-1.1101131 -0.007,-0.1074732 -0.01881,-0.2504986 0.0875,-0.3228073 0.160037,-0.1265454 0.348809,-0.2105545 0.512186,-0.333022 0.33131,-0.2173817 0.653544,-0.4451455 0.989553,-0.6478579 0.125066,-0.073626 0.232187,-0.2137228 0.193982,-0.3658452 -0.0082,-0.045975 -0.0267,-0.089115 -0.04074,-0.1334321 -0.637966,0.2858385 -1.097393,0.853645 -1.735959,1.1376902 0.0017,-0.4473126 -0.0068,-0.8947821 0.01286,-1.3418208 0.258199,-0.2196561 0.552708,-0.3889262 0.832993,-0.5779344 0.04564,-0.038232 0.128123,-0.067308 0.15016,-0.1115915 -0.05485,-0.098814 -0.109763,-0.197587 -0.164732,-0.2963317 -0.277006,0.1824744 -0.554203,0.3646585 -0.831284,0.5470192 0.0037,-0.5662756 -0.0079,-1.1327983 0.0066,-1.698901 0.0041,-0.1260845 0.0081,-0.2521691 0.01217,-0.37825367 0.03072,0.0269925 0.06144,0.0539849 0.09215,0.0809774 z" />
  </g>
</svg>
