<?xml version="1.0" encoding="UTF-8" standalone="no"?>
<!-- Created with Inkscape (http://www.inkscape.org/) -->

<svg
   width="48"
   height="48"
   viewBox="0 0 12.7 12.7"
   version="1.1"
   id="svg5"
   inkscape:version="1.1.2 (b8e25be833, 2022-02-05)"
   sodipodi:docname="Joha.svg"
   xmlns:inkscape="http://www.inkscape.org/namespaces/inkscape"
   xmlns:sodipodi="http://sodipodi.sourceforge.net/DTD/sodipodi-0.dtd"
   xmlns="http://www.w3.org/2000/svg"
   xmlns:svg="http://www.w3.org/2000/svg">
  <sodipodi:namedview
     id="namedview7"
     pagecolor="#ffffff"
     bordercolor="#666666"
     borderopacity="1.0"
     inkscape:pageshadow="2"
     inkscape:pageopacity="0.0"
     inkscape:pagecheckerboard="0"
     inkscape:document-units="mm"
     showgrid="false"
     inkscape:zoom="6.1148148"
     inkscape:cx="56.665657"
     inkscape:cy="43.41914"
     inkscape:window-width="1746"
     inkscape:window-height="1051"
     inkscape:window-x="165"
     inkscape:window-y="-9"
     inkscape:window-maximized="1"
     inkscape:current-layer="layer1"
     units="px" />
  <defs
     id="defs2" />
  <g
     inkscape:label="Layer 1"
     inkscape:groupmode="layer"
     id="layer1">
    <path
       style="fill:#2b2728;stroke:none;stroke-width:0.0213229"
       d="m 6.2316065,12.668818 c 0.055994,-4.2e-5 0.1516485,0.01591 0.1913089,-0.03418 0.059853,-0.07559 0.02192,-0.278838 0.02192,-0.370953 V 11.24019 c 0,-0.114461 -0.057146,-0.422874 0.086549,-0.462321 0.206192,-0.05664 0.4463507,-0.03903 0.6597494,-0.0896 C 7.7641201,10.552466 8.3038214,10.29156 8.769022,9.9304365 9.1096535,9.6659909 9.4096232,9.3537615 9.6583112,9.0012953 11.291618,6.6864055 10.196435,3.6268593 8.3638882,1.7941847 7.9179002,1.3481776 7.4305242,0.94296089 6.9352594,0.55296882 6.7793687,0.43022193 6.5527926,0.16440314 6.3595433,0.11535859 6.2330783,0.08326567 5.9901473,0.31122572 5.8904421,0.3809065 5.4581649,0.68299107 5.0517951,1.0135095 4.653719,1.358679 2.9472863,2.8383199 1.7096058,5.4002136 2.3599708,7.6792802 2.691758,8.8419495 3.5486216,9.8945931 4.653719,10.402013 c 0.3403333,0.156275 0.6953158,0.276663 1.0661404,0.335172 0.1173398,0.0185 0.3986085,-0.01041 0.4775668,0.08333 0.085718,0.10175 0.03418,0.378267 0.03418,0.504967 v 1.343337 m 0,-12.21797039 V 1.9007988 L 6.2102843,2.6044513 5.4000171,2.0713812 5.2934034,2.2632871 c 0.2257018,0.1067628 0.4320429,0.273827 0.6396841,0.4122336 0.086485,0.057656 0.2204141,0.1169765 0.2733799,0.2100502 0.053924,0.094801 0.025139,0.2531871 0.025139,0.3585647 0,0.3084347 0.06608,0.7064675 -0.021322,1.0021719 C 5.611519,4.0193697 5.1485577,3.4545918 4.5684274,3.1801672 4.4705345,3.4432266 4.7044888,3.5054251 4.9095928,3.6421684 5.3144274,3.9120518 5.8088819,4.1601003 6.1644829,4.491904 c 0.098191,0.091624 0.067124,0.250564 0.067124,0.3727659 0,0.3208868 0.069597,0.7372357 -0.021322,1.0448172 L 4.6110737,4.8438796 3.7794836,4.2676307 h -0.021323 c -0.028722,0.052198 -0.090985,0.1251435 -0.063499,0.1879816 0.04175,0.095377 0.2145928,0.1686209 0.2980502,0.2242522 0.2638913,0.1759344 0.5290187,0.3503123 0.788944,0.5319404 0.3220595,0.2250409 0.6539499,0.4370958 0.9808495,0.6550368 0.1316893,0.087807 0.3368789,0.1772561 0.4319571,0.305471 0.066612,0.089832 0.037143,0.2500098 0.037143,0.3555366 0,0.3146603 0.067829,0.7218622 -0.021322,1.023494 L 5.4213403,7.039618 3.5022871,5.760228 3.3956731,5.9521334 c 0.2496688,0.1091079 0.4770765,0.3038279 0.7036528,0.454879 l 1.3433375,0.8992473 c 0.20536,0.1371694 0.6485963,0.3278376 0.7670235,0.5455863 0.05158,0.094823 0.02192,0.2556179 0.02192,0.3605049 0,0.3084347 0.06608,0.7064675 -0.021322,1.002172 L 3.8434521,7.636635 3.7368381,7.8285403 c 0.6201314,0.2933593 1.1982352,0.7917157 1.7697937,1.172755 0.1948903,0.1299407 0.5803637,0.2931035 0.6998356,0.4968424 0.069362,0.1182993 0.025139,0.3503557 0.025139,0.4840064 0,0.1117099 0.058617,0.4802969 -0.03418,0.5537969 -0.1117957,0.08854 -0.4566487,-0.01612 -0.5841806,-0.04214 C 5.013947,10.371628 4.4489343,10.098162 3.9713889,9.7166962 3.6642979,9.4713989 3.3851609,9.1757368 3.1616659,8.8520354 1.674242,6.6977706 2.6354274,3.8533711 4.2449608,2.0713812 4.654124,1.6183888 5.1252088,1.2194667 5.6132456,0.85328348 5.7943615,0.7173868 6.0078026,0.50344233 6.2316065,0.45084748 m 0.2345516,0 C 6.9152377,0.86324131 7.4202047,1.2170914 7.8734638,1.6272207 8.6214251,2.3040133 9.2782108,3.1129792 9.7006362,4.0330801 10.563977,5.9135387 10.440495,8.3161722 8.7263757,9.6835394 8.4312253,9.9189867 8.1144536,10.119655 7.766849,10.268318 7.3509908,10.446171 6.8985847,10.557861 6.444835,10.557861 V 9.8328851 L 6.4576921,9.4986707 6.8712909,9.1932008 7.9161091,8.4895478 8.619762,8.0204456 8.8732261,7.8246166 8.8116673,7.636635 7.3830384,8.5961616 6.444835,9.2145229 V 8.2336741 c 0,-0.1129048 -0.03546,-0.3003747 0.02192,-0.4012101 C 6.5898297,7.616165 7.0273739,7.4330662 7.2337794,7.2954696 7.8888586,6.8587575 8.5481173,6.2886497 9.2594464,5.9521334 L 9.1528326,5.760228 7.3403932,6.9756274 6.444835,7.5513433 V 6.6131399 c 0,-0.1194286 -0.035993,-0.3090522 0.012857,-0.4195051 C 6.536992,6.0144164 6.9259844,5.8548157 7.0845193,5.7419108 7.4880957,5.4545435 7.9090081,5.1892457 8.3212429,4.9144151 8.5456009,4.7648569 8.7760364,4.5628456 9.0248957,4.459536 L 8.8969589,4.2676307 H 8.8756358 C 8.6268842,4.5390705 8.2222621,4.7316578 7.9161091,4.9357382 7.4401195,5.253064 6.9614864,5.6650852 6.444835,5.9094871 v -1.002172 c 0,-0.1116254 -0.036825,-0.3044686 0.03418,-0.3981819 C 6.5669928,4.3930088 6.7510511,4.3122595 6.8712906,4.2320854 L 7.7242038,3.6634915 C 7.9322715,3.5247657 8.185651,3.4461056 8.0866913,3.1801672 7.5069669,3.4544216 7.045264,4.01873 6.444835,4.2463075 V 3.3081041 L 6.4576921,2.888599 6.7007087,2.6967793 7.3617163,2.2632871 7.2551016,2.0713812 6.444835,2.6044513 V 1.1118548 Z"
       id="path866" />
  </g>
</svg>
