<?xml version="1.0" encoding="UTF-8" standalone="no"?>
<!-- Created with Inkscape (http://www.inkscape.org/) -->

<svg
   width="48"
   height="48"
   viewBox="0 0 13.97 13.97"
   version="1.1"
   id="svg5"
   inkscape:version="1.1.2 (b8e25be833, 2022-02-05)"
   sodipodi:docname="Kiselica_0.svg"
   xmlns:inkscape="http://www.inkscape.org/namespaces/inkscape"
   xmlns:sodipodi="http://sodipodi.sourceforge.net/DTD/sodipodi-0.dtd"
   xmlns="http://www.w3.org/2000/svg"
   xmlns:svg="http://www.w3.org/2000/svg">
  <sodipodi:namedview
     id="namedview7"
     pagecolor="#ffffff"
     bordercolor="#666666"
     borderopacity="1.0"
     inkscape:pageshadow="2"
     inkscape:pageopacity="0.0"
     inkscape:pagecheckerboard="0"
     inkscape:document-units="mm"
     showgrid="false"
     inkscape:zoom="8.647654"
     inkscape:cx="44.462926"
     inkscape:cy="27.926649"
     inkscape:window-width="1746"
     inkscape:window-height="1051"
     inkscape:window-x="165"
     inkscape:window-y="-9"
     inkscape:window-maximized="1"
     inkscape:current-layer="layer1"
     units="px" />
  <defs
     id="defs2">
    <inkscape:path-effect
       effect="fill_between_many"
       method="originald"
       linkedpaths="#path854,0,1"
       id="path-effect978"
       is_visible="true"
       lpeversion="0"
       join="true"
       close="true"
       autoreverse="true"
       applied="false" />
  </defs>
  <g
     inkscape:label="Layer 1"
     inkscape:groupmode="layer"
     id="layer1">
    <path
       inkscape:original-d="M 2.9471005,0.02470427"
       inkscape:path-effect="#path-effect978"
       d="M 7.0481379,0.10181184 C 6.8331201,0.13023596 6.6571653,0.27134165 6.4726036,0.3735424 6.1898386,0.55023256 5.9290444,0.79754327 5.8307856,1.1253872 5.679441,1.5681185 5.7283664,2.068763 5.4846478,2.4811988 5.2338728,2.8982063 4.8353823,3.1936616 4.5332324,3.5695494 3.9387693,4.2659541 3.4162477,5.0485624 3.1574483,5.9350184 3.0497184,6.2852814 3.0156369,6.6530443 3.0017058,7.0167835 2.9869863,7.3602737 2.9442394,7.7095102 2.7963775,8.0239558 2.6296991,8.3966705 2.408877,8.7504528 2.3241371,9.1547924 c -0.138645,0.6066733 -0.085368,1.2350626 -0.025129,1.8480726 0.089125,0.805019 0.2731302,1.614584 0.6646268,2.329902 0.1593261,0.273576 0.3754179,0.549852 0.6903923,0.645791 0.2644718,0.083 0.5492383,-0.02002 0.7572305,-0.188049 0.2219131,-0.174774 0.4073002,-0.390173 0.6045052,-0.59119 0.4989238,-0.545492 0.8654584,-1.203536 1.4352541,-1.684096 0.1162143,-0.09667 0.2399757,-0.184662 0.3722046,-0.258124 0.096648,0.67052 0.00594,1.34773 0.00575,2.021091 -0.00429,0.181632 -0.042602,0.384961 0.040178,0.558266 0.052902,0.114581 0.2297453,0.110578 0.2857761,9.68e-4 0.093333,-0.178705 0.052925,-0.392997 0.049535,-0.582849 -2.225e-4,-0.670652 -0.089756,-1.345042 0.00547,-2.012951 0.6416559,0.3879 1.1252159,0.98342 1.5961039,1.557891 0.308045,0.367489 0.59873,0.77036 1.014882,1.024223 0.2261514,0.138689 0.5188264,0.205623 0.7689864,0.09066 0.31175,-0.140058 0.514382,-0.436975 0.674009,-0.727029 0.398317,-0.739878 0.53832,-1.5838 0.617506,-2.410858 0.04434,-0.467339 0.08442,-0.9413266 0.0057,-1.4074354 C 11.836062,9.014403 11.709562,8.6754197 11.54318,8.3594258 11.390303,8.05758 11.238015,7.7545157 11.198793,7.4132237 11.14862,7.0123633 11.166349,6.6044091 11.076672,6.2077118 10.899101,5.3476366 10.443704,4.5729381 9.9108566,3.8856789 9.6533286,3.5509165 9.3710186,3.2362431 9.0716296,2.9384048 8.8660186,2.7201443 8.6510176,2.4803192 8.5550776,2.1971256 8.4397796,1.8628398 8.4490406,1.4927438 8.3483056,1.1479567 8.2845886,0.90586826 8.1387846,0.69016855 7.9420716,0.53609127 7.7525936,0.38531967 7.5393606,0.26570913 7.3217754,0.1607053 7.2361683,0.12311529 7.1427523,0.09358989 7.0481379,0.10181184 Z"
       id="path980"
       style="fill:#808080;stroke-width:0.00204176" />
    <path
       id="path854"
       style="fill:#000000;stroke:none;stroke-width:0.0256039"
       d="M 7.0481379,0.10181184 C 6.8331201,0.13023596 6.6571653,0.27134165 6.4726036,0.3735424 6.1898386,0.55023256 5.9290444,0.79754327 5.8307856,1.1253872 5.679441,1.5681185 5.7283664,2.068763 5.4846478,2.4811988 5.2338728,2.8982063 4.8353823,3.1936616 4.5332324,3.5695494 3.9387693,4.2659541 3.4162477,5.0485624 3.1574483,5.9350184 3.0497184,6.2852814 3.0156369,6.6530443 3.0017058,7.0167835 2.9869863,7.3602737 2.9442394,7.7095102 2.7963775,8.0239558 2.6296991,8.3966705 2.408877,8.7504528 2.3241371,9.1547924 c -0.138645,0.6066733 -0.085368,1.2350626 -0.025129,1.8480726 0.089125,0.805019 0.2731302,1.614584 0.6646268,2.329902 0.1593261,0.273576 0.3754179,0.549852 0.6903923,0.645791 0.2644718,0.083 0.5492383,-0.02002 0.7572305,-0.188049 0.2219131,-0.174774 0.4073002,-0.390173 0.6045052,-0.59119 0.4989238,-0.545492 0.8654584,-1.203536 1.4352541,-1.684096 0.1162143,-0.09667 0.2399757,-0.184662 0.3722046,-0.258124 0.096648,0.67052 0.00594,1.34773 0.00575,2.021091 -0.00429,0.181632 -0.042602,0.384961 0.040178,0.558266 0.052902,0.114581 0.2297453,0.110578 0.2857761,9.68e-4 0.093333,-0.178705 0.052925,-0.392997 0.049535,-0.582849 -2.225e-4,-0.670652 -0.089756,-1.345042 0.00547,-2.012951 0.6416559,0.3879 1.1252159,0.98342 1.5961039,1.557891 0.308045,0.367489 0.59873,0.77036 1.014882,1.024223 0.2261514,0.138689 0.5188264,0.205623 0.7689864,0.09066 0.31175,-0.140058 0.514382,-0.436975 0.674009,-0.727029 0.398317,-0.739878 0.53832,-1.5838 0.617506,-2.410858 0.04434,-0.467339 0.08442,-0.9413266 0.0057,-1.4074354 C 11.836062,9.014403 11.709562,8.6754197 11.54318,8.3594258 11.390303,8.05758 11.238015,7.7545157 11.198793,7.4132237 11.14862,7.0123633 11.166349,6.6044091 11.076672,6.2077118 10.899101,5.3476366 10.443704,4.5729381 9.9108566,3.8856789 9.6533286,3.5509165 9.3710186,3.2362431 9.0716296,2.9384048 8.8660186,2.7201443 8.6510176,2.4803192 8.5550776,2.1971256 8.4397796,1.8628398 8.4490406,1.4927438 8.3483056,1.1479567 8.2845886,0.90586826 8.1387846,0.69016855 7.9420716,0.53609127 7.7525936,0.38531967 7.5393606,0.26570913 7.3217754,0.1607053 7.2361683,0.12311529 7.1427523,0.09358989 7.0481379,0.10181184 Z m 0.074279,0.37479771 c 0.2383905,0.0349352 0.4411087,0.18702052 0.6151467,0.34496157 0.148631,0.13076682 0.255143,0.30814328 0.284942,0.50514538 0.05077,0.276269 0.03961,0.5682198 0.135576,0.8409345 0.108272,0.3465951 0.315123,0.6525899 0.555308,0.9214079 0.552716,0.6509501 1.168268,1.2614557 1.5825204,2.0167267 0.208979,0.3794589 0.365861,0.7922518 0.415729,1.2246542 0.07689,0.574075 0.06015,1.1743116 0.293911,1.7156647 0.143507,0.3462656 0.351878,0.6765918 0.455107,1.0319516 0.07811,0.2660935 0.110573,0.5607825 0.113293,0.840052 0.0026,0.4693709 -0.051,0.9352509 -0.109314,1.4015599 -0.08173,0.584797 -0.205174,1.194276 -0.508346,1.717316 -0.118212,0.194468 -0.256997,0.386188 -0.445951,0.517098 -0.173804,0.108172 -0.391922,0.036 -0.5454904,-0.07398 -0.23377,-0.163497 -0.415791,-0.387472 -0.610843,-0.593005 -0.470812,-0.518079 -0.901365,-1.073772 -1.404866,-1.56144 -0.216341,-0.196044 -0.504224,-0.285938 -0.7286288,-0.470008 -0.063139,-0.07878 -0.024172,-0.206778 0.074846,-0.233988 0.3622318,-0.159537 0.7224118,-0.346679 1.0698018,-0.543565 0.732244,-0.4223825 1.411863,-0.9711945 1.8761214,-1.6858168 0.08814,-0.149782 0.187952,-0.3253868 0.142742,-0.5049291 -0.02415,-0.1073441 -0.165079,-0.1328169 -0.241865,-0.065046 -0.101614,0.095584 -0.1536554,0.2314691 -0.2201754,0.3518309 -0.136387,0.2996432 -0.361212,0.5462589 -0.595524,0.7727506 -0.61178,0.5788884 -1.373868,0.9600232 -2.115312,1.3376584 -0.028565,-0.01239 -0.021413,-0.09264 -0.030792,-0.129871 -0.013832,-0.1936413 0.0114,-0.4051351 0.00538,-0.6059179 -0.0028,-0.4246883 0.00562,-0.8496935 -0.00424,-1.2741856 C 7.1749664,8.1001928 7.135871,7.9139685 7.2074693,7.7480251 7.3419224,7.5701737 7.5582226,7.485106 7.7391726,7.3643889 c 0.315695,-0.2187416 0.612078,-0.4669906 0.882345,-0.7399768 0.423396,-0.43464 0.782204,-0.9622827 0.901731,-1.5659469 0.02124,-0.1060031 0.0083,-0.2563031 -0.112921,-0.2938903 -0.103207,-0.040388 -0.195415,0.056773 -0.213185,0.1520036 -0.0645,0.2708615 -0.133642,0.5466985 -0.289005,0.7822015 -0.41505,0.6830967 -1.064371,1.179004 -1.7169227,1.62455 -0.050822,-0.4194751 0.00535,-0.8478906 -0.00548,-1.2725356 7.05e-5,-0.9234923 -0.00122,-1.8470129 0.00308,-2.7704737 -0.01032,-0.1267772 0.018595,-0.2740986 -0.064503,-0.381796 -0.074125,-0.084022 -0.2166525,-0.035158 -0.2481253,0.065356 -0.074211,0.2013086 -0.04146,0.4218364 -0.032393,0.6310854 0.00741,0.3201014 0.016133,0.6501919 0.032403,0.9738769 0.020475,0.4949481 0.038677,0.9940298 -0.035204,1.4856942 C 6.3016966,5.8310006 5.7973237,5.4934449 5.4355437,5.0303166 5.2964503,4.8653116 5.2677015,4.6405219 5.149868,4.4624805 5.1077786,4.3839671 5.0084463,4.302304 4.919559,4.3635055 4.8110026,4.4374255 4.842286,4.5886136 4.874343,4.6953092 c 0.122873,0.4275394 0.4398075,0.7646531 0.7744191,1.0422484 0.2428985,0.1950176 0.5049689,0.3706908 0.789273,0.499201 0.1328233,0.062127 0.2912527,0.099103 0.38632,0.2182806 0.079299,0.1704429 0.053033,0.3649675 0.045739,0.5435796 -0.038078,0.3606551 -0.016572,0.7236571 -0.022114,1.0855336 0,0.4955469 0,0.9910939 0,1.4866408 C 6.5721541,9.5625813 6.3204082,9.4332806 6.0619277,9.3507719 5.4760343,9.1347207 4.9240266,8.8184243 4.4547327,8.4054067 4.2897243,8.2431612 4.2003231,8.0227421 4.0508327,7.848959 3.9809097,7.7703265 3.8359484,7.7649903 3.7851485,7.8672875 c -0.058651,0.1279832 0.029831,0.2622175 0.096667,0.3681381 0.3208658,0.5016732 0.819531,0.8571299 1.3422958,1.125004 0.3823489,0.1965543 0.7838554,0.3610194 1.2018792,0.463537 0.1338635,0.030524 0.2802207,0.03771 0.3908044,0.1312638 0.049435,0.069824 0.035954,0.1652016 0.052128,0.2460956 0.012468,0.210185 0.035491,0.430784 -0.034173,0.633535 -0.064957,0.11051 -0.212778,0.113095 -0.3109276,0.182141 -0.3214198,0.205047 -0.577591,0.494181 -0.8255558,0.779689 -0.4592186,0.540267 -0.8448271,1.142524 -1.3729567,1.618518 -0.1566229,0.13369 -0.3619834,0.268977 -0.5773953,0.211074 C 3.4973012,13.543126 3.3481995,13.302484 3.229896,13.081855 2.8255134,12.323628 2.6873737,11.459378 2.618881,10.612412 2.5726263,10.062014 2.5545603,9.4862051 2.7520453,8.9580378 2.9185692,8.52776 3.1902206,8.137887 3.2819695,7.6797609 3.4319652,7.0209899 3.3664441,6.3248643 3.6142593,5.6872829 3.8378541,5.0998079 4.18083,4.566583 4.5670873,4.080022 4.7801637,3.8054454 5.0197966,3.5532156 5.2673695,3.310061 5.5935598,2.9821486 5.8855277,2.5988023 6.0197596,2.1504413 6.1247246,1.7924988 6.0596563,1.3971906 6.243353,1.0615812 6.4027103,0.80730447 6.6763635,0.65898178 6.9320251,0.5184592 6.9910133,0.49000687 7.0561057,0.46870949 7.1224169,0.47660955 Z" />
  </g>
</svg>
