<?xml version="1.0" encoding="UTF-8" standalone="no"?>
<!-- Created with Inkscape (http://www.inkscape.org/) -->

<svg
   width="48"
   height="48"
   viewBox="0 0 12.7 12.7"
   version="1.1"
   id="svg5"
   inkscape:version="1.1.2 (b8e25be833, 2022-02-05)"
   sodipodi:docname="Kiselica.svg"
   xmlns:inkscape="http://www.inkscape.org/namespaces/inkscape"
   xmlns:sodipodi="http://sodipodi.sourceforge.net/DTD/sodipodi-0.dtd"
   xmlns="http://www.w3.org/2000/svg"
   xmlns:svg="http://www.w3.org/2000/svg">
  <sodipodi:namedview
     id="namedview7"
     pagecolor="#ffffff"
     bordercolor="#666666"
     borderopacity="1.0"
     inkscape:pageshadow="2"
     inkscape:pageopacity="0.0"
     inkscape:pagecheckerboard="0"
     inkscape:document-units="mm"
     showgrid="false"
     inkscape:zoom="12.22963"
     inkscape:cx="22.527256"
     inkscape:cy="35.119625"
     inkscape:window-width="1746"
     inkscape:window-height="1051"
     inkscape:window-x="165"
     inkscape:window-y="-9"
     inkscape:window-maximized="1"
     inkscape:current-layer="layer1"
     units="px" />
  <defs
     id="defs2" />
  <g
     inkscape:label="Layer 1"
     inkscape:groupmode="layer"
     id="layer1">
    <path
       id="path854"
       style="fill:#000000;stroke:none;stroke-width:0.0230548"
       d="M 6.2228251,0.02600509 C 6.0292143,0.05159932 5.8707775,0.1786566 5.7045907,0.2706823 5.4499777,0.42978128 5.215148,0.65246987 5.1266718,0.94767386 4.9903949,1.346327 5.0344493,1.7971277 4.8149953,2.1685016 4.5891873,2.543992 4.2303703,2.810032 3.9583023,3.1484966 3.4230236,3.7755676 2.9525239,4.4802599 2.7194905,5.2784608 2.6224861,5.5938518 2.5917978,5.9250004 2.5792536,6.252526 2.5659996,6.5618184 2.5275085,6.8762851 2.3943677,7.1594247 2.2442837,7.4950321 2.0454465,7.813592 1.9691432,8.1776758 1.8443017,8.723949 1.8922749,9.2897762 1.9465161,9.8417552 c 0.080252,0.7248718 0.2459375,1.4538368 0.598457,2.0979388 0.1434637,0.246338 0.3380415,0.495108 0.6216571,0.581496 0.2381412,0.07474 0.4945565,-0.01803 0.6818411,-0.169327 0.1998195,-0.157374 0.3667496,-0.351327 0.544321,-0.532331 0.4492512,-0.491183 0.7792938,-1.083713 1.292361,-1.516429 0.104644,-0.08705 0.2160839,-0.166277 0.335148,-0.232425 0.087026,0.603763 0.00535,1.21355 0.00518,1.819872 -0.00386,0.163549 -0.03836,0.346635 0.036178,0.502686 0.047636,0.103172 0.2068719,0.09957 0.2573244,8.71e-4 0.084041,-0.160913 0.047656,-0.35387 0.044603,-0.524821 -2.004e-4,-0.603882 -0.08082,-1.21113 0.00492,-1.812543 0.5777728,0.349282 1.01319,0.885512 1.437197,1.402789 0.2773764,0.330901 0.5391209,0.693663 0.9138405,0.922251 0.2036358,0.124882 0.4671724,0.185152 0.6924264,0.08163 0.2807119,-0.126114 0.46317,-0.39347 0.6069044,-0.654646 0.358661,-0.666216 0.484726,-1.426117 0.556029,-2.1708341 0.03992,-0.4208109 0.07602,-0.8476081 0.0052,-1.2673114 -0.04604,-0.319358 -0.159943,-0.6245923 -0.30976,-0.909126 C 10.132687,7.1897013 9.9955596,6.9168099 9.9602427,6.6094968 9.915065,6.2485458 9.9310294,5.8812073 9.8502798,5.524005 9.6903879,4.7495584 9.2803297,4.0519884 8.8005333,3.4331524 8.568644,3.1317188 8.3144414,2.8483741 8.0448592,2.5801884 7.859719,2.3836578 7.6661232,2.1677095 7.5797351,1.9127106 7.475916,1.6117061 7.4842548,1.2784567 7.3935493,0.96799631 7.3361756,0.75001009 7.2048874,0.55578532 7.0277593,0.4170479 6.857146,0.28128703 6.6651416,0.17358486 6.4692194,0.07903515 6.3921353,0.04518758 6.3080197,0.01860172 6.2228251,0.02600509 Z m 0.066884,0.33748305 C 6.5043655,0.39494525 6.6869009,0.531889 6.8436123,0.67410553 6.9774458,0.79185327 7.0733526,0.95157025 7.100185,1.128959 c 0.045711,0.2487638 0.03567,0.511648 0.1220788,0.7572114 0.097492,0.3120883 0.2837496,0.5876184 0.5000214,0.8296731 0.4976882,0.5861418 1.0519558,1.1358658 1.4249651,1.8159424 0.1881734,0.3416802 0.329436,0.7133757 0.3743392,1.1027283 0.069237,0.5169205 0.054166,1.0573978 0.2646498,1.5448541 0.1292191,0.3117915 0.3168457,0.6092307 0.4097977,0.9292111 0.07033,0.2396013 0.09957,0.5049512 0.102014,0.7564169 0.0023,0.4226407 -0.04592,0.8421376 -0.09843,1.2620217 -0.07359,0.526574 -0.184748,1.075374 -0.4577368,1.546341 -0.1064434,0.175106 -0.2314106,0.347739 -0.4015524,0.465615 -0.1565001,0.0974 -0.3529029,0.03242 -0.4911819,-0.06661 C 8.6386535,11.925144 8.4747545,11.723467 8.299122,11.538397 7.8751833,11.071898 7.4874967,10.571529 7.0341237,10.132413 6.8393217,9.9558872 6.5800995,9.8749428 6.3780367,9.709199 6.3211839,9.6382649 6.3562709,9.523007 6.4454313,9.498506 6.7715988,9.3548505 7.09592,9.1863402 7.4087235,9.0090561 8.0680659,8.6287255 8.6800222,8.1345529 9.0980592,7.491078 9.1774278,7.3562082 9.267299,7.1980866 9.22659,7.0364194 9.2048404,6.9397624 9.0779461,6.9168256 9.0088048,6.9778495 8.917308,7.0639168 8.8704481,7.1862736 8.8105504,7.2946522 8.6877419,7.5644631 8.4853005,7.7865259 8.2743168,7.9904682 7.7234449,8.5117228 7.0372305,8.854912 6.3696038,9.1949501 6.343883,9.1837967 6.3503227,9.1115302 6.3418775,9.0780088 6.3294229,8.9036464 6.3521425,8.7132089 6.3467223,8.5324159 6.3441988,8.1500093 6.3517866,7.7673174 6.3429057,7.3850875 6.3370266,7.2280716 6.3018235,7.0603877 6.3662936,6.9109655 6.4873606,6.7508209 6.6821262,6.6742225 6.8450607,6.5655239 7.1293254,6.3685601 7.3962008,6.1450267 7.6395598,5.8992189 8.0208033,5.5078513 8.3438883,5.0327404 8.4515156,4.4891768 8.4706394,4.3937273 8.4589849,4.258391 8.3498362,4.224546 8.2569051,4.1881788 8.1738769,4.2756663 8.1578758,4.3614162 8.0997959,4.6053109 8.0375398,4.8536857 7.8976441,5.0657421 7.5239165,5.6808301 6.9392414,6.1273652 6.3516574,6.5285528 6.3058956,6.1508404 6.3564708,5.7650777 6.346722,5.3827102 6.3467855,4.5511603 6.3456276,3.7195849 6.3494921,2.8880634 6.3401994,2.773908 6.3662353,2.6412539 6.2914108,2.5442787 6.2246656,2.468622 6.0963281,2.5126213 6.0679888,2.6031276 6.001166,2.784394 6.0306562,2.9829662 6.0388206,3.1713825 6.0454891,3.4596147 6.0533473,3.7568416 6.067998,4.0483007 6.0864343,4.4939721 6.1028243,4.9433654 6.0362988,5.38608 5.5506992,5.1847989 5.0965414,4.8808501 4.77078,4.4638306 4.6455346,4.3152534 4.619648,4.1128436 4.513546,3.952528 4.475647,3.8818313 4.3862041,3.8082985 4.3061664,3.8634069 c -0.097749,0.066561 -0.06958,0.2026964 -0.040714,0.2987695 0.1106399,0.3849737 0.3960206,0.6885246 0.6973184,0.9384827 0.2187157,0.1756017 0.4546945,0.333785 0.7106934,0.4495008 0.1195995,0.055941 0.2622558,0.089236 0.3478582,0.1965487 0.071404,0.1534737 0.047753,0.3286315 0.041186,0.4894611 -0.034287,0.3247485 -0.014922,0.6516102 -0.019912,0.9774584 0,0.4462106 0,0.8924212 0,1.3386317 C 5.79423,8.5448654 5.5675478,8.4284379 5.3348015,8.3541437 4.8072393,8.1596024 4.3101892,7.8747963 3.8876179,7.5028986 3.7390377,7.3568061 3.6585372,7.1583319 3.52393,7.0018505 3.4609685,6.9310466 3.3304394,6.9262417 3.2846972,7.0183542 c -0.052812,0.1152412 0.026861,0.2361112 0.087043,0.3314865 0.2889206,0.4517268 0.737939,0.7717945 1.2086576,1.0129991 0.3442825,0.1769856 0.7058152,0.3250765 1.0822207,0.4173876 0.1205362,0.027485 0.2523221,0.033955 0.3518962,0.1181952 0.044513,0.062872 0.032374,0.1487539 0.046938,0.2215946 0.011227,0.1892593 0.031957,0.3878952 -0.03077,0.5704606 -0.05849,0.099507 -0.191594,0.1018354 -0.2799719,0.1640071 C 5.4612907,10.039117 5.2306238,10.299466 5.0073462,10.556548 4.5938471,11.043027 4.2466296,11.585323 3.7710803,12.013928 3.6300507,12.134307 3.4451358,12.256126 3.2511702,12.203987 3.0255078,12.129109 2.8912506,11.912425 2.7847253,11.713762 2.4206029,11.031024 2.2962162,10.252818 2.2345427,9.4901758 2.192893,8.9945749 2.1766257,8.4760933 2.3544492,8.00051 2.504394,7.6130704 2.749,7.2620129 2.8316144,6.8494977 2.9666766,6.2563135 2.9076788,5.6294939 3.1308216,5.0553897 3.3321554,4.5264034 3.6409848,4.0462661 3.9887866,3.6081469 4.1806492,3.3609069 4.3964244,3.133789 4.6193491,2.9148427 4.9130641,2.6195771 5.1759638,2.2743965 5.2968316,1.8706741 5.3913463,1.5483682 5.3327562,1.1924167 5.4981641,0.89022037 5.641656,0.66125925 5.8880644,0.52770349 6.1182725,0.40117127 6.1713878,0.37555163 6.2299997,0.35637461 6.2897091,0.36348814 Z" />
  </g>
</svg>
