<?xml version="1.0" encoding="UTF-8" standalone="no"?>
<!-- Created with Inkscape (http://www.inkscape.org/) -->

<svg
   width="48"
   height="48"
   viewBox="0 0 12.7 12.7"
   version="1.1"
   id="svg6518"
   inkscape:version="1.1.2 (b8e25be833, 2022-02-05)"
   sodipodi:docname="Koprive.svg"
   xmlns:inkscape="http://www.inkscape.org/namespaces/inkscape"
   xmlns:sodipodi="http://sodipodi.sourceforge.net/DTD/sodipodi-0.dtd"
   xmlns="http://www.w3.org/2000/svg"
   xmlns:svg="http://www.w3.org/2000/svg">
  <sodipodi:namedview
     id="namedview6520"
     pagecolor="#ffffff"
     bordercolor="#666666"
     borderopacity="1.0"
     inkscape:pageshadow="2"
     inkscape:pageopacity="0.0"
     inkscape:pagecheckerboard="0"
     inkscape:document-units="mm"
     showgrid="false"
     inkscape:zoom="5.908137"
     inkscape:cx="28.689247"
     inkscape:cy="56.447574"
     inkscape:window-width="1746"
     inkscape:window-height="1051"
     inkscape:window-x="165"
     inkscape:window-y="-9"
     inkscape:window-maximized="1"
     inkscape:current-layer="layer1"
     units="px" />
  <defs
     id="defs6515" />
  <g
     inkscape:label="Layer 1"
     inkscape:groupmode="layer"
     id="layer1">
    <path
       style="fill:#000000;stroke:none;stroke-width:0.0210049"
       d="M 5.5477492,2.1884754 C 5.4381664,2.1535652 5.2908797,1.9933604 5.1718656,2.034026 5.0645723,2.0707007 5.0260913,2.2609425 4.9986798,2.356515 4.910417,2.6643427 4.8513091,3.0603282 4.9806155,3.3647525 4.7948058,3.3397361 4.4704473,3.153443 4.2919473,3.2304052 4.1789196,3.2791364 4.1480423,3.5106533 4.1221431,3.6168123 4.0168454,4.0481906 4.0460843,4.4581023 4.1824275,4.8771091 3.9672527,4.8041171 3.7329845,4.7664974 3.510269,4.7216727 3.4359324,4.7067171 3.3159732,4.6621865 3.2463209,4.7096787 3.162406,4.7668548 3.1921911,4.9578522 3.1960135,5.0451491 3.2115782,5.4003843 3.3033277,5.7398875 3.4682587,6.0533868 3.2594064,6.0036684 3.0307256,6.0074701 2.8171052,5.9868007 2.7410993,5.9794531 2.6393319,5.9455677 2.5742355,6.0030382 2.4815475,6.0848742 2.5595735,6.3090177 2.5836155,6.4104713 2.6818895,6.8251094 2.8683313,7.1266983 3.0901646,7.481724 2.858312,7.500671 2.6224096,7.580258 2.3970012,7.6365935 2.3201272,7.6558125 2.1911905,7.6651605 2.1456055,7.7396437 2.0762905,7.8528813 2.2254185,8.055117 2.2764016,8.1538822 2.4656792,8.5205655 2.7712173,8.9594009 3.1531797,9.1411147 v 0.021005 c -0.2123339,0.091497 -0.4122359,0.2321258 -0.6091385,0.3531142 -0.06455,0.039657 -0.1723875,0.090594 -0.1896599,0.17285 -0.027861,0.1326669 0.2068232,0.2716562 0.2946848,0.3374441 0.3430948,0.256912 0.7629838,0.450934 1.1972821,0.459903 v 0.02101 c -0.1293692,0.05765 -0.5865422,0.343074 -0.5592148,0.503888 0.016868,0.09937 0.1478959,0.169341 0.2231356,0.222086 0.2249419,0.15762 0.4755521,0.28991 0.7351732,0.380063 0.7433232,0.258088 1.5689018,0.208789 2.2475295,-0.202824 v 0.924218 c 0,0.0894 -0.032998,0.287852 0.1050246,0.287852 0.138024,0 0.1050247,-0.198455 0.1050247,-0.287852 v -0.924218 c 0.6862948,0.404745 1.497506,0.46234 2.2475295,0.202824 0.2672042,-0.09246 0.5274765,-0.229018 0.7561779,-0.395061 0.07028,-0.05102 0.186167,-0.113117 0.202131,-0.207088 0.02697,-0.15865 -0.4309163,-0.446712 -0.5592147,-0.503888 v -0.02101 c 0.4311057,-0.0036 0.8579053,-0.205785 1.1972823,-0.459903 0.09022,-0.06755 0.319464,-0.2021937 0.291506,-0.3379693 C 10.820495,9.600472 10.719462,9.5594495 10.651952,9.5179229 10.454757,9.3965979 10.255525,9.253785 10.042808,9.1621196 v -0.021005 c 0.381954,-0.1902205 0.684888,-0.6163693 0.876789,-0.9872325 0.05104,-0.098681 0.200051,-0.3010851 0.130777,-0.4142385 -0.04558,-0.074484 -0.17451,-0.083831 -0.251387,-0.1030504 -0.224019,-0.056 -0.4619,-0.1447874 -0.693164,-0.1548695 0.225005,-0.3404904 0.405017,-0.648171 0.501388,-1.0502477 0.02384,-0.099542 0.100782,-0.3229303 0.02884,-0.4109829 -0.06241,-0.076374 -0.174803,-0.041653 -0.257164,-0.033692 -0.214355,0.020733 -0.4412716,0.016615 -0.6511526,0.066586 0.164532,-0.3127848 0.256702,-0.6536115 0.272245,-1.0082377 0.004,-0.090594 0.0368,-0.2990477 -0.06698,-0.3443344 -0.07675,-0.033482 -0.190956,0.00937 -0.268275,0.02508 C 9.4518131,4.7691649 9.2306732,4.8466309 9.0135661,4.8561046 9.1833281,4.4731003 9.1715859,4.0171665 9.0738503,3.6168123 9.0471529,3.5074184 9.0165908,3.2814258 8.904046,3.226288 8.7405226,3.1461962 8.3905592,3.3411431 8.2153777,3.3647525 8.3459024,3.0613779 8.2854921,2.6640909 8.1973133,2.356515 8.1699023,2.2609425 8.131421,2.0707007 8.0241278,2.034026 7.9079075,1.9943057 7.753752,2.1498474 7.6482443,2.1884754 7.7450142,1.5580895 7.3516336,0.94691888 7.0002626,0.46606944 6.9226704,0.35988093 6.7435609,0.00117311 6.5977656,0.00117311 c -0.1472238,0 -0.3237491,0.35770805 -0.4020344,0.46489633 C 5.865218,0.91857273 5.410776,1.5863979 5.5477492,2.1884754 M 7.9423135,2.2935 c 0.1113897,0.2988584 0.1698036,0.6311988 0.091056,0.9452229 -0.024934,0.099374 -0.1799071,0.302135 -0.064927,0.3815967 0.068917,0.047639 0.1754333,0.00187 0.2469345,-0.018421 0.1921115,-0.054508 0.3906083,-0.1240554 0.5881387,-0.1531262 0.097777,0.426547 0.1785838,0.8082491 0.041401,1.2392917 -0.034196,0.107504 -0.2121079,0.3324873 -0.083852,0.4219266 0.073854,0.051504 0.2159729,-0.00727 0.2945106,-0.025333 0.2384272,-0.054823 0.4901931,-0.133991 0.7351741,-0.1445348 -0.04136,0.3272989 -0.05602,0.6771154 -0.235928,0.9662068 -0.048984,0.078705 -0.2470606,0.2287022 -0.1705818,0.3294209 0.060557,0.079735 0.1979308,0.043459 0.2804798,0.033671 0.24853,-0.029407 0.5062396,-0.058269 0.7561786,-0.069001 -0.01433,0.3286017 -0.170771,0.6994862 -0.357967,0.9662279 -0.06077,0.086583 -0.3027856,0.267393 -0.2773926,0.3769548 0.02182,0.094229 0.159155,0.1112837 0.2362636,0.1296003 0.258739,0.06144 0.516807,0.1328559 0.777184,0.1866082 -0.06211,0.3481992 -0.413209,0.7379669 -0.672159,0.959926 -0.08211,0.070367 -0.4150996,0.2202164 -0.3978336,0.3418557 0.01249,0.087927 0.142372,0.1413006 0.208791,0.1811678 0.2026326,0.1216612 0.4025586,0.2509041 0.6091416,0.365486 v 0.04201 c -0.351518,0.2322948 -0.6896976,0.5019557 -1.1342668,0.5040987 -0.1117255,5.36e-4 -0.4916414,-0.08276 -0.544322,0.02416 -0.046757,0.0949 0.084545,0.173438 0.1452284,0.220572 0.2024242,0.157286 0.4009001,0.319885 0.6091428,0.469461 v 0.04201 c -0.8868287,0.598262 -1.8589165,0.712928 -2.8146627,0.21005 0.068119,-0.13981 0.2261396,-0.228977 0.336079,-0.336395 C 7.3278348,10.704702 7.4869681,10.501836 7.6403883,10.296387 8.0807357,9.7066519 8.3852237,9.011724 8.6308977,8.3219215 8.7313854,8.039804 8.8124227,7.7511118 8.8848687,7.4607186 8.9025128,7.3900158 8.9432416,7.1504336 8.7847799,7.2123563 8.6858045,7.2510261 8.6731805,7.4352817 8.6516295,7.5237337 8.5806327,7.8149041 8.4851863,8.103638 8.3823043,8.3849363 8.1230191,9.0938747 7.7928213,9.7899369 7.3162612,10.380406 7.1494815,10.587053 6.9493045,10.855728 6.7030214,10.968545 V 9.2881495 c 0,-0.2221485 -0.059949,-0.5458345 0.01237,-0.7561783 0.090723,-0.2639061 0.368597,-0.53069 0.512502,-0.7771833 C 7.4870521,7.3109113 7.6735346,6.8196473 7.813343,6.3264511 7.9211196,5.9461566 8.0137723,5.5451086 8.0455317,5.1501739 8.0519169,5.0709008 8.1178516,4.7566879 7.9544753,4.7789529 7.8664648,4.790947 7.844809,4.9118933 7.8391793,4.9821338 7.8210732,5.2076851 7.7907421,5.4311989 7.7515048,5.6542924 7.5949129,6.5443567 7.2506839,7.4185619 6.7240266,8.153882 H 6.7030214 V 4.036911 3.0706832 c 0,-0.08381 0.026298,-0.275858 -0.1050246,-0.275858 -0.1313231,0 -0.1050246,0.1920484 -0.1050246,0.275858 V 4.036911 8.153882 H 6.4719672 C 5.9610846,7.3965696 5.6170655,6.5538298 5.4548233,5.6542924 5.4147669,5.4322069 5.3724839,5.2077691 5.3594398,4.9821338 5.3552019,4.9084285 5.3526702,4.7959461 5.2588472,4.7781342 5.0967099,4.7473612 5.1467433,5.0476904 5.157561,5.1291688 c 0.053878,0.4051014 0.121408,0.8028305 0.2310544,1.1972823 0.139725,0.5026067 0.3371715,0.9985965 0.6004896,1.4493418 0.1388848,0.237755 0.4088821,0.4990568 0.4920201,0.7561783 0.069316,0.2144397 0.011847,0.5311104 0.011847,0.7561783 V 10.968545 C 6.2277003,10.847032 6.0010571,10.545801 5.8286694,10.317392 5.3862422,9.7311859 5.0652655,9.0728067 4.8136892,8.3849363 4.7106809,8.1032599 4.6154445,7.8153244 4.5443637,7.5237337 4.5228126,7.4352817 4.5101887,7.2510261 4.4112133,7.2123563 4.256785,7.1520091 4.2882083,7.3883987 4.3062516,7.4607186 c 0.072299,0.2898055 0.1583143,0.5799255 0.258844,0.8612029 0.2560083,0.7163742 0.5755567,1.4262993 1.0346409,2.0374805 0.1373731,0.182869 0.2871166,0.365717 0.4521526,0.524305 0.1109274,0.106581 0.2677708,0.196774 0.3360579,0.336899 -0.9552838,0.502626 -1.9278972,0.388171 -2.8146631,-0.210051 v -0.04201 c 0.2106376,-0.139307 0.4132094,-0.307893 0.6091436,-0.467594 0.05873,-0.04785 0.191019,-0.129852 0.1452282,-0.222463 -0.05602,-0.113214 -0.4287111,-0.01489 -0.5443224,-0.02138 -0.4358526,-0.02451 -0.7930839,-0.25416 -1.1342672,-0.5068497 v -0.04201 C 2.8509025,9.5847184 3.0546506,9.4636037 3.2582096,9.3428254 3.3265597,9.3022859 3.4540177,9.2538904 3.4645623,9.1620987 3.4794337,9.032666 3.1549283,8.8931304 3.069165,8.8197388 2.8094682,8.5974646 2.4592002,8.208705 2.3970066,7.8598127 2.6574596,7.806061 2.9154299,7.7347284 3.1741898,7.6732046 3.2512569,7.6548676 3.3887343,7.6378322 3.4104535,7.5435831 3.437697,7.4254931 3.1962449,7.2561723 3.1330831,7.1666491 2.9406778,6.8938372 2.801646,6.5340428 2.7750957,6.2004213 3.0184591,6.2108783 3.2682711,6.2404983 3.510269,6.2694223 3.597523,6.2798663 3.7475199,6.3182163 3.8122572,6.2357513 3.892328,6.1337728 3.6908486,5.9886704 3.6433774,5.9063311 3.4698765,5.6053509 3.4477163,5.2761616 3.4052442,4.9401243 c 0.2513453,0.00521 0.5103994,0.096202 0.7561783,0.1470976 0.083747,0.017351 0.2119189,0.072761 0.2872847,0.00826 C 4.5519252,5.007172 4.3694142,4.750303 4.3367506,4.6460558 4.2080528,4.235283 4.2997816,3.8530974 4.3924764,3.4487737 4.590007,3.4778447 4.7885037,3.5473917 4.980615,3.6018998 5.052116,3.6221908 5.1586319,3.6679608 5.2275492,3.6203208 5.3425301,3.5408587 5.1875559,3.3380986 5.1626224,3.2387243 5.0838743,2.9247002 5.1422901,2.5923598 5.2536784,2.2935014 5.3613077,2.3438294 5.612569,2.5829493 5.7306378,2.5070587 5.8410602,2.4361039 5.7489544,2.0605354 5.7637843,1.9364172 5.8156878,1.5025011 5.9851345,1.1345887 6.2379709,0.78114474 c 0.062322,-0.0871456 0.245905,-0.43676013 0.3600249,-0.43676013 0.1141196,0 0.2977032,0.34961487 0.3600247,0.43676013 C 7.2127056,1.1371703 7.3925712,1.5173536 7.434623,1.9574221 7.446043,2.0768983 7.356296,2.4402209 7.465353,2.5075838 7.5827707,2.5801138 7.8340112,2.3441233 7.9423125,2.2935014 Z"
       id="path6651" />
  </g>
</svg>
