<?xml version="1.0" encoding="UTF-8" standalone="no"?>
<!-- Created with Inkscape (http://www.inkscape.org/) -->

<svg
   width="48"
   height="48"
   viewBox="0 0 12.7 12.7"
   version="1.1"
   id="svg6518"
   inkscape:version="1.1.2 (b8e25be833, 2022-02-05)"
   sodipodi:docname="Koprive_0.svg"
   xmlns:inkscape="http://www.inkscape.org/namespaces/inkscape"
   xmlns:sodipodi="http://sodipodi.sourceforge.net/DTD/sodipodi-0.dtd"
   xmlns="http://www.w3.org/2000/svg"
   xmlns:svg="http://www.w3.org/2000/svg">
  <sodipodi:namedview
     id="namedview6520"
     pagecolor="#ffffff"
     bordercolor="#666666"
     borderopacity="1.0"
     inkscape:pageshadow="2"
     inkscape:pageopacity="0.0"
     inkscape:pagecheckerboard="0"
     inkscape:document-units="mm"
     showgrid="false"
     inkscape:zoom="11.816274"
     inkscape:cx="15.867946"
     inkscape:cy="27.12361"
     inkscape:window-width="1746"
     inkscape:window-height="1051"
     inkscape:window-x="165"
     inkscape:window-y="-9"
     inkscape:window-maximized="1"
     inkscape:current-layer="layer1"
     units="px" />
  <defs
     id="defs6515">
    <inkscape:path-effect
       effect="fill_between_many"
       method="originald"
       linkedpaths="#path6651,0,1"
       id="path-effect6774"
       is_visible="true"
       lpeversion="0"
       join="true"
       close="true"
       autoreverse="true"
       applied="false" />
  </defs>
  <g
     inkscape:label="Layer 1"
     inkscape:groupmode="layer"
     id="layer1">
    <path
       inkscape:original-d="M 0,0"
       inkscape:path-effect="#path-effect6774"
       d="M 5.3173323,2.2960229 C 5.2095831,2.2616969 5.0647609,2.1041727 4.9477383,2.1441579 4.8422404,2.1802189 4.8044032,2.3672774 4.7774505,2.4612507 4.6906645,2.7639275 4.6325457,3.153287 4.7596885,3.4526174 4.5769878,3.4280194 4.2580568,3.2448437 4.0825436,3.3205182 3.9714072,3.3684342 3.9410466,3.5960768 3.9155808,3.7004595 3.812045,4.1246196 3.8407946,4.5276723 3.9748564,4.9396678 3.7632821,4.8678971 3.5329339,4.830907 3.3139451,4.7868324 3.2408521,4.7721274 3.1229004,4.7283414 3.0544135,4.7750394 c -0.082511,0.056219 -0.053224,0.2440209 -0.049465,0.329857 0.015304,0.3492912 0.1055187,0.6831135 0.2676897,0.991367 -0.2053575,-0.048887 -0.4302119,-0.045148 -0.6402577,-0.065472 -0.074735,-0.00723 -0.1747987,-0.040543 -0.2388059,0.015965 -0.091138,0.080466 -0.014416,0.3008596 0.00923,0.4006155 0.096629,0.4077 0.2799517,0.7042424 0.4980731,1.0533275 -0.2279731,0.01863 -0.4599282,0.096885 -0.6815648,0.1522781 -0.075588,0.018898 -0.2023669,0.028089 -0.2471891,0.1013259 -0.068154,0.111343 0.078477,0.310195 0.1286072,0.407307 0.1861105,0.360548 0.486536,0.79204 0.8621071,0.970713 v 0.02065 c -0.208786,0.08997 -0.4053431,0.228242 -0.5989509,0.347206 -0.06347,0.03899 -0.169503,0.08908 -0.1864864,0.169957 -0.027395,0.130448 0.2033624,0.2671121 0.2897539,0.3317976 0.3373538,0.252613 0.7502168,0.443389 1.1772481,0.452209 v 0.02065 c -0.1272048,0.05669 -0.5767277,0.337332 -0.5498575,0.495456 0.016585,0.09771 0.1454211,0.166508 0.2194019,0.218368 0.221178,0.154985 0.4675947,0.28506 0.7228717,0.373704 0.7308852,0.25377 1.5426494,0.205297 2.2099217,-0.199429 v 0.908752 c 0,0.0879 -0.032446,0.283035 0.1032675,0.283035 0.1357144,0 0.1032674,-0.195133 0.1032674,-0.283035 v -0.908752 c 0.6748112,0.397971 1.4724484,0.454604 2.2099217,0.199429 0.2627332,-0.09092 0.5186502,-0.225184 0.7435252,-0.38845 0.06911,-0.05017 0.1830519,-0.11122 0.1987479,-0.203623 0.02652,-0.155995 -0.4237049,-0.439238 -0.5498569,-0.495456 v -0.02065 C 9.4795054,10.450642 9.8991633,10.2518 10.232861,10.001934 10.321571,9.935514 10.54698,9.8031244 10.51949,9.6696204 10.50185,9.5839904 10.402509,9.5436555 10.336129,9.5028235 10.142234,9.3835285 9.9463363,9.2431055 9.7371783,9.1529735 v -0.02065 c 0.3755627,-0.187037 0.6734267,-0.606055 0.8621167,-0.970713 0.05019,-0.09703 0.196704,-0.296047 0.128589,-0.407307 C 10.683064,7.6810665 10.556295,7.6718755 10.480703,7.6529776 10.260434,7.5979146 10.026533,7.510613 9.7991383,7.5006995 10.020378,7.1659065 10.197379,6.8633743 10.292136,6.4680256 c 0.02344,-0.097877 0.0991,-0.3175268 0.02836,-0.404106 -0.06136,-0.075096 -0.171878,-0.040956 -0.252861,-0.033128 -0.2107687,0.020385 -0.4338877,0.016337 -0.6402567,0.065472 0.161778,-0.3075509 0.252406,-0.6426747 0.267689,-0.991367 0.0039,-0.089078 0.03618,-0.2940437 -0.06586,-0.3385726 -0.07547,-0.032922 -0.18776,0.00921 -0.263786,0.02466 C 9.1560693,4.8335298 8.9386302,4.9096996 8.725156,4.9190147 8.8920774,4.5424192 8.8805316,4.0941145 8.7844313,3.7004595 8.7581808,3.592896 8.7281301,3.370685 8.6174683,3.3164697 8.4566813,3.2377181 8.1125738,3.429403 7.9403236,3.4526174 8.0686642,3.1543192 8.0092647,2.7636799 7.9225615,2.4612507 7.895609,2.3672774 7.8577718,2.1802188 7.7522738,2.1441579 7.6379983,2.1051021 7.4864222,2.2580412 7.3826799,2.2960229 7.4778306,1.6761852 7.0910325,1.0752412 6.7455409,0.6024377 6.669247,0.4980261 6.4931346,0.1453205 6.3497788,0.1453205 6.2050186,0.1453205 6.031447,0.497043 5.9544717,0.6024377 5.6294889,1.0473694 5.182651,1.7040199 5.3173323,2.2960229 Z"
       id="path6776"
       style="fill:#808080" />
    <path
       style="fill:#000000;stroke:none;stroke-width:0.0206535"
       d="M 5.3173323,2.2960229 C 5.2095831,2.2616969 5.0647609,2.1041727 4.9477383,2.1441579 4.8422404,2.1802189 4.8044032,2.3672774 4.7774505,2.4612507 4.6906645,2.7639275 4.6325457,3.153287 4.7596885,3.4526174 4.5769878,3.4280194 4.2580568,3.2448437 4.0825436,3.3205182 3.9714072,3.3684342 3.9410466,3.5960768 3.9155808,3.7004595 3.812045,4.1246196 3.8407946,4.5276723 3.9748564,4.9396678 3.7632821,4.8678971 3.5329339,4.830907 3.3139451,4.7868324 3.2408521,4.7721274 3.1229004,4.7283414 3.0544135,4.7750394 c -0.082511,0.056219 -0.053224,0.2440209 -0.049465,0.329857 0.015304,0.3492912 0.1055187,0.6831135 0.2676897,0.991367 -0.2053575,-0.048887 -0.4302119,-0.045148 -0.6402577,-0.065472 -0.074735,-0.00723 -0.1747987,-0.040543 -0.2388059,0.015965 -0.091138,0.080466 -0.014416,0.3008596 0.00923,0.4006155 0.096629,0.4077 0.2799517,0.7042424 0.4980731,1.0533275 -0.2279731,0.01863 -0.4599282,0.096885 -0.6815648,0.1522781 -0.075588,0.018898 -0.2023669,0.028089 -0.2471891,0.1013259 -0.068154,0.111343 0.078477,0.310195 0.1286072,0.407307 0.1861105,0.360548 0.486536,0.79204 0.8621071,0.970713 v 0.02065 c -0.208786,0.08997 -0.4053431,0.228242 -0.5989509,0.347206 -0.06347,0.03899 -0.169503,0.08908 -0.1864864,0.169957 -0.027395,0.130448 0.2033624,0.2671121 0.2897539,0.3317976 0.3373538,0.252613 0.7502168,0.443389 1.1772481,0.452209 v 0.02065 c -0.1272048,0.05669 -0.5767277,0.337332 -0.5498575,0.495456 0.016585,0.09771 0.1454211,0.166508 0.2194019,0.218368 0.221178,0.154985 0.4675947,0.28506 0.7228717,0.373704 0.7308852,0.25377 1.5426494,0.205297 2.2099217,-0.199429 v 0.908752 c 0,0.0879 -0.032446,0.283035 0.1032675,0.283035 0.1357144,0 0.1032674,-0.195133 0.1032674,-0.283035 v -0.908752 c 0.6748112,0.397971 1.4724484,0.454604 2.2099217,0.199429 0.2627332,-0.09092 0.5186502,-0.225184 0.7435252,-0.38845 0.06911,-0.05017 0.1830519,-0.11122 0.1987479,-0.203623 0.02652,-0.155995 -0.4237049,-0.439238 -0.5498569,-0.495456 v -0.02065 c 0.423892,-0.0035 0.8435499,-0.202342 1.1772476,-0.452208 0.08871,-0.06642 0.314119,-0.1988096 0.286629,-0.3323136 -0.01764,-0.08563 -0.116981,-0.1259649 -0.183361,-0.1667969 -0.193895,-0.119295 -0.3897927,-0.259718 -0.5989507,-0.34985 v -0.02065 c 0.3755627,-0.187037 0.6734267,-0.606055 0.8621167,-0.970713 0.05019,-0.09703 0.196704,-0.296047 0.128589,-0.407307 C 10.683064,7.6810665 10.556295,7.6718755 10.480703,7.6529776 10.260434,7.5979146 10.026533,7.510613 9.7991383,7.5006995 10.020378,7.1659065 10.197379,6.8633743 10.292136,6.4680256 c 0.02344,-0.097877 0.0991,-0.3175268 0.02836,-0.404106 -0.06136,-0.075096 -0.171878,-0.040956 -0.252861,-0.033128 -0.2107687,0.020385 -0.4338877,0.016337 -0.6402567,0.065472 0.161778,-0.3075509 0.252406,-0.6426747 0.267689,-0.991367 0.0039,-0.089078 0.03618,-0.2940437 -0.06586,-0.3385726 -0.07547,-0.032922 -0.18776,0.00921 -0.263786,0.02466 C 9.1560693,4.8335298 8.9386302,4.9096996 8.725156,4.9190147 8.8920774,4.5424192 8.8805316,4.0941145 8.7844313,3.7004595 8.7581808,3.592896 8.7281301,3.370685 8.6174683,3.3164697 8.4566813,3.2377181 8.1125738,3.429403 7.9403236,3.4526174 8.0686642,3.1543192 8.0092647,2.7636799 7.9225615,2.4612507 7.895609,2.3672774 7.8577718,2.1802188 7.7522738,2.1441579 7.6379983,2.1051021 7.4864222,2.2580412 7.3826799,2.2960229 7.4778306,1.6761852 7.0910325,1.0752412 6.7455409,0.6024377 6.669247,0.4980261 6.4931346,0.1453205 6.3497788,0.1453205 6.2050186,0.1453205 6.031447,0.497043 5.9544717,0.6024377 5.6294889,1.0473694 5.182651,1.7040199 5.3173323,2.2960229 m 2.3544961,0.1032674 c 0.1095254,0.2938577 0.1669624,0.620637 0.089533,0.9294066 -0.024516,0.097711 -0.1768968,0.2970793 -0.06384,0.3752115 0.067764,0.046842 0.1724979,0.00184 0.2428026,-0.018113 0.1888969,-0.053596 0.3840723,-0.1219797 0.5782975,-0.1505639 0.096142,0.4194097 0.1755954,0.7947248 0.040708,1.2185547 -0.033624,0.1057047 -0.2085588,0.3269239 -0.082449,0.4148665 0.072618,0.050642 0.212359,-0.00715 0.2895826,-0.024908 0.2344376,-0.053905 0.4819902,-0.1317485 0.7228712,-0.1421163 -0.04067,0.3218223 -0.05508,0.6657852 -0.23198,0.9500392 -0.04816,0.077389 -0.2429256,0.2248754 -0.1677265,0.3239089 0.059544,0.0784 0.1946175,0.042732 0.2757855,0.033107 0.244372,-0.028915 0.497769,-0.057293 0.7435257,-0.067847 -0.01409,0.3231032 -0.1679137,0.6877818 -0.3519767,0.9500601 -0.05975,0.085134 -0.29772,0.2629187 -0.27275,0.3706473 0.02146,0.092651 0.156491,0.1094223 0.23231,0.1274316 0.25441,0.06041 0.5081577,0.130633 0.7641787,0.183486 -0.06107,0.342372 -0.406295,0.725618 -0.6609107,0.943863 -0.08073,0.06919 -0.408155,0.216532 -0.391177,0.336136 0.01229,0.08645 0.139989,0.138936 0.205296,0.178136 0.199243,0.119625 0.3958227,0.246706 0.5989497,0.35937 v 0.04131 c -0.3456357,0.228406 -0.6781567,0.4935565 -1.1152877,0.4956615 -0.1098548,5.27e-4 -0.4834141,-0.08137 -0.5352132,0.02375 -0.045974,0.09331 0.08313,0.170536 0.1427984,0.216882 0.199037,0.154653 0.3941918,0.314532 0.5989498,0.461606 v 0.04131 C 8.452117,11.558737 7.4962952,11.671485 6.5565414,11.17702 6.6235204,11.03955 6.7788965,10.951874 6.8869963,10.846254 7.0676319,10.669748 7.2241024,10.470278 7.3749554,10.268266 7.8079345,9.6883985 8.1073275,9.0050985 8.3488907,8.3268385 8.447697,8.0494415 8.5273783,7.7655805 8.5986121,7.4800459 8.6159608,7.4105263 8.6560081,7.1749529 8.500198,7.2358395 8.4028788,7.2738623 8.390466,7.4550348 8.3692755,7.5420067 8.2994667,7.8283045 8.2056174,8.1122075 8.104457,8.3887985 7.8495105,9.0858745 7.5248378,9.7702895 7.0562519,10.35088 6.892263,10.554069 6.6954355,10.818246 6.4532734,10.929177 V 9.2768985 c 0,-0.218431 -0.058945,-0.536701 0.012165,-0.743525 0.089202,-0.25949 0.3624269,-0.52181 0.5039239,-0.764179 C 7.2241849,7.3327454 7.407547,6.8497017 7.545016,6.3647581 7.6509892,5.990827 7.7420916,5.5964897 7.7733196,5.2081635 7.779598,5.1302169 7.8444293,4.8212617 7.6837869,4.8431541 7.597249,4.8549475 7.5759555,4.9738699 7.57042,5.0429352 7.552617,5.2647124 7.5227934,5.4844861 7.4842127,5.7038466 7.3302409,6.5790175 6.9917718,7.4385947 6.473927,8.1616105 H 6.453273 v -4.0480818 -0.95006 c 0,-0.082407 0.025858,-0.2712421 -0.1032674,-0.2712421 -0.1291252,0 -0.1032675,0.1888349 -0.1032675,0.2712421 v 0.95006 4.0480818 H 6.2260855 C 5.7237514,7.4169704 5.3854888,6.5883321 5.2259613,5.7038466 5.1865751,5.4854773 5.1449997,5.2647949 5.1321739,5.0429352 5.1280019,4.9704622 5.1255239,4.8598629 5.0332644,4.8423491 4.8738402,4.8120921 4.9230368,5.1073948 4.9336733,5.1875099 c 0.052976,0.3983228 0.1193771,0.7893968 0.2271883,1.1772482 0.1373869,0.4941966 0.3315296,0.9818871 0.5904416,1.4250904 0.1365607,0.233776 0.4020404,0.490706 0.4837872,0.743525 0.068156,0.210851 0.011648,0.522223 0.011648,0.743525 V 10.929177 C 5.9859058,10.809696 5.763055,10.513505 5.5935519,10.288918 5.1585277,9.7125215 4.8429219,9.0651595 4.5955553,8.3887985 4.4942706,8.1118355 4.4006277,7.8287185 4.3307364,7.5420067 4.3095459,7.4550347 4.2971332,7.2738623 4.199814,7.2358395 4.0479696,7.1765025 4.0788672,7.4089362 4.0966086,7.4800459 c 0.071089,0.2849566 0.1556653,0.5702216 0.2545128,0.8467926 0.2517245,0.704387 0.5659258,1.402433 1.0173282,2.0033875 0.1350738,0.179809 0.2823125,0.359597 0.4445868,0.515531 0.1090708,0.104796 0.2632903,0.193481 0.3304347,0.331261 -0.9392992,0.494217 -1.8956378,0.381676 -2.7675656,-0.206535 v -0.04131 c 0.2071131,-0.136971 0.4062952,-0.302735 0.5989509,-0.459764 0.057747,-0.04705 0.1878227,-0.12768 0.1427981,-0.218741 C 4.0625717,10.139347 3.696117,10.236029 3.5824403,10.229649 3.1538807,10.205548 2.802627,9.9797415 2.4671526,9.7312805 v -0.04131 c 0.1984592,-0.12146 0.3987979,-0.240549 0.5989508,-0.359306 0.067206,-0.03986 0.1925317,-0.08745 0.2028997,-0.177702 C 3.2836258,9.0256905 2.9645502,8.8884895 2.8802221,8.8163255 2.6248708,8.5977705 2.2804637,8.2155165 2.2193108,7.8724625 2.4754057,7.8196095 2.7290593,7.7494705 2.9834895,7.6889765 3.0592675,7.6709465 3.1944441,7.6541955 3.2157997,7.561524 3.2425877,7.4454099 3.0051756,7.2789223 2.9430706,7.1908972 2.7538848,6.9226503 2.6171794,6.5688763 2.5910734,6.2408371 c 0.2392912,0.010286 0.484923,0.039407 0.7228717,0.067847 0.085794,0.010265 0.233281,0.047978 0.296935,-0.033107 C 3.6896112,6.1753038 3.491503,6.0326295 3.4448262,5.9516678 3.2742285,5.6557241 3.252439,5.332043 3.2106777,5.0016286 c 0.2471395,0.00512 0.5018588,0.094593 0.7435252,0.1446361 0.082345,0.01706 0.2083729,0.071543 0.2824775,0.00812 0.1014912,-0.086831 -0.077967,-0.339402 -0.110083,-0.4419049 -0.1265438,-0.4038992 -0.03635,-0.7796897 0.054794,-1.177248 0.1942253,0.028584 0.3894006,0.096968 0.5782974,0.1505639 0.070304,0.019951 0.1750381,0.064955 0.2428022,0.018113 C 5.1155482,3.6257767 4.963167,3.4264087 4.938651,3.3286972 4.861221,3.0199276 4.918658,2.6931483 5.028184,2.3992906 5.1340124,2.4487766 5.3810693,2.6838952 5.4971624,2.6092745 5.6057377,2.5395065 5.5151724,2.1702228 5.5297534,2.0481815 5.5807884,1.6215261 5.7473998,1.25977 5.9960055,0.9122402 6.0572845,0.8265532 6.2377958,0.4827883 6.3500061,0.4827883 c 0.1122102,0 0.2927217,0.3437647 0.3540005,0.4294519 0.2504234,0.3500682 0.4272794,0.7238899 0.4686275,1.1565947 0.011235,0.117477 -0.077017,0.4747202 0.030216,0.5409559 0.115453,0.071317 0.3624896,-0.1607254 0.4689783,-0.2105005 z"
       id="path6651" />
  </g>
</svg>
