<?xml version="1.0" encoding="UTF-8" standalone="no"?>
<!-- Created with Inkscape (http://www.inkscape.org/) -->

<svg
   width="48"
   height="48"
   viewBox="0 0 12.7 12.7"
   version="1.1"
   id="svg1266"
   inkscape:version="1.1.2 (b8e25be833, 2022-02-05)"
   sodipodi:docname="Lijeska_0.svg"
   xmlns:inkscape="http://www.inkscape.org/namespaces/inkscape"
   xmlns:sodipodi="http://sodipodi.sourceforge.net/DTD/sodipodi-0.dtd"
   xmlns="http://www.w3.org/2000/svg"
   xmlns:svg="http://www.w3.org/2000/svg">
  <sodipodi:namedview
     id="namedview1268"
     pagecolor="#ffffff"
     bordercolor="#666666"
     borderopacity="1.0"
     inkscape:pageshadow="2"
     inkscape:pageopacity="0.0"
     inkscape:pagecheckerboard="0"
     inkscape:document-units="mm"
     showgrid="false"
     inkscape:zoom="6.1148148"
     inkscape:cx="-15.944882"
     inkscape:cy="30.172623"
     inkscape:window-width="1746"
     inkscape:window-height="1051"
     inkscape:window-x="165"
     inkscape:window-y="-9"
     inkscape:window-maximized="1"
     inkscape:current-layer="layer1"
     units="px"
     inkscape:lockguides="false" />
  <defs
     id="defs1263">
    <inkscape:path-effect
       effect="fill_between_many"
       method="originald"
       linkedpaths="#path1357,0,1"
       id="path-effect5269"
       is_visible="true"
       lpeversion="0"
       join="true"
       close="true"
       autoreverse="true"
       applied="false" />
  </defs>
  <g
     inkscape:label="Layer 1"
     inkscape:groupmode="layer"
     id="layer1">
    <path
       inkscape:original-d="M 0.63553187,0.88591732"
       inkscape:path-effect="#path-effect5269"
       d="m 6.5329357,0.04357916 c -0.174138,0.016762 -0.292331,0.1650937 -0.433959,0.2513753 -0.46815,0.3314934 -0.90137,0.71162844 -1.299692,1.12418704 -0.608724,0.6406784 -1.115972,1.4100828 -1.312138,2.2817114 -0.109702,0.4490555 -0.08697,0.9147324 -0.06824,1.3724712 -0.157318,-0.2393864 -0.314742,-0.4787027 -0.471962,-0.7181532 -0.0066,0.5298307 0.04178,1.0595612 0.143702,1.5794608 0.01293,0.072128 0.02881,0.1437205 0.04295,0.2156361 -0.07619,-0.1228532 -0.152543,-0.2456077 -0.228634,-0.3685235 -0.05425,2.736e-4 -0.127628,-0.018428 -0.101265,0.061872 -0.0022,0.6916048 0.05673,1.3939981 0.296562,2.0478816 0.299706,0.8274647 0.80865,1.5913482 1.504321,2.1367721 0.500581,0.392284 1.116584,0.652321 1.756602,0.674247 -0.0018,0.521052 0.0038,1.042273 -0.0028,1.56322 -0.0038,0.130997 -0.03984,0.306772 0.0729,0.408982 0.08761,0.06977 0.245662,0.03764 0.271502,-0.08087 0.05103,-0.182756 -0.004,-0.373552 0.01,-0.559798 0,-0.443843 0,-0.887687 0,-1.331531 0.699679,-0.02228 1.369922,-0.325804 1.894457,-0.781028 C 9.282277,9.3381612 9.7587242,8.5465434 10.034267,7.7028067 10.188256,7.2383816 10.256252,6.7499101 10.26511,6.2617034 10.27001,6.1086425 10.26982,5.9554782 10.27038,5.802354 10.213233,5.800234 10.152099,5.790902 10.133213,5.858899 10.077659,5.945334 10.022106,6.0317693 9.9665532,6.1182044 10.106496,5.5416502 10.127792,4.9454227 10.127383,4.3545972 9.9730821,4.5895901 9.8185918,4.8244582 9.6641999,5.0593912 9.7018739,4.5829229 9.6950719,4.0975504 9.5720099,3.6329123 9.3515025,2.7517883 8.8238787,1.9788105 8.1952437,1.336206 7.7847857,0.91411386 7.3259527,0.54205956 6.8489777,0.19824526 c -0.09295,-0.06857 -0.193737,-0.1538744 -0.315984,-0.1546672 z"
       id="path5271"
       style="fill:#808080;stroke-width:0.148987" />
    <path
       id="path1357"
       style="fill:#000000;stroke:none;stroke-width:0.0206827"
       d="m 6.5329357,0.04357916 c -0.174138,0.016762 -0.292331,0.1650937 -0.433959,0.2513753 -0.46815,0.3314934 -0.90137,0.71162844 -1.299692,1.12418704 -0.608724,0.6406784 -1.115972,1.4100828 -1.312138,2.2817114 -0.109702,0.4490555 -0.08697,0.9147324 -0.06824,1.3724712 -0.157318,-0.2393864 -0.314742,-0.4787027 -0.471962,-0.7181532 -0.0066,0.5298307 0.04178,1.0595612 0.143702,1.5794608 0.01293,0.072128 0.02881,0.1437205 0.04295,0.2156361 -0.07619,-0.1228532 -0.152543,-0.2456077 -0.228634,-0.3685235 -0.05425,2.736e-4 -0.127628,-0.018428 -0.101265,0.061872 -0.0022,0.6916048 0.05673,1.3939981 0.296562,2.0478816 0.299706,0.8274647 0.80865,1.5913482 1.504321,2.1367721 0.500581,0.392284 1.116584,0.652321 1.756602,0.674247 -0.0018,0.521052 0.0038,1.042273 -0.0028,1.56322 -0.0038,0.130997 -0.03984,0.306772 0.0729,0.408982 0.08761,0.06977 0.245662,0.03764 0.271502,-0.08087 0.05103,-0.182756 -0.004,-0.373552 0.01,-0.559798 0,-0.443843 0,-0.887687 0,-1.331531 0.699679,-0.02228 1.369922,-0.325804 1.894457,-0.781028 C 9.282277,9.3381612 9.7587242,8.5465434 10.034267,7.7028067 10.188256,7.2383816 10.256252,6.7499101 10.26511,6.2617034 10.27001,6.1086425 10.26982,5.9554782 10.27038,5.802354 10.213233,5.800234 10.152099,5.790902 10.133213,5.858899 10.077659,5.945334 10.022106,6.0317693 9.9665532,6.1182044 10.106496,5.5416502 10.127792,4.9454227 10.127383,4.3545972 9.9730821,4.5895901 9.8185918,4.8244582 9.6641999,5.0593912 9.7018739,4.5829229 9.6950719,4.0975504 9.5720099,3.6329123 9.3515025,2.7517883 8.8238787,1.9788105 8.1952437,1.336206 7.7847857,0.91411386 7.3259527,0.54205956 6.8489777,0.19824526 c -0.09295,-0.06857 -0.193737,-0.1538744 -0.315984,-0.1546672 z M 6.3611737,2.3199896 c -0.158559,-0.1155758 -0.285256,-0.2701094 -0.44429,-0.3839821 -0.1165,-0.078286 -0.286479,0.068249 -0.2221,0.1943097 0.06599,0.1360644 0.205888,0.2134894 0.315328,0.3110401 0.128041,0.1076462 0.291721,0.1998147 0.351841,0.3646214 0.03064,0.1675749 -0.01268,0.338013 -7.67e-4,0.507097 0,0.2507334 0,0.5014667 0,0.7522002 -0.386222,-0.3328312 -0.763471,-0.6763166 -1.16378,-0.992399 -0.07402,0.049129 -0.148067,0.098201 -0.221954,0.1475239 -0.01606,0.061679 0.02125,0.099411 0.06853,0.1326187 0.324499,0.2917568 0.656778,0.5752329 0.976246,0.872345 0.109646,0.1090469 0.219292,0.2180939 0.328938,0.3271411 0.01791,0.4236025 0.0107,0.8475712 0.01202,1.2714157 -0.391907,-0.3372887 -0.784535,-0.6737529 -1.163344,-1.0258219 -0.21564,-0.1961529 -0.43154,-0.3920258 -0.647021,-0.5883532 -0.06574,-0.017749 -0.09486,0.029597 -0.120543,0.083205 -0.031,0.050764 -0.06187,0.1016212 -0.09301,0.152299 0.206367,0.2314616 0.451223,0.4235083 0.677812,0.6342422 0.443987,0.4015498 0.897519,0.7927718 1.32569,1.2114289 0.02188,0.3166232 0.02256,0.6337696 0.02043,0.9509852 0,0.1241138 0,0.2482274 0,0.3723408 C 5.8024967,7.1987758 5.3363267,6.6767532 4.8128227,6.2205043 4.6742817,6.091099 4.5483157,5.9291623 4.3638967,5.8645745 c -0.117553,-0.046782 -0.237559,0.093511 -0.183142,0.2036667 0.06956,0.1404958 0.223554,0.2081592 0.327401,0.3193316 0.526332,0.4662578 1.042145,0.9450373 1.574072,1.4054102 0.109912,0.094726 0.263867,0.1795831 0.285843,0.3369298 0.01241,0.1659466 -0.01627,0.3278345 -0.0069,0.4962761 0,0.248456 0,0.4969114 0,0.7453674 -0.251496,-0.1947762 -0.479357,-0.4397706 -0.725862,-0.6496136 -0.287098,-0.249493 -0.563386,-0.5104659 -0.851912,-0.758257 -0.08227,-0.057122 -0.189228,-0.1408461 -0.293283,-0.091987 -0.09103,0.067975 -0.06582,0.2192956 0.0176,0.2842764 0.300075,0.2579499 0.592396,0.5253094 0.889787,0.786548 0.242409,0.2116271 0.47276,0.4373719 0.720524,0.6425911 0.110829,0.087952 0.252035,0.1815939 0.256741,0.3391183 0.01467,0.1424645 -0.0066,0.2851675 -0.01227,0.4275095 -0.542903,-0.0091 -1.062206,-0.221222 -1.497982,-0.5530077 -0.639873,-0.4913251 -1.106007,-1.18351 -1.404142,-1.9276569 -0.13433,-0.3441065 -0.243125,-0.7045805 -0.276605,-1.0683066 -0.03234,-0.099572 0.05448,-0.02631 0.102161,-0.0098 0.179247,0.083172 0.35847,0.1663968 0.537745,0.2495047 C 3.6853907,6.8025865 3.5673807,6.5525953 3.4895017,6.2901611 3.4138317,6.041637 3.3622437,5.791716 3.3452227,5.530594 c 0.199756,0.1108761 0.399408,0.2219371 0.599256,0.3326446 -0.13015,-0.326461 -0.224037,-0.6734963 -0.241228,-1.0291268 -0.04359,-0.7252667 0.18014,-1.4501227 0.540403,-2.0859106 0.356946,-0.6361986 0.847517,-1.1891375 1.399552,-1.662738 0.226666,-0.20202144 0.457939,-0.40180394 0.717955,-0.56018574 0,0.59823854 0,1.19647694 0,1.79471494 z M 6.8856177,0.65982076 C 7.6343487,1.2540999 8.3622677,1.9033207 8.8451457,2.7382089 9.205026,3.3608248 9.404036,4.0907343 9.3337901,4.8116743 9.3003651,5.1546638 9.2283137,5.5040783 9.1786324,5.8493038 9.3623161,5.7436036 9.5458128,5.6375794 9.7294139,5.5317361 9.7069309,5.9351726 9.5379681,6.3190096 9.408498,6.7030014 9.371071,6.8098262 9.340616,6.9189022 9.3078352,7.0272047 9.503681,6.9328107 9.69958,6.8385255 9.8954496,6.7441803 9.8713846,7.1389234 9.746083,7.5169591 9.6129406,7.8846088 9.3249268,8.6241242 8.8586847,9.3069799 8.2248727,9.7916621 c -0.341239,0.2591229 -0.731349,0.4491519 -1.157915,0.5250149 -0.11746,0.02074 -0.236517,0.03263 -0.355773,0.03507 -0.0029,-0.180129 -0.05183,-0.3712857 0.01947,-0.5437199 0.09616,-0.1503979 0.259372,-0.2272825 0.381774,-0.3535337 0.448493,-0.4135853 0.912841,-0.8092882 1.36294,-1.2209455 0.07652,-0.057453 0.202648,-0.1487669 0.161456,-0.269284 -0.01522,-0.093204 -0.124137,-0.1339416 -0.203632,-0.091987 -0.211775,0.099966 -0.356449,0.2936203 -0.53004,0.4442338 -0.384826,0.3672594 -0.75616,0.7525566 -1.190437,1.0590593 -0.0041,-0.3468837 0.0085,-0.6955686 -0.0068,-1.0413458 -0.0091,-0.1266373 -0.02079,-0.2790277 0.08858,-0.3689654 0.12988,-0.1130404 0.268548,-0.2158547 0.391142,-0.3374867 0.46259,-0.4142805 0.92369,-0.8302316 1.387297,-1.2432541 0.09548,-0.1025568 0.224534,-0.1704371 0.3083436,-0.2836731 0.08098,-0.097587 -0.010896,-0.2671916 -0.1383366,-0.2420138 -0.1626,0.033667 -0.277308,0.1699761 -0.393266,0.278599 -0.24587,0.2416462 -0.499814,0.4750236 -0.747687,0.7146101 -0.283408,0.2687984 -0.57296,0.5328233 -0.889293,0.7627857 0.003,-0.436913 -0.011,-0.8742447 0.01978,-1.3104703 0.03,-0.057042 0.0986,-0.096206 0.143263,-0.1464552 0.559197,-0.5314935 1.14961,-1.0293928 1.713607,-1.5551355 0.04668,-0.057203 0.09324,-0.114507 0.140014,-0.1716306 -0.04574,-0.073715 -0.0914,-0.1474779 -0.136836,-0.2213814 -0.05874,-0.014858 -0.09836,0.018706 -0.134782,0.060555 -0.431443,0.4071896 -0.873676,0.802789 -1.319212,1.1944016 -0.141945,0.1201846 -0.283892,0.2403692 -0.425839,0.3605538 -0.0034,-0.3786408 0.0092,-0.7577 -0.01125,-1.1359151 -0.0087,-0.1176415 0.05209,-0.2264516 0.143819,-0.2969002 0.152344,-0.1230679 0.305392,-0.2457326 0.440609,-0.3883074 0.258136,-0.2552482 0.50775,-0.532644 0.836993,-0.6980438 -0.06184,-0.093936 -0.151948,-0.2190527 -0.282071,-0.1885559 -0.149668,0.046599 -0.238981,0.1892554 -0.3565,0.2839788 -0.250816,0.2367302 -0.473052,0.5115779 -0.77159,0.6916257 -0.0035,-0.3415648 0.0073,-0.6835704 -0.0056,-1.0248617 -0.0089,-0.1265736 -0.02282,-0.2815137 0.08144,-0.380467 0.13226,-0.1440378 0.299635,-0.2497132 0.443614,-0.3812693 0.079,-0.069979 0.191239,-0.1618718 0.158784,-0.2808385 -0.03545,-0.1005915 -0.17364,-0.1455792 -0.25594,-0.071192 -0.148502,0.114288 -0.27075,0.2595488 -0.422324,0.3702481 0.0034,-0.4884799 -0.0073,-0.977208 0.0061,-1.46551304 0.0038,-0.1069349 0.0074,-0.2138699 0.01122,-0.3208049 0.05184,0.04046 0.103692,0.080919 0.155539,0.121378 z" />
  </g>
</svg>
