<?xml version="1.0" encoding="UTF-8" standalone="no"?>
<!-- Created with Inkscape (http://www.inkscape.org/) -->

<svg
   width="48"
   height="48"
   viewBox="0 0 12.7 12.7"
   version="1.1"
   id="svg1266"
   inkscape:version="1.1.2 (b8e25be833, 2022-02-05)"
   sodipodi:docname="Lijeska.svg"
   xmlns:inkscape="http://www.inkscape.org/namespaces/inkscape"
   xmlns:sodipodi="http://sodipodi.sourceforge.net/DTD/sodipodi-0.dtd"
   xmlns="http://www.w3.org/2000/svg"
   xmlns:svg="http://www.w3.org/2000/svg">
  <sodipodi:namedview
     id="namedview1268"
     pagecolor="#ffffff"
     bordercolor="#666666"
     borderopacity="1.0"
     inkscape:pageshadow="2"
     inkscape:pageopacity="0.0"
     inkscape:pagecheckerboard="0"
     inkscape:document-units="mm"
     showgrid="false"
     inkscape:zoom="6.1148148"
     inkscape:cx="36.87765"
     inkscape:cy="1.2265294"
     inkscape:window-width="1746"
     inkscape:window-height="1051"
     inkscape:window-x="165"
     inkscape:window-y="-9"
     inkscape:window-maximized="1"
     inkscape:current-layer="layer1"
     units="px" />
  <defs
     id="defs1263" />
  <g
     inkscape:label="Layer 1"
     inkscape:groupmode="layer"
     id="layer1">
    <path
       style="fill:#000000;stroke:none;stroke-width:0.0204824"
       d="M 3.4064391,5.2062311 2.9353454,4.4893505 c 0,0.6542867 0.1001652,1.2491546 0.2457877,1.8843715 L 2.8124515,5.7797355 h -0.020481 c 0,0.5417566 0.029048,1.069545 0.1617102,1.5976198 0.3830049,1.5245798 1.6692854,3.1398367 3.361246,3.1747587 v 1.536173 c 0,0.149274 -0.074166,0.486208 0.1626505,0.447559 0.1417169,-0.02312 0.083138,-0.360202 0.083138,-0.468042 v -1.51569 C 8.3499868,10.515183 9.6191531,8.7749447 9.9725748,7.172532 10.072939,6.7174155 10.083672,6.2639992 10.083672,5.8002181 h -0.02048 L 9.6945073,6.373722 C 9.8905628,5.7606047 9.9402948,5.1285213 9.9402948,4.4893505 L 9.4692022,5.2062311 C 9.5025471,4.7837835 9.5287641,4.3789918 9.4635704,3.9568107 9.2771201,2.7491331 8.5168167,1.7586293 7.6257947,0.96299627 7.35846,0.72427504 7.0778315,0.50151763 6.7860205,0.29337028 6.6961029,0.22923203 6.5543656,0.09610933 6.4378207,0.09697165 6.3231607,0.09782322 6.1806039,0.23557954 6.0896218,0.29752612 5.7863817,0.50397959 5.5026402,0.73946063 5.229365,0.98347847 4.3845308,1.7378601 3.6413889,2.6950598 3.4356143,3.8339168 3.3506182,4.3043133 3.3967343,4.7360394 3.4064391,5.2062311 M 6.3149259,0.43385428 V 2.4001555 C 6.1582362,2.2964946 6.0237091,2.1590994 5.8847975,2.033256 5.8378936,1.9907757 5.7718996,1.9214021 5.7041232,1.9622643 c -0.1794656,0.1082286 0.077689,0.2774738 0.1601926,0.350104 0.1278096,0.1125298 0.3714664,0.2616001 0.4382597,0.421362 0.047663,0.114025 0.01235,0.3018477 0.01235,0.4242704 V 4.1411513 L 5.4341874,3.3746216 5.1083136,3.1093962 4.942612,3.2194476 v 0.020482 l 0.9626681,0.8544192 0.3972954,0.3950013 0.01235,0.4301284 V 5.8821467 L 5.5365986,5.2096926 4.4510367,4.2230806 H 4.4305537 L 4.323431,4.3984295 4.4510364,4.5337971 4.7992353,4.8462342 5.8847972,5.8201879 6.2938701,6.2098843 6.3149261,6.6399923 V 7.6436256 C 5.7406429,7.2394685 5.2481667,6.6819194 4.717306,6.2216617 4.624706,6.1413714 4.2398635,5.6833045 4.1481237,5.9232958 4.107835,6.0287185 4.303298,6.1476999 4.3691072,6.2064635 4.6290895,6.43861 4.8892558,6.6705523 5.1474345,6.904726 c 0.2646523,0.2400522 0.5322947,0.4770332 0.7988099,0.7150167 0.1069795,0.09553 0.2814888,0.2023655 0.347626,0.3314243 0.057454,0.1120585 0.021056,0.3064564 0.021056,0.4298219 V 9.384622 C 6.0565421,9.2047662 5.8345958,8.9629923 5.5980455,8.7555067 5.3020349,8.4958527 5.0099985,8.2312619 4.717306,7.9678805 4.6592595,7.9156506 4.3836087,7.7043555 4.4077365,7.9505525 c 0.00731,0.074658 0.1157253,0.1385838 0.1661941,0.1846488 0.1688145,0.1540465 0.3405591,0.3054723 0.5120569,0.4564474 0.2961335,0.260719 0.588498,0.5263748 0.8807395,0.7914371 0.1003221,0.091001 0.285974,0.2007669 0.3358485,0.3300516 0.061857,0.1604585 0.01235,0.4217516 0.01235,0.5931886 -1.4433668,0 -2.5312443,-1.3196958 -2.9990925,-2.5602892 C 3.1820775,7.3913653 3.0661093,6.9802448 3.0582393,6.5990281 L 3.6317441,6.8652974 C 3.3977523,6.4541362 3.2318824,5.8645525 3.2220983,5.3905719 L 3.7751206,5.697806 C 3.1351321,4.0263481 4.12971,2.2799654 5.3522578,1.1883016 5.6501728,0.92228153 5.9642895,0.62925342 6.3149259,0.43385428 m 0.2662703,0 C 7.8294085,1.3959328 9.1015852,2.5307507 9.2608972,4.2025982 9.3110785,4.7291368 9.1965008,5.1846223 9.1210024,5.697806 L 9.653543,5.3905719 C 9.6521108,5.9143449 9.4041701,6.3762825 9.2643789,6.8652974 L 9.8174008,6.5990281 C 9.8164328,6.9483736 9.7085781,7.3143931 9.5989162,7.6436256 9.1699964,8.9313885 8.0310773,10.306326 6.5607135,10.306326 c 0,-0.167976 -0.051206,-0.4345121 0.012351,-0.5905052 C 6.6254779,9.5871915 6.8082426,9.4774681 6.908913,9.3861581 7.1939038,9.1276705 7.4786072,8.8671767 7.7691699,8.614979 7.94925,8.4586783 8.1262171,8.2983423 8.3017095,8.1369619 8.3538574,8.088998 8.4843094,8.0139657 8.473126,7.9303979 8.4352139,7.6470453 8.0415639,8.0727501 7.9739926,8.1357128 7.5294653,8.5498855 7.0671184,9.0496331 6.5607135,9.384622 V 8.4014703 c 0,-0.1265387 -0.03357,-0.3102041 0.012351,-0.4293291 C 6.6207479,7.84851 6.7937202,7.750072 6.8884307,7.6622842 7.1714756,7.3999881 7.4646393,7.1487525 7.7486876,6.8875412 8.0051061,6.6517292 8.2721128,6.427386 8.5270159,6.1898942 8.5878483,6.1331985 8.7733154,6.0240688 8.7334572,5.9232958 8.6401188,5.6873599 8.2677708,6.1262962 8.178816,6.2081028 7.6609211,6.6843774 7.1378229,7.2418857 6.5607135,7.6436256 V 6.6399923 L 6.58177,6.2101716 7.0727715,5.750569 8.0764048,4.8521945 8.4246036,4.5361526 8.5463711,4.3868571 8.4450863,4.2230806 H 8.4246036 L 7.9125457,4.700011 7.1342184,5.3964093 6.5607135,5.8821467 V 4.9194789 c 0,-0.1282193 -0.032423,-0.3088526 0.012351,-0.4301284 C 6.624987,4.3487804 6.8200815,4.2315397 6.929395,4.1353138 7.2416895,3.8603799 7.5636917,3.4520037 7.9330284,3.2604123 7.7632297,3.0039534 7.6380425,3.2015462 7.4619357,3.3612877 7.1959934,3.6025077 6.8849898,3.9899305 6.5607135,4.1411513 V 3.1580007 c 0,-0.1244095 -0.035782,-0.3166564 0.021057,-0.4301283 C 6.6627154,2.5662465 6.8799511,2.4372694 7.0113246,2.3164649 7.0896699,2.2444286 7.3626577,2.0658229 7.1741792,1.9625511 7.1054206,1.9248636 7.0391393,1.99563 6.9908419,2.0373319 6.8505185,2.1585053 6.7217664,2.3070635 6.5607135,2.4001555 V 1.0278412 Z"
       id="path1357" />
  </g>
</svg>
