<?xml version="1.0" encoding="UTF-8" standalone="no"?>
<!-- Created with Inkscape (http://www.inkscape.org/) -->

<svg
   width="48"
   height="48"
   viewBox="0 0 12.7 12.7"
   version="1.1"
   id="svg5528"
   sodipodi:docname="Lipa.svg"
   inkscape:version="1.1.2 (b8e25be833, 2022-02-05)"
   xmlns:inkscape="http://www.inkscape.org/namespaces/inkscape"
   xmlns:sodipodi="http://sodipodi.sourceforge.net/DTD/sodipodi-0.dtd"
   xmlns="http://www.w3.org/2000/svg"
   xmlns:svg="http://www.w3.org/2000/svg">
  <sodipodi:namedview
     id="namedview5530"
     pagecolor="#ffffff"
     bordercolor="#666666"
     borderopacity="1.0"
     inkscape:pageshadow="2"
     inkscape:pageopacity="0.0"
     inkscape:pagecheckerboard="0"
     inkscape:document-units="mm"
     showgrid="false"
     inkscape:zoom="8.3553674"
     inkscape:cx="44.821488"
     inkscape:cy="45.060855"
     inkscape:window-width="1746"
     inkscape:window-height="1051"
     inkscape:window-x="165"
     inkscape:window-y="-9"
     inkscape:window-maximized="1"
     inkscape:current-layer="layer1"
     units="px" />
  <defs
     id="defs5525" />
  <g
     inkscape:label="Layer 1"
     inkscape:groupmode="layer"
     id="layer1">
    <path
       id="path5661"
       style="fill:#000000;stroke:none;stroke-width:0.024922"
       d="M 6.4565731,0.07587075 C 6.3303774,0.09675722 6.2818539,0.24122038 6.2833589,0.35390424 6.2770202,0.40387145 6.3006747,0.4874859 6.2288022,0.49626117 6.1650808,0.46921276 6.1328296,0.39800486 6.0747921,0.36015068 5.9972082,0.29050644 5.8627594,0.23450139 5.7753615,0.31661604 c -0.088645,0.10335938 -0.034756,0.25027652 0.026651,0.35312046 0.029076,0.0529409 0.058228,0.10587041 0.08736,0.15879703 -0.1629006,-0.0343238 -0.3518514,-0.0963407 -0.5042621,0.003443 -0.094883,0.0724806 -0.039859,0.22818377 0.053565,0.27660227 0.1897325,0.1092014 0.4395135,0.065977 0.6092866,0.2182584 0.179847,0.1390255 0.3211615,0.3330634 0.3733556,0.5564423 0.087814,0.3222576 0.076007,0.661213 0.1525851,0.9858631 0.1551503,0.8140893 0.330515,1.6251132 0.4408225,2.4468147 0.025092,0.045521 -0.017637,0.1106078 -0.068731,0.080882 C 6.5932102,5.1179946 6.2577279,4.8166774 5.9144508,4.525784 5.7059419,4.3388049 5.4719189,4.1817947 5.271149,3.9862136 5.1044954,3.8299702 4.9994033,3.6241416 4.9084046,3.4178864 4.8235209,3.2249576 4.73533,3.032789 4.6209248,2.8553076 4.5153878,2.6725183 4.3942428,2.4706634 4.4261968,2.2506716 4.4609577,2.0605469 4.6239196,1.9345296 4.7754509,1.8345717 4.8803853,1.7627161 5.0137587,1.6755797 5.0132801,1.5326837 5.0179352,1.4518597 4.9675217,1.3527669 4.8745525,1.3608484 4.7072235,1.3579452 4.5713879,1.4719731 4.4352633,1.5535201 4.4498284,1.4321331 4.4844058,1.3190401 4.4883886,1.2008885 4.4910598,1.1036084 4.4164403,0.98144581 4.3054432,1.0060696 4.1728394,1.0491563 4.0936278,1.184419 4.0700658,1.3157283 4.0093361,1.3126696 3.9152183,1.3353885 3.8938295,1.2567178 3.8649646,1.1405799 3.7497058,1.029175 3.6229535,1.0478746 3.5060436,1.0892992 3.4801451,1.238866 3.5223232,1.343128 3.5417867,1.4196456 3.563321,1.495613 3.5839843,1.5718118 3.4587853,1.533989 3.3448543,1.4556219 3.2125528,1.4449193 3.1123378,1.4362684 2.9911556,1.5273789 3.0300876,1.6362401 3.0614124,1.7512306 3.1623299,1.8319117 3.2696856,1.873545 3.261331,1.9295801 3.2918934,2.0213175 3.214333,2.0388063 3.0842079,2.034769 2.9280869,2.0979085 2.8883106,2.2326599 2.8771561,2.3619065 3.021225,2.4538793 3.1399298,2.4296641 3.3240004,2.4117519 3.5143613,2.3213627 3.6968923,2.3977425 4.0102646,2.5259987 4.2136777,2.8192329 4.3601261,3.1116428 4.4796401,3.34903 4.5727389,3.5982434 4.6749629,3.8433206 4.2765218,3.8961748 3.8750318,3.9242456 3.4769087,3.9785052 3.3198304,4.0098146 3.1493356,4.0257968 3.0010663,3.9516755 2.8112787,3.8797021 2.5983712,3.8098005 2.4817865,3.631002 2.3899094,3.5137123 2.3167667,3.3589785 2.1672542,3.3066582 2.0825449,3.281471 1.9571314,3.3109244 1.952844,3.4167264 1.93483,3.555668 2.009119,3.6839116 2.0756367,3.7986248 c 0.01611,0.056371 -0.053809,0.079126 -0.097344,0.062827 -0.1318549,-0.0234 -0.2997135,-0.012512 -0.3815845,0.108179 -0.036755,0.1096237 0.062354,0.2109753 0.1596733,0.2441439 0.097652,0.043552 0.1944873,0.088818 0.2906243,0.1356675 -0.1176337,0.056389 -0.2703544,0.082085 -0.3410205,0.2035943 -0.068705,0.1251215 0.062569,0.2777125 0.1956414,0.2565607 0.1243928,-0.013896 0.2289038,-0.091594 0.3426115,-0.1379031 -0.039295,0.1293853 -0.1101581,0.247576 -0.1409254,0.3793536 -0.025567,0.098279 0.042844,0.2363845 0.1570726,0.2224694 0.1279241,-0.021983 0.2218973,-0.1287309 0.2709526,-0.243147 0.055998,0.00402 0.1427877,-0.019386 0.1631936,0.053125 3.176e-4,0.1256742 0.060416,0.2782527 0.1945281,0.3117537 0.122266,0.00617 0.2104173,-0.1276928 0.185018,-0.2411669 -0.01588,-0.1791571 -0.1095298,-0.3572275 -0.062712,-0.5425618 0.03738,-0.1592784 0.2053951,-0.2348735 0.3524825,-0.2606457 0.3145593,-0.060585 0.6371034,-0.009 0.9477645,-0.08669 0.2205304,-0.037865 0.4627785,-0.09653 0.6744687,0.00732 0.2737832,0.1393434 0.4508433,0.4022371 0.6946132,0.5818768 0.4917474,0.3990503 1.0328931,0.7515047 1.4347712,1.2484152 0.1465022,0.2084193 0.1497203,0.4748143 0.157789,0.719498 0.00106,0.2231012 0.0074,0.4418689 0.028806,0.6625049 0.073091,1.134634 -0.1198087,2.2618952 -0.2658203,3.3830397 -0.00943,0.07036 -0.018846,0.140728 -0.028371,0.211078 C 6.6183513,10.7074 6.2288671,10.336852 5.8394282,9.9662561 5.8180636,9.8979688 5.8554992,9.8256571 5.9196417,9.7974035 6.3662534,9.4595235 6.703885,8.9733584 6.8438796,8.4294412 6.9613974,7.9937845 6.9079393,7.49348 6.6482161,7.1131129 6.4605649,6.8274847 6.2157281,6.5801445 5.9403795,6.3786895 5.5744781,6.1200644 5.1359152,5.9953973 4.6918617,5.9722831 4.0631614,5.9367785 3.432326,6.0685521 2.7994799,6.0748358 2.5507525,6.0812547 2.2987041,6.0507168 2.0681364,5.9530816 1.8305285,5.8613075 1.6176094,5.7190678 1.4058432,5.5803935 1.3163419,5.5293061 1.1797906,5.5329908 1.1278759,5.6349362 c -0.053208,0.096637 -0.00441,0.2080506 0.056924,0.2875437 0.1876904,0.3000804 0.4162255,0.6038774 0.4526324,0.969347 0.029125,0.324957 -0.00815,0.6510093 -0.028569,0.9753847 -0.038962,0.4901327 -0.085343,0.9872683 -0.012541,1.4737345 0.1033915,0.7420489 0.581517,1.4347299 1.2554375,1.7791879 0.3935153,0.19958 0.8660783,0.252205 1.2869582,0.10945 0.438353,-0.142463 0.8117387,-0.432155 1.1364624,-0.751865 0.075954,-0.079 0.1430831,-0.166281 0.2001656,-0.259829 0.070751,-0.02217 0.150348,0.01094 0.1791757,0.08023 0.258195,0.336224 0.5930201,0.601012 0.8920988,0.89848 0.1228027,0.110162 0.275693,0.220641 0.3054584,0.393945 0.019924,0.209218 -0.099613,0.394793 -0.1650779,0.585546 -0.042257,0.112975 -0.1007558,0.242988 -0.051485,0.362303 0.063059,0.09275 0.2218441,0.123941 0.2968024,0.02767 0.1055933,-0.131899 0.1318345,-0.305647 0.1909424,-0.459967 0.085179,-0.262957 0.1587289,-0.527542 0.2079688,-0.799862 0.026057,-0.133619 0.1266993,-0.233147 0.2331049,-0.30948 0.4286386,-0.336253 0.9682363,-0.465 1.4618238,-0.672616 C 9.5145951,10.115816 9.944172,9.7740366 10.255123,9.3434087 10.710199,8.7200682 10.937217,7.9656117 10.998945,7.2037088 11.047335,6.5731494 10.985238,5.9349034 10.862962,5.31381 10.822917,5.12784 10.784877,4.9333353 10.748598,4.7509036 10.720848,4.6449537 10.686807,4.5315917 10.606242,4.4534649 10.498219,4.3813665 10.339843,4.4651771 10.325366,4.5914997 10.287198,4.7409656 10.26642,4.904539 10.203777,5.0519671 10.074056,5.3992356 9.900227,5.7289931 9.708733,6.0458131 9.2291704,6.8265018 8.5939898,7.5112945 8.2135195,8.351901 8.0646145,8.6783107 7.962823,9.0260883 7.9339656,9.3818071 c -0.01647,0.1864272 -0.021475,0.3885548 0.017256,0.576414 0.02278,0.1305819 0.018304,0.2861479 -0.090484,0.3791209 -0.098702,0.09104 -0.2244016,0.144378 -0.3338627,0.220613 -0.00247,-0.539796 0.118384,-1.06924 0.1558772,-1.6060081 C 7.731307,8.1437625 7.7021857,7.3250032 7.6158201,6.5199465 7.5710457,6.115855 7.5132036,5.7117901 7.4195163,5.3182923 7.3714812,5.1456781 7.3140853,4.9492432 7.4055054,4.7801314 7.5872836,4.3825837 7.9004458,4.0660185 8.1066348,3.6826127 8.1851451,3.5498387 8.3133139,3.4549069 8.4563053,3.4010592 8.8072791,3.2499074 9.1950614,3.2263697 9.5408234,3.0711906 9.731177,3.0017448 9.927398,2.9081345 10.135133,2.9298998 c 0.145949,0.027263 0.226196,0.1827447 0.224087,0.3212652 0.01275,0.143604 -0.03118,0.3037018 0.05138,0.4326199 0.07165,0.088653 0.236999,0.093665 0.287461,-0.019808 0.06417,-0.1112837 0.03294,-0.2450041 -0.0026,-0.3598636 -0.0069,-0.05133 0.05756,-0.071977 0.09023,-0.036851 0.105278,0.076898 0.197414,0.1999783 0.337352,0.2074561 0.07611,0.00828 0.160441,-0.04534 0.155598,-0.1284867 0.0054,-0.1857054 -0.137697,-0.3243585 -0.249791,-0.4547156 0.127769,0.00375 0.253557,0.037482 0.38142,0.032607 0.11104,-0.00307 0.22977,-0.1273778 0.167366,-0.2373211 -0.06563,-0.116035 -0.207481,-0.1618103 -0.334376,-0.154598 0.0083,-0.063727 -0.02361,-0.1608978 0.05631,-0.1900744 0.107677,-0.052937 0.20468,-0.1801732 0.168643,-0.3046991 -0.05502,-0.1057801 -0.200842,-0.1143902 -0.297017,-0.063471 -0.085,0.033256 -0.168938,0.06916 -0.253392,0.1038161 0.05406,-0.1602046 0.131638,-0.3447087 0.04697,-0.5086065 -0.04932,-0.097232 -0.188348,-0.06481 -0.254065,-0.00309 -0.163476,0.1630657 -0.138303,0.4387735 -0.320015,0.5891566 -0.08657,0.062699 -0.202511,0.092109 -0.257533,0.1924503 C 10.062151,2.4826904 9.930116,2.5777947 9.781651,2.6095 9.3591282,2.7269749 8.9284511,2.8282752 8.5297031,3.015694 8.4766251,3.045108 8.5378531,2.944855 8.5375631,2.9143732 8.6586491,2.5078499 8.7841617,2.0870116 9.0507496,1.7487631 9.1645226,1.607013 9.3407033,1.4865611 9.5307382,1.5216347 9.707431,1.5451664 9.858784,1.6653608 10.039012,1.6397245 10.133997,1.6171134 10.226868,1.502603 10.163078,1.4082951 10.09761,1.2969129 9.969874,1.2455086 9.848937,1.2209247 9.852037,1.1599817 9.829157,1.0660117 9.907787,1.0443702 10.026375,1.0159062 10.142145,0.89258122 10.111259,0.76410695 10.068399,0.65516819 9.929525,0.62712276 9.828735,0.66618985 9.734735,0.68877705 9.641045,0.71257345 9.5472024,0.73579735 9.6232483,0.60053492 9.718207,0.44136736 9.658911,0.28173969 9.6241009,0.16514129 9.4587832,0.17089175 9.3847126,0.24475959 9.2869349,0.33369767 9.2123092,0.44453766 9.1231543,0.54174641 9.111177,0.39816068 9.1116565,0.22860546 8.9906453,0.12800134 c -0.059129,-0.0587761 -0.1671359,-0.065415 -0.2174924,0.005744 -0.090333,0.10643369 -0.048437,0.25437642 -0.037946,0.37969295 0.00413,0.055531 -0.06797,0.073356 -0.097184,0.0292672 C 8.5319954,0.44813949 8.3923671,0.34712205 8.2426055,0.38507904 8.1305589,0.44171095 8.1342384,0.60722161 8.2128397,0.69135811 8.3314132,0.84381972 8.518502,0.93810569 8.5996965,1.1204978 8.7067263,1.3129632 8.7118308,1.5547756 8.6149727,1.7523902 8.5179832,1.9780494 8.3864063,2.1878042 8.3037953,2.4163161 8.1411513,2.8126756 7.9824601,3.218363 7.7175245,3.5599774 7.5772097,3.7551678 7.4298897,3.9579787 7.3517454,4.1822729 7.2940088,4.1776293 7.1997817,4.2031069 7.1823486,4.1245347 7.1438059,3.7701998 7.0753845,3.4173084 7.0111183,3.0674546 6.9514187,2.7711141 6.9057304,2.4717297 6.8365196,2.177459 6.7828657,1.9633189 6.7081894,1.7362396 6.7683204,1.5155052 6.8194436,1.3605612 6.9726126,1.2634853 7.1240274,1.2322428 7.2629575,1.1929841 7.424254,1.1951268 7.5390517,1.0973826 7.6116091,1.024168 7.6234003,0.86778999 7.512818,0.82403191 7.3665071,0.75576771 7.201095,0.79831597 7.0476264,0.81040088 7.1428401,0.67571385 7.2567288,0.51770288 7.213524,0.34308831 7.1882769,0.23905737 7.0511831,0.23590722 6.9735627,0.27981603 6.8562454,0.34454535 6.7784781,0.4591778 6.6753859,0.54243475 6.6502322,0.54861972 6.6693421,0.45093436 6.662061,0.41530571 6.6610828,0.29632536 6.6506154,0.14077258 6.525279,0.08525515 6.503502,0.07674915 6.479816,0.07371415 6.456566,0.07586715 Z M 4.3096073,6.3499161 C 4.6425347,6.3466416 4.9788942,6.3755866 5.2979942,6.4752542 5.1603624,7.3092141 5.0229573,8.1432127 4.8857156,8.9772374 4.6216925,8.7301967 4.3504282,8.4906449 4.0916744,8.2382262 4.0132715,8.1455534 3.9348294,8.052914 3.8564509,7.9602199 c 0.063168,-0.5387708 0.163578,-1.0720747 0.248926,-1.6075997 0.068077,-9.015e-4 0.1361535,-0.00181 0.2042304,-0.0027 z M 3.6985062,6.4488504 C 3.6376467,6.844861 3.5768482,7.2408813 3.5157485,7.6368551 3.1823401,7.3113714 2.8329791,7.0014356 2.5230612,6.6527762 2.4635023,6.5885308 2.4039106,6.5243155 2.3444449,6.4599846 c 0.4540056,-0.021028 0.9080042,-0.042211 1.3620142,-0.063146 -0.00265,0.017337 -0.0053,0.034675 -0.00795,0.052012 z M 10.02361,6.4375574 c 0.06165,0.015678 0.02963,0.09307 0.02576,0.1379033 C 9.943165,7.3429278 9.6261674,8.0647072 9.2359445,8.7280385 9.0624354,9.0178934 8.8852238,9.3074972 8.6739846,9.5717366 8.5662416,9.6997041 8.4368415,9.8066432 8.3033965,9.9066131 8.2874874,9.4679185 8.3598212,9.0255766 8.5288405,8.6196644 8.7491944,8.0715041 9.1053179,7.594831 9.4505611,7.1207682 9.6036733,6.8885665 9.750807,6.6456704 9.964764,6.4634191 c 0.01368,-0.016132 0.03698,-0.035202 0.05885,-0.025861 z m 0.570223,0.1207249 c 0.02464,0.086308 0.03022,0.1745089 0.02392,0.2637458 -0.01725,0.693501 -0.137241,1.4001947 -0.465115,2.0184922 C 9.933508,9.2481746 9.5971869,9.6022861 9.1718548,9.7944781 9.0991757,9.8304009 9.0264843,9.8662841 8.953786,9.9021598 9.3074489,9.2624226 9.665347,8.6246586 10.014663,7.982746 c 0.146595,-0.4271434 0.303174,-0.8494224 0.425435,-1.2845043 0.02999,-0.08917 0.08344,-0.1672275 0.131627,-0.2471643 0.0074,0.035734 0.01473,0.07147 0.02211,0.1072054 z M 5.7153625,6.7370635 C 6.0546063,6.8778327 6.3336178,7.1695231 6.4318187,7.5265315 6.5789706,8.0336124 6.4353093,8.593547 6.126603,9.0120378 5.9920673,9.2043126 5.851563,9.4058049 5.6470312,9.5290437 5.5118645,9.5987884 5.3162713,9.543802 5.267154,9.3914292 5.1920268,9.1922624 5.2681036,8.9804911 5.293063,8.7792098 5.4015001,8.0892914 5.4497711,7.3834714 5.6701896,6.7152723 c 0.015058,0.00727 0.030115,0.014527 0.045173,0.021791 z M 2.117469,6.8422012 C 2.5331792,7.133337 2.8941709,7.500552 3.1817266,7.9185466 2.785013,7.9915366 2.3882941,8.0645009 1.9916541,8.1378876 c 0.023649,-0.3973215 0.065689,-0.7902994 0.057198,-1.188353 1.465e-4,-0.05232 3.338e-4,-0.1046402 5.374e-4,-0.15696 0.022693,0.016542 0.045384,0.033084 0.068077,0.049627 z M 3.5426293,8.2778586 C 3.6963666,8.3968905 3.8643899,8.5003481 3.9908431,8.6508108 4.1806624,8.8484213 4.3704277,9.0460835 4.5602829,9.2436595 4.0823049,9.4186941 3.5743371,9.4768528 3.0742456,9.5536399 2.8748681,9.5827538 2.6764137,9.6186473 2.482706,9.6746253 2.3724011,9.6985607 2.2491692,9.7242031 2.1416125,9.6783652 2.013701,9.6063382 1.9754895,9.4478378 1.9532114,9.3135316 1.9142974,9.0549692 1.9500214,8.7934282 1.9504614,8.5336296 2.4759164,8.4420196 3.0005862,8.3455679 3.5281583,8.267048 c 0.00482,0.0036 0.00965,0.00721 0.014474,0.010817 z m 1.1875276,1.3604243 c 0.1845259,-0.00595 0.3578519,0.091983 0.4792419,0.2257025 0.021679,0.072343 -0.022652,0.1389726 -0.076292,0.1830316 -0.3365423,0.368657 -0.7442667,0.700977 -1.2351292,0.831179 -0.343142,0.08774 -0.7231017,0.02731 -1.0141368,-0.177577 C 2.701118,10.57645 2.5324546,10.424312 2.4099776,10.239363 c -0.027029,-0.04502 -0.050844,-0.09183 -0.075711,-0.138062 0.70457,-0.2519041 1.4668061,-0.2683482 2.1855532,-0.4382244 0.069286,-0.014067 0.1396131,-0.023169 0.2103385,-0.024789 z" />
  </g>
</svg>
