<?xml version="1.0" encoding="UTF-8" standalone="no"?>
<!-- Created with Inkscape (http://www.inkscape.org/) -->

<svg
   width="48"
   height="48"
   viewBox="0 0 12.7 12.7"
   version="1.1"
   id="svg5528"
   sodipodi:docname="Lipa_0.svg"
   inkscape:version="1.1.2 (b8e25be833, 2022-02-05)"
   xmlns:inkscape="http://www.inkscape.org/namespaces/inkscape"
   xmlns:sodipodi="http://sodipodi.sourceforge.net/DTD/sodipodi-0.dtd"
   xmlns="http://www.w3.org/2000/svg"
   xmlns:svg="http://www.w3.org/2000/svg">
  <sodipodi:namedview
     id="namedview5530"
     pagecolor="#ffffff"
     bordercolor="#666666"
     borderopacity="1.0"
     inkscape:pageshadow="2"
     inkscape:pageopacity="0.0"
     inkscape:pagecheckerboard="0"
     inkscape:document-units="mm"
     showgrid="false"
     inkscape:zoom="11.816274"
     inkscape:cx="29.408594"
     inkscape:cy="26.700464"
     inkscape:window-width="1746"
     inkscape:window-height="1051"
     inkscape:window-x="165"
     inkscape:window-y="-9"
     inkscape:window-maximized="1"
     inkscape:current-layer="layer1"
     units="px" />
  <defs
     id="defs5525">
    <inkscape:path-effect
       effect="fill_between_many"
       method="originald"
       linkedpaths="#path5661,0,1"
       id="path-effect5795"
       is_visible="true"
       lpeversion="0"
       join="true"
       close="true"
       autoreverse="true"
       applied="false" />
  </defs>
  <g
     inkscape:label="Layer 1"
     inkscape:groupmode="layer"
     id="layer1">
    <path
       inkscape:original-d="M 0,0"
       inkscape:path-effect="#path-effect5795"
       d="m 6.4568886,0.05735876 c -0.126568,0.020948 -0.175235,0.1658375 -0.173725,0.2788539 -0.0063,0.050115 0.01737,0.1339758 -0.05472,0.142777 -0.06391,-0.027128 -0.09625,-0.098546 -0.154464,-0.1365122 -0.07781,-0.06985 -0.212659,-0.12602 -0.300315,-0.043663 -0.08891,0.1036644 -0.03486,0.2510151 0.02673,0.3541625 0.02916,0.053097 0.0584,0.1061827 0.08762,0.1592655 -0.163381,-0.034425 -0.3528892,-0.096625 -0.5057496,0.00345 -0.095163,0.072695 -0.039977,0.22885714 0.053724,0.27741854 0.1902924,0.1095236 0.4408106,0.066172 0.6110846,0.2189025 0.180378,0.1394358 0.322109,0.334046 0.374457,0.5580841 0.08807,0.3232086 0.07623,0.6631641 0.153035,0.9887721 0.155608,0.8164956 0.33149,1.6299125 0.442123,2.4540386 0.02517,0.045655 -0.01769,0.1109342 -0.06893,0.081121 C 6.5939286,5.1143605 6.2574566,4.8121543 5.9131666,4.5204025 5.7040426,4.3328716 5.4693291,4.1753982 5.2679668,3.9792399 5.1008215,3.8225355 4.9954193,3.6160995 4.904152,3.4092358 4.8190178,3.2157377 4.7305667,3.023002 4.6158239,2.844997 4.5099755,2.6616683 4.388473,2.4592177 4.4205214,2.238577 4.4553848,2.0478911 4.6188276,1.921502 4.7708059,1.8212493 4.87605,1.7491816 5.0098169,1.6617881 5.009337,1.5184703 5.0140058,1.437408 4.9634435,1.3380227 4.8702,1.3461281 4.7023772,1.3432163 4.5661409,1.4575806 4.4296145,1.5393684 4.4442226,1.4176232 4.478902,1.3041964 4.4828967,1.1856961 4.4855757,1.088129 4.4107361,0.96560596 4.2994115,0.99030236 4.1664164,1.0335163 4.086971,1.1691781 4.0633396,1.3008749 4.0024306,1.2978071 3.9080351,1.3205931 3.8865832,1.2416902 3.8576331,1.1252096 3.7420341,1.013476 3.614908,1.0322308 3.497653,1.0737776 3.4716781,1.2237858 3.5139808,1.3283554 3.5335015,1.4050986 3.5551,1.4812903 3.5758238,1.557714 3.4502555,1.5197793 3.3359883,1.4411812 3.2032964,1.4304469 3.1027855,1.4217724 2.9812459,1.5131498 3.0202928,1.6223323 c 0.031418,0.1153299 0.1326324,0.196249 0.2403049,0.2380052 -0.00837,0.0562 0.022273,0.1482085 -0.055516,0.1657489 C 3.0745735,2.022036 2.9179918,2.085363 2.8780982,2.2205119 2.8669112,2.35014 3.0114047,2.4423841 3.1304599,2.4180975 3.3150736,2.4001326 3.5059962,2.3094765 3.6890657,2.3860814 4.0033628,2.514716 4.207376,2.8088155 4.3542565,3.1020882 4.4741232,3.3401758 4.5674967,3.5901245 4.6700223,3.8359248 4.2704047,3.8889354 3.86773,3.917089 3.4684322,3.9715088 3.3108904,4.0029105 3.1398925,4.0189399 2.9911857,3.9445999 2.800838,3.8724142 2.5873024,3.8023063 2.4703736,3.6229802 2.3782254,3.5053445 2.3048668,3.3501541 2.1549132,3.2976794 c -0.084959,-0.025261 -0.2107427,0.00428 -0.2150429,0.1103929 -0.018067,0.1393516 0.056441,0.2679737 0.1231552,0.3830253 0.016157,0.056537 -0.053968,0.079359 -0.097631,0.063013 -0.1322439,-0.023469 -0.3005978,-0.01255 -0.3827104,0.1084979 -0.036863,0.1099472 0.062538,0.2115978 0.1601444,0.2448643 0.09794,0.04368 0.1950612,0.089079 0.2914819,0.1360678 -0.1179808,0.056555 -0.2711521,0.082328 -0.3420268,0.204195 -0.068907,0.1254907 0.062753,0.278532 0.1962187,0.2573178 C 2.0132617,4.7911164 2.1180812,4.7131894 2.2321243,4.6667431 2.1927133,4.7965101 2.1216412,4.9150494 2.090783,5.047216 2.06514,5.145785 2.133753,5.2842979 2.2483191,5.2703417 2.3766209,5.2482937 2.4708713,5.1412311 2.5200713,5.0264774 c 0.056164,0.00403 0.143209,-0.019444 0.1636751,0.053282 3.186e-4,0.1260451 0.060595,0.2790738 0.195102,0.3126737 0.122627,0.00619 0.2110385,-0.1280692 0.1855641,-0.2418782 C 3.0484858,4.9708685 2.9545595,4.7922727 3.0015154,4.6063916 3.0390053,4.4466432 3.2075165,4.370825 3.3550379,4.3449767 c 0.3154875,-0.060764 0.6389834,-0.00902 0.9505611,-0.086946 0.2211811,-0.037976 0.464144,-0.096815 0.6764589,0.00734 0.2745911,0.1397546 0.4521736,0.4034241 0.6966627,0.5835938 0.493199,0.4002277 1.035941,0.7537221 1.439005,1.2520987 0.146934,0.209034 0.150162,0.476216 0.158254,0.721621 0.0011,0.22376 0.0074,0.443173 0.02889,0.66446 0.07331,1.137982 -0.120162,2.268571 -0.266604,3.3930228 -0.0095,0.07057 -0.0189,0.141142 -0.02845,0.2117 -0.390667,-0.371606 -0.7813,-0.743248 -1.171889,-1.1149368 -0.02143,-0.06849 0.01612,-0.141013 0.08045,-0.169351 0.44793,-0.338879 0.786558,-0.826478 0.926965,-1.372001 0.117865,-0.436942 0.06425,-0.938723 -0.19624,-1.320212 -0.188209,-0.286471 -0.433768,-0.534541 -0.70993,-0.736591 C 5.572191,6.1193872 5.1323339,5.9943522 4.6869701,5.9711702 4.0564147,5.9355602 3.4237179,6.0677232 2.7890045,6.0740252 2.5395431,6.0804632 2.2867511,6.0498352 2.0555029,5.9519112 1.817194,5.8598672 1.6036467,5.7172073 1.3912556,5.5781237 1.3014902,5.5268856 1.1645359,5.5305812 1.1124681,5.6328275 c -0.053364,0.096922 -0.00442,0.2086647 0.057091,0.2883927 0.1882442,0.300965 0.4174537,0.605659 0.4539682,0.972207 0.02921,0.325916 -0.00818,0.65293 -0.028655,0.978262 -0.039077,0.491579 -0.085595,0.990182 -0.012578,1.478084 0.1036965,0.7442378 0.5832329,1.4389638 1.2591418,1.7844378 0.3946766,0.200168 0.8686339,0.252949 1.2907558,0.109773 0.4396463,-0.142883 0.8141338,-0.43343 1.1398157,-0.754083 0.076178,-0.07923 0.1435053,-0.166772 0.2007561,-0.260596 0.07096,-0.02224 0.1507916,0.01097 0.1797044,0.08046 0.2589573,0.337215 0.5947703,0.602785 0.8947313,0.90113 0.123165,0.110487 0.276506,0.221292 0.30636,0.395107 0.01998,0.209837 -0.09991,0.395959 -0.165565,0.587275 -0.04238,0.113308 -0.101053,0.243706 -0.05164,0.363372 0.06325,0.09302 0.222498,0.124307 0.297678,0.02776 0.105905,-0.132288 0.132223,-0.306548 0.191506,-0.461323 0.08543,-0.263734 0.159197,-0.5291 0.208582,-0.802223 0.02613,-0.134012 0.127073,-0.233835 0.233793,-0.310393 0.429904,-0.337243 0.971093,-0.46637 1.466137,-0.674599 0.489878,-0.208936 0.920722,-0.5517248 1.2325906,-0.9836248 0.456419,-0.625179 0.684106,-1.381862 0.746017,-2.146013 0.04853,-0.63242 -0.01375,-1.272549 -0.136385,-1.8954755 -0.04016,-0.1865188 -0.07832,-0.3815974 -0.114701,-0.5645674 -0.02783,-0.1062625 -0.06198,-0.219959 -0.142777,-0.2983163 -0.10834,-0.072311 -0.267185,0.011748 -0.281704,0.138442 -0.03828,0.1499069 -0.05912,0.313963 -0.121947,0.4618262 -0.130103,0.3482912 -0.3044446,0.6790216 -0.4965036,0.996777 -0.480977,0.78299 -1.118031,1.469803 -1.499624,2.31289 -0.149344,0.327373 -0.251436,0.676177 -0.280379,1.032946 -0.01652,0.186976 -0.02154,0.389701 0.01731,0.578114 0.02285,0.1309678 0.01836,0.2869918 -0.09075,0.3802388 -0.09899,0.09131 -0.225064,0.144805 -0.334848,0.221266 -0.0025,-0.541391 0.118734,-1.0723968 0.156338,-1.6107478 0.0487,-0.81057 0.01949,-1.631745 -0.06713,-2.439177 -0.04491,-0.405284 -0.10292,-0.8105411 -0.196883,-1.2052 C 7.3744966,5.1421257 7.3169316,4.9451111 7.4086206,4.7755003 7.5909356,4.3767796 7.9050216,4.0592804 8.1118196,3.6747432 8.1905606,3.5415774 8.3191086,3.4463654 8.4625216,3.392359 c 0.352009,-0.1515979 0.740936,-0.175205 1.087718,-0.330842 0.190915,-0.06965 0.387715,-0.1635373 0.5960624,-0.1417078 0.146381,0.027343 0.226862,0.183284 0.224748,0.3222131 0.01278,0.1440278 -0.03126,0.3045981 0.05153,0.4338966 0.07185,0.088915 0.237697,0.093942 0.288307,-0.019866 0.06437,-0.1116121 0.03304,-0.2457272 -0.0026,-0.3609255 -0.0069,-0.051481 0.05773,-0.07219 0.09049,-0.036959 0.105588,0.077124 0.197996,0.2005684 0.338348,0.2080682 0.07633,0.0083 0.160914,-0.045474 0.156056,-0.1288658 0.0055,-0.1862534 -0.138103,-0.3253156 -0.250527,-0.4560573 0.128146,0.00376 0.254306,0.037593 0.382546,0.032703 0.111367,-0.00308 0.230447,-0.1277536 0.167859,-0.2380212 -0.06582,-0.1163775 -0.208093,-0.1622879 -0.335363,-0.1550543 0.0083,-0.063915 -0.02368,-0.1613726 0.05647,-0.1906352 0.108022,-0.053094 0.20531,-0.1807048 0.169169,-0.3055982 -0.05518,-0.1060922 -0.201435,-0.1147278 -0.297894,-0.063659 -0.08524,0.033354 -0.169438,0.069364 -0.25414,0.1041225 0.05421,-0.1606772 0.132026,-0.3457258 0.04711,-0.5101073 -0.04946,-0.097519 -0.188903,-0.065001 -0.254814,-0.00309 -0.163959,0.1635469 -0.138712,0.4400683 -0.32096,0.5908951 -0.08682,0.062885 -0.203109,0.092381 -0.258293,0.1930182 -0.07122,0.1354028 -0.2036424,0.2307876 -0.3525464,0.2625865 -0.423771,0.1178185 -0.855719,0.2194176 -1.255643,0.4073894 -0.05323,0.029501 0.0082,-0.071048 0.0079,-0.1016197 0.121406,-0.4077213 0.247289,-0.8298014 0.514663,-1.1690479 0.114109,-0.1421684 0.290809,-0.2629758 0.481405,-0.2277988 0.177214,0.023601 0.329013,0.1441502 0.5097724,0.1184384 0.09526,-0.022677 0.188411,-0.1375262 0.124432,-0.2321124 -0.06566,-0.1117108 -0.1937728,-0.1632668 -0.3150674,-0.1879232 0.0031,-0.061124 -0.01984,-0.1553702 0.05903,-0.1770755 0.1189374,-0.028548 0.2350494,-0.15223694 0.2040714,-0.28109024 -0.04298,-0.1092603 -0.1822684,-0.1373885 -0.2833574,-0.098206 -0.09427,0.022653 -0.188243,0.04652 -0.282363,0.069813 0.07627,-0.1356615 0.17151,-0.2952987 0.112037,-0.4553974 -0.03491,-0.1169425 -0.200718,-0.111175 -0.275006,-0.037089 -0.09807,0.0892 -0.172913,0.2003675 -0.26233,0.2978632 -0.01202,-0.1440094 -0.01153,-0.314065 -0.132901,-0.414966 -0.05931,-0.058949 -0.167629,-0.065608 -0.218134,0.00576 -0.0906,0.1067478 -0.04858,0.255127 -0.03805,0.3808133 0.0042,0.055695 -0.06817,0.073573 -0.09747,0.029353 -0.106327,-0.094851 -0.246367,-0.1961667 -0.396571,-0.1580977 -0.112377,0.056799 -0.108686,0.222798 -0.02986,0.3071827 0.118924,0.1529115 0.306565,0.2474757 0.387999,0.43040614 0.107346,0.1930333 0.112465,0.4355592 0.01533,0.6337569 -0.097304,0.2263245 -0.229268,0.4366982 -0.312123,0.6658844 -0.163124,0.397529 -0.322283,0.8044135 -0.588001,1.147036 -0.140729,0.1957662 -0.288483,0.3991755 -0.366858,0.6241315 -0.057907,-0.00466 -0.152412,0.020895 -0.169897,-0.057908 C 7.1461496,3.7625887 7.0775256,3.4086561 7.0130706,3.05777 6.9531946,2.760555 6.9073716,2.4602872 6.8379566,2.1651482 6.7841466,1.9503763 6.7092476,1.7226269 6.7695566,1.5012413 6.8208266,1.34584 6.9744516,1.2484777 7.1263136,1.217143 c 0.13934,-0.039375 0.301112,-0.037226 0.416249,-0.1352581 0.07277,-0.073431 0.0846,-0.23027014 -0.02631,-0.27415734 -0.146743,-0.068466 -0.312643,-0.025792 -0.466565,-0.013671 0.09549,-0.1350845 0.20972,-0.2935617 0.166387,-0.4686914 -0.02532,-0.1043379 -0.162819,-0.1074974 -0.240669,-0.063459 -0.117663,0.06492 -0.19566,0.1798911 -0.299056,0.2633937 -0.02523,0.0062 -0.0061,-0.09177 -0.01336,-0.1275041 -9.8e-4,-0.1193315 -0.01148,-0.2753433 -0.137186,-0.3310245 -0.02184,-0.00853 -0.0456,-0.011575 -0.06892,-0.00941 z"
       id="path5797"
       style="fill:#808080" />
    <path
       id="path5661"
       style="fill:#000000;stroke:none;stroke-width:0.0249954"
       d="m 6.4568886,0.05735876 c -0.126568,0.020948 -0.175235,0.1658375 -0.173725,0.2788539 -0.0063,0.050115 0.01737,0.1339758 -0.05472,0.142777 -0.06391,-0.027128 -0.09625,-0.098546 -0.154464,-0.1365122 -0.07781,-0.06985 -0.212659,-0.12602 -0.300315,-0.043663 -0.08891,0.1036644 -0.03486,0.2510151 0.02673,0.3541625 0.02916,0.053097 0.0584,0.1061827 0.08762,0.1592655 -0.163381,-0.034425 -0.3528892,-0.096625 -0.5057496,0.00345 -0.095163,0.072695 -0.039977,0.22885714 0.053724,0.27741854 0.1902924,0.1095236 0.4408106,0.066172 0.6110846,0.2189025 0.180378,0.1394358 0.322109,0.334046 0.374457,0.5580841 0.08807,0.3232086 0.07623,0.6631641 0.153035,0.9887721 0.155608,0.8164956 0.33149,1.6299125 0.442123,2.4540386 0.02517,0.045655 -0.01769,0.1109342 -0.06893,0.081121 C 6.5939286,5.1143605 6.2574566,4.8121543 5.9131666,4.5204025 5.7040426,4.3328716 5.4693291,4.1753982 5.2679668,3.9792399 5.1008215,3.8225355 4.9954193,3.6160995 4.904152,3.4092358 4.8190178,3.2157377 4.7305667,3.023002 4.6158239,2.844997 4.5099755,2.6616683 4.388473,2.4592177 4.4205214,2.238577 4.4553848,2.0478911 4.6188276,1.921502 4.7708059,1.8212493 4.87605,1.7491816 5.0098169,1.6617881 5.009337,1.5184703 5.0140058,1.437408 4.9634435,1.3380227 4.8702,1.3461281 4.7023772,1.3432163 4.5661409,1.4575806 4.4296145,1.5393684 4.4442226,1.4176232 4.478902,1.3041964 4.4828967,1.1856961 4.4855757,1.088129 4.4107361,0.96560596 4.2994115,0.99030236 4.1664164,1.0335163 4.086971,1.1691781 4.0633396,1.3008749 4.0024306,1.2978071 3.9080351,1.3205931 3.8865832,1.2416902 3.8576331,1.1252096 3.7420341,1.013476 3.614908,1.0322308 3.497653,1.0737776 3.4716781,1.2237858 3.5139808,1.3283554 3.5335015,1.4050986 3.5551,1.4812903 3.5758238,1.557714 3.4502555,1.5197793 3.3359883,1.4411812 3.2032964,1.4304469 3.1027855,1.4217724 2.9812459,1.5131498 3.0202928,1.6223323 c 0.031418,0.1153299 0.1326324,0.196249 0.2403049,0.2380052 -0.00837,0.0562 0.022273,0.1482085 -0.055516,0.1657489 C 3.0745735,2.022036 2.9179918,2.085363 2.8780982,2.2205119 2.8669112,2.35014 3.0114047,2.4423841 3.1304599,2.4180975 3.3150736,2.4001326 3.5059962,2.3094765 3.6890657,2.3860814 4.0033628,2.514716 4.207376,2.8088155 4.3542565,3.1020882 4.4741232,3.3401758 4.5674967,3.5901245 4.6700223,3.8359248 4.2704047,3.8889354 3.86773,3.917089 3.4684322,3.9715088 3.3108904,4.0029105 3.1398925,4.0189399 2.9911857,3.9445999 2.800838,3.8724142 2.5873024,3.8023063 2.4703736,3.6229802 2.3782254,3.5053445 2.3048668,3.3501541 2.1549132,3.2976794 c -0.084959,-0.025261 -0.2107427,0.00428 -0.2150429,0.1103929 -0.018067,0.1393516 0.056441,0.2679737 0.1231552,0.3830253 0.016157,0.056537 -0.053968,0.079359 -0.097631,0.063013 -0.1322439,-0.023469 -0.3005978,-0.01255 -0.3827104,0.1084979 -0.036863,0.1099472 0.062538,0.2115978 0.1601444,0.2448643 0.09794,0.04368 0.1950612,0.089079 0.2914819,0.1360678 -0.1179808,0.056555 -0.2711521,0.082328 -0.3420268,0.204195 -0.068907,0.1254907 0.062753,0.278532 0.1962187,0.2573178 C 2.0132617,4.7911164 2.1180812,4.7131894 2.2321243,4.6667431 2.1927133,4.7965101 2.1216412,4.9150494 2.090783,5.047216 2.06514,5.145785 2.133753,5.2842979 2.2483191,5.2703417 2.3766209,5.2482937 2.4708713,5.1412311 2.5200713,5.0264774 c 0.056164,0.00403 0.143209,-0.019444 0.1636751,0.053282 3.186e-4,0.1260451 0.060595,0.2790738 0.195102,0.3126737 0.122627,0.00619 0.2110385,-0.1280692 0.1855641,-0.2418782 C 3.0484858,4.9708685 2.9545595,4.7922727 3.0015154,4.6063916 3.0390053,4.4466432 3.2075165,4.370825 3.3550379,4.3449767 c 0.3154875,-0.060764 0.6389834,-0.00902 0.9505611,-0.086946 0.2211811,-0.037976 0.464144,-0.096815 0.6764589,0.00734 0.2745911,0.1397546 0.4521736,0.4034241 0.6966627,0.5835938 0.493199,0.4002277 1.035941,0.7537221 1.439005,1.2520987 0.146934,0.209034 0.150162,0.476216 0.158254,0.721621 0.0011,0.22376 0.0074,0.443173 0.02889,0.66446 0.07331,1.137982 -0.120162,2.268571 -0.266604,3.3930228 -0.0095,0.07057 -0.0189,0.141142 -0.02845,0.2117 -0.390667,-0.371606 -0.7813,-0.743248 -1.171889,-1.1149368 -0.02143,-0.06849 0.01612,-0.141013 0.08045,-0.169351 0.44793,-0.338879 0.786558,-0.826478 0.926965,-1.372001 0.117865,-0.436942 0.06425,-0.938723 -0.19624,-1.320212 -0.188209,-0.286471 -0.433768,-0.534541 -0.70993,-0.736591 C 5.572191,6.1193872 5.1323339,5.9943522 4.6869701,5.9711702 4.0564147,5.9355602 3.4237179,6.0677232 2.7890045,6.0740252 2.5395431,6.0804632 2.2867511,6.0498352 2.0555029,5.9519112 1.817194,5.8598672 1.6036467,5.7172073 1.3912556,5.5781237 1.3014902,5.5268856 1.1645359,5.5305812 1.1124681,5.6328275 c -0.053364,0.096922 -0.00442,0.2086647 0.057091,0.2883927 0.1882442,0.300965 0.4174537,0.605659 0.4539682,0.972207 0.02921,0.325916 -0.00818,0.65293 -0.028655,0.978262 -0.039077,0.491579 -0.085595,0.990182 -0.012578,1.478084 0.1036965,0.7442378 0.5832329,1.4389638 1.2591418,1.7844378 0.3946766,0.200168 0.8686339,0.252949 1.2907558,0.109773 0.4396463,-0.142883 0.8141338,-0.43343 1.1398157,-0.754083 0.076178,-0.07923 0.1435053,-0.166772 0.2007561,-0.260596 0.07096,-0.02224 0.1507916,0.01097 0.1797044,0.08046 0.2589573,0.337215 0.5947703,0.602785 0.8947313,0.90113 0.123165,0.110487 0.276506,0.221292 0.30636,0.395107 0.01998,0.209837 -0.09991,0.395959 -0.165565,0.587275 -0.04238,0.113308 -0.101053,0.243706 -0.05164,0.363372 0.06325,0.09302 0.222498,0.124307 0.297678,0.02776 0.105905,-0.132288 0.132223,-0.306548 0.191506,-0.461323 0.08543,-0.263734 0.159197,-0.5291 0.208582,-0.802223 0.02613,-0.134012 0.127073,-0.233835 0.233793,-0.310393 0.429904,-0.337243 0.971093,-0.46637 1.466137,-0.674599 0.489878,-0.208936 0.920722,-0.5517248 1.2325906,-0.9836248 0.456419,-0.625179 0.684106,-1.381862 0.746017,-2.146013 0.04853,-0.63242 -0.01375,-1.272549 -0.136385,-1.8954755 -0.04016,-0.1865188 -0.07832,-0.3815974 -0.114701,-0.5645674 -0.02783,-0.1062625 -0.06198,-0.219959 -0.142777,-0.2983163 -0.10834,-0.072311 -0.267185,0.011748 -0.281704,0.138442 -0.03828,0.1499069 -0.05912,0.313963 -0.121947,0.4618262 -0.130103,0.3482912 -0.3044446,0.6790216 -0.4965036,0.996777 -0.480977,0.78299 -1.118031,1.469803 -1.499624,2.31289 -0.149344,0.327373 -0.251436,0.676177 -0.280379,1.032946 -0.01652,0.186976 -0.02154,0.389701 0.01731,0.578114 0.02285,0.1309678 0.01836,0.2869918 -0.09075,0.3802388 -0.09899,0.09131 -0.225064,0.144805 -0.334848,0.221266 -0.0025,-0.541391 0.118734,-1.0723968 0.156338,-1.6107478 0.0487,-0.81057 0.01949,-1.631745 -0.06713,-2.439177 -0.04491,-0.405284 -0.10292,-0.8105411 -0.196883,-1.2052 C 7.3744966,5.1421257 7.3169316,4.9451111 7.4086206,4.7755003 7.5909356,4.3767796 7.9050216,4.0592804 8.1118196,3.6747432 8.1905606,3.5415774 8.3191086,3.4463654 8.4625216,3.392359 c 0.352009,-0.1515979 0.740936,-0.175205 1.087718,-0.330842 0.190915,-0.06965 0.387715,-0.1635373 0.5960624,-0.1417078 0.146381,0.027343 0.226862,0.183284 0.224748,0.3222131 0.01278,0.1440278 -0.03126,0.3045981 0.05153,0.4338966 0.07185,0.088915 0.237697,0.093942 0.288307,-0.019866 0.06437,-0.1116121 0.03304,-0.2457272 -0.0026,-0.3609255 -0.0069,-0.051481 0.05773,-0.07219 0.09049,-0.036959 0.105588,0.077124 0.197996,0.2005684 0.338348,0.2080682 0.07633,0.0083 0.160914,-0.045474 0.156056,-0.1288658 0.0055,-0.1862534 -0.138103,-0.3253156 -0.250527,-0.4560573 0.128146,0.00376 0.254306,0.037593 0.382546,0.032703 0.111367,-0.00308 0.230447,-0.1277536 0.167859,-0.2380212 -0.06582,-0.1163775 -0.208093,-0.1622879 -0.335363,-0.1550543 0.0083,-0.063915 -0.02368,-0.1613726 0.05647,-0.1906352 0.108022,-0.053094 0.20531,-0.1807048 0.169169,-0.3055982 -0.05518,-0.1060922 -0.201435,-0.1147278 -0.297894,-0.063659 -0.08524,0.033354 -0.169438,0.069364 -0.25414,0.1041225 0.05421,-0.1606772 0.132026,-0.3457258 0.04711,-0.5101073 -0.04946,-0.097519 -0.188903,-0.065001 -0.254814,-0.00309 -0.163959,0.1635469 -0.138712,0.4400683 -0.32096,0.5908951 -0.08682,0.062885 -0.203109,0.092381 -0.258293,0.1930182 -0.07122,0.1354028 -0.2036424,0.2307876 -0.3525464,0.2625865 -0.423771,0.1178185 -0.855719,0.2194176 -1.255643,0.4073894 -0.05323,0.029501 0.0082,-0.071048 0.0079,-0.1016197 0.121406,-0.4077213 0.247289,-0.8298014 0.514663,-1.1690479 0.114109,-0.1421684 0.290809,-0.2629758 0.481405,-0.2277988 0.177214,0.023601 0.329013,0.1441502 0.5097724,0.1184384 0.09526,-0.022677 0.188411,-0.1375262 0.124432,-0.2321124 -0.06566,-0.1117108 -0.1937728,-0.1632668 -0.3150674,-0.1879232 0.0031,-0.061124 -0.01984,-0.1553702 0.05903,-0.1770755 0.1189374,-0.028548 0.2350494,-0.15223694 0.2040714,-0.28109024 -0.04298,-0.1092603 -0.1822684,-0.1373885 -0.2833574,-0.098206 -0.09427,0.022653 -0.188243,0.04652 -0.282363,0.069813 0.07627,-0.1356615 0.17151,-0.2952987 0.112037,-0.4553974 -0.03491,-0.1169425 -0.200718,-0.111175 -0.275006,-0.037089 -0.09807,0.0892 -0.172913,0.2003675 -0.26233,0.2978632 -0.01202,-0.1440094 -0.01153,-0.314065 -0.132901,-0.414966 -0.05931,-0.058949 -0.167629,-0.065608 -0.218134,0.00576 -0.0906,0.1067478 -0.04858,0.255127 -0.03805,0.3808133 0.0042,0.055695 -0.06817,0.073573 -0.09747,0.029353 -0.106327,-0.094851 -0.246367,-0.1961667 -0.396571,-0.1580977 -0.112377,0.056799 -0.108686,0.222798 -0.02986,0.3071827 0.118924,0.1529115 0.306565,0.2474757 0.387999,0.43040614 0.107346,0.1930333 0.112465,0.4355592 0.01533,0.6337569 -0.097304,0.2263245 -0.229268,0.4366982 -0.312123,0.6658844 -0.163124,0.397529 -0.322283,0.8044135 -0.588001,1.147036 -0.140729,0.1957662 -0.288483,0.3991755 -0.366858,0.6241315 -0.057907,-0.00466 -0.152412,0.020895 -0.169897,-0.057908 C 7.1461496,3.7625887 7.0775256,3.4086561 7.0130706,3.05777 6.9531946,2.760555 6.9073716,2.4602872 6.8379566,2.1651482 6.7841466,1.9503763 6.7092476,1.7226269 6.7695566,1.5012413 6.8208266,1.34584 6.9744516,1.2484777 7.1263136,1.217143 c 0.13934,-0.039375 0.301112,-0.037226 0.416249,-0.1352581 0.07277,-0.073431 0.0846,-0.23027014 -0.02631,-0.27415734 -0.146743,-0.068466 -0.312643,-0.025792 -0.466565,-0.013671 0.09549,-0.1350845 0.20972,-0.2935617 0.166387,-0.4686914 -0.02532,-0.1043379 -0.162819,-0.1074974 -0.240669,-0.063459 -0.117663,0.06492 -0.19566,0.1798911 -0.299056,0.2633937 -0.02523,0.0062 -0.0061,-0.09177 -0.01336,-0.1275041 -9.8e-4,-0.1193315 -0.01148,-0.2753433 -0.137186,-0.3310245 -0.02184,-0.00853 -0.0456,-0.011575 -0.06892,-0.00941 z M 4.3035878,6.3499172 c 0.3339098,-0.0033 0.6712618,0.02575 0.9913033,0.125708 -0.1380378,0.83642 -0.2758483,1.67288 -0.413495,2.509365 -0.2648023,-0.247769 -0.5368669,-0.488028 -0.7963842,-0.741191 -0.078634,-0.09295 -0.1573078,-0.185859 -0.2359176,-0.278827 0.063354,-0.54036 0.1640607,-1.075238 0.2496604,-1.612343 0.068278,-9.04e-4 0.1365554,-0.0018 0.2048331,-0.0027 z m -0.6129042,0.09923 c -0.061039,0.397179 -0.122017,0.794368 -0.183297,1.19151 -0.3343923,-0.326444 -0.6847841,-0.637294 -0.9956165,-0.986982 -0.059735,-0.06443 -0.1195021,-0.12884 -0.1791433,-0.193361 0.4553453,-0.02109 0.9106835,-0.04234 1.3660331,-0.06333 -0.00266,0.01739 -0.00532,0.03478 -0.00798,0.05217 z m 6.3437664,-0.01133 c 0.06183,0.01572 0.02971,0.09334 0.02584,0.13831 -0.1065244,0.769732 -0.4244574,1.493641 -0.8158314,2.158929 -0.174022,0.290711 -0.351757,0.581169 -0.563619,0.846188 -0.108061,0.128345 -0.237843,0.2356 -0.371681,0.335865 -0.01596,-0.43999 0.05659,-0.883636 0.226109,-1.290746 0.221004,-0.549778 0.578178,-1.027858 0.92444,-1.503319 0.153564,-0.232887 0.301132,-0.4765 0.5157196,-0.659289 0.01371,-0.01618 0.03709,-0.03531 0.05902,-0.02594 z m 0.571905,0.121081 c 0.02471,0.08656 0.03031,0.175024 0.02399,0.264524 -0.0173,0.695548 -0.137646,1.404327 -0.466488,2.024449 -0.2197734,0.408856 -0.5570874,0.764013 -0.9836744,0.956771 -0.07289,0.03603 -0.1458,0.07202 -0.218712,0.108001 0.354707,-0.641626 0.713661,-1.281272 1.0640074,-1.925078 0.147026,-0.428404 0.304068,-0.851929 0.42669,-1.288295 0.03008,-0.08943 0.08368,-0.167721 0.132014,-0.247893 0.0074,0.03584 0.01478,0.07168 0.02218,0.107521 z m -4.8928644,0.179309 c 0.340245,0.141184 0.62008,0.433735 0.718571,0.791797 0.147586,0.508577 0.0035,1.070164 -0.306117,1.48989 -0.134932,0.192843 -0.275851,0.394929 -0.4809865,0.518531 -0.1355656,0.06995 -0.3317359,0.0148 -0.3809981,-0.13802 -0.075349,-0.199754 9.523e-4,-0.412151 0.025986,-0.614026 0.1087571,-0.691954 0.1571704,-1.399857 0.3782396,-2.070028 0.0151,0.0073 0.0302,0.01457 0.0453,0.02186 z m -3.6085094,0.105448 c 0.4169367,0.291994 0.7789937,0.660293 1.0673979,1.079521 -0.3978843,0.0732 -0.7957736,0.146385 -1.1935841,0.219988 0.023719,-0.398494 0.065883,-0.792631 0.057368,-1.191859 1.47e-4,-0.05247 3.349e-4,-0.104949 5.391e-4,-0.157423 0.022759,0.01659 0.045519,0.03318 0.068278,0.04977 z m 1.4293655,1.439893 c 0.1541909,0.119383 0.32271,0.223146 0.4495363,0.374053 0.1903794,0.198193 0.3807047,0.396439 0.57112,0.594598 -0.4793883,0.175552 -0.988855,0.233881 -1.4904221,0.310895 -0.1999657,0.0292 -0.3990057,0.0652 -0.593285,0.121343 -0.1106304,0.024 -0.2342259,0.04972 -0.3421,0.0037 -0.1282889,-0.0722 -0.1666133,-0.23116 -0.188957,-0.365861 -0.039029,-0.259326 -0.00321,-0.521639 -0.00276,-0.782204 0.5270056,-0.09188 1.0532235,-0.188617 1.5823523,-0.267368 0.00484,0.0036 0.00968,0.0072 0.014517,0.01085 z m 1.1910316,1.364438 c 0.1850703,-0.006 0.3589079,0.09225 0.480656,0.226369 0.021742,0.07256 -0.02272,0.1393838 -0.076518,0.1835728 -0.3375353,0.369745 -0.7464628,0.703045 -1.2387737,0.833631 -0.3441545,0.088 -0.7252354,0.02739 -1.0171292,-0.178101 -0.1832619,-0.124536 -0.3524229,-0.277122 -0.4752615,-0.462617 -0.027108,-0.04516 -0.050994,-0.09211 -0.075935,-0.13847 0.706649,-0.2526458 1.4711342,-0.2691398 2.1920021,-0.4395178 0.069491,-0.01411 0.1400251,-0.02324 0.2109591,-0.02487 z" />
  </g>
</svg>
