<?xml version="1.0" encoding="UTF-8" standalone="no"?>
<!-- Created with Inkscape (http://www.inkscape.org/) -->

<svg
   width="48"
   height="48"
   viewBox="0 0 12.7 12.7"
   version="1.1"
   id="svg7107"
   inkscape:version="1.1.2 (b8e25be833, 2022-02-05)"
   sodipodi:docname="Loboda_0.svg"
   xmlns:inkscape="http://www.inkscape.org/namespaces/inkscape"
   xmlns:sodipodi="http://sodipodi.sourceforge.net/DTD/sodipodi-0.dtd"
   xmlns="http://www.w3.org/2000/svg"
   xmlns:svg="http://www.w3.org/2000/svg">
  <sodipodi:namedview
     id="namedview7109"
     pagecolor="#ffffff"
     bordercolor="#666666"
     borderopacity="1.0"
     inkscape:pageshadow="2"
     inkscape:pageopacity="0.0"
     inkscape:pagecheckerboard="0"
     inkscape:document-units="mm"
     showgrid="false"
     inkscape:zoom="5.908137"
     inkscape:cx="45.27654"
     inkscape:cy="41.891378"
     inkscape:window-width="1746"
     inkscape:window-height="1051"
     inkscape:window-x="165"
     inkscape:window-y="-9"
     inkscape:window-maximized="1"
     inkscape:current-layer="layer1"
     units="px" />
  <defs
     id="defs7104">
    <inkscape:path-effect
       effect="fill_between_many"
       method="originald"
       linkedpaths="#path7240,0,1"
       id="path-effect7382"
       is_visible="true"
       lpeversion="0"
       join="true"
       close="true"
       autoreverse="true"
       applied="false" />
  </defs>
  <g
     inkscape:label="Layer 1"
     inkscape:groupmode="layer"
     id="layer1">
    <path
       inkscape:original-d="M 0.04387476,1.5545732"
       inkscape:path-effect="#path-effect7382"
       d="m 6.4266102,0.23073479 c -0.22838,0.03591 -0.408946,0.19573 -0.603055,0.308858 -0.373691,0.244243 -0.729212,0.53397401 -0.974764,0.91184101 -0.06014,0.0097 -0.109698,-0.003 -0.136946,-0.06159 -0.306324,-0.354934 -0.741456,-0.56551101 -1.172976,-0.72765401 -0.23854,-0.08407 -0.481202,-0.158874 -0.727895,-0.214566 -0.128304,-0.03081 -0.262721,-0.0035 -0.372247,0.06883 -0.37893,0.224913 -0.631621,0.60493101 -0.837595,0.98428901 -0.217444,0.422384 -0.396051,0.870935 -0.478068,1.340532 -0.13039901,0.773949 0.04861,1.546736 0.254456,2.29002 0.20891,0.717725 0.390658,1.44275 0.58237,2.165157 0.107482,0.377259 0.203194,0.759663 0.348172,1.124733 0.194556,0.466173 0.580204,0.863011 1.06664,1.018154 0.252309,0.0775 0.542095,0.09461 0.760638,0.262632 0.159771,0.143315 0.155171,0.3812572 0.215183,0.5687642 0.119926,0.429625 0.161669,0.889999 0.383474,1.284614 0.113708,0.182165 0.344606,0.200701 0.530413,0.261686 0.168495,0.04645 0.302921,0.166921 0.39881,0.309334 0.07988,0.124434 0.21339,0.218432 0.3658,0.21494 0.267633,9.9e-5 0.459703,-0.224248 0.7102,-0.285487 0.373425,-0.102535 0.771683,-0.106514 1.132394,-0.256585 0.145944,-0.05849 0.28833,-0.170378 0.365343,-0.316659 0.191584,-0.345758 0.187016,-0.753147 0.263871,-1.131631 0.04536,-0.228492 0.111892,-0.4688692 0.276707,-0.6412902 0.193147,-0.153919 0.45632,-0.144275 0.677695,-0.234274 0.356185,-0.119747 0.7101668,-0.31952 0.9297978,-0.638564 0.245496,-0.342513 0.365095,-0.752967 0.465976,-1.151665 0.221524,-0.910843 0.484261,-1.811037 0.735771,-2.713883 0.126744,-0.434604 0.267082,-0.868882 0.252897,-1.327934 0.0041,-0.75198 -0.169331,-1.513843 -0.564557,-2.162841 -0.158357,-0.261068 -0.346235,-0.50259501 -0.537885,-0.73523701 -0.142224,-0.16281 -0.328126,-0.32873 -0.559272,-0.316105 -0.3378538,0.01014 -0.6510208,0.160391 -0.9507668,0.303098 -0.359186,0.182455 -0.746067,0.34880801 -1.014396,0.65365701 -0.03826,0.03743 -0.07412,0.137532 -0.116907,0.04918 -0.379684,-0.395943 -0.737245,-0.83125201 -1.228175,-1.08829901 -0.136713,-0.06617 -0.287047,-0.122021 -0.441103,-0.116059 z"
       id="path7384"
       style="fill:#808080;stroke-width:0.0911603" />
    <path
       id="path7240"
       style="fill:#000000;stroke:none;stroke-width:0.0341604"
       d="m 6.4266102,0.23073479 c -0.22838,0.03591 -0.408946,0.19573 -0.603055,0.308858 -0.373691,0.244243 -0.729212,0.53397401 -0.974764,0.91184101 -0.06014,0.0097 -0.109698,-0.003 -0.136946,-0.06159 -0.306324,-0.354934 -0.741456,-0.56551101 -1.172976,-0.72765401 -0.23854,-0.08407 -0.481202,-0.158874 -0.727895,-0.214566 -0.128304,-0.03081 -0.262721,-0.0035 -0.372247,0.06883 -0.37893,0.224913 -0.631621,0.60493101 -0.837595,0.98428901 -0.217444,0.422384 -0.396051,0.870935 -0.478068,1.340532 -0.13039901,0.773949 0.04861,1.546736 0.254456,2.29002 0.20891,0.717725 0.390658,1.44275 0.58237,2.165157 0.107482,0.377259 0.203194,0.759663 0.348172,1.124733 0.194556,0.466173 0.580204,0.863011 1.06664,1.018154 0.252309,0.0775 0.542095,0.09461 0.760638,0.262632 0.159771,0.143315 0.155171,0.3812572 0.215183,0.5687642 0.119926,0.429625 0.161669,0.889999 0.383474,1.284614 0.113708,0.182165 0.344606,0.200701 0.530413,0.261686 0.168495,0.04645 0.302921,0.166921 0.39881,0.309334 0.07988,0.124434 0.21339,0.218432 0.3658,0.21494 0.267633,9.9e-5 0.459703,-0.224248 0.7102,-0.285487 0.373425,-0.102535 0.771683,-0.106514 1.132394,-0.256585 0.145944,-0.05849 0.28833,-0.170378 0.365343,-0.316659 0.191584,-0.345758 0.187016,-0.753147 0.263871,-1.131631 0.04536,-0.228492 0.111892,-0.4688692 0.276707,-0.6412902 0.193147,-0.153919 0.45632,-0.144275 0.677695,-0.234274 0.356185,-0.119747 0.7101668,-0.31952 0.9297978,-0.638564 0.245496,-0.342513 0.365095,-0.752967 0.465976,-1.151665 0.221524,-0.910843 0.484261,-1.811037 0.735771,-2.713883 0.126744,-0.434604 0.267082,-0.868882 0.252897,-1.327934 0.0041,-0.75198 -0.169331,-1.513843 -0.564557,-2.162841 -0.158357,-0.261068 -0.346235,-0.50259501 -0.537885,-0.73523701 -0.142224,-0.16281 -0.328126,-0.32873 -0.559272,-0.316105 -0.3378538,0.01014 -0.6510208,0.160391 -0.9507668,0.303098 -0.359186,0.182455 -0.746067,0.34880801 -1.014396,0.65365701 -0.03826,0.03743 -0.07412,0.137532 -0.116907,0.04918 -0.379684,-0.395943 -0.737245,-0.83125201 -1.228175,-1.08829901 -0.136713,-0.06617 -0.287047,-0.122021 -0.441103,-0.116059 z m 0.03779,0.493868 c 0.219943,0.01663 0.393345,0.173477 0.560841,0.30134201 0.549178,0.416631 0.993482,0.982388 1.221279,1.63634 0.237486,0.68948 0.255295,1.429489 0.241695,2.151476 -0.01627,0.767464 -0.08903,1.534599 -0.04832,2.302514 0.01276,0.414402 0.0061,0.859146 -0.217057,1.223794 -0.211534,0.34011 -0.575028,0.53613 -0.905615,0.741397 -0.162188,0.09418 -0.352795,0.200908 -0.395156,0.40053 -0.08016,0.326396 -0.03644,0.6596432 -0.01597,0.9891172 0.01593,0.218882 0.02194,0.438357 0.03082,0.657484 0.0072,0.136945 -0.04114,0.277376 -0.15184,0.363463 -0.230447,0.199387 -0.522548,0.302893 -0.787787,0.445698 0.0021,-0.642863 -0.0042,-1.285925 0.0031,-1.928663 0.0069,-0.1996342 0.04403,-0.4069172 -0.02659,-0.6020032 -0.105496,-0.21798 -0.341361,-0.321492 -0.539966,-0.437353 -0.398484,-0.208012 -0.762813,-0.540387 -0.889406,-0.984369 -0.06843,-0.244368 -0.05674,-0.501445 -0.07169,-0.752584 -0.02603,-0.933925 0.03476,-1.867593 0.01976,-2.801619 -0.0033,-0.683474 0.01491,-1.390713 0.291115,-2.027829 0.261583,-0.602688 0.713746,-1.114803 1.259521,-1.47682301 0.126773,-0.0879 0.259067,-0.199406 0.421206,-0.201912 z m -3.660526,0.19125 c 0.17881,0.0068 0.342894,0.09051 0.510586,0.14477701 0.387156,0.143965 0.750001,0.352389 1.069004,0.614323 0.09808,0.08147 0.151611,0.217773 0.104871,0.341182 -0.06173,0.191433 -0.18752,0.351529 -0.239853,0.546973 -0.178613,0.511621 -0.217319,1.056521 -0.22408,1.592077 -0.0098,0.823598 0.05749,1.647086 0.01457,2.470487 -0.01406,0.502397 -0.03895,1.016912 0.0978,1.506075 0.135094,0.430037 0.433293,0.806159 0.814974,1.044014 0.199409,0.121088 0.442484,0.207302 0.568946,0.416301 0.09468,0.198265 0.02453,0.4235632 0.03665,0.6334122 0,0.40371 0,0.807425 0,1.211136 -0.185114,-0.01743 -0.36782,-0.102799 -0.475064,-0.258923 -0.195587,-0.283109 -0.223701,-0.637713 -0.281291,-0.967231 -0.05017,-0.2790602 -0.08277,-0.5836772 -0.268169,-0.8112962 -0.215107,-0.237457 -0.548458,-0.28567 -0.841564,-0.366893 -0.293593,-0.07296 -0.599613,-0.191525 -0.782621,-0.446326 -0.297961,-0.39611 -0.389558,-0.896408 -0.502888,-1.3675 -0.175964,-0.744796 -0.453894,-1.460692 -0.645025,-2.201229 -0.194226,-0.739283 -0.317854,-1.523538 -0.155171,-2.28112 0.09426,-0.422489 0.270167,-0.825051 0.491677,-1.19585 0.154366,-0.243385 0.338882,-0.495042 0.613188,-0.60982901 0.03035,-0.0095 0.0617,-0.01396 0.09347,-0.01456 z m 7.3151458,0 c 0.166702,0.0092 0.299199,0.13242801 0.414177,0.24181801 0.302955,0.321668 0.495263,0.729382 0.652542,1.137695 0.254078,0.662245 0.244848,1.394086 0.117965,2.083006 -0.168492,0.937762 -0.53261,1.824152 -0.766375,2.74526 -0.119415,0.487939 -0.203502,1.006449 -0.497999,1.426509 -0.1552208,0.23268 -0.4122178,0.370436 -0.6754758,0.444874 -0.304749,0.09563 -0.645284,0.126615 -0.902538,0.332918 -0.216275,0.181858 -0.26795,0.477278 -0.317639,0.7405052 -0.06587,0.350174 -0.08419,0.721947 -0.259657,1.040173 -0.09747,0.179727 -0.284146,0.302763 -0.487625,0.322222 -0.06685,0.02051 -0.01744,-0.09751 -0.0328,-0.138369 -0.003,-0.419714 0.0062,-0.83973 -0.0047,-1.259255 -0.01147,-0.1815712 -0.03389,-0.3966282 0.111018,-0.5352752 0.210901,-0.211391 0.518098,-0.284839 0.732305,-0.492926 0.356597,-0.305799 0.603756,-0.742313 0.652612,-1.212209 0.0896,-0.682606 -0.0082,-1.370503 0.01458,-2.055605 0.01014,-0.823042 0.07467,-1.650988 -0.03041,-2.46796 -0.04822,-0.32189 -0.123135,-0.644273 -0.260935,-0.940305 -0.06954,-0.147051 -0.185962,-0.301857 -0.15558,-0.475056 0.05326,-0.186677 0.247894,-0.271754 0.38891,-0.382763 0.360858,-0.249328 0.770801,-0.421447 1.1909878,-0.54227101 0.03852,-0.0075 0.07727,-0.01434 0.116679,-0.01299 z M 6.4283912,2.0064938 c -0.147361,0.01597 -0.194299,0.177773 -0.208763,0.302223 -0.03939,0.335493 0.02656,0.665756 0.02421,1.002296 -0.153506,-0.145499 -0.275145,-0.328281 -0.456486,-0.441923 -0.108827,-0.07519 -0.279347,-0.05105 -0.336656,0.07674 -0.06946,0.151994 0.04936,0.304003 0.14721,0.410958 0.207277,0.219701 0.505071,0.370947 0.623108,0.663352 0.08801,0.281612 0.01353,0.578357 0.01719,0.866375 0.01585,0.107824 -0.05303,-0.0061 -0.0896,-0.03546 -0.142286,-0.138014 -0.260116,-0.328556 -0.46269,-0.381363 -0.155296,-0.03998 -0.302301,0.13182 -0.246499,0.279894 0.0921,0.256985 0.343918,0.398816 0.532738,0.577855 0.150507,0.132429 0.280037,0.308683 0.286118,0.516647 0.01837,0.244267 -0.02271,0.487957 -0.02172,0.732355 -0.184761,-0.175216 -0.36427,-0.377774 -0.609841,-0.466033 -0.07831,-0.03437 -0.167174,0.01491 -0.180946,0.09908 -0.05996,0.162653 0.03963,0.324561 0.150818,0.437376 0.182171,0.20114 0.426602,0.341831 0.582507,0.566888 0.110017,0.19851 0.05809,0.434799 0.04548,0.649505 -0.0084,0.170235 -0.04361,0.370438 0.07535,0.512077 0.107329,0.123878 0.332457,0.06664 0.369491,-0.09219 0.0766,-0.25801 -0.0197,-0.514807 -0.0052,-0.778359 -4.94e-4,-0.22456 0.133539,-0.421989 0.297956,-0.563954 0.180737,-0.170222 0.414502,-0.305827 0.516464,-0.542451 0.05619,-0.143121 -0.07277,-0.321059 -0.228791,-0.291713 -0.203045,0.04176 -0.322649,0.230679 -0.461417,0.367087 -0.03248,0.01956 -0.104783,0.142903 -0.105202,0.07897 0.0045,-0.28227 -0.06309,-0.568971 0.003,-0.84793 0.07899,-0.269277 0.330809,-0.42784 0.528719,-0.605206 0.125257,-0.114213 0.269845,-0.24952 0.277405,-0.430145 -0.003,-0.148646 -0.175571,-0.250536 -0.308,-0.184871 -0.199559,0.09038 -0.319263,0.28622 -0.47457,0.432043 -0.04969,0.06316 -0.01833,-0.08473 -0.02985,-0.120922 -0.0021,-0.273511 -0.07213,-0.563374 0.04073,-0.824355 0.166774,-0.329918 0.553874,-0.468572 0.731161,-0.789598 0.0746,-0.112166 0.04281,-0.286078 -0.08899,-0.338769 -0.156115,-0.06228 -0.301674,0.06474 -0.403661,0.169327 -0.09446,0.09905 -0.186118,0.200779 -0.281999,0.298517 -0.0039,-0.329965 0.05099,-0.656887 0.02038,-0.986316 -0.01135,-0.118605 -0.03844,-0.266339 -0.16971,-0.306987 -0.03187,-0.01122 -0.06581,-0.0151 -0.09936,-0.01102 z" />
  </g>
</svg>
