<?xml version="1.0" encoding="UTF-8" standalone="no"?>
<!-- Created with Inkscape (http://www.inkscape.org/) -->

<svg
   width="48"
   height="48"
   viewBox="0 0 12.7 12.7"
   version="1.1"
   id="svg7107"
   inkscape:version="1.1.2 (b8e25be833, 2022-02-05)"
   sodipodi:docname="Loboda.svg"
   xmlns:inkscape="http://www.inkscape.org/namespaces/inkscape"
   xmlns:sodipodi="http://sodipodi.sourceforge.net/DTD/sodipodi-0.dtd"
   xmlns="http://www.w3.org/2000/svg"
   xmlns:svg="http://www.w3.org/2000/svg">
  <sodipodi:namedview
     id="namedview7109"
     pagecolor="#ffffff"
     bordercolor="#666666"
     borderopacity="1.0"
     inkscape:pageshadow="2"
     inkscape:pageopacity="0.0"
     inkscape:pagecheckerboard="0"
     inkscape:document-units="mm"
     showgrid="false"
     inkscape:zoom="8.3553674"
     inkscape:cx="35.845222"
     inkscape:cy="38.597944"
     inkscape:window-width="1746"
     inkscape:window-height="1051"
     inkscape:window-x="165"
     inkscape:window-y="-9"
     inkscape:window-maximized="1"
     inkscape:current-layer="layer1"
     units="px" />
  <defs
     id="defs7104" />
  <g
     inkscape:label="Layer 1"
     inkscape:groupmode="layer"
     id="layer1">
    <path
       id="path7240"
       style="fill:#000000;stroke:none;stroke-width:0.0352164"
       d="M 6.3158911,0.06430781 C 6.080452,0.10132681 5.8943039,0.26608857 5.6941956,0.38271377 5.3089517,0.63450615 4.942441,0.93319421 4.689299,1.3227412 4.6272946,1.3327165 4.5762086,1.3197003 4.5481209,1.2592515 4.2323274,0.89334524 3.7837433,0.67625849 3.3388839,0.50910394 3.0929714,0.42243274 2.8428075,0.34531884 2.5884896,0.2879055 2.456219,0.25614118 2.3176461,0.28431709 2.2047344,0.35886255 1.8140922,0.59072792 1.5535898,0.98249274 1.341249,1.3735776 1.1170829,1.8090184 0.93295612,2.2714353 0.84840102,2.7555481 0.71397175,3.5534219 0.89850862,4.3500974 1.1107236,5.1163567 c 0.2153697,0.7399114 0.4027336,1.4873491 0.6003715,2.2320879 0.1108108,0.3889197 0.2094771,0.7831457 0.3589352,1.159501 0.2005708,0.4805829 0.5981407,0.8896878 1.0996125,1.0496263 0.2601076,0.079896 0.5588531,0.097534 0.7841502,0.2707509 0.1647114,0.1477452 0.1599679,0.3930402 0.2218353,0.5863462 0.1236336,0.442905 0.1666654,0.917509 0.3953283,1.324322 0.1172216,0.187799 0.3552578,0.206907 0.5468093,0.269776 0.1737041,0.04788 0.3122852,0.172082 0.4111372,0.318896 0.082336,0.128285 0.2199883,0.225186 0.3771091,0.221585 0.2759058,1.04e-4 0.4739119,-0.23118 0.7321531,-0.294312 0.384969,-0.10571 0.7955381,-0.109816 1.1673994,-0.264517 C 7.9560194,11.93013 8.1028069,11.814775 8.1822015,11.663972 8.3797068,11.307527 8.3749973,10.887543 8.4542278,10.497359 8.5009734,10.261805 8.5695784,10.013996 8.7394897,9.8362447 8.9386079,9.6775693 9.2099149,9.6875115 9.438133,9.5947303 9.805327,9.4712824 10.170253,9.265333 10.396672,8.9364251 10.649756,8.5833256 10.773053,8.1601849 10.877053,7.7491607 11.105424,6.810163 11.376283,5.8821415 11.635569,4.9513865 11.766229,4.5033485 11.910907,4.055647 11.896284,3.582404 11.90049,2.8071792 11.721715,2.0217648 11.314274,1.3527051 11.151022,1.0835669 10.957338,0.83457447 10.75976,0.59474029 10.613141,0.42689789 10.421493,0.25584856 10.183201,0.26886458 9.8349031,0.27932313 9.512058,0.43421281 9.2030446,0.5813313 8.8327562,0.76942636 8.4339166,0.94092211 8.1572928,1.2551948 8.1178474,1.2937804 8.0808839,1.3969778 8.03677,1.3058946 7.6453503,0.89771333 7.2767355,0.44894732 6.7706308,0.18395424 6.6296919,0.1157335 6.4747098,0.05816153 6.3158911,0.06430781 Z m 0.038946,0.5091341 C 6.5815786,0.59058264 6.7603438,0.75228173 6.9330163,0.88409914 7.4991712,1.3136092 7.9572085,1.896855 8.1920472,2.5710219 c 0.2448275,0.710794 0.2631871,1.4736783 0.2491655,2.2179833 -0.016775,0.7911874 -0.091778,1.5820376 -0.049813,2.3736891 0.013154,0.4272125 0.00636,0.8857044 -0.2237673,1.2616244 -0.2180737,0.3506227 -0.5928037,0.552703 -0.9336098,0.764315 -0.1672004,0.097082 -0.3636986,0.207118 -0.4073701,0.4129114 -0.082634,0.3364851 -0.037558,0.6800339 -0.01646,1.0196929 0.016431,0.225647 0.022619,0.451908 0.031774,0.677809 0.00754,0.141177 -0.042401,0.285948 -0.1565335,0.374697 C 6.4478615,11.879295 6.146731,11.986 5.873294,12.13322 5.875454,11.470485 5.868954,10.807544 5.876554,10.144938 5.883654,9.9391322 5.921942,9.7254425 5.849149,9.5243257 5.7403851,9.2996073 5.4972265,9.1928948 5.2924817,9.0734534 4.8816794,8.8590106 4.506088,8.5163612 4.3755816,8.0586542 4.3050336,7.8067334 4.3170903,7.5417093 4.3016717,7.2828072 4.2748446,6.3200125 4.3374864,5.3574826 4.3220423,4.3945844 4.3186806,3.6899826 4.3374092,2.9608812 4.6221571,2.304071 4.8918229,1.6827522 5.3579627,1.1548071 5.9206096,0.7815959 6.0513012,0.69098099 6.1876853,0.57602543 6.3548371,0.57344191 Z M 2.5811594,0.77060454 c 0.1843357,0.006997 0.3534921,0.0933126 0.5263702,0.1492523 C 3.5066518,1.0682719 3.8807123,1.2831386 4.2095771,1.5531699 4.3106988,1.6371612 4.3658752,1.777675 4.3176921,1.9048984 4.2540599,2.1022493 4.1243728,2.267294 4.0704225,2.4687797 3.8862886,2.9962156 3.8463866,3.5579601 3.8394158,4.110071 c -0.010147,0.8490565 0.059263,1.6980008 0.015012,2.5468551 -0.014495,0.5179269 -0.040154,1.0483467 0.100817,1.5526311 0.1392692,0.4433307 0.4466873,0.8310779 0.8401673,1.076287 0.2055715,0.124831 0.4561608,0.2137102 0.5865316,0.4291688 0.097618,0.2043939 0.025295,0.436658 0.03779,0.652992 0,0.416191 0,0.832384 0,1.248576 C 5.2288967,11.598606 5.0405428,11.51061 4.9299835,11.349656 4.7283485,11.057793 4.6993657,10.692227 4.6399945,10.352525 4.5882749,10.064837 4.5546662,9.7508037 4.3635344,9.5161483 4.1417914,9.2713506 3.798135,9.221647 3.4959687,9.1379143 3.1932977,9.0626946 2.8778198,8.9404676 2.6891521,8.6777915 2.3819838,8.2694366 2.2875557,7.7536735 2.1707232,7.2680182 1.9893201,6.5002006 1.7027991,5.7621741 1.5057582,4.998745 1.3055296,4.2366091 1.1780789,3.4281108 1.3457911,2.6471109 1.4429645,2.2115621 1.6243099,1.7965557 1.8526666,1.4142939 2.0118064,1.1633854 2.202024,0.9039499 2.4848093,0.78561483 c 0.031298,-0.009778 0.063613,-0.01439 0.09635,-0.0150103 z m 7.5412696,0 c 0.171858,0.009491 0.308448,0.13652183 0.426983,0.24929316 0.312319,0.3316111 0.51057,0.7519288 0.672711,1.1728631 0.261933,0.6827164 0.252416,1.4371807 0.121612,2.1473964 C 11.170034,5.3069075 10.794661,6.2206968 10.553672,7.1702778 10.430566,7.6733007 10.343878,8.2078401 10.040278,8.6408844 9.8802581,8.8807562 9.6153158,9.0227731 9.3439206,9.0995103 9.0297525,9.1980903 8.6786897,9.2300388 8.4134834,9.4427199 8.1905246,9.6301989 8.1372515,9.9347511 8.0860263,10.206116 c -0.067907,0.360997 -0.086785,0.744263 -0.2676826,1.072326 -0.1004825,0.185282 -0.2929303,0.312123 -0.5026984,0.332182 -0.068919,0.02114 -0.017989,-0.100529 -0.03382,-0.142645 -0.00311,-0.432689 0.00633,-0.865689 -0.00492,-1.298181 C 7.2650932,9.982613 7.2419759,9.760908 7.3913557,9.6179759 7.6087789,9.4000497 7.9254732,9.3243303 8.146301,9.1098126 8.5139207,8.79456 8.7687211,8.3445536 8.8190855,7.8601317 8.911448,7.1564253 8.8106721,6.4472639 8.8341167,5.7409839 8.8445411,4.8924993 8.9110889,4.0389597 8.8027717,3.1967329 8.753102,2.8648929 8.6758589,2.5325441 8.5337989,2.2273616 8.4621005,2.075765 8.3420887,1.9161735 8.373408,1.7376204 8.4283105,1.5451727 8.6289656,1.4574659 8.7743417,1.3430255 9.1463548,1.0859904 9.5689694,0.90855038 10.002146,0.78399218 c 0.03971,-0.007685 0.07966,-0.0147799 0.120286,-0.0133875 z M 6.3177167,1.8949593 C 6.1658008,1.9114193 6.1174116,2.0782277 6.102501,2.2065249 6.061881,2.5523885 6.129888,2.8928608 6.127451,3.2398034 5.9692009,3.0898066 5.8438021,2.9013752 5.6568567,2.7842197 5.5446643,2.7067094 5.3688724,2.7315935 5.3097935,2.8633282 c -0.071621,0.156692 0.050896,0.3133999 0.1517605,0.4236613 0.213684,0.2264924 0.5206834,0.382414 0.6423669,0.6838574 0.090732,0.2903176 0.013959,0.5962352 0.017715,0.893157 0.016334,0.1111564 -0.054666,-0.00629 -0.092361,-0.036554 C 5.8825917,4.6851704 5.7611187,4.4887372 5.5522838,4.4342983 5.3921863,4.3930863 5.2406378,4.5701932 5.298165,4.7228448 5.3931129,4.9877729 5.6527141,5.1339889 5.8473708,5.3185624 6.0025295,5.4550852 6.1360633,5.6367865 6.1423338,5.8511795 6.161277,6.1029978 6.1189216,6.3542207 6.1199454,6.6061736 5.9294835,6.4255391 5.7444249,6.2167203 5.4912612,6.1257325 5.4105317,6.090307 5.318921,6.1411064 5.3047225,6.227873 c -0.061806,0.1676803 0.040842,0.3345924 0.1554794,0.4508959 0.1878028,0.2073562 0.4397902,0.3523965 0.6005137,0.584411 0.1134204,0.2046454 0.059892,0.4482402 0.046893,0.6695823 -0.0087,0.1754988 -0.04496,0.3818904 0.077678,0.5279059 0.1106417,0.1277086 0.3427347,0.068707 0.3809113,-0.09504 0.078949,-0.2659869 -0.020307,-0.5307215 -0.00531,-0.80242 C 6.5603597,7.3317059 6.6985566,7.1281742 6.8680564,6.9818213 7.0543839,6.8063366 7.2953761,6.6665399 7.400489,6.4226013 7.458407,6.2750562 7.3254643,6.0916166 7.1646248,6.1218706 6.9553034,6.1649217 6.8320023,6.35968 6.6889436,6.5003041 6.6554618,6.5204692 6.5809252,6.6476257 6.5804988,6.5817242 6.5852148,6.2907278 6.5154619,5.9951654 6.58344,5.7075823 6.6648704,5.4299817 6.9244754,5.2665171 7.1285029,5.0836676 7.2576308,4.9659251 7.4066901,4.8264347 7.4144846,4.6402264 7.4115393,4.4869857 7.2334863,4.3819463 7.0969612,4.449641 6.8912354,4.5428177 6.7678299,4.7447081 6.6077223,4.8950387 6.5565069,4.9601568 6.5888366,4.8076929 6.5769468,4.7703789 6.5748728,4.4884137 6.5025936,4.1895906 6.6189374,3.920542 6.7908661,3.5804254 7.1899312,3.4374851 7.3726992,3.1065359 7.449608,2.9909021 7.4168355,2.8116145 7.2809657,2.7572939 7.1200243,2.6930878 6.9699649,2.8240402 6.8648257,2.9318561 6.7674437,3.0339647 6.6729557,3.1388406 6.5741092,3.2396005 6.5701399,2.8994354 6.6266686,2.5624079 6.5951075,2.2227952 6.5834159,2.1005244 6.5554782,1.9482235 6.4201519,1.9063184 6.3873022,1.8947492 6.3523109,1.8907471 6.3177167,1.8949593 Z" />
  </g>
</svg>
