<?xml version="1.0" encoding="UTF-8" standalone="no"?>
<!-- Created with Inkscape (http://www.inkscape.org/) -->

<svg
   width="48"
   height="48"
   viewBox="0 0 12.7 12.7"
   version="1.1"
   id="svg1918"
   inkscape:version="1.1.2 (b8e25be833, 2022-02-05)"
   sodipodi:docname="Maslina.svg"
   xmlns:inkscape="http://www.inkscape.org/namespaces/inkscape"
   xmlns:sodipodi="http://sodipodi.sourceforge.net/DTD/sodipodi-0.dtd"
   xmlns="http://www.w3.org/2000/svg"
   xmlns:svg="http://www.w3.org/2000/svg">
  <sodipodi:namedview
     id="namedview1920"
     pagecolor="#ffffff"
     bordercolor="#666666"
     borderopacity="1.0"
     inkscape:pageshadow="2"
     inkscape:pageopacity="0.0"
     inkscape:pagecheckerboard="0"
     inkscape:document-units="mm"
     showgrid="false"
     inkscape:zoom="5.908137"
     inkscape:cx="48.323186"
     inkscape:cy="39.183249"
     inkscape:window-width="1746"
     inkscape:window-height="1051"
     inkscape:window-x="165"
     inkscape:window-y="-9"
     inkscape:window-maximized="1"
     inkscape:current-layer="layer1"
     units="px" />
  <defs
     id="defs1915" />
  <g
     inkscape:label="Layer 1"
     inkscape:groupmode="layer"
     id="layer1">
    <path
       style="fill:#040404;stroke:none;stroke-width:0.0247819"
       d="M 4.85168,7.9468763 C 4.85168,7.6844859 4.767397,7.2505812 4.866623,7.0077692 4.9191857,6.879152 5.1208847,6.8156603 5.2105701,6.7068192 5.4831452,6.3760808 5.5524351,5.9028974 5.4606929,5.4934773 5.3039976,4.7941843 4.5022318,4.3536872 3.9970794,5.0227213 3.919438,5.1255168 3.8590448,5.2463524 3.8217235,5.3695681 3.695237,5.787265 3.7367713,6.3017601 4.0031758,6.6581974 c 0.096302,0.1288653 0.354479,0.2221437 0.394551,0.3728171 0.077319,0.2907646 0.00788,0.6890331 0.00788,0.9902067 0,0.1132035 0.026566,0.2676187 -0.025476,0.3717266 C 4.2867024,8.5798027 4.0565784,8.7419751 3.9099693,8.8885844 L 2.918697,9.8798566 c 0,-0.2625879 -0.08966,-0.720754 0.014943,-0.9612116 C 2.9890519,8.7912665 3.2106265,8.729213 3.3023688,8.6156125 3.577474,8.2750619 3.6358848,7.7927571 3.5349981,7.3768946 3.4983211,7.2257748 3.4415211,7.0824365 3.3500267,6.9556286 2.8341438,6.2406232 1.9748347,6.7368047 1.8604245,7.4760214 c -0.062192,0.4018373 -0.00193,0.8475626 0.2767682,1.1625144 0.090181,0.101902 0.2646077,0.1497068 0.3347403,0.2597133 0.057345,0.089929 0.025476,0.2596883 0.025476,0.362063 0,0.2915071 0.085894,0.7425359 -0.014943,1.0160529 -0.071942,0.195082 -0.3360067,0.375742 -0.4806928,0.520419 L 0.83702775,11.961528 C 0.70155294,12.097011 0.27250563,12.398134 0.43415236,12.627341 0.66408784,12.95337 1.133366,12.309514 1.2831002,12.159783 c 0.1677777,-0.167774 0.3565382,-0.437795 0.5699815,-0.544506 0.098359,-0.04919 0.2401134,-0.02548 0.3469452,-0.02548 0.2882125,0 0.7717055,-0.09397 1.0382338,0.01494 0.1468818,0.06004 0.2348572,0.306552 0.3743292,0.405282 0.442727,0.313366 1.1352793,0.321271 1.5860356,0.01693 0.4726882,-0.319116 0.478611,-0.948128 0.024782,-1.285656 C 4.8651865,10.47486 4.3498736,10.44247 3.9347536,10.574457 3.7433637,10.635298 3.576607,10.74461 3.4437765,10.896002 c -0.063516,0.07239 -0.1001189,0.19699 -0.1836828,0.247024 -0.2109923,0.126362 -0.7404059,0.02548 -0.9857211,0.02548 L 3.0921721,10.350707 C 3.204855,10.238024 3.3357525,10.050326 3.4886811,9.9939225 3.8000645,9.879134 4.3211019,9.9789845 4.653426,9.9789845 c 0.1364734,0 0.3174797,-0.030581 0.4460725,0.021262 0.1518629,0.06123 0.2858581,0.210846 0.4212907,0.303676 0.2127518,0.145817 0.4515989,0.263705 0.6938906,0.351729 0.9917922,0.360303 2.1154483,0.304891 3.0729435,-0.132186 0.2575819,-0.117565 0.508944,-0.284396 0.7186477,-0.474373 0.08275,-0.074939 0.190647,-0.1711434 0.188291,-0.2931438 C 10.192075,9.6250995 10.068795,9.5382143 9.9814888,9.4585908 9.7583525,9.2550076 9.4893468,9.0913995 9.2132774,8.9699671 8.3791468,8.6030982 7.3919394,8.5270428 6.5120617,8.7752814 6.1718321,8.8712849 5.8430766,9.0116256 5.545571,9.2032636 5.392692,9.3017447 5.2452651,9.4819847 5.0747167,9.5428243 4.7526275,9.657762 4.2276994,9.5576897 3.88519,9.5576897 L 5.9420796,7.5008026 C 6.2152,7.2276825 6.5381564,6.7573737 6.8837881,6.5845704 7.1385455,6.4571916 7.6653322,6.5590947 7.9494055,6.5590947 c 0.1003366,0 0.2518327,-0.027459 0.3416661,0.025475 C 8.4149815,6.6575527 8.4771832,6.848198 8.5938314,6.9440052 8.90343,7.1983158 9.3480658,7.2602458 9.7336949,7.1919225 10.037991,7.1380223 10.344592,6.9828882 10.503047,6.7077849 10.799536,6.1929932 10.366896,5.6479166 9.8576048,5.5241813 9.4459042,5.4241619 8.959586,5.4509259 8.6185149,5.7281109 8.4986448,5.8255035 8.4023179,6.0678699 8.2688926,6.1228598 8.0210997,6.2249608 7.5732675,6.137803 7.3050792,6.137803 L 8.1972243,5.2456589 C 8.333945,5.108938 8.4741354,4.9190102 8.6432959,4.8228321 8.904818,4.6741658 9.3383017,4.7111396 9.634568,4.5997216 10.45383,4.2916587 11.146011,3.7048009 11.609208,2.9657329 11.873085,2.5446901 12.069134,2.0509223 12.11275,1.5531702 12.126503,1.396286 12.194406,1.1650918 12.057536,1.0434998 11.922103,0.92320403 11.654063,0.99330172 11.493204,1.0149689 10.943247,1.0890539 10.407117,1.3153615 9.9567317,1.6381293 9.3081177,2.1029421 8.7806624,2.75541 8.5117542,3.5109321 8.4079924,3.8025148 8.4384003,4.2167431 8.2966487,4.4774225 8.1702861,4.7098018 7.8878724,4.9106831 7.7015877,5.0969685 l -1.263872,1.2638712 c 0,-0.3456558 -0.09774,-0.8631501 0.014597,-1.1895265 C 6.5162496,4.9855494 6.7143549,4.8179997 6.8207434,4.6508952 6.9933487,4.3797831 7.1263529,4.0683492 7.2122711,3.7587505 7.4528529,2.8916355 7.4019758,1.9385818 7.0569632,1.1070969 6.9301303,0.80138408 6.7554434,0.51224427 6.5355794,0.26453504 6.4529066,0.17139382 6.3557626,0.03811534 6.2146796,0.04974004 6.0945621,0.05963957 5.9961288,0.18118325 5.9216099,0.26451576 5.7014235,0.5106834 5.5373928,0.80664536 5.4045376,1.1070969 c -0.4015644,0.908085 -0.4113285,2.053148 -0.046069,2.9738168 0.09256,0.233296 0.2032603,0.4625033 0.3465735,0.6691095 0.08857,0.1276752 0.2320321,0.252898 0.2901206,0.3965087 0.051967,0.1284684 0.021263,0.3096982 0.021263,0.4460724 0,0.3323235 0.099846,0.8533616 -0.014943,1.1647443 C 5.9450779,6.9102775 5.7573809,7.041175 5.644698,7.1538584 L 4.8516802,7.9468763 M 6.2394613,0.58667886 C 7.2665182,1.7737104 7.0284391,3.4731151 6.2642432,4.7004587 5.9587827,4.551521 5.7794119,4.0169273 5.6907922,3.7091871 5.4669381,2.931707 5.4775695,2.0855346 5.7835752,1.330133 5.8863949,1.0763184 6.0236366,0.76238475 6.2394613,0.58667886 M 11.691459,1.429261 C 11.62891,2.8857868 10.187872,4.2414008 8.7672047,4.3535143 8.8795654,2.9297249 10.234487,1.4918275 11.691459,1.429261 M 4.5542986,5.1315382 C 4.7691816,5.0832391 4.915642,5.2669465 4.9919948,5.4439128 5.1277743,5.758568 5.105099,6.4544166 4.6782077,6.5454899 4.4831253,6.5871233 4.3255625,6.3982357 4.2592464,6.2369315 4.1317192,5.926762 4.1276301,5.2274691 4.5542986,5.1315382 M 9.4610962,5.9075811 C 9.7283925,5.9112197 10.3012,6.0793934 10.138457,6.4599426 10.021933,6.7323935 9.6451998,6.7881774 9.3867502,6.7817589 9.1459951,6.7757879 8.6835166,6.6297969 8.7331552,6.3112763 8.7819292,5.9983317 9.1989541,5.904012 9.4610962,5.9075811 M 2.6460994,7.039812 C 2.8541179,6.9947834 3.0032548,7.1800025 3.0732635,7.3521123 3.1997002,7.6630003 3.1954873,8.3654156 2.7700084,8.4574301 2.5619653,8.502409 2.4128531,8.3172885 2.3428471,8.1451301 2.2177311,7.8374891 2.2235474,7.1313064 2.6460994,7.039812 M 9.65935,9.7807297 C 8.7529561,10.431822 7.6374765,10.619916 6.5616249,10.31158 6.2481102,10.221744 5.6976816,10.043143 5.5455708,9.7311646 6.4396978,9.0907536 7.5601582,8.9035764 8.6185149,9.210772 8.9675909,9.3120831 9.431754,9.4840165 9.65935,9.7807297 M 4.4056077,10.931967 c 0.2548561,-0.0059 0.6856382,0.105596 0.7259334,0.410015 0.042452,0.320702 -0.4053312,0.464387 -0.651588,0.470484 -0.2679904,0.0066 -0.6898511,-0.06049 -0.772102,-0.371356 -0.094989,-0.359063 0.4437183,-0.503243 0.6977566,-0.509143 z"
       id="path2051" />
  </g>
</svg>
