<?xml version="1.0" encoding="UTF-8" standalone="no"?>
<!-- Created with Inkscape (http://www.inkscape.org/) -->

<svg
   width="48"
   height="48"
   viewBox="0 0 12.7 12.7"
   version="1.1"
   id="svg1918"
   sodipodi:docname="Maslina_0.svg"
   inkscape:version="1.1.2 (b8e25be833, 2022-02-05)"
   xmlns:inkscape="http://www.inkscape.org/namespaces/inkscape"
   xmlns:sodipodi="http://sodipodi.sourceforge.net/DTD/sodipodi-0.dtd"
   xmlns="http://www.w3.org/2000/svg"
   xmlns:svg="http://www.w3.org/2000/svg">
  <sodipodi:namedview
     id="namedview1920"
     pagecolor="#ffffff"
     bordercolor="#666666"
     borderopacity="1.0"
     inkscape:pageshadow="2"
     inkscape:pageopacity="0.0"
     inkscape:pagecheckerboard="0"
     inkscape:document-units="mm"
     showgrid="false"
     inkscape:zoom="5.908137"
     inkscape:cx="14.471567"
     inkscape:cy="45.107282"
     inkscape:window-width="1746"
     inkscape:window-height="1051"
     inkscape:window-x="165"
     inkscape:window-y="-9"
     inkscape:window-maximized="1"
     inkscape:current-layer="layer1"
     units="px" />
  <defs
     id="defs1915">
    <inkscape:path-effect
       effect="fill_between_many"
       method="originald"
       linkedpaths="#path2051,0,1"
       id="path-effect2178"
       is_visible="true"
       lpeversion="0"
       join="true"
       close="true"
       autoreverse="true"
       applied="false" />
  </defs>
  <g
     inkscape:label="Layer 1"
     inkscape:groupmode="layer"
     id="layer1">
    <path
       inkscape:original-d="M 0,0"
       inkscape:path-effect="#path-effect2178"
       d="m 5.0633569,7.8905369 c 0,-0.259031 -0.083204,-0.6873797 0.014752,-0.9270829 C 5.1299982,6.8364837 5.3291149,6.7738048 5.4176519,6.6663573 5.686737,6.3398536 5.7551397,5.8727288 5.6645721,5.4685508 5.5098831,4.7782114 4.718383,4.3433543 4.2196984,5.0038222 4.1430511,5.1053015 4.0834311,5.2245901 4.0465876,5.3462281 3.9217207,5.758577 3.9627232,6.2664846 4.2257167,6.6183582 c 0.095069,0.1272153 0.3499403,0.2192993 0.3894994,0.3680436 0.076329,0.2870416 0.00778,0.6802111 0.00778,0.9775281 0,0.111754 0.026226,0.264193 -0.025149,0.366968 -0.092231,0.184462 -0.3194086,0.344558 -0.4641406,0.48929 l -0.9785803,0.97858 c 0,-0.259226 -0.088513,-0.711526 0.014752,-0.948904 0.054703,-0.125748 0.2734398,-0.187007 0.3640074,-0.299153 0.27158,-0.336191 0.3292429,-0.81232 0.2296479,-1.2228577 C 3.727326,7.1786684 3.6712533,7.0371653 3.5809304,6.9119811 3.0716527,6.2061304 2.223346,6.695959 2.1104007,7.4257109 c -0.061396,0.396692 -0.0019,0.83671 0.2732245,1.147629 0.089026,0.100599 0.2612198,0.147791 0.3304544,0.256389 0.056611,0.08878 0.02515,0.256363 0.02515,0.357427 0,0.287775 0.084794,0.733029 -0.014752,1.0030441 -0.071021,0.192584 -0.3317045,0.370931 -0.474538,0.513755 l -1.1498318,1.149831 c -0.13374015,0.133748 -0.55729415,0.431016 -0.39771715,0.657288 0.2269915,0.321855 0.69026125,-0.313757 0.83807825,-0.461572 0.1656295,-0.165624 0.3519732,-0.43219 0.5626836,-0.537534 0.0971,-0.04856 0.237039,-0.02515 0.3425031,-0.02515 0.2845222,0 0.7618247,-0.09277 1.0249405,0.01475 0.1450011,0.05928 0.23185,0.302626 0.3695363,0.400092 0.4370585,0.309354 1.1207435,0.317158 1.5657284,0.01671 0.466636,-0.31503 0.472483,-0.935988 0.024464,-1.269194 -0.3536345,-0.263018 -0.8623494,-0.294993 -1.2721543,-0.164695 -0.1889394,0.06006 -0.353561,0.167973 -0.4846908,0.317427 -0.062703,0.07146 -0.098837,0.194468 -0.1813309,0.243861 -0.2082908,0.124745 -0.730926,0.02515 -0.9731002,0.02515 L 3.3263773,10.263591 C 3.4376174,10.15235 3.5668389,9.9670559 3.7178094,9.9113749 c 0.3073965,-0.11332 0.8217627,-0.01475 1.1498318,-0.01475 0.134726,0 0.3134148,-0.03019 0.4403611,0.02099 0.1499184,0.06045 0.2821981,0.2081451 0.4158966,0.2997881 0.2100277,0.143949 0.4458166,0.260328 0.6850062,0.347225 0.9790935,0.355689 2.0883628,0.300987 3.0335978,-0.130493 0.254284,-0.11606 0.502428,-0.280755 0.7094471,-0.4683001 0.08169,-0.07398 0.188205,-0.168952 0.185881,-0.289391 -0.0025,-0.129173 -0.124158,-0.214945 -0.210346,-0.293549 -0.2202791,-0.200976 -0.4858411,-0.36249 -0.7583761,-0.482367 -0.82345,-0.362172 -1.7980177,-0.437254 -2.6666296,-0.192193 -0.3358734,0.09478 -0.6604195,0.233318 -0.9541159,0.422502 -0.1509216,0.09722 -0.2964609,0.275152 -0.4648256,0.335213 -0.3179652,0.113466 -0.8361724,0.01468 -1.1742963,0.01468 L 6.1397953,7.4501749 C 6.4094187,7.1805516 6.72824,6.7162646 7.0694463,6.5456738 c 0.2514956,-0.1257478 0.7715366,-0.02515 1.0519736,-0.02515 0.09906,0 0.248608,-0.027107 0.337292,0.02515 0.122323,0.072048 0.183728,0.2602529 0.298883,0.3548333 0.305635,0.2510541 0.744577,0.3121912 1.125269,0.2447427 C 10.183264,7.0920398 10.485939,6.9388918 10.642365,6.6673109 10.935058,6.1591105 10.507957,5.6210129 10.005187,5.4988619 9.5987579,5.400123 9.1186669,5.4265446 8.7819619,5.7001804 8.6636269,5.7963256 8.5685339,6.0355892 8.4368169,6.0898751 8.1921959,6.1906688 7.7500979,6.1046273 7.4853433,6.1046273 L 8.3660649,5.2239054 C 8.5010359,5.088935 8.6394319,4.901439 8.8064259,4.8064924 9.0645999,4.6597295 9.4925339,4.69623 9.7850059,4.5862385 10.593778,4.28212 11.277097,3.7027762 11.734363,2.973171 11.994861,2.5575191 12.1884,2.0700734 12.231458,1.5786944 12.245035,1.4238189 12.312068,1.1955849 12.176951,1.0755497 12.043252,0.95679415 11.778644,1.0259944 11.619844,1.0473841 11.076928,1.1205205 10.547663,1.3439306 10.103045,1.6625657 9.4627349,2.1214272 8.9420329,2.765541 8.6765679,3.5113897 8.5741359,3.7992389 8.6041539,4.2081636 8.4642169,4.4655053 8.3394719,4.6949094 8.0606749,4.8932185 7.8767749,5.0771188 L 6.6290854,6.3248077 c 0,-0.3412301 -0.096488,-0.8520985 0.01441,-1.1742961 C 6.7066138,4.9671263 6.9021825,4.8017218 7.0072089,4.6367569 7.1776042,4.369116 7.3089054,4.0616697 7.3937236,3.7560351 7.6312249,2.9000223 7.5809994,1.9591713 7.2404042,1.1383326 7.1151952,0.83653395 6.942745,0.55109625 6.725696,0.30655865 6.6440817,0.21460995 6.5481816,0.08303795 6.408905,0.09451375 6.2903255,0.10428655 6.1931525,0.22427405 6.1195877,0.30653955 5.9022205,0.54955535 5.74029,0.84172795 5.6091358,1.1383326 5.212713,2.0347906 5.2030739,3.1651925 5.5636563,4.0740733 c 0.091375,0.2303089 0.2006579,0.4565815 0.3421361,0.6605423 0.087436,0.1260406 0.2290611,0.2496601 0.2864059,0.3914321 0.051302,0.1268234 0.020991,0.3057328 0.020991,0.4403609 0,0.3280685 0.098567,0.8424354 -0.014752,1.1498312 -0.055681,0.1509707 -0.2409754,0.2801923 -0.3522155,0.391433 L 5.0633571,7.8905369 Z"
       id="path2180"
       style="fill:#808080" />
    <path
       style="fill:#000000;stroke:none;stroke-width:0.0244645"
       d="m 5.0633569,7.8905369 c 0,-0.259031 -0.083204,-0.6873797 0.014752,-0.9270829 C 5.1299982,6.8364837 5.3291149,6.7738048 5.4176519,6.6663573 5.686737,6.3398536 5.7551397,5.8727288 5.6645721,5.4685508 5.5098831,4.7782114 4.718383,4.3433543 4.2196984,5.0038222 4.1430511,5.1053015 4.0834311,5.2245901 4.0465876,5.3462281 3.9217207,5.758577 3.9627232,6.2664846 4.2257167,6.6183582 c 0.095069,0.1272153 0.3499403,0.2192993 0.3894994,0.3680436 0.076329,0.2870416 0.00778,0.6802111 0.00778,0.9775281 0,0.111754 0.026226,0.264193 -0.025149,0.366968 -0.092231,0.184462 -0.3194086,0.344558 -0.4641406,0.48929 l -0.9785803,0.97858 c 0,-0.259226 -0.088513,-0.711526 0.014752,-0.948904 0.054703,-0.125748 0.2734398,-0.187007 0.3640074,-0.299153 0.27158,-0.336191 0.3292429,-0.81232 0.2296479,-1.2228577 C 3.727326,7.1786684 3.6712533,7.0371653 3.5809304,6.9119811 3.0716527,6.2061304 2.223346,6.695959 2.1104007,7.4257109 c -0.061396,0.396692 -0.0019,0.83671 0.2732245,1.147629 0.089026,0.100599 0.2612198,0.147791 0.3304544,0.256389 0.056611,0.08878 0.02515,0.256363 0.02515,0.357427 0,0.287775 0.084794,0.733029 -0.014752,1.0030441 -0.071021,0.192584 -0.3317045,0.370931 -0.474538,0.513755 l -1.1498318,1.149831 c -0.13374015,0.133748 -0.55729415,0.431016 -0.39771715,0.657288 0.2269915,0.321855 0.69026125,-0.313757 0.83807825,-0.461572 0.1656295,-0.165624 0.3519732,-0.43219 0.5626836,-0.537534 0.0971,-0.04856 0.237039,-0.02515 0.3425031,-0.02515 0.2845222,0 0.7618247,-0.09277 1.0249405,0.01475 0.1450011,0.05928 0.23185,0.302626 0.3695363,0.400092 0.4370585,0.309354 1.1207435,0.317158 1.5657284,0.01671 0.466636,-0.31503 0.472483,-0.935988 0.024464,-1.269194 -0.3536345,-0.263018 -0.8623494,-0.294993 -1.2721543,-0.164695 -0.1889394,0.06006 -0.353561,0.167973 -0.4846908,0.317427 -0.062703,0.07146 -0.098837,0.194468 -0.1813309,0.243861 -0.2082908,0.124745 -0.730926,0.02515 -0.9731002,0.02515 L 3.3263773,10.263591 C 3.4376174,10.15235 3.5668389,9.9670559 3.7178094,9.9113749 c 0.3073965,-0.11332 0.8217627,-0.01475 1.1498318,-0.01475 0.134726,0 0.3134148,-0.03019 0.4403611,0.02099 0.1499184,0.06045 0.2821981,0.2081451 0.4158966,0.2997881 0.2100277,0.143949 0.4458166,0.260328 0.6850062,0.347225 0.9790935,0.355689 2.0883628,0.300987 3.0335978,-0.130493 0.254284,-0.11606 0.502428,-0.280755 0.7094471,-0.4683001 0.08169,-0.07398 0.188205,-0.168952 0.185881,-0.289391 -0.0025,-0.129173 -0.124158,-0.214945 -0.210346,-0.293549 -0.2202791,-0.200976 -0.4858411,-0.36249 -0.7583761,-0.482367 -0.82345,-0.362172 -1.7980177,-0.437254 -2.6666296,-0.192193 -0.3358734,0.09478 -0.6604195,0.233318 -0.9541159,0.422502 -0.1509216,0.09722 -0.2964609,0.275152 -0.4648256,0.335213 -0.3179652,0.113466 -0.8361724,0.01468 -1.1742963,0.01468 L 6.1397953,7.4501749 C 6.4094187,7.1805516 6.72824,6.7162646 7.0694463,6.5456738 c 0.2514956,-0.1257478 0.7715366,-0.02515 1.0519736,-0.02515 0.09906,0 0.248608,-0.027107 0.337292,0.02515 0.122323,0.072048 0.183728,0.2602529 0.298883,0.3548333 0.305635,0.2510541 0.744577,0.3121912 1.125269,0.2447427 C 10.183264,7.0920398 10.485939,6.9388918 10.642365,6.6673109 10.935058,6.1591105 10.507957,5.6210129 10.005187,5.4988619 9.5987579,5.400123 9.1186669,5.4265446 8.7819619,5.7001804 8.6636269,5.7963256 8.5685339,6.0355892 8.4368169,6.0898751 8.1921959,6.1906688 7.7500979,6.1046273 7.4853433,6.1046273 L 8.3660649,5.2239054 C 8.5010359,5.088935 8.6394319,4.901439 8.8064259,4.8064924 9.0645999,4.6597295 9.4925339,4.69623 9.7850059,4.5862385 10.593778,4.28212 11.277097,3.7027762 11.734363,2.973171 11.994861,2.5575191 12.1884,2.0700734 12.231458,1.5786944 12.245035,1.4238189 12.312068,1.1955849 12.176951,1.0755497 12.043252,0.95679415 11.778644,1.0259944 11.619844,1.0473841 11.076928,1.1205205 10.547663,1.3439306 10.103045,1.6625657 9.4627349,2.1214272 8.9420329,2.765541 8.6765679,3.5113897 8.5741359,3.7992389 8.6041539,4.2081636 8.4642169,4.4655053 8.3394719,4.6949094 8.0606749,4.8932185 7.8767749,5.0771188 L 6.6290854,6.3248077 c 0,-0.3412301 -0.096488,-0.8520985 0.01441,-1.1742961 C 6.7066138,4.9671263 6.9021825,4.8017218 7.0072089,4.6367569 7.1776042,4.369116 7.3089054,4.0616697 7.3937236,3.7560351 7.6312249,2.9000223 7.5809994,1.9591713 7.2404042,1.1383326 7.1151952,0.83653395 6.942745,0.55109625 6.725696,0.30655865 6.6440817,0.21460995 6.5481816,0.08303795 6.408905,0.09451375 6.2903255,0.10428655 6.1931525,0.22427405 6.1195877,0.30653955 5.9022205,0.54955535 5.74029,0.84172795 5.6091358,1.1383326 5.212713,2.0347906 5.2030739,3.1651925 5.5636563,4.0740733 c 0.091375,0.2303089 0.2006579,0.4565815 0.3421361,0.6605423 0.087436,0.1260406 0.2290611,0.2496601 0.2864059,0.3914321 0.051302,0.1268234 0.020991,0.3057328 0.020991,0.4403609 0,0.3280685 0.098567,0.8424354 -0.014752,1.1498312 -0.055681,0.1509707 -0.2409754,0.2801923 -0.3522155,0.391433 L 5.0633571,7.8905369 M 6.4333694,0.62457775 C 7.4472762,1.796411 7.2122453,3.4740568 6.4578339,4.6856858 6.1562845,4.538655 5.9792103,4.0109062 5.8917253,3.7071062 5.6707374,2.9395807 5.6812327,2.1042425 5.9833204,1.358513 6.0848236,1.1079481 6.2203081,0.79803395 6.4333694,0.62457775 M 11.815561,1.4563717 C 11.753811,2.8942486 10.331226,4.2325055 8.9287489,4.3431836 9.0396709,2.9376241 10.377243,1.5181372 11.815561,1.4563717 M 4.769783,5.1112459 C 4.9819148,5.0635652 5.1265,5.2449205 5.2018752,5.419621 5.3359162,5.7302474 5.3135312,6.4171865 4.8921056,6.5070936 4.699521,6.548194 4.5439756,6.3617249 4.4785086,6.202486 4.3526142,5.8962878 4.3485776,5.2059484 4.769783,5.1112459 m 4.8439719,0.7661066 c 0.263874,0.00359 0.8293471,0.1696124 0.6686891,0.5452892 C 10.167412,6.6916042 9.7955019,6.7466738 9.5403609,6.7403376 9.3026889,6.7344476 8.8461319,6.5903213 8.8951339,6.2758788 8.9432839,5.9669412 9.3549689,5.8738292 9.6137549,5.8773525 M 2.8860161,6.9950866 C 3.0913711,6.9506346 3.2385985,7.1334822 3.3077107,7.3033883 3.4325286,7.6102958 3.4283697,8.3037169 3.0083386,8.3945539 2.8029591,8.4389569 2.6557562,8.2562069 2.5866464,8.0862519 2.4631325,7.7825509 2.4688743,7.0854096 2.8860161,6.9950866 M 9.8094699,9.7009099 C 8.9146819,10.343666 7.8134849,10.529351 6.7514081,10.224964 6.4419076,10.136284 5.8985264,9.9599639 5.7483633,9.6519799 c 0.8826788,-0.632211 1.9887936,-0.816992 3.0335986,-0.513729 0.344607,0.10001 0.802827,0.269746 1.027508,0.562659 M 4.622996,10.837408 c 0.2515929,-0.0058 0.6768595,0.104244 0.7166388,0.404765 0.041908,0.316596 -0.4001415,0.458441 -0.6432453,0.464459 -0.2645591,0.0066 -0.6810184,-0.05972 -0.7622162,-0.3666 -0.093772,-0.354466 0.4380371,-0.496801 0.6888227,-0.502624 z"
       id="path2051" />
  </g>
</svg>
