<?xml version="1.0" encoding="UTF-8" standalone="no"?>
<!-- Created with Inkscape (http://www.inkscape.org/) -->

<svg
   width="48"
   height="48"
   viewBox="0 0 12.7 12.7"
   version="1.1"
   id="svg6204"
   inkscape:version="1.1.2 (b8e25be833, 2022-02-05)"
   sodipodi:docname="Orah_0.svg"
   xmlns:inkscape="http://www.inkscape.org/namespaces/inkscape"
   xmlns:sodipodi="http://sodipodi.sourceforge.net/DTD/sodipodi-0.dtd"
   xmlns="http://www.w3.org/2000/svg"
   xmlns:svg="http://www.w3.org/2000/svg">
  <sodipodi:namedview
     id="namedview6206"
     pagecolor="#ffffff"
     bordercolor="#666666"
     borderopacity="1.0"
     inkscape:pageshadow="2"
     inkscape:pageopacity="0.0"
     inkscape:pagecheckerboard="0"
     inkscape:document-units="mm"
     showgrid="false"
     inkscape:zoom="5.908137"
     inkscape:cx="50.015767"
     inkscape:cy="48.153928"
     inkscape:window-width="1746"
     inkscape:window-height="1051"
     inkscape:window-x="165"
     inkscape:window-y="-9"
     inkscape:window-maximized="1"
     inkscape:current-layer="layer1"
     units="px" />
  <defs
     id="defs6201">
    <inkscape:path-effect
       effect="fill_between_many"
       method="originald"
       linkedpaths="#path6318,0,1"
       id="path-effect6485"
       is_visible="true"
       lpeversion="0"
       join="true"
       close="true"
       autoreverse="true"
       applied="false" />
  </defs>
  <g
     inkscape:label="Layer 1"
     inkscape:groupmode="layer"
     id="layer1">
    <path
       inkscape:original-d="M 0,0"
       inkscape:path-effect="#path-effect6485"
       d="M 6.154277,5.5350155 V 7.2249642 L 5.5419767,6.8820754 C 5.647929,6.4370065 5.5044808,5.907783 5.3030324,5.5105231 4.810254,4.538705 3.5963567,3.674039 2.4804757,3.6736229 2.000171,3.6734374 1.5461091,3.7700231 1.1334157,4.0269203 0.99527941,4.1129136 0.82466082,4.2083567 0.74923482,4.3593995 0.59123216,4.6757862 0.67341955,5.184045 0.75695072,5.5105231 1.0876986,6.8029172 2.5265292,7.6334416 3.8030303,7.6893567 4.1623279,7.7050746 4.5245904,7.6501963 4.8561871,7.5084101 5.0114657,7.44201 5.1629246,7.3086531 5.3215359,7.26175 5.490848,7.211718 5.863175,7.5133561 6.0071885,7.602141 c 0.06184,0.038137 0.1398252,0.079578 0.1398252,0.1626747 0,0.1974794 -0.4157026,0.3944188 -0.556067,0.4978986 C 5.5281704,8.3089751 5.4545754,8.3786592 5.3705189,8.3703564 5.2719399,8.3606031 5.1698074,8.2801531 5.0766149,8.2461581 4.8564775,8.1658953 4.6256402,8.1004792 4.3908599,8.0843876 3.2365025,8.0052519 1.9477722,8.6994559 1.3397737,9.6741637 1.0627632,10.118252 0.98564493,10.580784 0.98647114,11.094701 c 3.2424e-4,0.201177 0.0172871,0.490255 0.13965786,0.659005 0.2767651,0.381659 1.0612585,0.534734 1.501306,0.515655 0.9796061,-0.04251 1.8387365,-0.62675 2.4428077,-1.370598 C 5.3636075,10.537532 5.607965,10.069097 5.6603534,9.6006875 5.6794091,9.4303454 5.7011783,9.2580449 5.6847755,9.0863557 5.6750916,8.9847346 5.6198232,8.8412396 5.666084,8.7444223 5.7435985,8.5822369 6.0113967,8.4542421 6.1542831,8.3515955 v 3.3064205 c 0,0.257582 -0.023148,0.527435 0.0026,0.78372 0.01075,0.107152 0.073526,0.209994 0.193364,0.209994 0.1198393,0 0.1826121,-0.102839 0.1933649,-0.209994 0.025723,-0.256285 0.0026,-0.526138 0.0026,-0.78372 V 8.3515955 c 0.139898,0.1004957 0.4031621,0.2246412 0.4888103,0.3753403 0.086106,0.1515066 -0.038328,0.5176878 -0.016481,0.7023077 0.064241,0.5426934 0.2652728,1.0429185 0.6117117,1.4695195 0.6034826,0.743113 1.4635935,1.32928 2.442808,1.370598 0.439239,0.01853 1.225261,-0.135 1.50131,-0.515655 0.122362,-0.16875 0.139335,-0.457828 0.139654,-0.659005 8.25e-4,-0.513917 -0.07629,-0.976449 -0.353299,-1.4205373 C 10.752714,8.6994559 9.4639961,8.0052545 8.3096395,8.0843876 8.0748584,8.100487 7.844022,8.1658988 7.6238621,8.2461581 7.5306687,8.2801514 7.4285396,8.3606083 7.3299589,8.3703564 7.2458989,8.3786792 7.1723039,8.3089759 7.1095312,8.2627143 6.9705634,8.1602913 6.553465,7.9590129 6.553465,7.7648157 6.553465,7.6817177 6.631448,7.640274 6.6932893,7.602141 6.8373028,7.513354 7.2096298,7.2117136 7.3789437,7.26175 7.5375532,7.308652 7.6890121,7.4419874 7.8442907,7.5084101 8.1781415,7.6511734 8.5356514,7.7051787 8.8974476,7.6893567 10.17353,7.6334637 11.612923,6.8023294 11.943516,5.5105231 12.026696,5.1856125 12.108396,4.6740723 11.951216,4.3593995 11.875807,4.2084547 11.705173,4.1127645 11.567015,4.0269203 11.154152,3.7704393 10.699973,3.6734278 10.219955,3.6736229 9.1079938,3.6740815 7.8840779,4.5370153 7.3973249,5.5105231 7.1963689,5.9124377 7.0513515,6.4321819 7.1584543,6.8820754 L 6.546154,7.2249642 V 5.5350155 C 6.9963666,5.4547094 7.4187803,4.9740996 7.6432975,4.6043188 8.2371664,3.6261337 8.3356976,2.0773566 7.6885699,1.1019631 7.4300091,0.71222841 6.8667663,0.13078732 6.3502298,0.13078732 c -0.5142581,0 -1.0810034,0.58328077 -1.3383401,0.97117578 -0.6474468,0.975866 -0.548867,2.5237284 0.045264,3.5023557 0.2252776,0.3710292 0.6453644,0.8501175 1.0971436,0.9306967 z"
       id="path6487"
       style="fill:#808080" />
    <path
       style="fill:#000000;stroke:none;stroke-width:0.0244919"
       d="M 6.154277,5.5350155 V 7.2249642 L 5.5419767,6.8820754 C 5.647929,6.4370065 5.5044808,5.907783 5.3030324,5.5105231 4.810254,4.538705 3.5963567,3.674039 2.4804757,3.6736229 2.000171,3.6734374 1.5461091,3.7700231 1.1334157,4.0269203 0.99527941,4.1129136 0.82466082,4.2083567 0.74923482,4.3593995 0.59123216,4.6757862 0.67341955,5.184045 0.75695072,5.5105231 1.0876986,6.8029172 2.5265292,7.6334416 3.8030303,7.6893567 4.1623279,7.7050746 4.5245904,7.6501963 4.8561871,7.5084101 5.0114657,7.44201 5.1629246,7.3086531 5.3215359,7.26175 5.490848,7.211718 5.863175,7.5133561 6.0071885,7.602141 c 0.06184,0.038137 0.1398252,0.079578 0.1398252,0.1626747 0,0.1974794 -0.4157026,0.3944188 -0.556067,0.4978986 C 5.5281704,8.3089751 5.4545754,8.3786592 5.3705189,8.3703564 5.2719399,8.3606031 5.1698074,8.2801531 5.0766149,8.2461581 4.8564775,8.1658953 4.6256402,8.1004792 4.3908599,8.0843876 3.2365025,8.0052519 1.9477722,8.6994559 1.3397737,9.6741637 1.0627632,10.118252 0.98564493,10.580784 0.98647114,11.094701 c 3.2424e-4,0.201177 0.0172871,0.490255 0.13965786,0.659005 0.2767651,0.381659 1.0612585,0.534734 1.501306,0.515655 0.9796061,-0.04251 1.8387365,-0.62675 2.4428077,-1.370598 C 5.3636075,10.537532 5.607965,10.069097 5.6603534,9.6006875 5.6794091,9.4303454 5.7011783,9.2580449 5.6847755,9.0863557 5.6750916,8.9847346 5.6198232,8.8412396 5.666084,8.7444223 5.7435985,8.5822369 6.0113967,8.4542421 6.1542831,8.3515955 v 3.3064205 c 0,0.257582 -0.023148,0.527435 0.0026,0.78372 0.01075,0.107152 0.073526,0.209994 0.193364,0.209994 0.1198393,0 0.1826121,-0.102839 0.1933649,-0.209994 0.025723,-0.256285 0.0026,-0.526138 0.0026,-0.78372 V 8.3515955 c 0.139898,0.1004957 0.4031621,0.2246412 0.4888103,0.3753403 0.086106,0.1515066 -0.038328,0.5176878 -0.016481,0.7023077 0.064241,0.5426934 0.2652728,1.0429185 0.6117117,1.4695195 0.6034826,0.743113 1.4635935,1.32928 2.442808,1.370598 0.439239,0.01853 1.225261,-0.135 1.50131,-0.515655 0.122362,-0.16875 0.139335,-0.457828 0.139654,-0.659005 8.25e-4,-0.513917 -0.07629,-0.976449 -0.353299,-1.4205373 C 10.752714,8.6994559 9.4639961,8.0052545 8.3096395,8.0843876 8.0748584,8.100487 7.844022,8.1658988 7.6238621,8.2461581 7.5306687,8.2801514 7.4285396,8.3606083 7.3299589,8.3703564 7.2458989,8.3786792 7.1723039,8.3089759 7.1095312,8.2627143 6.9705634,8.1602913 6.553465,7.9590129 6.553465,7.7648157 6.553465,7.6817177 6.631448,7.640274 6.6932893,7.602141 6.8373028,7.513354 7.2096298,7.2117136 7.3789437,7.26175 7.5375532,7.308652 7.6890121,7.4419874 7.8442907,7.5084101 8.1781415,7.6511734 8.5356514,7.7051787 8.8974476,7.6893567 10.17353,7.6334637 11.612923,6.8023294 11.943516,5.5105231 12.026696,5.1856125 12.108396,4.6740723 11.951216,4.3593995 11.875807,4.2084547 11.705173,4.1127645 11.567015,4.0269203 11.154152,3.7704393 10.699973,3.6734278 10.219955,3.6736229 9.1079938,3.6740815 7.8840779,4.5370153 7.3973249,5.5105231 7.1963689,5.9124377 7.0513515,6.4321819 7.1584543,6.8820754 L 6.546154,7.2249642 V 5.5350155 C 6.9963666,5.4547094 7.4187803,4.9740996 7.6432975,4.6043188 8.2371664,3.6261337 8.3356976,2.0773566 7.6885699,1.1019631 7.4300091,0.71222841 6.8667663,0.13078732 6.3502298,0.13078732 c -0.5142581,0 -1.0810034,0.58328077 -1.3383401,0.97117578 -0.6474468,0.975866 -0.548867,2.5237284 0.045264,3.5023557 0.2252776,0.3710292 0.6453644,0.8501175 1.0971436,0.9306967 M 6.5461644,5.1186514 V 4.0654955 c 0,-0.144577 -0.037817,-0.3527105 0.014773,-0.4888849 C 6.6636308,3.3107734 7.0958419,3.2078579 7.2648367,2.9835852 7.3560716,2.8625461 7.276688,2.6663896 7.1094592,2.6905872 6.9098253,2.7194395 6.7135223,2.9571093 6.5461687,3.0613225 c 0,-0.3509453 0.00468,-0.7022461 -1.023e-4,-1.0531559 -0.00165,-0.1226092 -0.037617,-0.2990815 -0.1958375,-0.2990815 -0.1582185,0 -0.1941729,0.1764723 -0.1958383,0.2990815 -0.00477,0.3509098 -1.014e-4,0.7022106 -1.014e-4,1.0531559 C 5.9869347,2.9571093 5.7906325,2.7194395 5.5909978,2.6905872 5.4237907,2.6664165 5.3443628,2.8625461 5.4356203,2.9835852 c 0.1704148,0.2260613 0.6008869,0.3200367 0.7039003,0.5924376 0.051948,0.1374246 0.014773,0.343916 0.014773,0.4894727 V 5.1186514 C 4.9698935,4.6074779 4.7424607,2.7342566 5.1517227,1.6652787 5.3028131,1.2706119 5.5822433,0.94739876 5.9338744,0.71853811 c 0.1132018,-0.0736826 0.27573,-0.18582586 0.4163641,-0.18582586 0.1343876,0 0.2822694,0.10486695 0.3918717,0.17282326 C 7.0925666,0.92283097 7.3804218,1.2581529 7.5355531,1.6407872 7.9684986,2.7087118 7.7346243,4.6057397 6.5461748,5.1186514 M 5.1746155,6.6616468 C 4.8949911,6.5411712 4.6283711,6.3612536 4.3663797,6.2060235 4.2578317,6.1416867 4.096356,6.0824849 4.0137681,5.9854223 3.8374501,5.7781957 3.9667444,5.320196 3.8587096,5.0707452 3.7867783,4.9046157 3.5614496,4.9204125 3.5107024,5.094283 3.4561535,5.2811562 3.5541542,5.5376372 3.5581422,5.7309518 3.2642391,5.5937231 3.0030808,5.3671963 2.7009225,5.250394 2.5787078,5.2031536 2.4208517,5.2910022 2.4447953,5.4369507 2.4649086,5.5595816 2.6051101,5.623432 2.7009225,5.6782946 2.9173094,5.8021505 3.1712425,5.9139566 3.3622076,6.0738405 3.1914729,6.1648518 2.9182648,6.210334 2.7850285,6.3529022 2.6726589,6.4731091 2.7678628,6.6705877 2.9317356,6.6614032 3.2218432,6.6451391 3.5119508,6.2992403 3.8030632,6.3361006 3.9347564,6.3527809 4.0822957,6.4733042 4.1949349,6.5394572 4.447154,6.6875852 4.7047117,6.827361 4.9541877,6.980044 V 7.029027 C 3.8645624,7.6648878 2.2961141,7.1002214 1.5285957,6.1962989 1.2378223,5.8538505 1.0621511,5.3978588 1.0599777,4.9472066 1.0593665,4.8201421 1.0420837,4.6494317 1.1092641,4.5351036 1.3561635,4.1149432 2.1547665,4.0293434 2.5784633,4.0633879 3.8651511,4.1668183 5.1746155,5.3391278 5.1746155,6.6616459 M 7.7462762,7.029027 V 6.980044 C 8.0063811,6.826651 8.2688129,6.6766859 8.5300214,6.5250805 8.6366578,6.4632145 8.7729805,6.3518732 8.8973999,6.3361006 9.1765613,6.3007549 9.4783997,6.6226572 9.7546195,6.6587824 9.9298122,6.6817047 10.04365,6.4831753 9.9163163,6.3529022 9.7778149,6.2111671 9.5117098,6.1663221 9.338258,6.0738405 9.5292215,5.9139566 9.7831536,5.8021505 9.9995414,5.6782946 10.09535,5.6234337 10.235547,5.5595816 10.255679,5.4369507 10.279607,5.2910022 10.121757,5.2031492 9.9995414,5.250394 9.697384,5.3671963 9.4362266,5.5937231 9.1423218,5.7309518 9.1463097,5.5376372 9.2443069,5.2811562 9.1897616,5.094283 9.1390186,4.9204134 8.9136882,4.9046166 8.8417543,5.0707452 8.7336961,5.3202203 8.8630207,5.7781228 8.6866976,5.9854223 8.5982334,6.0894405 8.4265424,6.1535848 8.3095936,6.2207912 8.052745,6.3684043 7.797906,6.5444283 7.5258493,6.6616468 c 0,-1.322519 1.3094644,-2.4948285 2.5961527,-2.5982589 0.419792,-0.033725 1.227489,0.050726 1.468931,0.4717166 0.06361,0.1108758 0.05224,0.2886867 0.0492,0.412103 C 11.629616,5.3778252 11.473807,5.8096436 11.207752,6.147315 10.462757,7.0928289 8.8443257,7.6697878 7.7462753,7.029027 M 5.0276631,8.6454986 v 0.048983 C 4.7801958,8.8628149 4.4168322,9.2674473 4.1214587,9.3165786 3.801618,9.369801 3.3136633,9.0855947 3.0197836,9.2377116 c -0.1458254,0.075486 -0.1445753,0.255256 6.121e-4,0.3306916 0.1617444,0.08406 0.4553554,0.079777 0.6357142,0.081268 -0.1677455,0.2186904 -0.4637319,0.3732118 -0.6857757,0.5351278 -0.094194,0.06867 -0.2542278,0.147173 -0.2786465,0.273478 -0.035511,0.183665 0.1764159,0.241515 0.3031371,0.167819 0.3276789,-0.190572 0.5988539,-0.473087 0.9306967,-0.6580272 -0.027899,0.2196692 -0.1587326,0.5429882 -0.1042869,0.7588852 0.043382,0.172007 0.2512637,0.199413 0.3381118,0.04678 C 4.3442368,10.448773 4.1857974,9.9465647 4.3905756,9.6365457 4.553962,9.3892016 5.0162236,9.1344103 5.2725824,8.9883889 5.3718694,9.3242727 5.2555644,9.7549649 5.1219566,10.066037 4.7511467,10.929307 3.8313502,11.698478 2.896858,11.855889 2.4753407,11.926909 1.8049136,11.873839 1.483143,11.550743 1.38346,11.450642 1.382251,11.275723 1.3642747,11.143686 1.3005277,10.675398 1.4576447,10.179264 1.7218661,9.7966253 2.4268042,8.7757506 3.8510908,8.1916162 5.0276622,8.6455021 m 2.4002159,0.3428876 c 0.2326016,0.132502 0.445779,0.3095794 0.6612842,0.4681889 0.084329,0.062039 0.2013496,0.1192281 0.2412954,0.2218496 0.096058,0.2467564 0.1009856,0.5672088 0.1445276,0.8284658 0.019524,0.11717 0.019376,0.274824 0.1311791,0.345999 0.1193,0.07592 0.2600563,-0.02128 0.2774205,-0.15016 0.030517,-0.226429 -0.07989,-0.508307 -0.108646,-0.7346627 C 9.1130516,10.156487 9.3857204,10.466336 9.7301272,10.63991 9.8643189,10.70753 10.0617,10.60106 10.001939,10.434374 9.8724492,10.073239 9.2406302,9.9740956 9.0443514,9.649673 9.2268655,9.648113 9.5160914,9.651233 9.6807748,9.568405 9.8221432,9.4972709 9.8573884,9.3202265 9.7042867,9.2376888 9.4084962,9.078221 8.9027854,9.3704345 8.5790009,9.3165818 8.2867883,9.2679889 7.9186989,8.8617665 7.6727974,8.6944865 v -0.048983 c 1.1760079,-0.4536658 2.6011986,0.1307383 3.3058076,1.1511251 0.26422,0.3826374 0.421312,0.8787724 0.357583,1.3470614 -0.018,0.132255 -0.01927,0.306687 -0.118884,0.407081 -0.322853,0.325522 -0.990357,0.375118 -1.4137015,0.305145 C 8.8685467,11.701394 7.9491664,10.92899 7.5785047,10.066038 7.4441162,9.7531277 7.3279996,9.3263064 7.4278772,8.9883888 Z"
       id="path6318" />
  </g>
</svg>
