<?xml version="1.0" encoding="UTF-8" standalone="no"?>
<!-- Created with Inkscape (http://www.inkscape.org/) -->

<svg
   width="48"
   height="48"
   viewBox="0 0 12.7 12.7"
   version="1.1"
   id="svg6204"
   inkscape:version="1.1.2 (b8e25be833, 2022-02-05)"
   sodipodi:docname="Orah.svg"
   xmlns:inkscape="http://www.inkscape.org/namespaces/inkscape"
   xmlns:sodipodi="http://sodipodi.sourceforge.net/DTD/sodipodi-0.dtd"
   xmlns="http://www.w3.org/2000/svg"
   xmlns:svg="http://www.w3.org/2000/svg">
  <sodipodi:namedview
     id="namedview6206"
     pagecolor="#ffffff"
     bordercolor="#666666"
     borderopacity="1.0"
     inkscape:pageshadow="2"
     inkscape:pageopacity="0.0"
     inkscape:pagecheckerboard="0"
     inkscape:document-units="mm"
     showgrid="false"
     inkscape:zoom="5.908137"
     inkscape:cx="34.951796"
     inkscape:cy="54.924252"
     inkscape:window-width="1746"
     inkscape:window-height="1051"
     inkscape:window-x="165"
     inkscape:window-y="-9"
     inkscape:window-maximized="1"
     inkscape:current-layer="layer1"
     units="px" />
  <defs
     id="defs6201" />
  <g
     inkscape:label="Layer 1"
     inkscape:groupmode="layer"
     id="layer1">
    <path
       style="fill:#000000;stroke:none;stroke-width:0.0247372"
       d="M 6.0986772,5.5733626 V 7.2802328 L 5.4802459,6.933911 C 5.5872594,6.4843855 5.4423732,5.9498628 5.2389094,5.5486248 4.741196,4.5670756 3.5151437,3.6937518 2.38809,3.6933311 1.9029753,3.6931442 1.4443666,3.7906969 1.0275414,4.0501664 0.88802091,4.1370187 0.71569384,4.2334196 0.63951306,4.3859747 0.4799281,4.7055298 0.56293667,5.2188778 0.64732011,5.5486248 0.98137929,6.8539606 2.4346184,7.6928009 3.7239015,7.7492757 4.0867969,7.7651529 4.4526855,7.709725 4.787603,7.5665172 4.9444373,7.4994534 5.0974124,7.3647599 5.2576109,7.3173878 5.4286194,7.2668503 5.8046751,7.5715129 5.95013,7.6611866 c 0.062462,0.03852 0.141225,0.080375 0.141225,0.1643036 0,0.1994574 -0.4198653,0.3983687 -0.5616345,0.5028842 -0.063401,0.046727 -0.137737,0.1171057 -0.2226353,0.10872 C 5.2075176,8.4272493 5.1043634,8.3459876 5.0102381,8.3116524 4.787875,8.2305885 4.5547264,8.1645148 4.3175952,8.1482621 3.1516792,8.0683367 1.8500448,8.7694894 1.2359575,9.7539579 0.95617432,10.202493 0.87828409,10.669656 0.87911782,11.188718 c 3.2723e-4,0.203192 0.0174575,0.495165 0.14105668,0.665604 0.2795358,0.385481 1.0718847,0.540089 1.5163388,0.520819 C 3.525929,12.332202 4.3936622,11.742115 5.0037817,10.990819 5.3000845,10.62597 5.546888,10.152845 5.5998009,9.6797457 5.619046,9.5076982 5.6410384,9.3336715 5.6244636,9.1602636 5.614668,9.0576251 5.5588602,8.9126929 5.6055889,8.814906 5.6838824,8.6510969 5.9543593,8.5218198 6.0986764,8.418146 v 3.339529 c 0,0.260161 -0.023377,0.532716 0.0026,0.791567 0.010859,0.108225 0.074262,0.212097 0.1953005,0.212097 0.1210394,0 0.1844409,-0.103869 0.1953006,-0.212097 0.025974,-0.258851 0.0026,-0.531406 0.0026,-0.791567 V 8.418146 c 0.1412991,0.1015021 0.4071998,0.2268904 0.4937059,0.3790984 0.086976,0.1530244 -0.038713,0.5228721 -0.016648,0.7093406 0.064886,0.548127 0.2679292,1.053361 0.6178371,1.484234 0.6095254,0.750554 1.4782477,1.34259 2.4672685,1.384322 0.443637,0.01871 1.23753,-0.136352 1.516344,-0.520819 0.123587,-0.170439 0.14073,-0.462412 0.141052,-0.665604 8.4e-4,-0.519062 -0.07706,-0.986225 -0.356836,-1.4347601 C 10.743096,8.7694894 9.441472,8.0683367 8.2755566,8.1482621 8.038425,8.164518 7.8052763,8.2305938 7.5829131,8.3116524 7.4887887,8.3459845 7.3856344,8.4272493 7.2860669,8.4370944 7.201169,8.4455117 7.1268333,8.375101 7.0634317,8.3283744 6.9230725,8.2249258 6.5017973,8.0216322 6.5017973,7.8254902 c 0,-0.083931 0.078764,-0.1257881 0.1412249,-0.1643036 0.1454549,-0.089676 0.5215107,-0.3943367 0.6925192,-0.3437988 0.1601985,0.047373 0.3131735,0.1820414 0.470007,0.2491294 0.3371938,0.1441926 0.6982831,0.1987388 1.0637023,0.1827585 1.2888593,-0.056449 2.7426673,-0.8959089 3.0765703,-2.2006509 0.084,-0.3281641 0.166531,-0.8448266 0.0078,-1.1626501 C 11.877494,4.2335187 11.705149,4.13687 11.565607,4.0501664 11.148611,3.7911176 10.689884,3.6931338 10.205058,3.6933311 9.0819628,3.6937986 7.8457927,4.5653693 7.3541653,5.5486248 7.1511962,5.9545637 7.0047268,6.4795126 7.1129029,6.933911 L 6.4944717,7.2802328 V 5.5733626 C 6.9491917,5.4922491 7.3758351,5.0068299 7.6026007,4.6333469 8.2024046,3.6453662 8.3019227,2.0810814 7.6483152,1.0959205 7.3871647,0.70228413 6.8182822,0.11502014 6.2965737,0.11502014 c -0.519408,0 -1.0918279,0.58912179 -1.3517421,0.98090036 C 4.2909023,2.0815588 4.3904698,3.6449203 4.9905459,4.6333469 5.2180791,5.0080912 5.6423725,5.491977 6.0986757,5.5733626 M 6.4944717,5.1528291 V 4.0891277 c 0,-0.1460245 -0.038195,-0.3562416 0.014916,-0.4937804 C 6.6131115,3.3268489 7.0496497,3.2229029 7.2203367,2.9963843 7.312483,2.8741328 7.2323095,2.6760122 7.0634035,2.7004526 6.8617704,2.7295931 6.6635013,2.9696433 6.4944717,3.0749002 c 0,-0.3544599 0.00472,-0.7092787 -1.028e-4,-1.0637015 -0.00168,-0.1238371 -0.037997,-0.3020764 -0.1977991,-0.3020764 -0.1598025,0 -0.1961169,0.1782393 -0.197799,0.3020764 C 6.0939519,2.3656215 6.098668,2.7204403 6.098668,3.0749002 5.9296384,2.9696433 5.7313693,2.7295931 5.5297361,2.7004526 5.3608548,2.6760369 5.2806321,2.8741328 5.372803,2.9963843 c 0.1721218,0.228325 0.6069035,0.3232412 0.7109485,0.5983693 0.052467,0.138801 0.014916,0.3473605 0.014916,0.4943741 V 5.1528291 C 4.9024087,4.6365378 4.6726986,2.7445591 5.086058,1.6648772 5.238662,1.2662587 5.5208893,0.93980867 5.876042,0.70865645 5.9903776,0.63423941 6.154534,0.52097001 6.2965752,0.52097001 c 0.1357332,0 0.2850968,0.10591742 0.3957959,0.17455345 C 7.0463364,0.91499478 7.3370733,1.2536749 7.4937589,1.64014 7.9310397,2.7187581 7.6948234,4.6347821 6.4944732,5.1528291 M 5.1091873,6.7112757 C 4.8267622,6.5895928 4.5574724,6.4078738 4.2928581,6.2510891 4.1832227,6.1861044 4.02013,6.1263142 3.9367159,6.0282799 3.7586326,5.818978 3.8892205,5.3563923 3.7801045,5.1044435 3.7074512,4.9366506 3.4798684,4.9526055 3.428613,5.1282156 3.3735231,5.3169607 3.4724968,5.5760095 3.4765289,5.77126 3.179682,5.6326572 2.9159088,5.4038626 2.6107252,5.2858904 2.4872865,5.2381723 2.3278499,5.3269048 2.3520331,5.4743149 2.3723547,5.5981734 2.5139531,5.6626635 2.6107252,5.7180753 2.8292789,5.8431718 3.0857546,5.956097 3.278631,6.1175818 3.1061876,6.2095052 2.8302437,6.2554422 2.695673,6.3994378 2.5821785,6.5208486 2.6783322,6.7203046 2.8438491,6.711028 3.1368619,6.6946028 3.4298745,6.3452386 3.7239014,6.3824684 c 0.1330122,0.016846 0.2820293,0.1385775 0.395796,0.2053929 0.2547442,0.1496109 0.5148811,0.2907866 0.7668547,0.4449983 v 0.049475 C 3.7860166,7.7245626 2.2018631,7.1542453 1.4266596,6.2412683 1.132974,5.8953916 0.95554365,5.4348337 0.95334947,4.9796686 0.95273238,4.8513316 0.93527153,4.6789126 1.0031282,4.5634397 1.2524995,4.1390719 2.0590995,4.0526151 2.4870391,4.0869997 3.7866103,4.1914658 5.1091873,5.3755138 5.1091873,6.7112757 M 7.7065982,7.0823345 V 7.0328596 C 7.9693082,6.8779308 8.2343678,6.726464 8.4981904,6.5733405 8.6058959,6.510855 8.7435834,6.398399 8.8692491,6.3824684 9.1512046,6.3467719 9.4560655,6.6718937 9.7350517,6.7083811 9.9119981,6.7315352 10.026976,6.5310153 9.8983673,6.3994378 9.7584781,6.2562836 9.4897084,6.2109899 9.3145192,6.1175818 9.5073953,5.956097 9.7638704,5.8431718 9.9824246,5.7180753 10.079192,5.6626632 10.220793,5.5981734 10.241127,5.4743149 10.265295,5.3269048 10.105864,5.2381723 9.9824246,5.2858904 9.6772417,5.4038626 9.4134687,5.6326572 9.1166211,5.77126 9.1206193,5.5760095 9.2196278,5.3169607 9.1645365,5.1282156 9.1132815,4.9526055 8.8856997,4.9366506 8.8130456,5.1044435 8.7039049,5.3564166 8.8345176,5.8189042 8.6564346,6.0282799 8.5670832,6.1333395 8.393675,6.198126 8.2755552,6.2660053 c -0.25942,0.149091 -0.516811,0.3268776 -0.7915922,0.4452704 0,-1.3357619 1.3225771,-2.5198101 2.622147,-2.624276 0.423997,-0.034063 1.239783,0.051232 1.483642,0.47644 0.06424,0.1119856 0.05277,0.2915775 0.04969,0.4162289 -0.01062,0.4349299 -0.16799,0.8710726 -0.436711,1.2121249 C 10.45028,7.1467751 8.8156438,7.7295109 7.7065982,7.0823345 M 4.9607638,8.7149926 v 0.049473 C 4.7108187,8.9344842 4.3438169,9.3431684 4.0454856,9.3927915 3.7224419,9.4465465 3.2296018,9.1594944 2.9327796,9.3131323 2.7854939,9.389372 2.7867555,9.5709437 2.9333967,9.647135 3.0967614,9.732034 3.3933115,9.7277096 3.5754766,9.7292142 3.4060512,9.9500936 3.1071015,10.106162 2.8828337,10.2697 c -0.09514,0.06936 -0.2567727,0.148646 -0.2814357,0.276215 -0.035869,0.185505 0.1781824,0.243935 0.3061729,0.169499 0.3309596,-0.192479 0.6048505,-0.477823 0.9400154,-0.664615 -0.028176,0.221869 -0.160322,0.548425 -0.1053311,0.766484 0.04381,0.17373 0.2537794,0.20141 0.3414976,0.04725 C 4.2704944,10.536321 4.1104693,10.029084 4.3172972,9.7159601 4.4823194,9.4661388 4.9492101,9.2087967 5.208135,9.061313 5.3084198,9.4005596 5.1909427,9.8355646 5.0560008,10.149752 4.681479,11.021666 3.7524716,11.798539 2.808622,11.957526 2.382884,12.029262 1.7057438,11.975655 1.3807509,11.649324 1.2800653,11.548222 1.2788458,11.37155 1.2606936,11.238192 1.1963097,10.765214 1.3549989,10.264113 1.6218648,9.8776427 2.3338622,8.8465445 3.7724099,8.2565612 4.9607626,8.7149916 M 7.3850128,9.061313 c 0.2349303,0.1338287 0.4502431,0.3126795 0.6679062,0.4728776 0.085171,0.062656 0.203365,0.120421 0.243711,0.2240706 0.09702,0.2492268 0.1019924,0.5728888 0.1459748,0.8367618 0.019715,0.118343 0.019567,0.277576 0.1324928,0.349463 0.1204947,0.07668 0.2626596,-0.0215 0.2801984,-0.151664 0.030822,-0.228696 -0.080692,-0.513396 -0.1097344,-0.742019 0.3414979,0.190304 0.6168972,0.503255 0.9647527,0.678567 0.1355354,0.0683 0.3348927,-0.03923 0.2745345,-0.207595 C 9.8540618,10.157026 9.2159157,10.056889 9.0176717,9.7292184 9.2020135,9.7276401 9.4941359,9.7307966 9.6604681,9.6471392 9.8032518,9.5752975 9.8388496,9.3964762 9.6842154,9.3131123 9.3854633,9.1520472 8.8746895,9.4471872 8.5476623,9.3927926 8.2525236,9.3437155 7.8807478,8.9334226 7.6323855,8.7644674 v -0.049473 c 1.1877834,-0.4582084 2.6272435,0.1320475 3.3389085,1.1626512 0.266867,0.3864704 0.425532,0.8875714 0.361165,1.3605494 -0.01818,0.13358 -0.01947,0.309759 -0.120075,0.411158 -0.326086,0.328782 -1.000276,0.378874 -1.4278586,0.3082 C 8.8401077,11.801484 7.9115207,11.021345 7.5371476,10.149753 7.4014136,9.8337097 7.2841342,9.4026145 7.3850128,9.061313 Z"
       id="path6318" />
  </g>
</svg>
