<?xml version="1.0" encoding="UTF-8" standalone="no"?>
<!-- Created with Inkscape (http://www.inkscape.org/) -->

<svg
   width="48"
   height="48"
   viewBox="0 0 12.7 12.7"
   version="1.1"
   id="svg1067"
   inkscape:version="1.1.2 (b8e25be833, 2022-02-05)"
   sodipodi:docname="Pelin.svg"
   xmlns:inkscape="http://www.inkscape.org/namespaces/inkscape"
   xmlns:sodipodi="http://sodipodi.sourceforge.net/DTD/sodipodi-0.dtd"
   xmlns="http://www.w3.org/2000/svg"
   xmlns:svg="http://www.w3.org/2000/svg">
  <sodipodi:namedview
     id="namedview1069"
     pagecolor="#ffffff"
     bordercolor="#666666"
     borderopacity="1.0"
     inkscape:pageshadow="2"
     inkscape:pageopacity="0.0"
     inkscape:pagecheckerboard="0"
     inkscape:document-units="mm"
     showgrid="false"
     inkscape:zoom="8.647654"
     inkscape:cx="41.340692"
     inkscape:cy="44.116011"
     inkscape:window-width="1746"
     inkscape:window-height="1051"
     inkscape:window-x="165"
     inkscape:window-y="-9"
     inkscape:window-maximized="1"
     inkscape:current-layer="layer1"
     units="px" />
  <defs
     id="defs1064" />
  <g
     inkscape:label="Layer 1"
     inkscape:groupmode="layer"
     id="layer1">
    <path
       style="fill:#2b2727;stroke:none;stroke-width:0.0222732"
       d="M 6.2200947,0.12360219 C 5.2049509,0.30664076 5.4976202,1.8856877 6.5096461,1.7032037 7.5472634,1.5161314 7.2520327,-0.06246339 6.2200947,0.12360219 m 0.089093,0.24136315 C 7.0191,0.26604576 7.1410461,1.3796325 6.4205531,1.4612726 5.7243835,1.5401418 5.6139314,0.46183791 6.3091877,0.36496534 M 6.2646417,1.9494335 C 5.2025675,2.1166158 5.4769514,3.7122431 6.5319196,3.5360617 7.5298682,3.3694139 7.2581801,1.7930535 6.2646417,1.9494335 M 6.2423682,2.2142613 C 6.9688076,2.0865916 7.1897127,3.1694013 6.4651002,3.2910572 5.7890205,3.4045841 5.5626582,2.3337123 6.2423682,2.2142613 m 0,3.1554608 V 7.2629413 C 6.0890622,7.1096353 5.7970389,6.9116486 5.7212435,6.7061119 5.6327072,6.4659626 5.7078123,6.0710816 5.7078123,5.8151861 c 0,-0.077422 0.032919,-0.2568542 -0.035704,-0.311201 -0.054524,-0.043188 -0.1663802,-0.022896 -0.231574,-0.022896 V 6.4611074 C 5.2130808,6.2336539 4.8056828,5.969739 4.6615969,5.6815471 4.6148232,5.5879766 4.6387005,5.4491931 4.6387005,5.3474497 V 4.5901617 H 4.3936956 V 5.4142691 C 4.1463522,5.240026 3.9393453,4.982169 3.7255007,4.7683467 3.6638931,4.7067391 3.5578728,4.5543023 3.4582449,4.5661289 3.2581429,4.5899166 3.3557661,4.7754516 3.4360609,4.8574397 3.678393,5.104939 3.926026,5.3475159 4.170964,5.5924541 H 3.36913 v 0.2450044 c 0.2924244,0 0.751363,-0.087823 1.0245656,0.016527 0.114729,0.043834 0.2049805,0.1661796 0.2895508,0.250751 C 4.863838,6.285328 5.0930288,6.4532006 5.2400758,6.6615659 H 4.304603 v 0.2450044 h 0.8241074 l 0.3786434,0.026261 0.5345559,0.5082953 0.1933756,0.2450044 0.00708,0.4677364 V 9.1338876 12.229856 C 5.9839536,11.971441 5.7337814,11.699264 5.4628067,11.45408 5.3502606,11.352225 5.157085,11.23282 5.1320051,11.071651 c -0.1009637,-0.649084 -0.0033,-1.3914256 -0.0033,-2.0491302 0,-0.1323255 0.071854,-0.6046494 -0.035704,-0.6898448 C 4.808825,8.107628 4.8614334,8.7333488 4.8614334,8.8443355 V 10.871193 C 4.6345597,10.644318 4.2483649,10.3788 4.1047698,10.091632 4.0479288,9.9779724 4.081873,9.7927034 4.081873,9.6684434 V 8.7106965 7.6638582 c 0,-0.084326 0.03822,-0.297191 -0.035704,-0.3557469 C 3.7619858,7.0830633 3.8145951,7.708783 3.8145951,7.8197697 V 9.8243544 L 3.2354907,9.2675258 3.0039166,9.0002476 2.9904858,8.6216035 V 7.7752237 L 2.967589,7.343191 2.7232078,7.3074873 V 8.7552425 C 2.3766597,8.4086945 2.0303988,8.0630379 1.6743756,7.7265791 1.4795145,7.5424246 1.3597717,7.2930101 1.1195401,7.5302193 v 0.022272 l 1.4254825,1.40321 H 1.0749941 v 0.245005 H 2.277745 c 0.1464016,0 0.3790225,-0.043744 0.5122827,0.022894 0.3029819,0.1514799 0.5846261,0.5617291 0.8241071,0.8012097 H 1.6986426 c -0.1198384,0 -0.5222677,-0.06339 -0.6007561,0.03571 -0.043176,0.05452 -0.022892,0.166381 -0.022892,0.231575 h 1.9600384 c 0.2436684,0 0.6175904,-0.07092 0.8463803,0.01343 0.2790827,0.102903 0.5699702,0.534267 0.7795611,0.743857 H 2.6563887 c -0.1109871,0 -0.7367049,-0.05261 -0.5116635,0.231574 0.085191,0.107579 0.557524,0.0357 0.689849,0.0357 h 1.3809361 c 0.2064723,0 0.4678255,-0.04316 0.6681946,0.0071 0.1401431,0.03514 0.2579905,0.206805 0.3563709,0.304719 0.2491925,0.248011 0.5083848,0.486134 0.7572879,0.735036 0.081987,0.08199 0.2541593,0.329487 0.3786435,0.329487 0.1294961,0 0.3151648,-0.266008 0.4009169,-0.351761 L 7.445119,11.673042 C 7.551986,11.566175 7.6646657,11.411331 7.8014899,11.34293 8.005423,11.240964 8.3996138,11.31667 8.6255972,11.31667 H 10.607909 V 11.049377 H 8.0910414 c 0.2205706,-0.220572 0.4780035,-0.594761 0.7572868,-0.73439 0.1136605,-0.05684 0.2989284,-0.02289 0.4231904,-0.02289 h 1.0022924 1.024566 c 0.08433,0 0.297191,0.03822 0.355747,-0.03571 0.225048,-0.2841826 -0.400672,-0.231573 -0.511659,-0.231573 H 9.1156062 C 9.3592079,9.7812114 9.6518554,9.378668 9.961987,9.2236026 10.095247,9.1569562 10.327869,9.200709 10.47427,9.200709 h 1.20275 l -0.03571,-0.2221077 -0.387486,-0.022894 h -1.046836 c 0.363188,-0.363185 0.721674,-0.731917 1.090518,-1.0893792 0.09098,-0.08818 0.374032,-0.2560744 0.26064,-0.4016073 -0.145555,-0.186783 -0.33481,0.095997 -0.437957,0.1991442 L 10.028807,8.7552415 V 7.7306767 L 10.00591,7.3431899 9.7615284,7.3074862 V 8.510237 L 9.738632,9.0221858 9.4942506,9.2676133 8.9374212,9.8243534 V 8.7997885 7.5079447 C 8.937377,7.3995192 8.836145,7.1402376 8.6930397,7.3209175 8.6468459,7.3792282 8.6701432,7.5052276 8.6701432,7.5747641 v 0.623649 1.2918427 c 0,0.1701896 0.045749,0.4185576 -0.013431,0.5791022 -0.036015,0.09767 -0.1377587,0.173464 -0.2093008,0.245005 -0.1722153,0.172216 -0.357016,0.430985 -0.5791019,0.534555 V 8.3097785 c -0.060205,0 -0.1587852,-0.017128 -0.2093007,0.022896 -0.1054643,0.083547 -0.035704,0.538343 -0.035704,0.6675718 v 1.4477557 c 0,0.188586 0.052052,0.468292 -0.013432,0.64592 -0.050694,0.137449 -0.219391,0.255095 -0.3206672,0.356371 L 6.5096455,12.229854 V 9.1338858 8.1538661 L 6.5167279,7.6861296 6.6878301,7.4633987 7.2446595,6.9294658 7.6233039,6.9065693 H 8.4474102 V 6.6615649 H 7.4896639 C 7.7257819,6.4254469 8.040168,5.968068 8.3583183,5.8508887 8.6271326,5.7518843 9.0737982,5.8374575 9.3606106,5.8374575 V 5.592453 H 8.5810492 C 8.8259653,5.347537 9.0740213,5.1053168 9.3159531,4.8574387 9.3944213,4.7770322 9.4895501,4.589582 9.2937017,4.5661277 9.1941849,4.5542118 9.0880313,4.7068275 9.0265132,4.7683457 8.8126677,4.982168 8.6056608,5.2400249 8.3583183,5.4142681 V 4.5901607 H 8.1133128 c 0,0.2989282 0.089805,0.7668204 -0.013431,1.0468383 C 8.0608379,5.7428863 7.9459305,5.8266548 7.8683083,5.9042769 7.6827953,6.0897899 7.5038528,6.3098933 7.2892054,6.4611063 V 5.4810875 H 7.044201 v 0.8241064 c 0,0.1209654 0.028844,0.2862105 -0.01343,0.4009169 C 6.9616121,6.8936737 6.6702791,7.1275187 6.5096451,7.2406667 V 5.3697211 C 7.145856,5.2757507 7.3875416,4.4691953 6.9510104,4.0131297 6.7787497,3.8331853 6.5479774,3.782714 6.3091866,3.7886615 5.3815543,3.8117357 5.3315512,5.2464617 6.2423671,5.3697211 M 6.2646406,4.0406593 C 6.9581375,3.91887 7.1863928,4.9948195 6.4873715,5.1173886 5.7824712,5.2410046 5.5584923,4.1646542 6.2646406,4.0406593 Z"
       id="path1158" />
  </g>
</svg>
