<?xml version="1.0" encoding="UTF-8" standalone="no"?>
<!-- Created with Inkscape (http://www.inkscape.org/) -->

<svg
   width="48"
   height="48"
   viewBox="0 0 12.7 12.7"
   version="1.1"
   id="svg1067"
   inkscape:version="1.1.2 (b8e25be833, 2022-02-05)"
   sodipodi:docname="Pelin_0.svg"
   xmlns:inkscape="http://www.inkscape.org/namespaces/inkscape"
   xmlns:sodipodi="http://sodipodi.sourceforge.net/DTD/sodipodi-0.dtd"
   xmlns="http://www.w3.org/2000/svg"
   xmlns:svg="http://www.w3.org/2000/svg">
  <sodipodi:namedview
     id="namedview1069"
     pagecolor="#ffffff"
     bordercolor="#666666"
     borderopacity="1.0"
     inkscape:pageshadow="2"
     inkscape:pageopacity="0.0"
     inkscape:pagecheckerboard="0"
     inkscape:document-units="mm"
     showgrid="false"
     inkscape:zoom="6.1148148"
     inkscape:cx="49.470018"
     inkscape:cy="56.011508"
     inkscape:window-width="1746"
     inkscape:window-height="1051"
     inkscape:window-x="165"
     inkscape:window-y="-9"
     inkscape:window-maximized="1"
     inkscape:current-layer="layer1"
     units="px" />
  <defs
     id="defs1064" />
  <g
     inkscape:label="Layer 1"
     inkscape:groupmode="layer"
     id="layer1">
    <path
       id="path1158"
       style="fill:#000000;stroke:none;stroke-width:0.0219073"
       d="M 6.3247988,0.14546634 C 6.0305884,0.14973421 5.727803,0.30267122 5.5990508,0.57626674 5.394629,0.98928114 5.5605348,1.5645394 5.985934,1.7655834 6.2852156,1.903357 6.6636056,1.8370165 6.908768,1.6205685 7.1994355,1.3595825 7.2319862,0.89694083 7.0483856,0.56568889 6.9111421,0.30168849 6.6234448,0.1302859 6.3247988,0.14546634 Z m 0.042451,0.35557542 C 6.5812435,0.49504907 6.7621837,0.67422038 6.7948125,0.87956896 6.8456024,1.1050095 6.7332518,1.3719025 6.5044453,1.447081 6.3083515,1.5233704 6.0540936,1.468927 5.9462078,1.2768115 5.7950142,1.039185 5.8650604,0.66518229 6.1366547,0.54800483 6.2085799,0.51530667 6.2884356,0.50055582 6.3672498,0.50104176 Z M 6.3189366,1.9463881 C 6.0182806,1.9586471 5.714084,2.125333 5.5909897,2.408473 5.3975416,2.8235433 5.579734,3.3879782 6.0090463,3.5728576 6.3135376,3.7002856 6.699703,3.6443152 6.9384711,3.4104086 7.2269077,3.1206275 7.226841,2.6309706 7.0104793,2.29974 6.8633387,2.0666 6.5950574,1.9267166 6.3189366,1.9463881 Z m 0.015565,0.3695236 C 6.5873741,2.3121195 6.7960191,2.539648 6.8089443,2.7849084 6.8355368,2.9925632 6.6995733,3.2071213 6.4941849,3.2586494 6.2973946,3.3273462 6.0590111,3.2537828 5.9522591,3.0702357 5.8155214,2.8666925 5.8202232,2.5408674 6.0386694,2.3949643 6.1249615,2.3365003 6.2315924,2.3150725 6.3345016,2.3159117 Z M 6.2299923,3.7669181 C 5.9426115,3.7799611 5.6770053,3.9742488 5.5767452,4.2436066 5.4222575,4.6129957 5.5314352,5.101271 5.8833074,5.317463 c 0.08276,0.051227 0.1753506,0.085696 0.27088,0.1038208 0,0.5635167 0,1.1270333 0,1.6905499 C 6.0063115,6.9739909 5.8219857,6.8532788 5.7443474,6.6586589 5.6673652,6.3853573 5.7377783,6.0998444 5.7377876,5.8216117 5.7368768,5.7063863 5.7802313,5.5521716 5.6789414,5.461511 5.586174,5.4004241 5.469213,5.4339782 5.3656145,5.4319976 5.3650763,5.7278767 5.3666909,6.0280642 5.3648073,6.3212394 5.1359753,6.112238 4.8613246,5.9366831 4.7056817,5.661108 4.653691,5.5268494 4.6989905,5.3791348 4.6866063,5.2391096 c 0,-0.2286141 0,-0.4572281 0,-0.6858422 -0.1169079,0 -0.2338159,0 -0.3507239,0 -5.382e-4,0.2509345 0.00108,0.5061744 -8.073e-4,0.7544102 C 4.0816541,5.0936098 3.8708395,4.8350984 3.6363889,4.6017592 c -0.079147,-0.088521 -0.2341648,-0.099766 -0.3102263,-0.0024 -0.071548,0.116095 0.022033,0.2507931 0.1054962,0.3319926 0.2005521,0.2045254 0.4046027,0.4055712 0.607474,0.6077858 -0.2369829,0 -0.4739658,0 -0.7109487,0 0,0.1171774 0,0.234355 0,0.3515324 0.3275567,0.00405 0.6513963,-0.07475 0.9754574,-0.00844 0.1874384,0.037962 0.2795445,0.2245354 0.4188332,0.335968 0.130802,0.1222941 0.2711227,0.2357563 0.3878316,0.3725047 -0.2873174,0 -0.5746347,0 -0.861952,0 0,0.1168407 0,0.2336813 0,0.3505218 0.322815,0.00428 0.6462306,-0.00888 0.9686423,0.00712 0.08342,0.010211 0.17445,0.00313 0.253149,0.024071 0.1741012,0.1708612 0.3594479,0.331469 0.5263516,0.5088929 0.048155,0.068006 0.113511,0.1298949 0.1511786,0.2016316 0.013566,0.9165805 0.00333,1.8333411 0.00651,2.75 0,0.518493 0,1.036984 0,1.555476 C 5.874982,11.705078 5.6031367,11.412619 5.294,11.161177 5.2078525,11.092352 5.1584543,10.989146 5.1580247,10.878908 5.1101868,10.494438 5.1273192,10.079487 5.1451553,9.682006 5.1631087,9.3957194 5.161751,9.1086073 5.1776211,8.8223957 5.1852831,8.6476161 5.2182273,8.461782 5.151342,8.2945916 5.0982364,8.1973325 4.9351118,8.1374549 4.8625864,8.2467157 c -0.089429,0.1510377 -0.067127,0.3371489 -0.067683,0.5056087 0.00249,0.6354279 3.519e-4,1.2709176 0.00107,1.9063686 C 4.5715964,10.449921 4.3070602,10.269549 4.1555687,9.9944403 4.0987655,9.8369946 4.1511617,9.6728718 4.1387905,9.5097338 c 0.002,-0.6444338 -0.00398,-1.289103 0.00297,-1.9333909 0.0051,-0.1203915 0.035249,-0.2823644 -0.085846,-0.3575741 -0.072307,-0.06083 -0.1956147,-0.050976 -0.2365468,0.041356 -0.090974,0.2039419 -0.043763,0.4343012 -0.052927,0.6502679 0,0.5724515 0,1.144903 0,1.7173545 C 3.5439604,9.4079053 3.3045534,9.2041352 3.1082315,8.9594673 3.0499021,8.907339 3.0855429,8.8182506 3.0716535,8.7486433 3.0532798,8.2913066 3.082745,7.8329088 3.046119,7.3761474 3.043259,7.3180804 3.057535,7.2443334 2.975373,7.2586264 2.881194,7.2448704 2.7870323,7.2309984 2.6928373,7.2173534 c 0,0.4516622 0,0.9033245 0,1.3549869 C 2.3622777,8.2386092 2.0230426,7.9133826 1.686957,7.5852601 1.5876907,7.4819048 1.4799922,7.3299318 1.3174335,7.3523875 c -0.079949,0.01546 -0.1596671,0.069105 -0.2017421,0.1340635 -0.019751,0.076737 0.064517,0.1099323 0.1048844,0.1614769 0.4060545,0.3997099 0.812109,0.7994198 1.2181635,1.1991297 -0.4556378,0 -0.9112757,-10e-8 -1.3669136,0 0,0.1168406 0,0.2336812 0,0.3505217 0.4432207,-0.00259 0.8867337,0.00515 1.3297772,-0.00379 0.1543406,-0.00719 0.3321529,-0.03994 0.4653861,0.066484 0.2488664,0.1705541 0.427918,0.4186837 0.6297843,0.6383525 -0.6068852,-0.00215 -1.2139993,0.0043 -1.820742,-0.00322 -0.1717257,-0.00714 -0.3540608,-0.044842 -0.5187664,0.019956 -0.113571,0.054074 -0.089022,0.2003252 -0.085439,0.3032632 -0.02298,0.08594 0.078426,0.0416 0.1272309,0.05236 0.6513331,-0.002 1.3028467,0.0041 1.9540679,-0.003 0.2411459,-0.008 0.4923383,-0.06149 0.7267813,0.0177 0.2489144,0.119849 0.410771,0.356129 0.5914962,0.555697 0.082422,0.06634 0.035472,0.07375 -0.046979,0.06498 -0.6702342,-1.04e-4 -1.3406345,8.28e-4 -2.0107497,-0.0016 -0.113564,0.01078 -0.2612827,0.01292 -0.3250513,0.12432 -0.045134,0.117402 0.061537,0.252637 0.1828651,0.259964 0.2572692,0.03839 0.5159965,-0.02535 0.7744191,-0.01011 0.4443742,-0.0036 0.8890622,0.0074 1.333236,-0.0059 0.1755208,-0.0044 0.3628116,-0.03739 0.5298418,0.03119 0.1482347,0.09255 0.239678,0.24828 0.3722991,0.359852 0.2378688,0.238594 0.493958,0.460106 0.7202857,0.710052 0.095763,0.102372 0.1882434,0.241947 0.3389995,0.258748 0.1543546,-0.01833 0.2498605,-0.160715 0.3480942,-0.266062 0.214966,-0.239872 0.4532853,-0.457937 0.6777912,-0.68889 0.1457912,-0.129482 0.2503389,-0.313557 0.4346219,-0.393566 0.2688175,-0.07418 0.5395453,0.0029 0.8140838,-0.0055 0.6475286,0 1.2950572,0 1.9425854,0 0,-0.124185 0,-0.248371 0,-0.372556 -0.8011055,0 -1.6022114,0 -2.4033173,0 0.2043048,-0.218928 0.3810853,-0.480279 0.6521167,-0.62269 0.1589505,-0.04981 0.3218372,-2.59e-4 0.4853607,-0.01266 0.6482651,0.002 1.2967579,-0.0041 1.9448809,0.0031 0.121311,0.0052 0.284506,0.03519 0.359385,-0.08795 0.0623,-0.07544 0.04524,-0.2013407 -0.05114,-0.2389377 -0.213293,-0.086761 -0.449383,-0.037751 -0.672945,-0.048515 -0.569649,0 -1.1392967,0 -1.7089451,0 C 9.3908353,9.6583645 9.5925246,9.3787568 9.8894527,9.215801 10.058385,9.149308 10.23754,9.205786 10.412769,9.197608 c 0.402015,0 0.80403,0 1.206045,0 -0.01758,-0.108465 -0.03512,-0.2169364 -0.05236,-0.3254555 -0.273566,-0.019605 -0.547346,-0.030592 -0.821644,-0.025066 -0.168212,-10e-8 -0.336425,0 -0.504638,0 C 10.581876,8.5073335 10.914503,8.1580587 11.26645,7.8290416 11.370049,7.7403406 11.513404,7.6500474 11.51794,7.498751 11.51094,7.3652868 11.345224,7.2694942 11.2297,7.3466567 11.079395,7.4350227 10.987149,7.5912723 10.856708,7.7037391 10.567171,7.9932761 10.277634,8.2828131 9.9880968,8.5723503 9.9840068,8.1622556 10.001404,7.7515319 9.9670228,7.3423432 9.9888988,7.2587762 9.9207348,7.2577762 9.8571133,7.2526412 9.7765903,7.2408772 9.69608,7.2290202 9.6155408,7.2173632 c -0.00335,0.4559947 0.00691,0.9122916 -0.00551,1.3680851 -0.00531,0.1194822 -0.010612,0.2389645 -0.015918,0.3584468 C 9.3680181,9.1709574 9.1413929,9.3973837 8.9146994,9.6239155 8.913476,8.8988433 8.9171388,8.1735593 8.9128798,7.4486187 8.8973104,7.3373042 8.8439417,7.1870693 8.7133614,7.1779447 8.5942025,7.1861232 8.5217302,7.3162478 8.5369067,7.4272229 c 0.011849,0.4914129 0.002,0.9833052 0.00524,1.4749089 4.657e-4,0.2791345 -0.00573,0.5613297 0.015576,0.837286 0.00511,0.1235346 -0.00297,0.2640042 -0.1041161,0.3508492 -0.076503,0.07167 -0.1708133,0.163044 -0.2460121,0.25046 -0.1068158,0.117455 -0.2119155,0.239969 -0.3444574,0.329498 0,-0.81876 0,-1.6375202 0,-2.4562803 -0.1076164,0.00189 -0.253076,-0.038425 -0.3254556,0.06691 -0.073887,0.150895 -0.04242,0.3271538 -0.036603,0.4888593 0.023773,0.3347855 0.00607,0.6710101 0.011537,1.0064173 0.00143,0.3094287 -0.00794,0.6224097 0.017617,0.9284967 0.00341,0.131903 0.00734,0.273807 -0.088842,0.379999 C 7.3175092,11.22085 7.1702904,11.333862 7.0462063,11.470377 6.8730532,11.64353 6.6999001,11.816684 6.526747,11.989836 6.528297,10.645912 6.523637,9.3019399 6.529097,7.9580448 6.534787,7.8607708 6.523757,7.7576779 6.539722,7.6639821 6.6277165,7.5420279 6.7226465,7.4262824 6.8370627,7.3279941 6.9642048,7.206081 7.091347,7.0841677 7.2184892,6.9622546 c 0.4038829,-0.034055 0.8093023,-0.017063 1.214091,-0.021023 0,-0.1168405 -1e-7,-0.2336811 0,-0.3505218 -0.2900127,0 -0.5800253,0 -0.8700379,0 C 7.780576,6.3554846 7.9711389,6.0787077 8.2581279,5.921403 8.4789832,5.823215 8.7266133,5.859966 8.9580101,5.871779 9.0821402,5.881519 9.2063324,5.8907 9.3309185,5.890677 c 0,-0.1171774 0,-0.234355 0,-0.3515324 -0.2295708,0 -0.4591417,0 -0.6887126,0 C 8.8632436,5.3156285 9.0924837,5.0995045 9.3056502,4.8686248 9.3724817,4.7862361 9.4220289,4.6406751 9.3187898,4.5658096 9.224629,4.4963183 9.0976012,4.5363155 9.0258797,4.6183677 8.8038337,4.8467819 8.5974613,5.0920342 8.3551553,5.299902 c -0.02518,-0.00589 -0.00223,-0.1144418 -0.010105,-0.1572072 0,-0.1964727 0,-0.3929455 0,-0.5894183 -0.1171775,0 -0.234355,0 -0.3515325,0 -0.00454,0.3416298 0.080532,0.6811977 0.00586,1.0190197 -0.042302,0.1629232 -0.2057143,0.244689 -0.3062886,0.3679439 -0.1300834,0.1352808 -0.2545465,0.2769851 -0.3996039,0.3967758 0,-0.3024783 0,-0.6049567 0,-0.907435 -0.1168406,0 -0.2336811,0 -0.3505218,0 0.00234,0.3758896 -0.00667,0.7537661 0.00867,1.1273916 -0.00101,0.1857018 -0.1575509,0.3149156 -0.2817081,0.4318503 -0.04621,0.040976 -0.094146,0.080015 -0.1431824,0.1175621 0,-0.5620342 0,-1.1240685 0,-1.6861027 C 6.8774649,5.355797 7.1424611,5.0316959 7.1733151,4.682246 7.220115,4.3137815 6.9943782,3.9153238 6.6300409,3.8089737 6.5010528,3.7684524 6.3643477,3.7599026 6.2299933,3.7669272 Z m 0.096424,0.3460746 C 6.5689692,4.1005438 6.7726646,4.3092447 6.8043032,4.5407279 6.8467728,4.743368 6.7436658,4.9776468 6.539863,5.0456057 6.3613754,5.1130048 6.1539467,5.0882025 6.0160784,4.9472165 5.8174913,4.7523255 5.7977943,4.371077 6.0390628,4.2016013 c 0.08307,-0.05919 0.1864971,-0.085072 0.2873535,-0.088609 z" />
    <path
       id="path5462"
       style="fill:#808080;stroke-width:0.0179133"
       d="M 6.3505628,0.45935624 C 6.1880226,0.4663063 6.0238405,0.54335218 5.9324863,0.68116987 5.7944064,0.88496078 5.8118394,1.1813026 5.975826,1.365587 6.050348,1.450575 6.158542,1.5011439 6.2700388,1.5136869 6.4044914,1.5317059 6.5490172,1.5050869 6.6572904,1.4199489 6.8030241,1.3089161 6.8724729,1.1179471 6.8585056,0.93825693 6.8478763,0.78042069 6.7692116,0.62400629 6.6351766,0.53610021 6.5523512,0.47890579 6.4504332,0.45475084 6.3505628,0.45935624 Z" />
    <path
       id="path5502"
       style="fill:#808080;stroke-width:0.0179133"
       d="M 6.3179221,2.2721617 C 6.1755646,2.2769117 6.0294866,2.3333717 5.939056,2.446907 5.840574,2.5675519 5.8176274,2.734575 5.846696,2.8841932 5.876611,3.046089 5.980872,3.194081 6.1282581,3.2694621 6.3466903,3.3866736 6.6415121,3.3090081 6.7842536,3.1093555 6.8233253,3.0559845 6.8485823,2.9932406 6.8564582,2.9275079 6.8785158,2.7948065 6.8585645,2.6536655 6.7893726,2.5372233 6.7012734,2.3826289 6.531573,2.2767826 6.3529,2.2723482 6.3412548,2.2716341 6.3295804,2.2722458 6.3179221,2.2721617 Z" />
    <path
       id="path5542"
       style="fill:#808080;stroke-width:0.0179133"
       d="m 6.3251707,4.0732005 c -0.1348497,0.00324 -0.2719531,0.054678 -0.362649,0.157093 -0.090264,0.099011 -0.1367027,0.2355133 -0.1258353,0.36904 0.01308,0.1910783 0.1205634,0.3796815 0.2920354,0.4706052 0.088727,0.046121 0.1921329,0.051545 0.2902073,0.047066 0.1018617,-0.00507 0.2039468,-0.039055 0.2811207,-0.107266 C 6.8173739,4.9095498 6.8719521,4.7504951 6.8641369,4.5988096 6.8617771,4.4847601 6.8253731,4.3704038 6.752684,4.2815045 6.6774939,4.1882827 6.5789056,4.1045369 6.4578238,4.0826452 c -0.043567,-0.0089 -0.088301,-0.010651 -0.1326531,-0.00944 z" />
  </g>
</svg>
