<?xml version="1.0" encoding="UTF-8" standalone="no"?>
<!-- Created with Inkscape (http://www.inkscape.org/) -->

<svg
   width="48"
   height="48"
   viewBox="0 0 12.7 12.7"
   version="1.1"
   id="svg1465"
   inkscape:version="1.1.2 (b8e25be833, 2022-02-05)"
   sodipodi:docname="Pitomi kesten_0.svg"
   xmlns:inkscape="http://www.inkscape.org/namespaces/inkscape"
   xmlns:sodipodi="http://sodipodi.sourceforge.net/DTD/sodipodi-0.dtd"
   xmlns="http://www.w3.org/2000/svg"
   xmlns:svg="http://www.w3.org/2000/svg">
  <sodipodi:namedview
     id="namedview1467"
     pagecolor="#ffffff"
     bordercolor="#666666"
     borderopacity="1.0"
     inkscape:pageshadow="2"
     inkscape:pageopacity="0.0"
     inkscape:pagecheckerboard="0"
     inkscape:document-units="mm"
     showgrid="false"
     inkscape:zoom="8.647654"
     inkscape:cx="51.401224"
     inkscape:cy="41.803245"
     inkscape:window-width="1746"
     inkscape:window-height="1051"
     inkscape:window-x="165"
     inkscape:window-y="-9"
     inkscape:window-maximized="1"
     inkscape:current-layer="layer1"
     units="px" />
  <defs
     id="defs1462">
    <inkscape:path-effect
       effect="fill_between_many"
       method="originald"
       linkedpaths="#path1556,0,1"
       id="path-effect5136"
       is_visible="true"
       lpeversion="0"
       join="true"
       close="true"
       autoreverse="true"
       applied="false" />
  </defs>
  <g
     inkscape:label="Layer 1"
     inkscape:groupmode="layer"
     id="layer1">
    <path
       inkscape:original-d="M 0.15454721,-0.01693218"
       inkscape:path-effect="#path-effect5136"
       d="M 6.328382,0.13375514 C 6.1491276,0.15171661 6.0030023,0.27123469 5.842871,0.34276513 5.2950233,0.62534544 4.8088721,1.0344977 4.464719,1.5482922 3.9301763,2.3304842 3.730958,3.3381285 3.9537317,4.2614909 4.0157467,4.5358308 4.1001839,4.8044261 4.1699375,5.0768273 3.5145915,4.5890111 2.6601368,4.3992879 1.8550923,4.5054232 1.5973665,4.5523791 1.3311586,4.579866 1.0879938,4.6829224 0.9573612,4.734783 0.854881,4.843582 0.81418338,4.9785011 0.74230291,5.1979196 0.7014368,5.4267224 0.66433837,5.6542743 0.55433594,6.4011945 0.73317324,7.206629 1.2250752,7.7904119 c 0.4324589,0.5171732 1.0464162,0.8327577 1.654118,1.0973117 0.6983647,0.2999751 1.403881,0.587932 2.1123026,0.8597875 0.3370641,0.1316972 0.6699243,0.2760679 1.016471,0.3813069 0.085324,0.02741 0.1823893,0.07863 0.1846476,0.181164 0.026866,0.227958 -0.029574,0.455882 -0.015407,0.684556 0,0.523968 0,1.047937 0,1.571904 0.1119453,0 0.2238904,0 0.3358354,0 -0.00195,-0.600607 0.0039,-1.201414 -0.0029,-1.801899 -0.00796,-0.17288 -0.047228,-0.352651 0.00523,-0.521657 0.062971,-0.100724 0.1950983,-0.118061 0.2986688,-0.156593 C 7.290977,9.9246673 7.7531604,9.7226752 8.2236794,9.5433777 9.091183,9.2099578 9.9953928,8.9298146 10.76984,8.4008822 11.277445,8.0569903 11.708654,7.5760106 11.915448,6.992104 12.120024,6.4278983 12.106504,5.8011777 11.940054,5.2291991 11.896582,5.0495353 11.864354,4.8329557 11.689941,4.7301522 11.450533,4.5886072 11.165112,4.5690076 10.898015,4.5150601 10.079075,4.389319 9.2038047,4.575305 8.5319264,5.0677297 8.5105225,5.0681659 8.5600357,4.9649308 8.5635465,4.9289324 8.6775495,4.5589702 8.8001903,4.1850435 8.8094692,3.794294 8.8587794,2.9579626 8.6384036,2.0963681 8.1349206,1.420265 7.774537,0.92499377 7.2726475,0.54832576 6.7260052,0.2800446 6.60332,0.21916122 6.4740591,0.12877389 6.328382,0.13375514 Z"
       id="path5138"
       style="fill:#808080;stroke-width:0.0991054" />
    <path
       id="path1556"
       style="fill:#000000;stroke:none;stroke-width:0.0209773"
       d="M 6.328382,0.13375514 C 6.1491276,0.15171661 6.0030023,0.27123469 5.842871,0.34276513 5.2950233,0.62534544 4.8088721,1.0344977 4.464719,1.5482922 3.9301763,2.3304842 3.730958,3.3381285 3.9537317,4.2614909 4.0157467,4.5358308 4.1001839,4.8044261 4.1699375,5.0768273 3.5145915,4.5890111 2.6601368,4.3992879 1.8550923,4.5054232 1.5973665,4.5523791 1.3311586,4.579866 1.0879938,4.6829224 0.9573612,4.734783 0.854881,4.843582 0.81418338,4.9785011 0.74230291,5.1979196 0.7014368,5.4267224 0.66433837,5.6542743 0.55433594,6.4011945 0.73317324,7.206629 1.2250752,7.7904119 c 0.4324589,0.5171732 1.0464162,0.8327577 1.654118,1.0973117 0.6983647,0.2999751 1.403881,0.587932 2.1123026,0.8597875 0.3370641,0.1316972 0.6699243,0.2760679 1.016471,0.3813069 0.085324,0.02741 0.1823893,0.07863 0.1846476,0.181164 0.026866,0.227958 -0.029574,0.455882 -0.015407,0.684556 0,0.523968 0,1.047937 0,1.571904 0.1119453,0 0.2238904,0 0.3358354,0 -0.00195,-0.600607 0.0039,-1.201414 -0.0029,-1.801899 -0.00796,-0.17288 -0.047228,-0.352651 0.00523,-0.521657 0.062971,-0.100724 0.1950983,-0.118061 0.2986688,-0.156593 C 7.290977,9.9246673 7.7531604,9.7226752 8.2236794,9.5433777 9.091183,9.2099578 9.9953928,8.9298146 10.76984,8.4008822 11.277445,8.0569903 11.708654,7.5760106 11.915448,6.992104 12.120024,6.4278983 12.106504,5.8011777 11.940054,5.2291991 11.896582,5.0495353 11.864354,4.8329557 11.689941,4.7301522 11.450533,4.5886072 11.165112,4.5690076 10.898015,4.5150601 10.079075,4.389319 9.2038047,4.575305 8.5319264,5.0677297 8.5105225,5.0681659 8.5600357,4.9649308 8.5635465,4.9289324 8.6775495,4.5589702 8.8001903,4.1850435 8.8094692,3.794294 8.8587794,2.9579626 8.6384036,2.0963681 8.1349206,1.420265 7.774537,0.92499377 7.2726475,0.54832576 6.7260052,0.2800446 6.60332,0.21916122 6.4740591,0.12877389 6.328382,0.13375514 Z M 6.1772076,2.9433527 C 5.9292032,2.7812149 5.7527232,2.5221602 5.5409921,2.3104147 5.4547474,2.2210234 5.3765476,2.0887878 5.2401589,2.079278 5.1509279,2.084758 5.0917095,2.162009 5.0235596,2.2101281 c -0.015524,0.059773 0.022153,0.097122 0.065565,0.1320281 0.2700369,0.2670941 0.5484706,0.5261255 0.8131484,0.7983637 0.087645,0.096743 0.1752888,0.1934865 0.2629333,0.2902297 0.017636,0.3815585 0.010818,0.7635052 0.012001,1.1453249 C 6.0193003,4.4525929 5.896725,4.2906658 5.7490762,4.1555434 5.5364636,3.94242 5.320849,3.7320897 5.1158901,3.5116598 5.030692,3.4195111 4.8861067,3.3852635 4.7762027,3.453716 4.7350267,3.479126 4.669647,3.496544 4.6879187,3.5567609 c 0.00574,0.055158 0.076056,0.083233 0.107676,0.1275548 0.3429319,0.3399085 0.693438,0.6724666 1.0316095,1.0169951 0.1126678,0.1220753 0.2253356,0.2441505 0.3380034,0.3662259 0.017044,0.3475523 0.011141,0.6954909 0.012001,1.0433159 C 5.91755,5.9386471 5.7407053,5.6750429 5.5226727,5.4576194 5.4415317,5.3706497 5.359235,5.2427667 5.2256416,5.2477453 c -0.082046,0.014855 -0.1374506,0.083432 -0.202082,0.1298821 -0.015524,0.059773 0.022153,0.097122 0.065565,0.1320282 0.270036,0.2670949 0.5484726,0.5261238 0.8131468,0.7983652 0.087581,0.096679 0.1751609,0.1933565 0.2627412,0.2900347 0.018164,0.8454519 0.010836,1.6910937 0.012195,2.5366707 C 6.0870563,8.9362118 6.0243583,8.726446 5.9314615,8.5288252 5.6746166,7.910985 5.4184293,7.2929056 5.1423165,6.6833757 4.7823554,5.8692249 4.4287295,5.0433731 4.283173,4.1593288 4.203692,3.669857 4.2014185,3.1499128 4.3255638,2.6675224 4.4644471,2.1136388 4.7735567,1.5925972 5.1988547,1.2040026 5.4724297,0.95009885 5.7721677,0.69518718 6.1332684,0.57179298 c 0.073943,-0.0434473 0.034016,0.065174 0.043939,0.10653823 0,0.75500719 0,1.51001439 2e-7,2.26502149 z M 6.5440135,0.56908307 C 6.8445089,0.67587297 7.0948106,0.88318009 7.3414892,1.0789818 7.8544567,1.506209 8.2240988,2.0937263 8.3818505,2.7435325 8.5062674,3.2188683 8.5090987,3.7212194 8.4083672,4.2012208 8.2663055,4.8906503 7.9793438,5.5311776 7.7317566,6.1862615 7.349156,7.1705217 6.9586121,8.1544421 6.513043,9.1134341 6.5143364,8.2749539 6.507181,7.4364108 6.5252377,6.5980555 6.7048069,6.3970289 6.8855453,6.1971747 7.0835715,6.013957 7.2779416,5.8245554 7.4723375,5.6351807 7.6666911,5.4457624 7.6805974,5.3887819 7.6489042,5.3539047 7.602319,5.3258484 7.5393874,5.2621211 7.4370105,5.2149321 7.3554647,5.2753105 7.2311056,5.3589731 7.1503748,5.4904943 7.0418107,5.5919662 6.8748126,5.7731079 6.7222036,5.9751154 6.513043,6.1108522 6.5139251,5.7630277 6.5079293,5.4150873 6.5250441,5.0675362 6.7429229,4.8301295 6.9592731,4.5912378 7.194554,4.3707157 7.4638269,4.1067663 7.7329934,3.8427081 8.0023331,3.578827 8.0164763,3.5188999 7.9845876,3.484487 7.9309075,3.4619136 7.8270735,3.3937148 7.6838425,3.4057941 7.5949723,3.4936069 7.4575158,3.627767 7.3312959,3.7734652 7.1913203,3.9054771 6.9827012,4.1109164 6.778747,4.3210828 6.5726611,4.5288445 6.5048064,4.6117258 6.5085073,4.5358996 6.513043,4.4670587 6.5133404,4.1215635 6.509004,3.7759949 6.5250441,3.4307497 6.704685,3.229665 6.8854812,3.0297398 7.0835715,2.8464576 7.2779416,2.6570561 7.4723375,2.4676812 7.6666911,2.278263 7.6805974,2.2212824 7.6489042,2.1864052 7.602319,2.158349 7.5394958,2.0946796 7.4374046,2.0473516 7.3558136,2.1075534 7.2311844,2.1912283 7.1505379,2.3228858 7.0418107,2.4244668 6.8748692,2.6057297 6.7221524,2.8073993 6.513043,2.9433527 c 0,-0.7943912 0,-1.5887824 0,-2.38317363 0.010322,0.002968 0.020647,0.005936 0.030971,0.008904 z M 2.3273912,4.8362259 c 0.6704084,0.00289 1.3665332,0.2008354 1.8637479,0.6673878 0.1156174,0.1139082 0.242533,0.2394747 0.3035955,0.4014193 0.162968,0.452663 0.3600217,0.8943088 0.5380749,1.3425045 0.3104141,0.7636369 0.6591117,1.5145863 0.961092,2.2793517 C 5.8268331,9.3789826 5.6897004,9.2007994 5.5237736,9.0512733 5.268375,8.8056403 5.0167013,8.5559305 4.7595248,8.3122804 4.6491328,8.2083889 4.5055106,8.1145073 4.4597505,7.9591945 4.3797089,7.5790294 4.4586882,7.1930604 4.4580133,6.809949 c 0.0026,-0.1255887 0.037545,-0.3007797 -0.086962,-0.3859085 -0.091335,-0.05542 -0.2302052,-0.017799 -0.2541248,0.094196 -0.033794,0.1523189 -0.0094,0.3107769 -0.013541,0.4656151 0.00365,0.2309909 0.018726,0.4742758 0.01487,0.6977811 C 3.8847399,7.518253 3.7345034,7.2655864 3.5087319,7.0928658 3.3882785,7.0014076 3.3907931,6.8381266 3.3765009,6.7019214 3.359163,6.3727195 3.4111303,6.0484494 3.409033,5.7192699 3.3019037,5.7355701 3.1947948,5.7520079 3.0877149,5.768629 3.0647809,6.0632258 3.0733895,6.35864 3.0724232,6.6538022 2.9046693,6.5266826 2.7802372,6.3529491 2.6221984,6.2146318 2.3167792,5.922585 2.0261496,5.6145956 1.7097606,5.3343136 1.5826054,5.2239213 1.4457083,5.1177168 1.3558879,4.9726893 1.677013,4.8783441 1.9959182,4.8362699 2.3273912,4.8362259 Z m 8.0362428,0 c 0.327873,-1.783e-4 0.656372,0.043251 0.970923,0.136657 -0.169313,0.2669594 -0.453448,0.427533 -0.665321,0.6561915 -0.346796,0.3466201 -0.659331,0.7308397 -1.0492794,1.0316962 0.00659,-0.3109299 0.013107,-0.6218613 0.019744,-0.9327903 -0.1194942,0 -0.2389883,1e-7 -0.3584826,0 -0.00424,0.3938958 0.079645,0.7879978 0.00627,1.1797531 C 9.2665337,7.0808783 9.0881654,7.1566351 8.9839424,7.2747234 8.847934,7.4126147 8.7308568,7.5725475 8.5694838,7.6829879 8.5711432,7.316325 8.5989171,6.9494597 8.5863243,6.5829575 8.585218,6.482648 8.5037728,6.3778738 8.3948884,6.4008126 8.2754573,6.4053213 8.2215859,6.5332511 8.2267971,6.6376148 c 0.00295,0.2663608 0.022477,0.5365458 0.03597,0.8052627 0.00389,0.1930476 0.014043,0.3952639 -0.055056,0.5786558 C 8.0974036,8.2021153 7.9128889,8.3075148 7.772494,8.4626803 7.4415894,8.7915911 7.0941109,9.1043235 6.780078,9.4497268 6.7577221,9.4680975 6.6742062,9.5643446 6.7152115,9.4869799 7.0783075,8.6027908 7.4600487,7.7262247 7.8236548,6.842381 7.9687145,6.4634875 8.0523481,6.0495657 8.3007064,5.7195424 8.6609646,5.2562019 9.2266366,4.9843097 9.7906131,4.8875319 9.9795621,4.8530252 10.171674,4.8378054 10.363634,4.8362259 Z M 2.353716,6.4257826 c 0.1599181,0.1595951 0.3194845,0.3196779 0.4792673,0.4794608 -0.3117038,0.00654 -0.6234129,0.012846 -0.9351131,0.01955 0,0.1115581 0,0.2231161 0,0.3346743 0.4237896,-0.00151 0.8476023,-6.55e-5 1.2713356,-0.00832 0.1573095,0.125931 0.3055202,0.2617242 0.4433881,0.4087252 0.096225,0.097198 0.1924501,0.1943955 0.2886752,0.2915933 -0.3137624,0.00412 -0.6280916,-0.00852 -0.9414739,0.0068 -0.1038266,0.00687 -0.207634,0.014016 -0.3114731,0.020686 -0.023626,0.1098643 -0.046975,0.2197879 -0.070652,0.3296414 0.4357896,-0.00192 0.8714077,-0.019039 1.3070801,-0.025379 0.1659903,-0.00949 0.3577267,-0.033312 0.4910109,0.090513 C 4.5488505,8.5203296 4.67986,8.709221 4.85313,8.8562173 5.1308157,9.1152058 5.4288541,9.354314 5.6712284,9.6494163 5.0402224,9.450036 4.4509857,9.1421371 3.8294472,8.9174061 3.1763181,8.6674063 2.5098542,8.434116 1.9469787,8.0086442 1.4898374,7.6681272 1.1471106,7.1678453 1.0317167,6.6064754 0.94475663,6.206253 0.96947491,5.78871 1.0521973,5.3901116 1.0676758,5.3283431 1.0885957,5.2675808 1.1195449,5.2117422 1.5309353,5.6164223 1.9423256,6.0211025 2.353716,6.4257826 Z m 9.229765,-1.1735853 c 0.09111,0.294648 0.146993,0.5924577 0.129545,0.899824 -0.0049,0.359293 -0.08991,0.7408789 -0.271735,1.0646344 C 11.172189,7.7135174 10.70284,8.0694186 10.206813,8.329702 9.5764955,8.6605875 8.8872694,8.8785534 8.238676,9.1767299 7.8343309,9.3546822 7.4384469,9.5364843 7.0139896,9.6558035 7.3616615,9.230545 7.8237879,8.9215028 8.1791398,8.5034951 8.2736245,8.404414 8.3808886,8.2960143 8.523991,8.2799427 c 0.090859,-0.010975 0.2094736,-5.848e-4 0.3103809,0.00468 0.4261085,0.00396 0.852029,0.023036 1.2782081,0.023974 C 10.0889,8.1987365 10.06556,8.0888128 10.04193,7.9789486 9.7952742,7.9602066 9.5485388,7.9447276 9.3010404,7.9514626 c -0.1706213,0 -0.3412424,0 -0.5118636,0 0.2317721,-0.2262593 0.4467056,-0.4707003 0.7003726,-0.6733189 0.047191,-0.053288 0.1275528,-0.014509 0.1902436,-0.024776 0.370824,0.00672 0.741725,0.00413 1.112589,0.0061 0,-0.1115582 0,-0.2231162 0,-0.3346742 -0.318345,-0.00683 -0.6367,-0.013256 -0.9550498,-0.019933 0.2370138,-0.284227 0.5432538,-0.499388 0.7905598,-0.7741014 0.303503,-0.3158867 0.592557,-0.6506329 0.944172,-0.9151412 0.0038,0.012194 0.0076,0.024389 0.01142,0.036584 z" />
  </g>
</svg>
