<?xml version="1.0" encoding="UTF-8" standalone="no"?>
<!-- Created with Inkscape (http://www.inkscape.org/) -->

<svg
   width="48"
   height="48"
   viewBox="0 0 12.7 12.7"
   version="1.1"
   id="svg1465"
   inkscape:version="1.1.2 (b8e25be833, 2022-02-05)"
   sodipodi:docname="Pitomi kesten.svg"
   xmlns:inkscape="http://www.inkscape.org/namespaces/inkscape"
   xmlns:sodipodi="http://sodipodi.sourceforge.net/DTD/sodipodi-0.dtd"
   xmlns="http://www.w3.org/2000/svg"
   xmlns:svg="http://www.w3.org/2000/svg">
  <sodipodi:namedview
     id="namedview1467"
     pagecolor="#ffffff"
     bordercolor="#666666"
     borderopacity="1.0"
     inkscape:pageshadow="2"
     inkscape:pageopacity="0.0"
     inkscape:pagecheckerboard="0"
     inkscape:document-units="mm"
     showgrid="false"
     inkscape:zoom="4.323827"
     inkscape:cx="72.505213"
     inkscape:cy="76.436916"
     inkscape:window-width="1746"
     inkscape:window-height="1051"
     inkscape:window-x="165"
     inkscape:window-y="-9"
     inkscape:window-maximized="1"
     inkscape:current-layer="layer1"
     units="px" />
  <defs
     id="defs1462" />
  <g
     inkscape:label="Layer 1"
     inkscape:groupmode="layer"
     id="layer1">
    <path
       style="fill:#2a2626;stroke:none;stroke-width:0.0213847"
       d="M 4.2169857,5.2929969 C 3.52205,4.7007075 2.4930869,4.478415 1.6080636,4.6514798 1.3921645,4.693693 1.0147047,4.7381522 0.85323381,4.9016374 0.73707901,5.0192318 0.69328983,5.3070037 0.65808221,5.4640744 0.52332068,6.0652807 0.54637544,6.6641572 0.77835345,7.2389967 1.1826915,8.2409512 2.1290139,8.6955664 3.0622168,9.08714 3.587102,9.307401 4.1125433,9.529502 4.6446779,9.731929 c 0.3791492,0.144218 0.7529734,0.302784 1.1333843,0.44358 0.1128893,0.04176 0.3593683,0.08905 0.4270933,0.194066 0.088917,0.137824 0.021984,0.492401 0.021984,0.654498 v 1.710767 h 0.2352307 v -1.710767 c 0,-0.160023 -0.067361,-0.518921 0.021984,-0.653985 0.068579,-0.103672 0.3146097,-0.152943 0.4270922,-0.194579 0.3728408,-0.137994 0.7428588,-0.286874 1.112,-0.434513 C 9.4416308,9.17379 11.328201,8.7172292 11.94859,7.1534579 12.166178,6.6049851 12.17409,5.9644955 12.01608,5.3999206 11.975513,5.2549966 11.945255,5.0119819 11.836278,4.9016374 11.674803,4.7381522 11.297344,4.693693 11.081444,4.6514798 10.197019,4.4785434 9.1669884,4.7010925 8.4725227,5.2929969 8.5711701,4.8665881 8.7466525,4.4739242 8.7896568,4.0313053 8.9120624,2.7715379 8.4806062,1.5746413 7.4674465,0.7811569 7.2284517,0.5939839 6.9685863,0.4405771 6.6976005,0.3051034 6.5949968,0.2538104 6.472955,0.1732246 6.3554465,0.1674058 6.2323568,0.1613138 6.0979545,0.2520932 5.9919082,0.3051034 5.7043921,0.4488487 5.4294289,0.6123426 5.1792931,0.8152975 4.2951678,1.5326847 3.7985318,2.6325594 3.8767566,3.7746899 3.9135595,4.3121708 4.0976168,4.776987 4.2169857,5.2929969 M 6.2271389,0.4814602 V 3.0689977 C 5.953587,2.9414386 5.7128605,2.5974885 5.5000622,2.3846903 5.4367851,2.3214133 5.3196616,2.1512987 5.2220624,2.1506358 5.1618432,2.1502317 5.0975825,2.223878 5.0509854,2.2563826 v 0.021384 l 0.8339997,0.8126155 0.3292588,0.3635383 0.012895,0.406308 V 4.7369973 C 6.0832633,4.6698925 5.9747791,4.5274063 5.8636006,4.4162282 L 5.2434469,3.7960749 C 5.0517767,3.6044045 4.9603147,3.4068533 4.7088317,3.5822285 v 0.021385 l 1.090615,1.0692298 0.4147972,0.4490769 0.012895,0.3849229 V 6.2980732 C 5.953587,6.1705142 5.7128605,5.8265648 5.5000622,5.6137661 5.4367851,5.5504891 5.3196616,5.3803744 5.2220624,5.3797117 5.1618432,5.3793075 5.0975825,5.4529541 5.0509854,5.4854584 v 0.021385 l 0.8339997,0.8126145 0.3292588,0.3635379 0.012895,0.8553848 V 9.462996 C 6.0963079,9.328144 6.0387832,9.0792483 5.9645145,8.9069964 5.7747903,8.4669434 5.5977685,8.0213733 5.4085147,7.5811497 4.662983,5.8469869 3.4981421,3.7315574 4.5559317,1.8928443 4.6954663,1.6503215 4.8724026,1.425612 5.07237,1.2302422 5.3581112,0.951049 5.8215156,0.553768 6.2271389,0.4814602 M 6.4837542,9.462996 H 6.4623696 V 7.5383809 L 6.4752646,6.6829961 6.8045232,6.3194582 7.638523,5.5068433 V 5.485458 C 7.5919261,5.4529541 7.5276651,5.3793056 7.4674465,5.3797117 7.3698467,5.3804188 7.252723,5.5504891 7.1894462,5.6137661 6.9766484,5.8265648 6.735921,6.1705142 6.4623696,6.2980732 V 5.5068433 L 6.4752646,5.1219204 6.890062,4.6728435 7.9806771,3.6036134 V 3.5822282 C 7.7291941,3.4068533 7.637732,3.6044045 7.4460615,3.7960749 L 6.8259082,4.4162282 C 6.714729,4.5274063 6.6062454,4.6698925 6.4623696,4.7369973 V 3.8602287 L 6.4752646,3.4539207 6.8045232,3.0903824 7.638523,2.2777673 V 2.2563826 C 7.5919261,2.223878 7.5276651,2.1502295 7.4674465,2.1506358 7.3698467,2.1513026 7.252723,2.3214133 7.1894462,2.3846903 6.9766484,2.5974885 6.735921,2.9414386 6.4623696,3.0689977 V 0.4814602 C 6.7336762,0.5298215 7.0378078,0.7584058 7.2536,0.9231465 7.9817672,1.4790521 8.4163665,2.2302293 8.5456793,3.1331515 8.6833969,4.0949883 8.3169068,4.9920518 7.9766349,5.8703813 7.5105366,7.073501 7.0358407,8.2965296 6.4837542,9.462996 M 6.0988312,9.826534 C 5.9160998,9.741317 5.7698076,9.54028 5.6283699,9.398842 5.3465421,9.117015 5.0548775,8.8467339 4.7729855,8.5648422 4.6539374,8.4457938 4.4157129,8.2841909 4.3734783,8.1157653 c -0.087313,-0.3482906 -0.0068,-0.8164428 -0.0068,-1.1761538 0,-0.1022178 0.045122,-0.343223 -0.087869,-0.3780156 -0.1919696,-0.050253 -0.1687459,0.1735155 -0.1687459,0.2924778 0,0.3499374 0.021384,0.6973309 0.021384,1.0478452 C 3.8990821,7.7935636 3.7190664,7.5214867 3.5326783,7.347844 3.4510532,7.2718 3.3378858,7.2032201 3.3067285,7.0893041 3.2095996,6.7344051 3.2974479,6.2389668 3.2974479,5.8703813 l -0.2223358,0.03428 -0.013729,0.2651049 8.386e-4,0.6843081 C 2.8940532,6.7756566 2.7678627,6.5985698 2.6353637,6.471139 2.3263988,6.1739997 2.0249186,5.8682002 1.7149915,5.5718307 1.5399157,5.4044326 1.2844381,5.2381459 1.1803762,5.0149977 2.2407321,4.6759441 3.6668074,4.8468499 4.4011122,5.7848426 4.5085057,5.9220257 4.554889,6.1163683 4.6190213,6.2766892 4.7420256,6.5841781 4.8723006,6.8887592 4.9953904,7.1962268 5.3485785,8.0784703 5.7552283,8.9408903 6.0988361,9.826534 M 11.509142,5.0149977 C 11.391076,5.2681487 11.088099,5.4669821 10.888987,5.6573694 10.476928,6.051381 10.09363,6.5469688 9.6272965,6.8754577 L 9.6486818,5.8703813 H 9.3920663 c 0,0.3686067 0.087805,0.8639814 -0.00929,1.2189228 C 9.3493793,7.211453 9.2242581,7.2905764 9.135448,7.3709394 8.9522035,7.5367341 8.7835213,7.7967713 8.5580635,7.9019189 c 0,-0.3503011 0.021384,-0.6985493 0.021384,-1.0478452 0,-0.1189623 0.023224,-0.3427309 -0.1687457,-0.2924778 -0.1329904,0.034793 -0.08787,0.2757978 -0.08787,0.3780156 0,0.359711 0.080514,0.8278632 -0.0068,1.1761538 C 8.2737984,8.2841909 8.0355745,8.4457938 7.9165263,8.5648422 7.6346344,8.8467339 7.3428627,9.117121 7.0611416,9.398842 6.9197041,9.54028 6.7734122,9.741317 6.5906798,9.826534 6.9720324,8.8970092 7.3689728,7.9730448 7.7577663,7.0465352 7.9202472,6.6593239 8.031105,6.1166249 8.2884902,5.7848426 9.017898,4.8445829 10.452483,4.6771202 11.50914,5.0149977 M 1.0092973,5.2074591 2.3137585,6.4905347 2.891143,7.0679192 1.8646817,7.0893041 v 0.2352303 l 0.7912306,-0.00193 0.4704613,-0.00657 0.2566154,0.2162418 0.5987689,0.6048636 h -0.983692 l -0.3781226,0.025217 -0.04957,0.2314033 c 0.3855431,0 0.7706157,-0.021385 1.1547689,-0.021385 0.1494783,0 0.3488898,-0.034386 0.491846,0.012061 0.1893179,0.061502 0.3552196,0.3003901 0.491846,0.4370165 C 5.0611883,9.173806 5.5123181,9.504455 5.7994492,9.912068 5.2249094,9.755231 4.6629218,9.474558 4.1100656,9.25342 3.1169217,8.8561576 1.9046495,8.5188584 1.25994,7.6025277 0.89355749,7.0817915 0.76672323,6.4759227 0.83714696,5.8489894 0.85904907,5.6540264 0.88407119,5.3641582 1.0092973,5.2074521 m 10.6923047,0 c 0.09461,0.2907441 0.170948,0.5903213 0.171076,0.8981526 1.01e-4,0.2787277 -0.02002,0.5438537 -0.100957,0.8126157 C 11.361586,8.2796284 9.9236645,8.7012474 8.7505261,9.185223 8.1542804,9.431211 7.5175966,9.763357 6.890065,9.912066 7.1769175,9.504838 7.6285605,9.173569 7.9806801,8.8214504 8.1183108,8.6838187 8.2829942,8.4501926 8.4725258,8.384969 c 0.1407959,-0.048456 0.3438857,-0.012595 0.4918456,-0.012595 0.3841531,0 0.7692257,0.021385 1.1547676,0.021385 L 10.06957,8.1623552 9.6914484,8.1371432 H 8.7077561 l 0.5987695,-0.6024044 0.2566153,-0.2187009 0.4704611,0.00657 0.791229,0.00193 V 7.0893041 L 9.7983708,7.0679189 C 9.9905335,6.7951159 10.28949,6.5768009 10.525448,6.3408431 10.896,5.9702906 11.273845,5.508768 11.701602,5.2074591 Z"
       id="path1556" />
  </g>
</svg>
