<?xml version="1.0" encoding="UTF-8" standalone="no"?>
<!-- Created with Inkscape (http://www.inkscape.org/) -->

<svg
   width="48"
   height="48"
   viewBox="0 0 12.7 12.7"
   version="1.1"
   id="svg5"
   inkscape:version="1.1.2 (b8e25be833, 2022-02-05)"
   sodipodi:docname="Platana.svg"
   xmlns:inkscape="http://www.inkscape.org/namespaces/inkscape"
   xmlns:sodipodi="http://sodipodi.sourceforge.net/DTD/sodipodi-0.dtd"
   xmlns="http://www.w3.org/2000/svg"
   xmlns:svg="http://www.w3.org/2000/svg">
  <sodipodi:namedview
     id="namedview7"
     pagecolor="#ffffff"
     bordercolor="#666666"
     borderopacity="1.0"
     inkscape:pageshadow="2"
     inkscape:pageopacity="0.0"
     inkscape:pagecheckerboard="0"
     inkscape:document-units="mm"
     showgrid="false"
     inkscape:zoom="4.323827"
     inkscape:cx="94.245214"
     inkscape:cy="75.743086"
     inkscape:window-width="1746"
     inkscape:window-height="1051"
     inkscape:window-x="165"
     inkscape:window-y="-9"
     inkscape:window-maximized="1"
     inkscape:current-layer="layer1"
     units="px" />
  <defs
     id="defs2" />
  <g
     inkscape:label="Layer 1"
     inkscape:groupmode="layer"
     id="layer1">
    <path
       style="fill:#2c2828;stroke:none;stroke-width:0.0212803"
       d="M 4.8467694,1.1471135 C 4.8536833,1.482172 4.9117169,1.7689871 4.8221905,2.1047254 4.7715017,2.2948009 4.6884232,2.4715335 4.5820644,2.6367322 3.8325309,3.8008906 2.3410824,3.2616701 1.2716854,3.0410576 1.4169679,3.5349509 2.1006793,4.3639662 1.5270315,4.8175767 1.4430872,4.8839701 1.348039,4.9372133 1.2504051,4.9804972 1.1070549,5.0440617 0.95622048,5.091517 0.80351967,5.1265229 0.930101,5.2919127 1.1306186,5.4179987 1.2929656,5.5478721 1.6365077,5.8227282 2.0020239,6.0932644 2.314397,6.4034239 2.5316897,6.6191625 2.7436624,6.9295354 2.5595882,7.2332475 2.435354,7.4381977 2.2083574,7.5123596 1.9952143,7.5884789 1.6979885,7.6946245 1.4009268,7.8002171 1.1014433,7.9000431 0.96163627,7.9466467 0.58360299,7.9891858 0.59789273,8.1909016 0.60746677,8.326032 0.77509778,8.4352207 0.86736037,8.5161499 1.1456063,8.7602126 1.4314982,8.9925076 1.7398512,9.1981393 3.019859,10.051818 4.6347547,10.638111 6.1874259,10.638111 v 1.468338 c 0,0.1516 -0.068969,0.46127 0.1689871,0.422434 0.1437262,-0.02345 0.086375,-0.335759 0.086375,-0.443715 v -1.447057 c 1.5550549,0 3.1658221,-0.585059 4.447576,-1.4399717 C 11.198715,8.9924866 11.4827,8.7611275 11.762855,8.5191075 11.854992,8.4394966 12.022878,8.3242444 12.032327,8.1909016 12.046605,7.9891858 11.668583,7.9466467 11.528772,7.9000431 11.208079,7.7931524 10.887449,7.6840269 10.57116,7.5647302 10.377702,7.4917606 10.183562,7.4195772 10.070628,7.2332475 9.8879152,6.9318126 10.097674,6.6175028 10.315819,6.4036582 10.64445,6.0814955 11.025345,5.8076407 11.379811,5.514888 11.528836,5.3918028 11.708803,5.2806556 11.826696,5.1265229 11.659602,5.0794506 11.494575,5.0365287 11.33725,4.9608776 11.238296,4.9133158 11.143259,4.8532631 11.061458,4.7796541 10.554371,4.3232781 11.222272,3.5131174 11.35853,3.0410576 10.273322,3.2650532 8.8536935,3.7853766 8.0645159,2.6580128 7.9567737,2.5040922 7.872142,2.3289774 7.8235587,2.1472865 7.728628,1.7922895 7.7761044,1.5031753 7.7834456,1.1471135 7.1164581,1.1997576 6.6829791,0.66002541 6.442789,0.083101 6.3766289,0.09091467 6.256012,0.07063285 6.2009813,0.10580915 6.0547015,0.19932738 5.9525129,0.53619818 5.837132,0.67894843 5.5648295,1.0158982 5.277737,1.1811281 4.8467694,1.1471135 M 6.3363881,0.42358517 c 0.2344234,0.44035273 0.635258,0.93517833 1.1704148,0.97889263 0,0.2908154 0.00143,0.5710341 0.092739,0.8512097 0.2751749,0.8442738 1.0747379,1.3588517 1.950166,1.380472 0.4604411,0.011363 0.9080501,-0.194268 1.3619371,-0.2313378 -0.188332,0.5532653 -0.501278,1.2066762 0.08512,1.6351967 0.09912,0.072437 0.205227,0.1287241 0.319204,0.1736258 -0.07774,0.1534301 -0.27277,0.2629807 -0.404324,0.3707873 -0.312096,0.2558095 -0.674243,0.5017453 -0.9253081,0.820907 -0.070564,0.089696 -0.1289152,0.1921608 -0.1716251,0.2979233 -0.1375553,0.3406545 -0.00745,0.7031213 0.2882842,0.9105828 0.438183,0.3073939 1.090486,0.4358194 1.59602,0.6003165 -0.06384,0.1310012 -0.208462,0.2254002 -0.319204,0.3174798 C 11.116852,8.7483171 10.840549,8.9508202 10.54988,9.1312975 9.3200931,9.8949187 7.8901028,10.341889 6.442789,10.404028 V 8.7441669 c 0,-0.2022686 -0.063607,-0.5323044 0.012833,-0.7199108 C 6.5376564,7.8229445 6.8770772,7.6275495 7.0386367,7.4853333 7.5609398,7.0255731 8.0863917,6.568835 8.6133757,6.1144374 8.9691608,5.8076618 9.326052,5.5011617 9.6773894,5.1893 9.7597229,5.1162229 10.048751,4.9487046 9.9482443,4.8274072 9.8388423,4.6954487 9.7524662,4.8183387 9.6561089,4.9014624 9.4564571,5.0736627 9.2600828,5.249629 9.0602611,5.4216804 8.4686913,5.9310022 7.8855696,6.4500699 7.2939999,6.9593917 7.0218039,7.1937518 6.7538002,7.5003785 6.442789,7.6801543 V 2.2749681 L 6.2093017,2.3242955 6.1874259,2.6580128 V 3.5305032 7.6801543 L 5.2936549,6.9200658 3.5699538,5.4186794 2.9953866,4.9194876 2.7704117,4.7598636 2.6123419,4.9137198 3.4635525,5.6312481 5.2510948,7.1879418 5.9107822,7.761977 6.1745944,8.022554 6.1874258,8.7441669 V 10.404028 C 4.743092,10.342017 3.3046314,9.8961323 2.0803355,9.1282764 1.7833969,8.9420523 1.4949706,8.7390819 1.2291249,8.5100844 1.1259582,8.4212181 0.9933737,8.3349697 0.93120119,8.2121611 1.3235433,8.0845006 1.7150596,7.9530098 2.1016156,7.8088995 2.3693852,7.7090747 2.6327922,7.600694 2.7835417,7.3396698 3.207785,6.6050331 2.1882476,5.9635177 1.7185709,5.5816865 1.5840627,5.4723268 1.4526974,5.3585414 1.3142458,5.2542044 v -0.04256 c 0.1073164,-0.037199 0.2040141,-0.092846 0.2979239,-0.156602 0.6172339,-0.4190298 0.2969106,-1.09255 0.1064012,-1.6522205 0.453972,0.03707 0.901666,0.2427015 1.3619368,0.2313378 C 3.9097355,3.6136882 4.6954035,3.1484377 4.9943693,2.3600885 5.1140492,2.044524 5.1234132,1.7351093 5.1234132,1.4024778 5.6599311,1.3586507 6.058553,0.8655425 6.2938269,0.42358517 Z"
       id="path854" />
  </g>
</svg>
