<?xml version="1.0" encoding="UTF-8" standalone="no"?>
<!-- Created with Inkscape (http://www.inkscape.org/) -->

<svg
   width="48"
   height="48"
   viewBox="0 0 12.7 12.7"
   version="1.1"
   id="svg5"
   inkscape:version="1.1.2 (b8e25be833, 2022-02-05)"
   sodipodi:docname="Platana_0.svg"
   xmlns:inkscape="http://www.inkscape.org/namespaces/inkscape"
   xmlns:sodipodi="http://sodipodi.sourceforge.net/DTD/sodipodi-0.dtd"
   xmlns="http://www.w3.org/2000/svg"
   xmlns:svg="http://www.w3.org/2000/svg">
  <sodipodi:namedview
     id="namedview7"
     pagecolor="#ffffff"
     bordercolor="#666666"
     borderopacity="1.0"
     inkscape:pageshadow="2"
     inkscape:pageopacity="0.0"
     inkscape:pagecheckerboard="0"
     inkscape:document-units="mm"
     showgrid="false"
     inkscape:zoom="4.323827"
     inkscape:cx="84.069043"
     inkscape:cy="91.238618"
     inkscape:window-width="1746"
     inkscape:window-height="1051"
     inkscape:window-x="165"
     inkscape:window-y="-9"
     inkscape:window-maximized="1"
     inkscape:current-layer="layer1"
     units="px" />
  <defs
     id="defs2">
    <inkscape:path-effect
       effect="fill_between_many"
       method="originald"
       linkedpaths="#path854,0,1"
       id="path-effect5676"
       is_visible="true"
       lpeversion="0"
       join="true"
       close="true"
       autoreverse="true"
       applied="false" />
  </defs>
  <g
     inkscape:label="Layer 1"
     inkscape:groupmode="layer"
     id="layer1">
    <path
       inkscape:original-d="M 0.9516425,0.55243251"
       inkscape:path-effect="#path-effect5676"
       d="m 6.5338848,0.12921824 c -0.108897,0.005629 -0.2425251,-0.02091 -0.3198965,0.0780567 C 6.0443599,0.39623589 5.9961262,0.6662254 5.8077442,0.8418838 5.6253187,1.0482806 5.3618856,1.190767 5.081934,1.1851297 5.022719,1.1868897 4.9636863,1.1804997 4.9045512,1.1784797 4.9090812,1.5250991 4.9790222,1.8773283 4.8699532,2.2164022 4.790039,2.475273 4.6567447,2.71042 4.4718747,2.9119024 4.2442921,3.1581303 3.9240671,3.3033311 3.5984021,3.3461894 3.0135308,3.4240564 2.4385382,3.2818141 1.8723436,3.153914 1.6971491,3.1128204 1.5215652,3.0741314 1.3456517,3.0361901 1.4672531,3.4763743 1.7727458,3.8493401 1.8404719,4.3066431 1.8715395,4.4986838 1.8034833,4.7076634 1.6425827,4.8237963 1.4176292,4.9957575 1.1396088,5.0740638 0.8683094,5.1385936 1.0472621,5.3898832 1.3214048,5.5428662 1.5526762,5.7389522 1.8901336,6.0098307 2.2432193,6.2683997 2.5310452,6.5939244 2.6603312,6.7492079 2.7709939,6.96904 2.6811305,7.1701191 2.586851,7.390757 2.344194,7.4774261 2.1346014,7.5503193 1.803685,7.663923 1.4771516,7.7923515 1.1408206,7.8889298 0.9929871,7.9300983 0.8107675,7.9587635 0.7254084,8.1021373 0.6579788,8.2376418 0.7669043,8.3773232 0.8677268,8.4603755 c 0.3651971,0.313388 0.7338013,0.6261168 1.1440529,0.8801924 1.1007305,0.6966571 2.354144,1.1726371 3.6542843,1.3022521 0.188357,0.01775 0.3774056,0.02851 0.5666174,0.02988 -0.00168,0.486841 0.00336,0.973822 -0.00252,1.460575 -0.00403,0.123073 -0.034992,0.292717 0.079428,0.382768 0.091895,0.06357 0.247354,0.02903 0.2723868,-0.09025 0.045796,-0.171883 -0.00543,-0.350655 0.00843,-0.525557 0,-0.409179 0,-0.818357 0,-1.227536 C 7.8611663,10.658422 9.1088878,10.277241 10.225607,9.6833432 10.772552,9.3923929 11.287318,9.0414938 11.75329,8.6329536 11.881799,8.5114318 12.062553,8.4170105 12.114012,8.235881 12.147358,8.1036593 12.029236,7.9977957 11.915395,7.9589864 11.748179,7.8953727 11.569245,7.8690543 11.402818,7.8019063 11.07432,7.6870333 10.741041,7.5822774 10.422491,7.441606 c -0.187312,-0.0815 -0.34444,-0.2766966 -0.308733,-0.4899662 0.05356,-0.2906319 0.295483,-0.4892636 0.503451,-0.6767699 0.308259,-0.2666072 0.633073,-0.513368 0.950132,-0.7692393 0.14289,-0.1055362 0.28194,-0.2196734 0.386263,-0.365095 C 11.646011,5.0536095 11.305736,4.9778257 11.084173,4.7284443 10.93313,4.552827 10.960873,4.2931029 11.027055,4.0954173 11.141975,3.7278006 11.374652,3.4087432 11.476456,3.0363843 10.861283,3.1611286 10.256747,3.351253 9.6285328,3.3666607 9.2088364,3.3790436 8.7711777,3.2801208 8.45277,2.9977386 8.1215528,2.7121002 7.9098894,2.2807263 7.9002724,1.847301 7.8923498,1.6241769 7.9146723,1.401483 7.918333,1.1784779 7.6574143,1.2096236 7.3859634,1.1436153 7.1763931,0.9829282 6.8900099,0.7699298 6.7060754,0.45058749 6.570977,0.12649945 c -0.012364,9.0631e-4 -0.024728,0.001813 -0.037092,0.002719 z"
       id="path5678"
       style="fill:#808080;stroke-width:0.121598" />
    <path
       id="path854"
       style="fill:#000000;stroke:none;stroke-width:0.0210461"
       d="m 6.5338848,0.12921824 c -0.108897,0.005629 -0.2425251,-0.02091 -0.3198965,0.0780567 C 6.0443599,0.39623589 5.9961262,0.6662254 5.8077442,0.8418838 5.6253187,1.0482806 5.3618856,1.190767 5.081934,1.1851297 c -0.059215,0.00176 -0.1182477,-0.00463 -0.1773828,-0.00665 0.00453,0.3466194 0.074471,0.6988486 -0.034598,1.0379225 C 4.790039,2.475273 4.6567447,2.71042 4.4718747,2.9119024 4.2442921,3.1581303 3.9240671,3.3033311 3.5984021,3.3461894 3.0135308,3.4240564 2.4385382,3.2818141 1.8723436,3.153914 1.6971491,3.1128204 1.5215652,3.0741314 1.3456517,3.0361901 1.4672531,3.4763743 1.7727458,3.8493401 1.8404719,4.3066431 1.8715395,4.4986838 1.8034833,4.7076634 1.6425827,4.8237963 1.4176292,4.9957575 1.1396088,5.0740638 0.8683094,5.1385936 1.0472621,5.3898832 1.3214048,5.5428662 1.5526762,5.7389522 1.8901336,6.0098307 2.2432193,6.2683997 2.5310452,6.5939244 2.6603312,6.7492079 2.7709939,6.96904 2.6811305,7.1701191 2.586851,7.390757 2.344194,7.4774261 2.1346014,7.5503193 1.803685,7.663923 1.4771516,7.7923515 1.1408206,7.8889298 0.9929871,7.9300983 0.8107675,7.9587635 0.7254084,8.1021373 0.6579788,8.2376418 0.7669043,8.3773232 0.8677268,8.4603755 c 0.3651971,0.313388 0.7338013,0.6261168 1.1440529,0.8801924 1.1007305,0.6966571 2.354144,1.1726371 3.6542843,1.3022521 0.188357,0.01775 0.3774056,0.02851 0.5666174,0.02988 -0.00168,0.486841 0.00336,0.973822 -0.00252,1.460575 -0.00403,0.123073 -0.034992,0.292717 0.079428,0.382768 0.091895,0.06357 0.247354,0.02903 0.2723868,-0.09025 0.045796,-0.171883 -0.00543,-0.350655 0.00843,-0.525557 0,-0.409179 0,-0.818357 0,-1.227536 C 7.8611663,10.658422 9.1088878,10.277241 10.225607,9.6833432 10.772552,9.3923929 11.287318,9.0414938 11.75329,8.6329536 11.881799,8.5114318 12.062553,8.4170105 12.114012,8.235881 12.147358,8.1036593 12.029236,7.9977957 11.915395,7.9589864 11.748179,7.8953727 11.569245,7.8690543 11.402818,7.8019063 11.07432,7.6870333 10.741041,7.5822774 10.422491,7.441606 c -0.187312,-0.0815 -0.34444,-0.2766966 -0.308733,-0.4899662 0.05356,-0.2906319 0.295483,-0.4892636 0.503451,-0.6767699 0.308259,-0.2666072 0.633073,-0.513368 0.950132,-0.7692393 0.14289,-0.1055362 0.28194,-0.2196734 0.386263,-0.365095 C 11.646011,5.0536095 11.305736,4.9778257 11.084173,4.7284443 10.93313,4.552827 10.960873,4.2931029 11.027055,4.0954173 11.141975,3.7278006 11.374652,3.4087432 11.476456,3.0363843 10.861283,3.1611286 10.256747,3.351253 9.6285328,3.3666607 9.2088364,3.3790436 8.7711777,3.2801208 8.45277,2.9977386 8.1215528,2.7121002 7.9098894,2.2807263 7.9002724,1.847301 7.8923498,1.6241769 7.9146723,1.401483 7.918333,1.1784779 7.6574143,1.2096236 7.3859634,1.1436153 7.1763931,0.9829282 6.8900099,0.7699298 6.7060754,0.45058749 6.570977,0.12649945 c -0.012364,9.0631e-4 -0.024728,0.001813 -0.037092,0.002719 z M 6.43193,0.6261747 c 0.2106735,0.3615105 0.4986611,0.7131226 0.9038044,0.8595268 0.065576,0.022169 0.133005,0.039578 0.2017733,0.047967 -0.00386,0.3476578 0.022345,0.7064344 0.1777672,1.0235181 0.2651137,0.5896792 0.8381984,1.0100762 1.4659043,1.1384813 0.3250964,0.073266 0.6652066,0.064039 0.9878458,-0.017438 0.237897,-0.052421 0.471923,-0.1214716 0.711045,-0.1524629 -0.115575,0.3412688 -0.268736,0.695575 -0.214009,1.0638247 0.03986,0.2781679 0.248047,0.4996679 0.488974,0.627123 0.04057,0.022239 0.0852,0.043274 0.124891,0.062479 C 11.151741,5.437237 10.96553,5.5317242 10.815877,5.6668641 10.49494,5.9242742 10.145094,6.1673464 9.9187288,6.518564 c -0.132604,0.2079951 -0.197783,0.4708089 -0.118295,0.7106566 0.07224,0.2501385 0.2773022,0.4343502 0.5026692,0.5499029 0.423402,0.2284232 0.897838,0.3292832 1.353376,0.472099 C 11.537957,8.396126 11.373175,8.4971766 11.235015,8.6177032 10.605907,9.1184728 9.8812158,9.5100412 9.1388764,9.7949142 8.3275321,10.104596 7.4600977,10.290943 6.5903968,10.333624 6.5881298,9.7736402 6.5949268,9.2134356 6.5870082,8.6535878 6.5798831,8.4522899 6.5330608,8.2412613 6.6035151,8.0465429 6.709405,7.8545904 6.910569,7.7450222 7.0760339,7.6111324 7.386563,7.352875 7.6841036,7.0792629 7.9911412,6.8167412 8.5967551,6.2914417 9.2046971,5.7684795 9.8086708,5.2415194 9.9125358,5.1571588 10.055289,5.0796083 10.077831,4.935461 10.08076,4.8073567 9.9104458,4.710778 9.8073108,4.7981619 9.4225379,5.131506 9.0403323,5.46885 8.6543489,5.8012022 8.1779872,6.2204252 7.6967826,6.6342277 7.2210936,7.0541317 7.0164746,7.2423065 6.8227502,7.4455153 6.590397,7.6004603 c 0,-1.7719407 0,-3.5438814 0,-5.3158222 -0.1111525,0.023406 -0.2222622,0.047017 -0.3334405,0.0703 -0.02,0.2434189 -0.029371,0.4871607 -0.024275,0.731394 0,1.4983655 0,2.9967309 0,4.4950964 C 5.2855784,6.7838702 4.3592336,5.9620237 3.4234505,5.1514639 3.2740209,5.0190001 3.1241846,4.8870335 2.9561529,4.7782331 2.9070057,4.7126592 2.8670436,4.7676512 2.8263816,4.8110166 2.7746749,4.8613032 2.7229855,4.9116076 2.6712572,4.9618721 3.187853,5.3958754 3.7038768,5.8305295 4.2097304,6.2770676 4.8053427,6.797554 5.4045,7.3142297 5.9983169,7.8366153 6.0722959,7.9098253 6.146274,7.983036 6.2202526,8.0562464 6.2396896,8.8152347 6.2307586,9.5744782 6.2326816,10.333624 4.7124834,10.257868 3.2082411,9.7527482 1.9517648,8.8861394 1.6964385,8.712664 1.4516894,8.5126959 1.2176742,8.3079289 1.1325538,8.2508829 1.2058428,8.2320764 1.2716759,8.2159256 1.687485,8.075932 2.1065679,7.9422994 2.5106543,7.7707733 2.7548109,7.6642139 2.9696625,7.4659369 3.0427608,7.2035166 3.1283642,6.926678 3.0109821,6.6329679 2.8380996,6.4157313 2.5263758,6.0153649 2.0838863,5.748077 1.7074541,5.4209483 1.6504638,5.3747905 1.5937727,5.3279788 1.5353846,5.2834665 1.7993204,5.1690177 2.0607427,4.9748253 2.1375001,4.6836614 2.2274304,4.3533385 2.1111202,4.0142432 2.0048817,3.7026286 1.9853304,3.6442193 1.9607386,3.5818344 1.9441744,3.5259612 2.4077489,3.5871775 2.8637675,3.7900578 3.342665,3.7392326 4.0123922,3.6901636 4.6706123,3.3301049 5.0144763,2.7435106 5.2086952,2.4254376 5.2814138,2.0496649 5.2833914,1.6808847 c 0.00574,-0.046958 -0.00555,-0.1082918 0.00723,-0.1476043 0.3964953,-0.054563 0.7126402,-0.3422422 0.9387603,-0.655229 0.065969,-0.092873 0.1275333,-0.1889668 0.1821591,-0.2889688 0.0068,0.012364 0.013594,0.024728 0.020391,0.037092 z" />
  </g>
</svg>
