<?xml version="1.0" encoding="UTF-8" standalone="no"?>
<!-- Created with Inkscape (http://www.inkscape.org/) -->

<svg
   width="48"
   height="48"
   viewBox="0 0 12.7 12.7"
   version="1.1"
   id="svg4922"
   inkscape:version="1.1.2 (b8e25be833, 2022-02-05)"
   sodipodi:docname="Topola.svg"
   xmlns:inkscape="http://www.inkscape.org/namespaces/inkscape"
   xmlns:sodipodi="http://sodipodi.sourceforge.net/DTD/sodipodi-0.dtd"
   xmlns="http://www.w3.org/2000/svg"
   xmlns:svg="http://www.w3.org/2000/svg">
  <sodipodi:namedview
     id="namedview4924"
     pagecolor="#ffffff"
     bordercolor="#666666"
     borderopacity="1.0"
     inkscape:pageshadow="2"
     inkscape:pageopacity="0.0"
     inkscape:pagecheckerboard="0"
     inkscape:document-units="mm"
     showgrid="false"
     inkscape:zoom="5.908137"
     inkscape:cx="58.478672"
     inkscape:cy="60.509769"
     inkscape:window-width="1746"
     inkscape:window-height="1051"
     inkscape:window-x="165"
     inkscape:window-y="-9"
     inkscape:window-maximized="1"
     inkscape:current-layer="layer1"
     units="px" />
  <defs
     id="defs4919" />
  <g
     inkscape:label="Layer 1"
     inkscape:groupmode="layer"
     id="layer1">
    <path
       style="fill:#000000;stroke:none;stroke-width:0.0247577"
       d="m 6.1185459,12.356668 c 0.00803,0.331258 0.3881021,0.331258 0.3961236,0 0.5779443,0.222943 1.2650455,0.348019 1.8815869,0.236115 C 8.9721707,12.488229 9.5167416,12.155041 9.9559926,11.780506 11.132579,10.777323 11.714608,9.3058231 11.508575,7.7764892 11.21319,5.5836235 9.4081541,3.9544902 8.0019895,2.4040631 7.5058697,1.857048 7.0479509,1.259605 6.7188712,0.59674896 6.6335314,0.42488087 6.5541085,-0.03759137 6.3166077,-0.03759137 c -0.2375009,0 -0.3169236,0.46247464 -0.4022635,0.63434033 C 5.5852646,1.259605 5.1273456,1.8570509 4.6312256,2.4040631 3.2250611,3.9544902 1.42003,5.5836235 1.1246307,7.7764892 c -0.20601391,1.529309 0.3760055,3.0008338 1.5525916,4.0040168 0.4392515,0.374535 0.9838224,0.707723 1.5597366,0.812277 0.6165416,0.111904 1.3036427,-0.01317 1.881587,-0.236115 M 6.3413654,0.7452953 C 6.6075357,1.384629 7.0787495,1.9582282 7.5265175,2.4783362 8.9290181,4.1074443 11.116239,5.8650691 11.144265,8.2221278 11.158822,9.4447877 10.727666,10.495506 9.8322046,11.342467 9.3115,11.834973 8.6793609,12.208121 7.9506173,12.208121 c -0.3863443,0 -1.0768617,-0.0012 -1.3785594,-0.288129 C 6.3197024,11.679989 6.6259556,11.365096 6.8117622,11.242645 7.4334533,10.832978 8.0609383,10.4271 8.693349,10.034196 8.9328059,9.8854256 9.3867385,9.6977868 9.5385283,9.4577117 9.6364941,9.3027774 9.4750736,9.1344243 9.3122921,9.1873074 9.0193839,9.2824272 8.7300646,9.5442142 8.4705295,9.7089031 8.2221355,9.8665359 7.9741371,10.025703 7.7277978,10.186504 7.3482869,10.434255 6.9382989,10.784899 6.5146695,10.945478 V 9.9304107 c 0,-0.127576 -0.036171,-0.3217521 0.014929,-0.4404404 C 6.5975587,9.3321898 6.9194586,9.2056524 7.0593397,9.1134796 7.53444,8.8004186 8.0169436,8.4978547 8.4952872,8.1897449 8.8417219,7.966628 9.1894441,7.7456161 9.5351115,7.5212615 9.6402082,7.4530539 9.8485943,7.3391937 9.7771677,7.1827736 9.6281024,6.8563187 9.1100468,7.3285722 8.9409263,7.4375063 8.4217568,7.7719091 7.9003591,8.1029193 7.3811898,8.4373221 7.111801,8.6108484 6.8209721,8.8672642 6.5146695,8.9648591 V 7.8755196 c 0,-0.1245805 -0.035849,-0.3100159 0.057388,-0.4080565 C 6.7352361,7.2958424 7.0076205,7.1734154 7.2078858,7.0480175 7.5983403,6.803535 7.9874079,6.5536058 8.3714986,6.2992699 8.522397,6.1993482 8.9543451,6.0256971 8.9043346,5.7962426 8.8347156,5.4766702 8.4281938,5.7916615 8.2972254,5.8783886 7.7258425,6.2567363 7.1338602,6.7161403 6.5146695,7.0089998 V 5.9691753 c 0,-0.122155 -0.03939,-0.3295506 0.025451,-0.4375683 C 6.7877719,5.1188216 7.5660061,5.0821061 7.7975161,4.6527078 7.8763695,4.5064891 7.6983614,4.3402156 7.5544937,4.3960939 7.1790678,4.541917 6.8943787,4.8893672 6.5146695,5.0283818 V 3.493403 c 0,-0.1509481 0.03377,-0.4590823 -0.1980618,-0.4590823 -0.2318314,0 -0.1980618,0.3081586 -0.1980618,0.4590823 V 5.0283818 C 5.7388367,4.8893672 5.4541476,4.541917 5.0787215,4.3960939 4.9348792,4.3402156 4.7568464,4.5064891 4.8356997,4.6527078 5.0672092,5.0821061 5.8454187,5.1188216 6.093095,5.531607 6.157935,5.6396501 6.118546,5.8470203 6.118546,5.9691753 V 7.0089998 C 5.4993553,6.7161403 4.9073732,6.2567363 4.3359898,5.8783886 4.2050214,5.7916625 3.7984995,5.4766702 3.7288809,5.7962426 c -0.050011,0.2294545 0.3819374,0.4031056 0.5328357,0.5030273 0.3840913,0.2543359 0.773159,0.5042651 1.1636131,0.7487476 0.2002651,0.1253979 0.4726497,0.2478249 0.6358278,0.4194456 0.093237,0.098041 0.057388,0.283476 0.057388,0.4080565 V 8.9648591 C 5.8122433,8.8672642 5.5214143,8.6108484 5.2520255,8.4373221 4.7328561,8.1029193 4.2114585,7.7719091 3.6922889,7.4375063 3.523169,7.3285722 3.0051136,6.8563187 2.8560473,7.1827736 2.7846216,7.3391937 2.993007,7.4530539 3.0981036,7.5212615 3.4437709,7.7456161 3.7914932,7.966628 4.137928,8.1897449 c 0.478344,0.3081098 0.9608473,0.6106737 1.435948,0.9237347 0.1398811,0.092176 0.4617811,0.2187102 0.529741,0.3764907 0.0511,0.1187142 0.014929,0.3128644 0.014929,0.4404404 V 10.945478 C 5.6949165,10.784899 5.2849286,10.434255 4.9054174,10.186504 4.6590781,10.025703 4.41108,9.8665359 4.1626857,9.7089031 3.9031505,9.5442142 3.6138318,9.2824272 3.3209231,9.1873074 3.1581411,9.1344205 2.9967207,9.3027774 3.094687,9.4577117 c 0.1517897,0.2400751 0.6057225,0.4277139 0.8451792,0.5764843 0.6324113,0.392904 1.2598958,0.798782 1.8815871,1.208449 0.1858066,0.122451 0.4920597,0.437344 0.2397042,0.677347 -0.3016976,0.286916 -0.9922153,0.288129 -1.3785596,0.288129 -0.7287436,0 -1.3608825,-0.373148 -1.8815871,-0.865654 C 1.9055364,10.495506 1.4744029,9.4447877 1.4889481,8.2221278 1.5169862,5.8650691 3.7041974,4.1074443 5.1066978,2.4783362 5.554466,1.9582282 6.0256797,1.384629 6.29185,0.7452953 Z"
       id="path5018" />
  </g>
</svg>
