<?xml version="1.0" encoding="UTF-8" standalone="no"?>
<!-- Created with Inkscape (http://www.inkscape.org/) -->

<svg
   width="48"
   height="48"
   viewBox="0 0 12.7 12.7"
   version="1.1"
   id="svg4922"
   inkscape:version="1.1.2 (b8e25be833, 2022-02-05)"
   sodipodi:docname="Topola_0.svg"
   xmlns:inkscape="http://www.inkscape.org/namespaces/inkscape"
   xmlns:sodipodi="http://sodipodi.sourceforge.net/DTD/sodipodi-0.dtd"
   xmlns="http://www.w3.org/2000/svg"
   xmlns:svg="http://www.w3.org/2000/svg">
  <sodipodi:namedview
     id="namedview4924"
     pagecolor="#ffffff"
     bordercolor="#666666"
     borderopacity="1.0"
     inkscape:pageshadow="2"
     inkscape:pageopacity="0.0"
     inkscape:pagecheckerboard="0"
     inkscape:document-units="mm"
     showgrid="false"
     inkscape:zoom="4.1776837"
     inkscape:cx="100.17513"
     inkscape:cy="75.041583"
     inkscape:window-width="1746"
     inkscape:window-height="1051"
     inkscape:window-x="165"
     inkscape:window-y="-9"
     inkscape:window-maximized="1"
     inkscape:current-layer="layer1"
     units="px" />
  <defs
     id="defs4919">
    <inkscape:path-effect
       effect="fill_between_many"
       method="originald"
       linkedpaths="#path5018,0,1"
       id="path-effect5182"
       is_visible="true"
       lpeversion="0"
       join="true"
       close="true"
       autoreverse="true"
       applied="false" />
  </defs>
  <g
     inkscape:label="Layer 1"
     inkscape:groupmode="layer"
     id="layer1">
    <path
       inkscape:original-d="M 0,0"
       inkscape:path-effect="#path-effect5182"
       d="m 6.1356845,12.352063 c 0.00791,0.326702 0.3827643,0.326702 0.3906755,0 0.5699957,0.219877 1.2476469,0.343233 1.8557088,0.232867 C 8.9500624,12.481815 9.4871433,12.153208 9.9203543,11.783825 11.080758,10.794439 11.654782,9.3431768 11.451583,7.8348764 11.16026,5.6721699 9.3800497,4.0654426 7.9932245,2.536339 7.503928,1.9968472 7.052307,1.4076209 6.7277533,0.75388142 6.6435871,0.58437712 6.5652567,0.12826538 6.3310222,0.12826538 c -0.2342344,0 -0.3125648,0.45611414 -0.396731,0.62561604 C 5.6097375,1.4076209 5.1581165,1.9968501 4.6688198,2.536339 3.2819948,4.0654426 1.5017887,5.6721699 1.2104522,7.8348764 1.0072716,9.3431518 1.5812863,10.794439 2.7416904,11.783825 c 0.4332104,0.369383 0.9702917,0.69799 1.5382851,0.801105 0.6080621,0.110366 1.2857133,-0.01299 1.855709,-0.232867 z"
       id="path5184"
       style="fill:#808080" />
    <path
       style="fill:#000000;stroke:none;stroke-width:0.0244172"
       d="m 6.1356845,12.352063 c 0.00791,0.326702 0.3827643,0.326702 0.3906755,0 0.5699957,0.219877 1.2476469,0.343233 1.8557088,0.232867 C 8.9500624,12.481815 9.4871433,12.153208 9.9203543,11.783825 11.080758,10.794439 11.654782,9.3431768 11.451583,7.8348764 11.16026,5.6721699 9.3800497,4.0654426 7.9932245,2.536339 7.503928,1.9968472 7.052307,1.4076209 6.7277533,0.75388142 6.6435871,0.58437712 6.5652567,0.12826538 6.3310222,0.12826538 c -0.2342344,0 -0.3125648,0.45611414 -0.396731,0.62561604 C 5.6097375,1.4076209 5.1581165,1.9968501 4.6688198,2.536339 3.2819948,4.0654426 1.5017887,5.6721699 1.2104522,7.8348764 1.0072716,9.3431518 1.5812863,10.794439 2.7416904,11.783825 c 0.4332104,0.369383 0.9702917,0.69799 1.5382851,0.801105 0.6080621,0.110366 1.2857133,-0.01299 1.855709,-0.232867 M 6.3554395,0.90038482 C 6.617949,1.5309255 7.082682,2.0966358 7.5242917,2.6095907 8.9075034,4.216293 11.064643,5.9497447 11.092283,8.274386 c 0.01436,1.2058448 -0.410869,2.242112 -1.2940157,3.077425 -0.5135428,0.485732 -1.1369876,0.853748 -1.8557085,0.853748 -0.3810308,0 -1.0620514,-0.0012 -1.3595997,-0.284167 C 6.3340744,11.684691 6.6361154,11.374128 6.8193667,11.253361 7.4325076,10.849329 8.0513625,10.449033 8.6750755,10.061532 8.911239,9.9148078 9.3589288,9.7297498 9.5086304,9.4929768 9.6052496,9.3401728 9.4460493,9.1741358 9.285506,9.2262918 8.9966263,9.3201028 8.711286,9.5782898 8.4553205,9.7407138 8.2103426,9.8961778 7.9657551,10.053156 7.7228038,10.211746 7.3485123,10.456089 6.9441631,10.80191 6.52636,10.960281 V 9.9591748 c 0,-0.125822 -0.035673,-0.317327 0.014724,-0.434383 C 6.608109,9.3691808 6.925582,9.2443838 7.0635393,9.1534788 7.5321052,8.8447233 8.0079729,8.5463208 8.4797377,8.2424484 8.8214077,8.0224002 9.1643476,7.804428 9.505261,7.5831589 9.6089122,7.5158895 9.8144323,7.4035952 9.7439883,7.2493264 9.5969727,6.9273613 9.0860423,7.3931199 8.9192477,7.5005556 8.4072185,7.8303593 7.8929918,8.1568171 7.3809628,8.4866207 7.115279,8.6577604 6.8284499,8.9106498 6.52636,9.0069027 V 7.9325449 C 6.52636,7.8096777 6.491004,7.6267927 6.582959,7.5301005 6.7438931,7.3608401 7.0125313,7.2400969 7.2100423,7.1164237 7.5951267,6.8753036 7.9788433,6.6288117 8.3576516,6.3779738 8.5064745,6.2794263 8.932482,6.1081635 8.8831592,5.8818649 8.8144978,5.5666875 8.413567,5.8773467 8.2843999,5.962881 7.7208754,6.3360252 7.1370348,6.7891108 6.52636,7.0779425 V 6.0524192 c 0,-0.120475 -0.038848,-0.3250183 0.025101,-0.4315504 C 6.7957064,5.2137606 7.5632372,5.1775501 7.7915632,4.7540574 7.8693321,4.6098496 7.6937723,4.445863 7.5518832,4.5009728 7.1816206,4.6447903 6.900847,4.987462 6.52636,5.1245647 V 3.6106969 c 0,-0.148872 0.033305,-0.4527684 -0.1953378,-0.4527684 -0.2286428,0 -0.1953377,0.3039204 -0.1953377,0.4527684 V 5.1245647 C 5.7611975,4.987462 5.4804239,4.6447903 5.1101611,4.5009728 4.968297,4.445863 4.7927128,4.6098496 4.8704816,4.7540574 c 0.2283255,0.4234927 0.995832,0.4597032 1.2401019,0.8668114 0.063949,0.1065571 0.025101,0.3110754 0.025101,0.4315504 V 7.0779425 C 5.5250097,6.7891108 4.9411695,6.3360252 4.3776444,5.962881 4.2484773,5.8773477 3.8475465,5.5666875 3.7788852,5.8818649 c -0.049323,0.2262986 0.3766845,0.3975614 0.5255075,0.4961089 0.3788088,0.2508379 0.7625255,0.4973298 1.1476095,0.7384499 0.1975109,0.1236732 0.4661492,0.2444164 0.6270831,0.4136768 0.091955,0.096692 0.056599,0.2795772 0.056599,0.4024444 V 9.0069027 C 5.8335946,8.9106498 5.5467654,8.6577604 5.2810816,8.4866207 4.7690525,8.1568171 4.2548258,7.8303593 3.7427966,7.5005556 3.5760025,7.3931199 3.0650721,6.9273613 2.918056,7.2493264 2.8476124,7.4035952 3.0531321,7.5158895 3.1567832,7.5831589 3.4976965,7.804428 3.8406364,8.0224002 4.1823066,8.2424484 4.6540718,8.5463208 5.129939,8.8447233 5.5985055,9.1534788 c 0.1379574,0.0909 0.4554301,0.215702 0.5224554,0.371313 0.050397,0.117081 0.014724,0.308561 0.014724,0.434383 V 10.960281 C 5.7178813,10.80191 5.3135321,10.456089 4.9392405,10.211746 4.6962892,10.053156 4.4517018,9.8961778 4.2067238,9.7407138 3.9507581,9.5782898 3.6654184,9.3201028 3.3765382,9.2262918 3.215995,9.1741318 3.0567947,9.3401728 3.1534137,9.4929768 c 0.149702,0.236773 0.5973917,0.421831 0.8335551,0.5685552 0.6237136,0.387501 1.2425681,0.787797 1.855709,1.191829 0.1832512,0.120767 0.4852923,0.43133 0.2364075,0.668031 -0.2975483,0.28297 -0.978569,0.284167 -1.3595998,0.284167 -0.7187209,0 -1.3421659,-0.368016 -1.8557089,-0.853748 C 1.9806178,10.516498 1.5554139,9.4802308 1.569759,8.274386 1.5974115,5.9497447 3.7545413,4.216293 5.1377525,2.6095907 5.5793624,2.0966358 6.0440954,1.5309255 6.306605,0.90038482 Z"
       id="path5018" />
  </g>
</svg>
