<?xml version="1.0" encoding="UTF-8" standalone="no"?>
<!-- Created with Inkscape (http://www.inkscape.org/) -->

<svg
   width="48"
   height="48"
   viewBox="0 0 12.7 12.7"
   version="1.1"
   id="svg5"
   inkscape:version="1.1.2 (b8e25be833, 2022-02-05)"
   sodipodi:docname="Trave_0.svg"
   xmlns:inkscape="http://www.inkscape.org/namespaces/inkscape"
   xmlns:sodipodi="http://sodipodi.sourceforge.net/DTD/sodipodi-0.dtd"
   xmlns="http://www.w3.org/2000/svg"
   xmlns:svg="http://www.w3.org/2000/svg">
  <sodipodi:namedview
     id="namedview7"
     pagecolor="#ffffff"
     bordercolor="#666666"
     borderopacity="1.0"
     inkscape:pageshadow="2"
     inkscape:pageopacity="0.0"
     inkscape:pagecheckerboard="0"
     inkscape:document-units="mm"
     showgrid="false"
     inkscape:zoom="8.647654"
     inkscape:cx="50.823032"
     inkscape:cy="37.871543"
     inkscape:window-width="1746"
     inkscape:window-height="1051"
     inkscape:window-x="165"
     inkscape:window-y="-9"
     inkscape:window-maximized="1"
     inkscape:current-layer="layer1"
     units="px" />
  <defs
     id="defs2">
    <inkscape:path-effect
       effect="fill_between_many"
       method="originald"
       linkedpaths="#path836,0,1"
       id="path-effect5813"
       is_visible="true"
       lpeversion="0"
       join="true"
       close="true"
       autoreverse="true"
       applied="false" />
  </defs>
  <g
     inkscape:label="Layer 1"
     inkscape:groupmode="layer"
     id="layer1">
    <path
       inkscape:original-d="M 0,0"
       inkscape:path-effect="#path-effect5813"
       d="M 8.7223176,0.27543428 C 8.3022996,0.37265296 7.8809016,0.52340742 7.5527366,0.81253304 7.0064856,1.2734788 6.6711956,1.9295734 6.4357976,2.592978 6.1948106,3.2818167 6.0441036,3.9978903 5.8959776,4.7112835 5.7858946,5.2823771 5.7260596,5.8614434 5.6508366,6.4378097 5.6391656,6.54394 5.6287376,6.6501316 5.6207436,6.7566072 5.4113506,6.3656501 5.0911086,6.049508 4.7741376,5.7452477 4.1891216,5.1989743 3.4641092,4.7819658 2.6689616,4.6456397 2.43174,4.6021654 2.1902991,4.5865855 1.9493385,4.5865757 1.9541018,4.6379422 1.9265468,4.7105925 1.9994509,4.7171209 2.4951046,4.9238445 2.972189,5.1935733 3.3551168,5.5705656 3.9396313,6.124252 4.3389176,6.8478028 4.6087146,7.5964808 4.8001876,8.122124 4.9375776,8.673849 5.0499426,9.2231122 4.8700766,8.9117667 4.6419106,8.6298105 4.3960366,8.3683841 4.1088566,8.0760985 3.7785988,7.8260008 3.4248932,7.619808 2.933756,7.3405881 2.3346223,7.3219117 1.7954389,7.4527154 1.1728547,7.6012297 0.60464088,7.909177 0.05558378,8.2286675 c 0.00826,0.045193 -0.0291,0.147003 0.048577,0.1061705 C 0.68070088,8.2170618 1.2567309,8.0502699 1.852113,8.0797493 2.2160368,8.0983421 2.5768757,8.1886522 2.8850975,8.3917955 3.232651,8.6203799 3.5279958,8.9193499 3.8023228,9.2297137 4.2385376,9.7404695 4.5509726,10.352536 4.7168256,10.99962 c 0.132392,0.505924 0.180074,1.021084 0.178765,1.541157 1.257019,0.0014 2.514183,-0.0028 3.771111,0.002 0.103348,0.004 0.258044,0.0316 0.315589,-0.08537 0.06172,-0.162168 0.01994,-0.342653 0.07591,-0.506991 0.117361,-0.510172 0.39842,-0.990542 0.824622,-1.302238 0.4002554,-0.300059 0.8622434,-0.467787 1.3244514,-0.6491208 -0.0065,-0.047916 0.02708,-0.1365934 -0.05339,-0.1095009 -0.788342,-9.869e-4 -1.5956354,0.1654567 -2.2660874,0.5951207 -0.05988,0.05134 -0.0567,0.01613 -0.03236,-0.04509 0.104566,-0.326981 0.27106,-0.6298177 0.430897,-0.9322983 C 9.6201146,8.9148633 10.09595,8.370559 10.729007,8.0928852 10.988794,7.9776702 11.274467,7.9167324 11.548083,7.907005 11.95794,7.88805 12.365321,7.95502 12.764183,8.0542804 12.649291,7.9269356 12.528957,7.8001208 12.373024,7.7228409 12.088593,7.5747188 11.782885,7.4631875 11.467842,7.4017016 10.917733,7.29627 10.338423,7.4196826 9.8596666,7.7038751 c -0.636819,0.3746025 -1.121571,0.9644974 -1.475683,1.6049206 -0.0284,0.053193 -0.05772,0.1058903 -0.08413,0.1601121 0.14604,-0.7606489 0.224795,-1.5332403 0.500912,-2.2601201 0.344033,-0.9240588 0.909373,-1.7685035 1.6701884,-2.3982188 0.428617,-0.3459043 0.938212,-0.5577899 1.40964,-0.8344066 -0.0039,-0.05234 0.02346,-0.1398202 -0.05883,-0.1038711 C 11.274867,3.9383292 10.715695,3.97405 10.195886,4.1715238 9.3690926,4.468515 8.6580206,5.0373887 8.1270656,5.7313794 7.9808516,5.9145105 7.8349426,6.1006439 7.7271076,6.309672 7.6754176,5.2131731 7.5900596,4.1099941 7.6882476,3.0164157 c 0.04504,-0.568561 0.12275,-1.1427609 0.33513,-1.6758621 0.0721,-0.1764245 0.157188,-0.37164806 0.299434,-0.51304308 0.171893,-0.17761392 0.367421,-0.33398514 0.508582,-0.53942021 0.08337,-0.0777093 -0.02755,-0.0293667 -0.07794,-0.0203026 -0.01038,0.002546 -0.02075,0.005103 -0.03113,0.007649 z"
       id="path5815"
       style="fill:#808080" />
    <path
       id="path836"
       style="fill:#000000;stroke:none;stroke-width:0.0210409"
       d="M 8.7223176,0.27543428 C 8.3022996,0.37265296 7.8809016,0.52340742 7.5527366,0.81253304 7.0064856,1.2734788 6.6711956,1.9295734 6.4357976,2.592978 6.1948106,3.2818167 6.0441036,3.9978903 5.8959776,4.7112835 5.7858946,5.2823771 5.7260596,5.8614434 5.6508366,6.4378097 5.6391656,6.54394 5.6287376,6.6501316 5.6207436,6.7566072 5.4113506,6.3656501 5.0911086,6.049508 4.7741376,5.7452477 4.1891216,5.1989743 3.4641092,4.7819658 2.6689616,4.6456397 2.43174,4.6021654 2.1902991,4.5865855 1.9493385,4.5865757 1.9541018,4.6379422 1.9265468,4.7105925 1.9994509,4.7171209 2.4951046,4.9238445 2.972189,5.1935733 3.3551168,5.5705656 3.9396313,6.124252 4.3389176,6.8478028 4.6087146,7.5964808 4.8001876,8.122124 4.9375776,8.673849 5.0499426,9.2231122 4.8700766,8.9117667 4.6419106,8.6298105 4.3960366,8.3683841 4.1088566,8.0760985 3.7785988,7.8260008 3.4248932,7.619808 2.933756,7.3405881 2.3346223,7.3219117 1.7954389,7.4527154 1.1728547,7.6012297 0.60464088,7.909177 0.05558378,8.2286675 c 0.00826,0.045193 -0.0291,0.147003 0.048577,0.1061705 C 0.68070088,8.2170618 1.2567309,8.0502699 1.852113,8.0797493 2.2160368,8.0983421 2.5768757,8.1886522 2.8850975,8.3917955 3.232651,8.6203799 3.5279958,8.9193499 3.8023228,9.2297137 4.2385376,9.7404695 4.5509726,10.352536 4.7168256,10.99962 c 0.132392,0.505924 0.180074,1.021084 0.178765,1.541157 1.257019,0.0014 2.514183,-0.0028 3.771111,0.002 0.103348,0.004 0.258044,0.0316 0.315589,-0.08537 0.06172,-0.162168 0.01994,-0.342653 0.07591,-0.506991 0.117361,-0.510172 0.39842,-0.990542 0.824622,-1.302238 0.4002554,-0.300059 0.8622434,-0.467787 1.3244514,-0.6491208 -0.0065,-0.047916 0.02708,-0.1365934 -0.05339,-0.1095009 -0.788342,-9.869e-4 -1.5956354,0.1654567 -2.2660874,0.5951207 -0.05988,0.05134 -0.0567,0.01613 -0.03236,-0.04509 0.104566,-0.326981 0.27106,-0.6298177 0.430897,-0.9322983 C 9.6201146,8.9148633 10.09595,8.370559 10.729007,8.0928852 10.988794,7.9776702 11.274467,7.9167324 11.548083,7.907005 11.95794,7.88805 12.365321,7.95502 12.764183,8.0542804 12.649291,7.9269356 12.528957,7.8001208 12.373024,7.7228409 12.088593,7.5747188 11.782885,7.4631875 11.467842,7.4017016 10.917733,7.29627 10.338423,7.4196826 9.8596666,7.7038751 c -0.636819,0.3746025 -1.121571,0.9644974 -1.475683,1.6049206 -0.0284,0.053193 -0.05772,0.1058903 -0.08413,0.1601121 0.14604,-0.7606489 0.224795,-1.5332403 0.500912,-2.2601201 0.344033,-0.9240588 0.909373,-1.7685035 1.6701884,-2.3982188 0.428617,-0.3459043 0.938212,-0.5577899 1.40964,-0.8344066 -0.0039,-0.05234 0.02346,-0.1398202 -0.05883,-0.1038711 C 11.274867,3.9383292 10.715695,3.97405 10.195886,4.1715238 9.3690926,4.468515 8.6580206,5.0373887 8.1270656,5.7313794 7.9808516,5.9145105 7.8349426,6.1006439 7.7271076,6.309672 7.6754176,5.2131731 7.5900596,4.1099941 7.6882476,3.0164157 c 0.04504,-0.568561 0.12275,-1.1427609 0.33513,-1.6758621 0.0721,-0.1764245 0.157188,-0.37164806 0.299434,-0.51304308 0.171893,-0.17761392 0.367421,-0.33398514 0.508582,-0.53942021 0.08337,-0.0777093 -0.02755,-0.0293667 -0.07794,-0.0203026 -0.01038,0.002546 -0.02075,0.005103 -0.03113,0.007649 z M 7.7195236,1.2060034 c -0.378524,1.0530015 -0.451139,2.1852226 -0.433435,3.2953219 0.0098,0.3960887 0.01309,0.7932222 0.04913,1.1879172 0.0384,0.4137661 0.131804,0.8245747 0.07983,1.2392213 -0.07697,0.3484528 -0.305898,0.6381626 -0.40787,0.9781486 C 6.8525046,8.3511887 6.7505136,8.8113846 6.6351946,9.2671823 6.4884826,8.9143175 6.4704476,8.5225557 6.2985616,8.1761089 6.1466236,7.8348939 5.9227386,7.5031864 5.9218936,7.1163756 5.9175936,6.690414 6.0300926,6.2798232 6.0706116,5.8575595 6.2191956,4.6905008 6.4485126,3.5219852 6.8988526,2.4278002 7.0820006,1.995262 7.3122826,1.5717886 7.6172136,1.2194 c 0.04586,-0.049076 0.09433,-0.096141 0.148331,-0.1362946 -0.01534,0.040965 -0.03067,0.081932 -0.04601,0.122898 z M 10.337466,4.4920211 C 10.067175,4.7589312 9.7527746,4.980674 9.5139596,5.2801329 c -0.476221,0.5758473 -0.844684,1.2406209 -1.078039,1.950705 -0.25644,0.767832 -0.396849,1.5683034 -0.52113,2.3663445 -0.126325,0.8551966 -0.193634,1.7212566 -0.159932,2.5859636 -0.238094,0 -0.476188,0 -0.714283,0 -0.0061,-0.505959 -0.05804,-1.010568 -0.127907,-1.511208 -0.04387,-0.231328 -0.09961,-0.466434 -0.06319,-0.7030808 0.0524,-0.5046772 0.199521,-0.9998159 0.332933,-1.4911446 0.299331,-1.0302309 0.752632,-2.039069 1.474995,-2.844209 0.432152,-0.4727299 0.950687,-0.8868809 1.5568764,-1.1098891 0.02541,-0.0035 0.14394,-0.058802 0.12318,-0.031597 z M 3.5491453,5.283383 c 0.7885253,0.3783132 1.4175983,1.031481 1.8639493,1.7750417 0.500973,0.8312792 0.808127,1.7642702 1.004076,2.7062279 0.137559,0.6537434 0.206385,1.3276764 0.26733,1.9934954 0.01024,0.142589 0.01803,0.280714 0.01922,0.424998 -0.357563,0 -0.715126,0 -1.072689,0 -0.002,-1.530688 -0.126099,-3.0850011 -0.63366,-4.539341 C 4.7764436,7.0025429 4.4832876,6.3795923 4.0628016,5.8436688 3.9509304,5.6861722 3.8098513,5.5543752 3.6641648,5.4288735 3.6052284,5.3743582 3.5456024,5.3200032 3.4943985,5.2579497 c 0.018251,0.00846 0.036508,0.01696 0.054745,0.025435 z M 2.4580121,7.7304715 c 0.443638,-9.211e-4 0.8606402,0.1978418 1.2077153,0.4615565 0.6128312,0.4610512 1.0879932,1.0908187 1.3757102,1.8013584 0.133525,0.3329136 0.220654,0.6869116 0.245394,1.0373076 0.02947,0.380453 0.0098,0.768394 0.0084,1.152452 -0.08012,0.0258 -0.06462,-0.04436 -0.06623,-0.09942 -0.03643,-0.962023 -0.336234,-1.91492 -0.862409,-2.7215855 C 3.9283901,8.691199 3.296581,8.1207627 2.5265889,7.8664806 2.380249,7.817834 2.2301603,7.779872 2.0779024,7.755129 2.2043956,7.744576 2.3309791,7.7305294 2.4580506,7.7304701 Z m 8.0994269,0.047568 C 9.9129696,8.0735922 9.4184976,8.6204375 9.0557226,9.2182354 8.5127166,10.11633 8.2363966,11.1497 8.1000606,12.183147 c -0.01799,-0.03696 -0.0041,-0.10566 -0.0098,-0.155356 -0.01024,-0.50167 -0.05993,-1.010023 0.08786,-1.496292 0.11696,-0.338417 0.310792,-0.6362034 0.471735,-0.9542801 C 8.9409946,9.0482355 9.2912676,8.5421365 9.7745096,8.1703242 10.013222,7.9874903 10.28538,7.8454065 10.57706,7.7694977 c -0.0065,0.00283 -0.01307,0.00572 -0.01961,0.00855 z M 9.4133026,10.599452 c -0.301876,0.291555 -0.508246,0.671183 -0.639536,1.066864 -0.0527,0.168185 -0.09057,0.341296 -0.10756,0.516831 -0.07125,0 -0.142507,0 -0.21376,0 0.01128,-0.307323 0.04623,-0.624596 0.166859,-0.914326 0.157898,-0.345207 0.495568,-0.564874 0.831708,-0.713589 0.02998,-0.01676 -0.03586,0.03845 -0.03771,0.04423 z" />
  </g>
</svg>
