<?xml version="1.0" encoding="UTF-8" standalone="no"?>
<!-- Created with Inkscape (http://www.inkscape.org/) -->

<svg
   width="48"
   height="48"
   viewBox="0 0 12.7 12.7"
   version="1.1"
   id="svg5"
   inkscape:version="1.1.2 (b8e25be833, 2022-02-05)"
   sodipodi:docname="Trave.svg"
   xmlns:inkscape="http://www.inkscape.org/namespaces/inkscape"
   xmlns:sodipodi="http://sodipodi.sourceforge.net/DTD/sodipodi-0.dtd"
   xmlns="http://www.w3.org/2000/svg"
   xmlns:svg="http://www.w3.org/2000/svg">
  <sodipodi:namedview
     id="namedview7"
     pagecolor="#ffffff"
     bordercolor="#666666"
     borderopacity="1.0"
     inkscape:pageshadow="2"
     inkscape:pageopacity="0.0"
     inkscape:pagecheckerboard="0"
     inkscape:document-units="mm"
     showgrid="false"
     inkscape:zoom="6.1148148"
     inkscape:cx="62.225924"
     inkscape:cy="61.898849"
     inkscape:window-width="1746"
     inkscape:window-height="1051"
     inkscape:window-x="165"
     inkscape:window-y="-9"
     inkscape:window-maximized="1"
     inkscape:current-layer="layer1"
     units="px" />
  <defs
     id="defs2" />
  <g
     inkscape:label="Layer 1"
     inkscape:groupmode="layer"
     id="layer1">
    <path
       style="fill:#2b2727;stroke:none;stroke-width:0.0213415"
       d="M 5.714777,7.0636534 H 5.6934356 C 5.5598809,6.6988853 5.2169668,6.3315351 4.9464855,6.0606054 4.1328862,5.2457042 3.1659059,4.737437 2.001368,4.737437 V 4.758779 C 2.3781297,4.9156385 2.7669492,5.1148176 3.089781,5.3654087 4.4588979,6.4281696 4.9183575,8.1521512 5.223924,9.7740146 H 5.2025827 C 5.0980096,9.4109756 4.8233454,9.0571561 4.5853671,8.7709675 4.3901784,8.5362121 4.1659867,8.3273649 3.9220968,8.1441052 3.6710789,7.9554472 3.3920823,7.7580175 3.089781,7.6618318 2.0530996,7.3319363 0.95334797,7.8988074 0.08063928,8.4081635 v 0.021341 C 0.87665337,8.2651968 1.6163815,8.0352427 2.4281967,8.2678858 2.8962996,8.4020384 3.2645247,8.7322968 3.6019753,9.0697472 4.6038275,10.0716 4.9891683,11.307695 4.9891683,12.69779 h 2.9664594 0.7682905 c 0.075357,0 0.2231675,0.02777 0.2859113,-0.02194 0.069488,-0.05504 0.051881,-0.316237 0.068592,-0.404889 0.056619,-0.30021 0.1602745,-0.590624 0.3167496,-0.853658 0.428514,-0.720315 1.1482749,-0.99291 1.8897189,-1.280484 v -0.02134 C 10.412111,10.116084 9.5679301,10.306954 8.8519671,10.819746 8.9007111,10.494267 9.0845679,10.151204 9.2308417,9.8593816 9.6543631,9.0144948 10.342282,8.2329074 11.306232,8.041261 11.76185,7.9506671 12.307593,8.0019712 12.757449,8.1093828 12.583986,7.9070237 12.175959,7.758082 11.925133,7.675533 10.242169,7.1215737 8.876531,8.5657692 8.2757482,10.008771 H 8.2544074 C 8.4274434,9.2903326 8.4883522,8.5485048 8.6844793,7.8319449 8.9844548,6.7360617 9.5957381,5.7085787 10.452574,4.9569546 10.92136,4.5457483 11.440171,4.3399742 11.967816,4.0331698 V 4.011828 C 11.535268,4.0664836 11.088549,4.0945686 10.665989,4.207209 9.7291001,4.4569683 8.932339,5.0306683 8.3312366,5.7831675 8.1336999,6.0304717 7.8947189,6.315529 7.7848956,6.6154833 H 7.7635548 C 7.7165822,5.521414 7.6224453,4.4266419 7.6976098,3.3289026 7.749533,2.5708761 7.8306523,1.8001732 8.176938,1.1093938 8.3367427,0.79061891 8.6284373,0.63713561 8.8306261,0.36244371 8.507751,0.43714091 8.1452243,0.55408981 7.8702616,0.74117301 6.7087964,1.5313992 6.3499408,3.2195914 6.0685325,4.5026816 5.979176,4.9100677 5.9105633,5.3264182 5.8608591,5.740484 5.8081244,6.1797763 5.7337709,6.6214794 5.714777,7.0636534 M 7.9556277,1.0026866 C 7.3587711,2.436297 7.3773169,4.019276 7.4442652,5.5484111 7.4647529,6.0160879 7.5933349,6.5350688 7.5540885,6.9996291 7.5292037,7.2942689 7.2800857,7.6577131 7.1750435,7.9386517 6.9742845,8.4755806 6.8608546,9.0293484 6.7178244,9.5819416 6.5523644,9.3110546 6.5065654,8.8840556 6.4048091,8.5788946 6.2845291,8.2181172 6.0145814,7.8358075 5.9454138,7.4691399 5.8703773,7.0713363 6.0051271,6.5455042 6.052932,6.1459715 6.1771609,5.1078392 6.3616789,4.0659079 6.6948613,3.0728054 6.8763062,2.5320139 7.0968905,2.0077186 7.422625,1.5362223 7.5577586,1.3406281 7.7336338,1.1016255 7.9556277,1.0026866 M 10.623306,4.4813398 C 10.4097,4.7454184 10.095425,4.9608173 9.8553351,5.2069488 9.5603541,5.5093351 9.3113841,5.8687039 9.0963692,6.2313375 8.5708578,7.1176677 8.3408826,8.1090844 8.1599922,9.1124308 7.961155,10.215163 7.843563,11.322997 7.8916034,12.441693 H 7.0592876 c 0,-0.484792 -0.052244,-0.969968 -0.1100159,-1.451217 C 6.9221042,10.764107 6.8423299,10.513623 6.8538755,10.286209 6.8773941,9.8225656 7.0083454,9.3457126 7.1257872,8.8990161 7.4685732,7.5952677 8.0513647,6.2744677 9.0653815,5.3547381 9.4944721,4.9655551 10.047173,4.6005743 10.623306,4.4813398 M 3.388561,5.2496314 c 2.2421734,0.9334953 3.0961726,3.6800307 3.3328064,5.8902346 0.046182,0.431459 0.1031214,0.8677 0.1031638,1.301827 H 5.6294113 c 0,-1.822728 -0.163262,-3.6492133 -0.9147151,-5.3353571 C 4.5109496,6.6491813 4.2394652,6.2081174 3.9162279,5.82585 3.7862159,5.6720848 3.4347439,5.4345759 3.388561,5.2496314 m 7.853646,2.5396299 v 0.021342 C 10.578062,7.9001093 9.9807371,8.3730137 9.5734151,8.8776743 8.7718941,9.8707556 8.3910353,11.192729 8.2330656,12.441693 H 8.1263588 c 0,-0.525361 -0.069189,-1.104525 0.053887,-1.621948 C 8.2580138,10.492772 8.4587293,10.176343 8.611705,9.8807216 9.1542895,8.832089 9.9699591,7.7892613 11.242207,7.7892613 M 5.3946556,12.441693 H 5.223924 c 0,-1.959847 -1.262815,-4.3545473 -3.4146289,-4.5243831 0.1275578,-0.076914 0.3033045,-0.074481 0.4481701,-0.088973 0.5670205,-0.056703 1.0234497,0.1395095 1.4725587,0.4758286 0.7974012,0.5971127 1.4317539,1.5654161 1.612025,2.5582615 0.092728,0.510595 0.052607,1.0618 0.052607,1.579266 M 9.7483071,10.60633 c -0.112597,0.152997 -0.269671,0.273192 -0.386301,0.426828 -0.305502,0.402457 -0.5127058,0.902125 -0.5527215,1.408535 H 8.4891628 c 0.00262,-0.317987 0.059009,-0.809245 0.2178964,-1.088413 0.2101489,-0.369207 0.6509349,-0.614911 1.0412479,-0.74695 m -0.8963403,0.213415 -0.021341,0.02134 z"
       id="path836" />
  </g>
</svg>
