<?xml version="1.0" encoding="UTF-8" standalone="no"?>
<!-- Created with Inkscape (http://www.inkscape.org/) -->

<svg
   width="48"
   height="48"
   viewBox="0 0 12.7 12.7"
   version="1.1"
   id="svg5"
   inkscape:version="1.1.2 (b8e25be833, 2022-02-05)"
   sodipodi:docname="Trputac.svg"
   xmlns:inkscape="http://www.inkscape.org/namespaces/inkscape"
   xmlns:sodipodi="http://sodipodi.sourceforge.net/DTD/sodipodi-0.dtd"
   xmlns="http://www.w3.org/2000/svg"
   xmlns:svg="http://www.w3.org/2000/svg">
  <sodipodi:namedview
     id="namedview7"
     pagecolor="#ffffff"
     bordercolor="#666666"
     borderopacity="1.0"
     inkscape:pageshadow="2"
     inkscape:pageopacity="0.0"
     inkscape:pagecheckerboard="0"
     inkscape:document-units="mm"
     showgrid="false"
     inkscape:zoom="8.6476544"
     inkscape:cx="37.177712"
     inkscape:cy="27.464095"
     inkscape:window-width="1746"
     inkscape:window-height="1051"
     inkscape:window-x="165"
     inkscape:window-y="-9"
     inkscape:window-maximized="1"
     inkscape:current-layer="layer1"
     units="px" />
  <defs
     id="defs2" />
  <g
     inkscape:label="Layer 1"
     inkscape:groupmode="layer"
     id="layer1">
    <path
       id="path1037"
       style="fill:#000000;stroke:none;stroke-width:0.0476578"
       d="M 6.3084373,0.04154957 C 6.1131403,0.05632768 6.0025397,0.24779411 5.9324813,0.40875883 5.8088892,0.71091673 5.748782,1.0338296 5.6619572,1.3475633 5.4754146,2.1087553 5.3086338,2.8870216 5.3324643,3.6751669 c 0.00199,0.058409 0.00621,0.116661 0.010849,0.1749077 C 5.1996036,3.8098193 5.0084955,3.7815516 4.9503057,3.6214761 4.8515744,3.3252433 4.948302,2.9833099 4.7815486,2.706461 4.6539759,2.5071921 4.3854533,2.4630135 4.1684326,2.5039526 3.9970755,2.5356686 3.884081,2.7025014 3.8824776,2.8708696 c -0.0082,0.2790859 0.102527,0.5525846 0.2610113,0.7780104 0.1390848,0.198549 0.369359,0.3038326 0.5998271,0.3546541 0.2349261,0.052432 0.4734632,0.1494208 0.6231879,0.3470137 0.1715454,0.2145606 0.2673457,0.5086745 0.5289159,0.6368446 0.082549,0.043171 0.1735949,0.067951 0.265381,0.081667 0,1.6953005 0,3.3906011 0,5.0859006 C 6.0576832,9.9785405 5.9298959,9.8168382 5.8336797,9.6369953 5.4877096,8.8324094 5.2371305,7.9905899 5.0356092,7.1393086 4.7410303,6.0243941 4.2221285,4.9621871 3.485529,4.0721419 2.8628997,3.323277 2.0503544,2.7002397 1.1026118,2.434296 1.0339938,2.4140601 0.96426015,2.3980102 0.89496064,2.3803354 0.66794213,2.8426853 0.67418107,3.3758105 0.72242485,3.8766753 0.7771417,4.3611968 0.86669821,4.8431337 1.0025065,5.3116794 1.2966527,6.3050431 1.8654736,7.1938425 2.532438,7.9775098 c 0.944041,1.1122093 2.0667629,2.0538392 3.0456851,3.1334642 0.021128,0.03429 0.1330169,0.115617 0.028468,0.09095 -1.0576936,-0.0461 -2.0558386,-0.508734 -3.1208411,-0.511101 -0.4339734,-0.006 -0.8642044,0.08716 -1.2663513,0.247243 -0.30082055,0.115604 -0.6113206,0.234144 -0.86003922,0.44483 -0.10654912,0.08685 -0.19322104,0.242586 -0.11507637,0.375135 0.11928997,0.202977 0.35548531,0.286042 0.55147622,0.3947 0.57051247,0.298342 1.21277157,0.48763 1.86135527,0.449288 1.2092268,-0.04261 2.3623641,-0.511195 3.5646281,-0.56309 1.2363507,-0.06847 2.3966557,0.463043 3.6184319,0.555347 0.4713174,0.04058 0.9511514,-0.0046 1.4005574,-0.155674 0.365571,-0.114215 0.704044,-0.298109 1.029053,-0.494659 0.122132,-0.07701 0.256456,-0.21341 0.204598,-0.3708 -0.06862,-0.175627 -0.260806,-0.247344 -0.404972,-0.348225 -0.658682,-0.39736 -1.444765,-0.584036 -2.2116882,-0.508954 -0.9526297,0.08139 -1.8600712,0.462714 -2.8164866,0.488603 C 7.7078916,10.270164 8.6261787,9.5644343 9.4645007,8.795012 10.017157,8.2930909 10.542584,7.7494848 10.933294,7.109154 11.37303,6.4015852 11.682683,5.6123167 11.842358,4.7947219 11.952929,4.1860636 11.947536,3.564364 11.942461,2.9480697 11.932774,2.8009358 11.917026,2.6140566 11.772231,2.5352193 11.607315,2.4682112 11.434578,2.5646399 11.288003,2.6361225 10.858956,2.8535599 10.438252,3.0923354 10.060505,3.3919232 9.5247194,3.8154289 9.0691061,4.3357091 8.6884345,4.9012854 8.1043432,5.7718298 7.756422,6.7697113 7.4344417,7.7595212 7.3348407,8.0585546 7.238578,8.3702093 7.1356572,8.6601671 6.9528329,9.1053376 6.7107842,9.5354472 6.5113599,9.9783354 6.5124636,8.342328 6.5091515,6.7024221 6.5130169,5.0688521 6.7375932,5.042737 6.9397004,4.9100771 7.0644723,4.7231928 7.217986,4.5157044 7.3492824,4.2524686 7.6127327,4.1687458 7.8481224,4.0950258 8.1209321,4.1020223 8.3165671,3.9313459 8.5573733,3.7334261 8.7477498,3.4596383 8.8159807,3.1528907 8.8672115,2.9412745 8.763944,2.7067272 8.5706605,2.6052348 8.3566319,2.4764375 8.0449752,2.5199718 7.9021666,2.7342267 7.7104786,3.0057767 7.725669,3.3562769 7.7311032,3.6732585 7.7297492,3.7304124 7.7558015,3.8081795 7.6718985,3.8049787 7.5681091,3.8360929 7.4643187,3.8672061 7.3605287,3.8983203 7.2386249,2.9072213 7.1507517,1.9078301 6.9062306,0.93710056 6.840799,0.66418657 6.7871001,0.36242624 6.5817616,0.15522761 6.5085389,0.08670287 6.410747,0.03668504 6.3084373,0.04154957 Z m 0.055287,0.37457846 C 6.6621644,0.94923399 6.7906636,1.5458474 6.8791072,2.1447101 6.962594,2.735661 6.9994427,3.3307852 7.0176309,3.9256528 7.00974,4.2091771 6.9192006,4.5263981 6.6672789,4.6872336 6.4400876,4.8213696 6.135036,4.7844212 5.9245409,4.6344322 5.6912155,4.4547489 5.6450608,4.1350608 5.6544908,3.8589446 5.6674155,2.9700065 5.8401948,2.089295 6.0371331,1.2211277 6.1043449,0.92784671 6.1473651,0.63112842 6.3472303,0.39515676 c 0.00501,-0.009334 0.011677,0.0188958 0.016494,0.0209713 z M 6.3047101,2.2082654 c -0.2250135,-0.00152 -0.4058273,0.195854 -0.4337987,0.4104005 -0.048953,0.3237144 0.070809,0.6417414 0.1975061,0.9336974 0.094142,0.2667657 0.082001,0.5556704 0.1551237,0.8275875 0.120664,-0.03169 0.2418416,-0.108475 0.2698041,-0.2385376 0.043045,-0.1741083 0.00121,-0.3634981 0.08723,-0.5279963 C 6.7152288,3.2710319 6.9319872,2.8904121 6.7886183,2.5161694 6.7059357,2.331032 6.5077271,2.2037407 6.3047101,2.2082654 Z m 0.04721,0.3431049 c 0.124893,0.00716 0.1501281,0.151465 0.1403894,0.2517896 C 6.477651,2.9885039 6.4215886,3.1580943 6.3523349,3.3268243 6.2581672,3.1238767 6.1723921,2.901008 6.1928957,2.6735378 c 0.0057,-0.084129 0.075498,-0.1389695 0.1590244,-0.1221675 z m -5.2153162,0.270011 c 0.9420787,0.4092804 1.7724301,1.0890835 2.3921789,1.9131665 0.5486039,0.7280918 0.9437425,1.5601788 1.1734682,2.442958 0.2115295,0.8781931 0.4465332,1.7560268 0.8124257,2.5841252 0.1643093,0.298875 0.3421425,0.595964 0.5765504,0.845764 0.038097,0.0363 0.088948,0.06201 0.069781,0.123451 0.00698,0.09223 -0.013684,0.19055 0.00964,0.279172 0.063947,0.137734 0.1279023,0.275467 0.1918321,0.413208 0.047527,-0.168529 0.1103372,-0.334781 0.1486717,-0.504656 0.00401,-0.09241 -0.00792,-0.189537 0.00578,-0.27906 C 7.1076077,9.7352474 7.4513145,8.7020296 7.7988268,7.6873477 8.0052482,7.0887639 8.1977736,6.4839743 8.4614869,5.9093242 8.9572239,4.8787003 9.7707024,4.0144988 10.708005,3.3608455 c 0.274743,-0.1881362 0.568331,-0.3542754 0.88615,-0.4574669 0.0053,0.8355341 -0.02289,1.6790784 -0.257396,2.4877627 -0.219328,0.780607 -0.633023,1.4961718 -1.160664,2.1117289 C 9.3730804,8.44674 8.3671939,9.1894841 7.5465433,10.11643 7.1261913,10.580835 6.729962,11.065742 6.3243813,11.54291 5.9084743,10.715257 5.2434957,10.050029 4.56665,9.4320512 3.9364175,8.8539078 3.2637436,8.3171579 2.6943452,7.6759927 1.9024067,6.7620853 1.3313832,5.6424575 1.1249656,4.4466954 1.0338589,3.9134962 1.0217322,3.363248 1.1098929,2.8284216 c -0.00132,-0.028191 0.011069,-0.011729 0.026711,-0.00704 z m 3.2647753,-0.00145 C 4.5343806,2.86439 4.5636724,3.0250351 4.5896006,3.1454364 4.6152133,3.303967 4.61879,3.4658498 4.6036813,3.6256174 4.4340477,3.459071 4.2628163,3.2747428 4.1876896,3.0443893 c -0.03489,-0.088754 0.011807,-0.195709 0.1097747,-0.2133475 0.033395,-0.010997 0.068889,-0.017822 0.1039149,-0.011111 z m 3.9159911,0.045347 c 0.095239,0.00484 0.1982339,0.080827 0.1701957,0.1862929 -0.049624,0.2240492 -0.2120112,0.4015435 -0.3627651,0.5661754 -0.04478,0.058926 -0.076603,0.071703 -0.06763,-0.01633 C 8.0458339,3.4075637 8.0551209,3.203501 8.1196729,3.0308348 8.1512569,2.9475868 8.2151379,2.8517683 8.31737,2.8652767 Z m 1.6815654,8.1179367 c 0.7212663,-0.01226 1.4075093,0.273605 2.0405993,0.605771 0.07852,0.01804 0.106746,0.08215 0.01285,0.103467 -0.52228,0.274917 -1.074199,0.52116 -1.666244,0.589258 -0.4030433,0.04783 -0.829031,0.0064 -1.2304144,-0.06979 C 8.3231529,12.055072 7.5030841,11.752 6.6444975,11.732378 c 0.1153692,-0.15523 0.3177594,-0.201639 0.4934363,-0.231683 0.332076,-0.05247 0.6742898,-0.03617 0.9991198,-0.133355 0.6155287,-0.15045 1.2201376,-0.373626 1.8618781,-0.384119 z m -7.5238713,0.06895 c 0.7698039,-0.007 1.5238283,0.194955 2.2749308,0.359262 0.3687208,0.07168 0.7636472,0.02309 1.1133749,0.18019 0.066099,0.0324 0.1275729,0.07835 0.1682226,0.140545 -1.1257697,0.02104 -2.1774971,0.520474 -3.2973584,0.57107 -0.5101222,0.01713 -1.0199516,-0.101986 -1.4828455,-0.297666 -0.226051,-0.09559 -0.44386936,-0.210807 -0.64963056,-0.344631 -0.006919,-0.06348 0.0843335,-0.07428 0.12392727,-0.111301 C 0.99618815,11.387205 1.2828395,11.259696 1.58199,11.176175 1.8751564,11.093882 2.1751643,11.056327 2.4750647,11.052167 Z" />
  </g>
</svg>
