<?xml version="1.0" encoding="UTF-8" standalone="no"?>
<!-- Created with Inkscape (http://www.inkscape.org/) -->

<svg
   width="48"
   height="48"
   viewBox="0 0 12.7 12.7"
   version="1.1"
   id="svg5"
   inkscape:version="1.1.2 (b8e25be833, 2022-02-05)"
   sodipodi:docname="Trputac_0.svg"
   xmlns:inkscape="http://www.inkscape.org/namespaces/inkscape"
   xmlns:sodipodi="http://sodipodi.sourceforge.net/DTD/sodipodi-0.dtd"
   xmlns="http://www.w3.org/2000/svg"
   xmlns:svg="http://www.w3.org/2000/svg">
  <sodipodi:namedview
     id="namedview7"
     pagecolor="#ffffff"
     bordercolor="#666666"
     borderopacity="1.0"
     inkscape:pageshadow="2"
     inkscape:pageopacity="0.0"
     inkscape:pagecheckerboard="0"
     inkscape:document-units="mm"
     showgrid="false"
     inkscape:zoom="6.1148151"
     inkscape:cx="22.649908"
     inkscape:cy="59.772863"
     inkscape:window-width="1746"
     inkscape:window-height="1051"
     inkscape:window-x="165"
     inkscape:window-y="-9"
     inkscape:window-maximized="1"
     inkscape:current-layer="layer1"
     units="px" />
  <defs
     id="defs2">
    <inkscape:path-effect
       effect="fill_between_many"
       method="originald"
       linkedpaths="#path1037,0,1"
       id="path-effect2134"
       is_visible="true"
       lpeversion="0"
       join="true"
       close="true"
       autoreverse="true"
       applied="false" />
  </defs>
  <g
     inkscape:label="Layer 1"
     inkscape:groupmode="layer"
     id="layer1">
    <path
       inkscape:original-d="M 0,0"
       inkscape:path-effect="#path-effect2134"
       d="M 6.1739665,0.02719324 C 5.9768705,0.04210747 5.865251,0.23533762 5.7945473,0.39778509 5.6698166,0.70272633 5.6091558,1.0286138 5.5215312,1.3452374 5.3332703,2.1134412 5.1649532,2.8988767 5.1890032,3.6942821 c 0.00201,0.058947 0.00627,0.1177356 0.010949,0.1765188 C 5.0549185,3.8301749 4.86205,3.8016467 4.8033242,3.6400967 4.7036835,3.3411352 4.801302,2.996052 4.6330126,2.7166528 4.5042648,2.5155483 4.2332686,2.4709628 4.0142489,2.512279 3.8413133,2.5442878 3.7272778,2.7126568 3.7256597,2.882576 c -0.00827,0.2816565 0.1034719,0.5576748 0.2634155,0.7851771 0.1403661,0.2003779 0.3727615,0.3066313 0.6053527,0.357921 0.2370901,0.052915 0.4778246,0.1507973 0.6289284,0.3502102 0.1731256,0.2165371 0.2698085,0.5133603 0.5337881,0.6427111 0.083309,0.043568 0.1751939,0.068576 0.2678256,0.082419 0,1.7109173 0,3.421834 0,5.1327506 C 5.9209025,10.055721 5.7919381,9.892527 5.6948355,9.711029 5.3456785,8.8990313 5.0927911,8.0494573 4.8894135,7.1903342 4.592121,6.0651495 4.0684394,4.9931579 3.3250546,4.0949138 2.6966899,3.3391506 1.8766596,2.7103742 0.9201867,2.4419808 0.8509367,2.4215584 0.7805607,2.4053607 0.7106228,2.3875231 0.48151317,2.854132 0.48780956,3.3921681 0.53649775,3.8976467 0.59171867,4.3866315 0.6821002,4.8730078 0.8191594,5.3458695 c 0.2968557,1.0025144 0.8709164,1.899501 1.5440247,2.6903866 0.952737,1.1224549 2.085801,2.0727589 3.0737408,3.1623299 0.021322,0.0346 0.1342421,0.116681 0.028731,0.09178 -1.0674376,-0.04652 -2.0747771,-0.513415 -3.1495899,-0.515802 -0.4379711,-0.0061 -0.8721652,0.08796 -1.2780166,0.249519 -0.3035915,0.116669 -0.61695175,0.236301 -0.86796147,0.448927 -0.10753063,0.08764 -0.19500093,0.244822 -0.11613642,0.378592 0.12038882,0.204847 0.35875991,0.288675 0.5565562,0.398335 0.57576769,0.30109 1.22394319,0.492121 1.87850129,0.453427 1.2203658,-0.043 2.3841253,-0.515904 3.5974643,-0.568278 1.2477391,-0.06911 2.4187324,0.467309 3.6517624,0.560463 0.4756593,0.04095 0.9599143,-0.0047 1.4134603,-0.157108 0.368939,-0.115267 0.710529,-0.300855 1.038533,-0.499216 0.123257,-0.07772 0.258817,-0.215375 0.206482,-0.374216 -0.06925,-0.177244 -0.263208,-0.249622 -0.408702,-0.351431 -0.66475,-0.401019 -1.458075,-0.589414 -2.2320623,-0.51364 C 8.7945421,10.882078 7.878741,11.266913 6.913516,11.293041 7.5863118,10.350031 8.5130579,9.6377986 9.3591027,8.8612891 9.9168497,8.3547445 10.447116,7.8061308 10.841425,7.1599014 11.285212,6.445815 11.597718,5.6492763 11.758863,4.8241501 11.870454,4.209885 11.865011,3.5824586 11.859888,2.9604871 11.850077,2.811998 11.834219,2.6233973 11.688091,2.5438337 11.521657,2.4762085 11.347326,2.5735254 11.199402,2.6456667 10.766403,2.8651067 10.341823,3.1060818 9.9605977,3.4084292 9.4198761,3.8358362 8.9600657,4.3609089 8.5758872,4.9316952 7.9864157,5.8102588 7.6352897,6.8173323 7.3103431,7.8162599 7.2098249,8.1180479 7.1126753,8.4325734 7.0088068,8.7252023 6.8242979,9.1744733 6.5800196,9.6085451 6.3787583,10.055513 6.3798636,8.404435 6.3765477,6.7494232 6.3804487,5.1008055 6.6070936,5.0744499 6.8110629,4.9405679 6.9369842,4.751962 7.0919119,4.5425623 7.2244175,4.2769016 7.4902948,4.1924076 7.7278529,4.1180086 8.0031753,4.1250694 8.2006129,3.9528209 8.4436371,3.753078 8.6357673,3.4767682 8.7046263,3.1671947 8.7563285,2.9536293 8.6521115,2.7169215 8.4570464,2.6144941 8.2410462,2.4845104 7.9265187,2.5284458 7.782395,2.7446743 7.5889411,3.0187257 7.6042716,3.3724545 7.6097559,3.6923561 7.6083905,3.7500359 7.6346837,3.82852 7.5500045,3.8252897 7.4452589,3.85669 7.3405126,3.888091 7.2357663,3.9194913 7.1127228,2.9192625 7.0240398,1.9106653 6.7772667,0.93099373 6.711232,0.65556573 6.6570384,0.35102571 6.4498084,0.14191843 6.3759112,0.07276246 6.2772186,0.02228389 6.1739665,0.02719324 Z"
       id="path2136"
       style="fill:#808080" />
    <path
       id="path1037"
       style="fill:#000000;stroke:none;stroke-width:0.0480969"
       d="M 6.1739665,0.02719324 C 5.9768705,0.04210747 5.865251,0.23533762 5.7945473,0.39778509 5.6698166,0.70272633 5.6091558,1.0286138 5.5215312,1.3452374 5.3332703,2.1134412 5.1649532,2.8988767 5.1890032,3.6942821 c 0.00201,0.058947 0.00627,0.1177356 0.010949,0.1765188 C 5.0549185,3.8301749 4.86205,3.8016467 4.8033242,3.6400967 4.7036835,3.3411352 4.801302,2.996052 4.6330126,2.7166528 4.5042648,2.5155483 4.2332686,2.4709628 4.0142489,2.512279 3.8413133,2.5442878 3.7272778,2.7126568 3.7256597,2.882576 c -0.00827,0.2816565 0.1034719,0.5576748 0.2634155,0.7851771 0.1403661,0.2003779 0.3727615,0.3066313 0.6053527,0.357921 0.2370901,0.052915 0.4778246,0.1507973 0.6289284,0.3502102 0.1731256,0.2165371 0.2698085,0.5133603 0.5337881,0.6427111 0.083309,0.043568 0.1751939,0.068576 0.2678256,0.082419 0,1.7109173 0,3.421834 0,5.1327506 C 5.9209025,10.055721 5.7919381,9.892527 5.6948355,9.711029 5.3456785,8.8990313 5.0927911,8.0494573 4.8894135,7.1903342 4.592121,6.0651495 4.0684394,4.9931579 3.3250546,4.0949138 2.6966899,3.3391506 1.8766596,2.7103742 0.9201867,2.4419808 0.8509367,2.4215584 0.7805607,2.4053607 0.7106228,2.3875231 0.48151317,2.854132 0.48780956,3.3921681 0.53649775,3.8976467 0.59171867,4.3866315 0.6821002,4.8730078 0.8191594,5.3458695 c 0.2968557,1.0025144 0.8709164,1.899501 1.5440247,2.6903866 0.952737,1.1224549 2.085801,2.0727589 3.0737408,3.1623299 0.021322,0.0346 0.1342421,0.116681 0.028731,0.09178 -1.0674376,-0.04652 -2.0747771,-0.513415 -3.1495899,-0.515802 -0.4379711,-0.0061 -0.8721652,0.08796 -1.2780166,0.249519 -0.3035915,0.116669 -0.61695175,0.236301 -0.86796147,0.448927 -0.10753063,0.08764 -0.19500093,0.244822 -0.11613642,0.378592 0.12038882,0.204847 0.35875991,0.288675 0.5565562,0.398335 0.57576769,0.30109 1.22394319,0.492121 1.87850129,0.453427 1.2203658,-0.043 2.3841253,-0.515904 3.5974643,-0.568278 1.2477391,-0.06911 2.4187324,0.467309 3.6517624,0.560463 0.4756593,0.04095 0.9599143,-0.0047 1.4134603,-0.157108 0.368939,-0.115267 0.710529,-0.300855 1.038533,-0.499216 0.123257,-0.07772 0.258817,-0.215375 0.206482,-0.374216 -0.06925,-0.177244 -0.263208,-0.249622 -0.408702,-0.351431 -0.66475,-0.401019 -1.458075,-0.589414 -2.2320623,-0.51364 C 8.7945421,10.882078 7.878741,11.266913 6.913516,11.293041 7.5863118,10.350031 8.5130579,9.6377986 9.3591027,8.8612891 9.9168497,8.3547445 10.447116,7.8061308 10.841425,7.1599014 11.285212,6.445815 11.597718,5.6492763 11.758863,4.8241501 11.870454,4.209885 11.865011,3.5824586 11.859888,2.9604871 11.850077,2.811998 11.834219,2.6233973 11.688091,2.5438337 11.521657,2.4762085 11.347326,2.5735254 11.199402,2.6456667 10.766403,2.8651067 10.341823,3.1060818 9.9605977,3.4084292 9.4198761,3.8358362 8.9600657,4.3609089 8.5758872,4.9316952 7.9864157,5.8102588 7.6352897,6.8173323 7.3103431,7.8162599 7.2098249,8.1180479 7.1126753,8.4325734 7.0088068,8.7252023 6.8242979,9.1744733 6.5800196,9.6085451 6.3787583,10.055513 6.3798636,8.404435 6.3765477,6.7494232 6.3804487,5.1008055 6.6070936,5.0744499 6.8110629,4.9405679 6.9369842,4.751962 7.0919119,4.5425623 7.2244175,4.2769016 7.4902948,4.1924076 7.7278529,4.1180086 8.0031753,4.1250694 8.2006129,3.9528209 8.4436371,3.753078 8.6357673,3.4767682 8.7046263,3.1671947 8.7563285,2.9536293 8.6521115,2.7169215 8.4570464,2.6144941 8.2410462,2.4845104 7.9265187,2.5284458 7.782395,2.7446743 7.5889411,3.0187257 7.6042716,3.3724545 7.6097559,3.6923561 7.6083905,3.7500359 7.6346837,3.82852 7.5500045,3.8252897 7.4452589,3.85669 7.3405126,3.888091 7.2357663,3.9194913 7.1127228,2.9192625 7.0240398,1.9106653 6.7772667,0.93099373 6.711232,0.65556573 6.6570384,0.35102571 6.4498084,0.14191843 6.3759112,0.07276246 6.2772186,0.02228389 6.1739665,0.02719324 Z m 0.055795,0.37802893 C 6.5309519,0.94323893 6.6606345,1.545348 6.7498929,2.1497273 6.8341488,2.7461219 6.871337,3.346728 6.8896928,3.9470753 6.8817282,4.2332114 6.7903561,4.5533545 6.5361137,4.7156715 6.3068291,4.8510431 5.9989679,4.8137544 5.7865337,4.6623839 5.551059,4.4810453 5.5044792,4.1584124 5.5139961,3.8797527 5.5270398,2.9826261 5.7014107,2.0938017 5.9001631,1.2176372 5.967994,0.92165453 6.0114104,0.62220307 6.2131169,0.38405772 c 0.00505,-0.009421 0.011784,0.0190699 0.016645,0.0211645 z M 6.1702052,2.213868 c -0.2270866,-0.00153 -0.4095659,0.1976582 -0.437795,0.414181 -0.049403,0.3266964 0.071461,0.6476528 0.1993254,0.9422982 0.09501,0.2692231 0.082756,0.5607891 0.1565527,0.835211 C 6.2100639,4.3735765 6.3323577,4.296084 6.360578,4.1648233 6.4040196,3.9891111 6.3617964,3.7979768 6.4486115,3.6319633 6.5845052,3.2864244 6.8032601,2.9022984 6.6585708,2.5246082 6.5751263,2.3377655 6.3750919,2.2093016 6.1702052,2.213868 Z m 0.047646,0.3462654 c 0.1260432,0.00722 0.1515101,0.1528602 0.141682,0.254109 C 6.344739,3.0012938 6.2881605,3.1724464 6.2182687,3.3427306 6.123234,3.1379135 6.0366682,2.9129919 6.0573608,2.6834264 6.0631077,2.598523 6.1335546,2.5431767 6.2178512,2.5601334 Z m -5.263359,0.2724984 c 0.9507569,0.4130505 1.7887572,1.0991156 2.4142148,1.9307898 0.5536576,0.7347987 0.9524361,1.5745503 1.1842779,2.4654617 0.213478,0.8862823 0.4506465,1.7722025 0.8199094,2.6079287 0.165823,0.301629 0.3452943,0.601454 0.5818613,0.853555 0.038448,0.03663 0.089767,0.06259 0.070423,0.124589 0.00704,0.09308 -0.01381,0.192306 0.00973,0.281743 0.064535,0.139003 0.1290806,0.278004 0.1935992,0.417016 0.047965,-0.170082 0.1113541,-0.337865 0.1500417,-0.509306 0.00403,-0.09326 -0.008,-0.191282 0.00585,-0.281631 C 6.9805143,9.810185 7.3273868,8.7674502 7.6781006,7.7434212 7.8864235,7.1393239 8.080722,6.528963 8.3468646,5.9490197 8.8471681,4.908902 9.6681407,4.0367397 10.614078,3.3770653 10.891351,3.187196 11.187643,3.0195264 11.50839,2.9153845 11.513722,3.7586152 11.485283,4.6099298 11.248624,5.4260633 11.027275,6.2138611 10.609768,6.9360171 10.077267,7.5572446 9.2668554,8.5098087 8.2517033,9.259395 7.4234929,10.194881 6.9992686,10.663563 6.5993897,11.152937 6.1900727,11.6345 5.7703192,10.799224 5.0992151,10.127866 4.4161344,9.5041968 3.7800965,8.9207277 3.1012263,8.3790332 2.5265828,7.7319618 1.7273492,6.8096362 1.1510656,5.6796946 0.9427464,4.4729176 0.8508006,3.9348069 0.8385622,3.3794899 0.927535,2.8397369 c -0.00133,-0.02845 0.011171,-0.011836 0.026957,-0.00711 z m 3.2948493,-0.00147 c 0.1342263,0.044868 0.1637879,0.2069924 0.1899549,0.3285028 0.025849,0.1599908 0.029458,0.323365 0.01421,0.4846042 C 4.2823106,3.4761957 4.109502,3.2901693 4.0336832,3.057694 3.9984713,2.9681229 4.0455985,2.8601822 4.1444691,2.8423812 4.1781717,2.831284 4.2139926,2.8243954 4.2493415,2.8311689 Z m 3.952064,0.045765 c 0.096116,0.00488 0.2000598,0.081571 0.1717634,0.1880091 -0.050083,0.2261145 -0.2139645,0.4052438 -0.3661068,0.5713923 -0.045194,0.059469 -0.077309,0.072364 -0.068253,-0.016481 -0.011443,-0.1956386 -0.00208,-0.4015811 0.06308,-0.5758379 0.031872,-0.084016 0.096345,-0.1807159 0.1995188,-0.1670828 z m 1.6970552,8.1927202 c 0.7279103,-0.01237 1.4204753,0.276126 2.0593963,0.611351 0.07924,0.0182 0.10773,0.0829 0.01297,0.104424 -0.52709,0.277448 -1.084095,0.52596 -1.681593,0.594684 -0.4067563,0.04826 -0.8366673,0.0064 -1.2417483,-0.07044 -0.840239,-0.158293 -1.6678623,-0.464157 -2.5343577,-0.48396 0.1164319,-0.156659 0.3206866,-0.203497 0.4979817,-0.233817 0.3351349,-0.05296 0.680501,-0.03651 1.0083233,-0.134584 0.6211989,-0.151836 1.2313773,-0.377068 1.8790287,-0.387658 z m -7.5931784,0.06959 c 0.776895,-0.007 1.5378652,0.196751 2.2958866,0.362571 0.3721172,0.07233 0.7706816,0.0233 1.1236309,0.181849 0.066708,0.0327 0.128748,0.07907 0.1697722,0.141841 C 4.7584321,11.846728 3.6970166,12.350767 2.5668395,12.40183 2.052018,12.4191 1.5374922,12.298904 1.0703342,12.101418 0.8422009,12.004948 0.62237618,11.88867 0.41471962,11.753612 c -0.006983,-0.06407 0.0851103,-0.07497 0.12506881,-0.112326 0.27299437,-0.163926 0.56228627,-0.292609 0.86419237,-0.3769 0.295867,-0.08305 0.5986384,-0.120952 0.9013015,-0.125149 z" />
  </g>
</svg>
