<?xml version="1.0" encoding="UTF-8" standalone="no"?>
<svg
   version="1.1"
   viewBox="0 0 48 48"
   enable-background="new 0 0 463 463"
   id="svg6347"
   sodipodi:docname="Vrba_0.svg"
   inkscape:version="1.1.2 (b8e25be833, 2022-02-05)"
   width="48"
   height="48"
   xmlns:inkscape="http://www.inkscape.org/namespaces/inkscape"
   xmlns:sodipodi="http://sodipodi.sourceforge.net/DTD/sodipodi-0.dtd"
   xmlns="http://www.w3.org/2000/svg"
   xmlns:svg="http://www.w3.org/2000/svg">
  <defs
     id="defs6351">
    <inkscape:path-effect
       effect="fill_between_many"
       method="originald"
       linkedpaths="#path6345,0,1"
       id="path-effect6437"
       is_visible="true"
       lpeversion="0"
       join="true"
       close="true"
       autoreverse="true"
       applied="false" />
  </defs>
  <sodipodi:namedview
     id="namedview6349"
     pagecolor="#ffffff"
     bordercolor="#666666"
     borderopacity="1.0"
     inkscape:pageshadow="2"
     inkscape:pageopacity="0.0"
     inkscape:pagecheckerboard="0"
     showgrid="false"
     inkscape:zoom="10.482896"
     inkscape:cx="11.590309"
     inkscape:cy="26.567086"
     inkscape:window-width="1746"
     inkscape:window-height="1051"
     inkscape:window-x="165"
     inkscape:window-y="-9"
     inkscape:window-maximized="1"
     inkscape:current-layer="svg6347" />
  <path
     inkscape:original-d="M -22.305037,-0.13955553"
     inkscape:path-effect="#path-effect6437"
     d="m 23.969656,0.18850416 c -0.299531,0.00883 -0.555112,0.28640347 -0.540262,0.58559344 0.0043,0.498783 -0.114774,0.9929322 -0.31989,1.4461576 -0.275825,0.6133305 -0.618714,1.1929464 -0.9153,1.7961172 -0.599989,1.1880619 -1.071987,2.4511774 -1.44114,3.7206841 -0.297167,1.0185724 -0.542426,2.0677983 -0.74986,3.1154025 -0.09691,0.491541 -0.186073,0.980877 -0.269197,1.478151 -0.248481,1.484481 -0.440803,2.995877 -0.595542,4.493837 -0.310889,3.032064 -0.48028,6.06754 -0.580374,9.113491 -0.07867,2.429488 -0.110529,4.868188 -0.109062,7.302209 9.35e-4,0.263521 0.0055,0.528023 0.0144,0.783891 0.05604,1.619795 0.256864,3.247778 0.758304,4.794234 0.398199,1.221941 1.001908,2.401284 1.906544,3.327033 0.620531,0.635877 1.387249,1.137882 2.239168,1.400682 0.08882,-2.09e-4 0.05746,0.08557 0.06206,0.145634 0.001,1.199512 -0.0022,2.399133 0.0016,3.598579 0.01394,0.304467 0.30649,0.558274 0.610097,0.528193 0.295475,-0.01395 0.544525,-0.289437 0.529806,-0.584792 0,-1.22217 0,-2.444339 0,-3.666509 0.459825,-0.14311 0.902938,-0.341591 1.306479,-0.605451 1.042048,-0.671476 1.821698,-1.687413 2.359281,-2.79283 0.658102,-1.356336 0.994773,-2.84559 1.169399,-4.336272 0.07527,-0.652204 0.117221,-1.307908 0.136269,-1.96407 0.0022,-0.144147 0.0077,-0.312682 0.008,-0.466373 0.0052,-2.309577 -0.02429,-4.619302 -0.09108,-6.927936 -0.04548,-1.520504 -0.108736,-3.052987 -0.196887,-4.571855 -0.100508,-1.737629 -0.23263,-3.471303 -0.413677,-5.204207 -0.140463,-1.345979 -0.31244,-2.699236 -0.528147,-4.039879 -0.07137,-0.441786 -0.15102,-0.896732 -0.233694,-1.342172 C 27.890842,10.277098 27.661018,9.2278251 27.378905,8.2023046 27.336607,8.0453039 27.29278,7.8965165 27.247455,7.7370565 26.898443,6.5405106 26.460967,5.3461199 25.906301,4.2200623 25.598647,3.575444 25.235426,2.9593488 24.932484,2.3125519 24.715118,1.8525136 24.575629,1.351011 24.571827,0.83992982 c 0.01674,-0.20621537 -0.06327,-0.42393069 -0.237469,-0.5439677 -0.10437,-0.07662 -0.235596,-0.11429955 -0.364705,-0.10745796 z"
     id="path6439"
     style="fill:#808080;stroke-width:1.74345" />
  <path
     id="path6345"
     d="m 23.969656,0.18850416 c -0.299531,0.00883 -0.555112,0.28640347 -0.540262,0.58559344 0.0043,0.498783 -0.114774,0.9929322 -0.31989,1.4461576 -0.275825,0.6133305 -0.618714,1.1929464 -0.9153,1.7961172 -0.599989,1.1880619 -1.071987,2.4511774 -1.44114,3.7206841 -0.297167,1.0185724 -0.542426,2.0677983 -0.74986,3.1154025 -0.09691,0.491541 -0.186073,0.980877 -0.269197,1.478151 -0.248481,1.484481 -0.440803,2.995877 -0.595542,4.493837 -0.310889,3.032064 -0.48028,6.06754 -0.580374,9.113491 -0.07867,2.429488 -0.110529,4.868188 -0.109062,7.302209 9.35e-4,0.263521 0.0055,0.528023 0.0144,0.783891 0.05604,1.619795 0.256864,3.247778 0.758304,4.794234 0.398199,1.221941 1.001908,2.401284 1.906544,3.327033 0.620531,0.635877 1.387249,1.137882 2.239168,1.400682 0.08882,-2.09e-4 0.05746,0.08557 0.06206,0.145634 0.001,1.199512 -0.0022,2.399133 0.0016,3.598579 0.01394,0.304467 0.30649,0.558274 0.610097,0.528193 0.295475,-0.01395 0.544525,-0.289437 0.529806,-0.584792 0,-1.22217 0,-2.444339 0,-3.666509 0.459825,-0.14311 0.902938,-0.341591 1.306479,-0.605451 1.042048,-0.671476 1.821698,-1.687413 2.359281,-2.79283 0.658102,-1.356336 0.994773,-2.84559 1.169399,-4.336272 0.07527,-0.652204 0.117221,-1.307908 0.136269,-1.96407 0.0022,-0.144147 0.0077,-0.312682 0.008,-0.466373 0.0052,-2.309577 -0.02429,-4.619302 -0.09108,-6.927936 -0.04548,-1.520504 -0.108736,-3.052987 -0.196887,-4.571855 -0.100508,-1.737629 -0.23263,-3.471303 -0.413677,-5.204207 -0.140463,-1.345979 -0.31244,-2.699236 -0.528147,-4.039879 -0.07137,-0.441786 -0.15102,-0.896732 -0.233694,-1.342172 C 27.890842,10.277098 27.661018,9.2278251 27.378905,8.2023046 27.336607,8.0453039 27.29278,7.8965165 27.247455,7.7370565 26.898443,6.5405106 26.460967,5.3461199 25.906301,4.2200623 25.598647,3.575444 25.235426,2.9593488 24.932484,2.3125519 24.715118,1.8525136 24.575629,1.351011 24.571827,0.83992982 24.588568,0.63371445 24.508561,0.41599913 24.334358,0.29596212 24.229988,0.21934207 24.098762,0.18166257 23.969653,0.18850416 Z M 23.429503,4.9874482 c 0,12.4664048 0,24.9328088 0,37.3992128 -0.342674,-0.177295 -0.688989,-0.353808 -0.991237,-0.596541 -0.846032,-0.659263 -1.441287,-1.588858 -1.852801,-2.56854 -0.5533,-1.327461 -0.805908,-2.75969 -0.923154,-4.186902 -0.07512,-0.893851 -0.07642,-1.791445 -0.07118,-2.687796 0.01408,-4.010169 0.109861,-8.021956 0.388142,-12.023083 0.191881,-2.709756 0.46303,-5.417004 0.924058,-8.095293 0.335684,-1.919444 0.764444,-3.8306554 1.433332,-5.6639826 0.215852,-0.5835591 0.45097,-1.1612237 0.72708,-1.7189453 0.105298,-0.190796 0.210597,-0.3815918 0.315896,-0.5723875 0.01663,0.2380859 0.03324,0.4761717 0.04986,0.7142576 z m 1.537357,-0.087357 c 0.96178,2.0203941 1.531409,4.2005965 1.9584,6.3893748 0.513387,2.67407 0.81165,5.384458 1.026904,8.097257 0.312315,4.0403 0.426252,8.093413 0.453489,12.144923 0.0012,1.106661 0.02983,2.215237 -0.05638,3.319711 -0.105037,1.390776 -0.334658,2.785113 -0.831433,4.093531 -0.38789,1.012386 -0.956957,1.980811 -1.785465,2.694686 -0.313,0.27407 -0.669034,0.493766 -1.041721,0.676731 -0.04417,0.01061 -0.143197,0.111728 -0.119633,0.01056 0,-12.446474 0,-24.892948 0,-37.3394218 0.01663,-0.2380859 0.03324,-0.4761718 0.04986,-0.7142576 0.115328,0.208967 0.230654,0.4179339 0.345982,0.6269009 z"
     style="fill:#000000;stroke-width:0.103774" />
</svg>
