<?xml version="1.0" encoding="UTF-8" standalone="no"?>
<svg
   version="1.1"
   viewBox="0 0 48 48"
   enable-background="new 0 0 463 463"
   id="svg6347"
   sodipodi:docname="Vrba.svg"
   inkscape:version="1.1.2 (b8e25be833, 2022-02-05)"
   width="48"
   height="48"
   xmlns:inkscape="http://www.inkscape.org/namespaces/inkscape"
   xmlns:sodipodi="http://sodipodi.sourceforge.net/DTD/sodipodi-0.dtd"
   xmlns="http://www.w3.org/2000/svg"
   xmlns:svg="http://www.w3.org/2000/svg">
  <defs
     id="defs6351" />
  <sodipodi:namedview
     id="namedview6349"
     pagecolor="#ffffff"
     bordercolor="#666666"
     borderopacity="1.0"
     inkscape:pageshadow="2"
     inkscape:pageopacity="0.0"
     inkscape:pagecheckerboard="0"
     showgrid="false"
     inkscape:zoom="7.4125268"
     inkscape:cx="29.207314"
     inkscape:cy="15.042104"
     inkscape:window-width="1746"
     inkscape:window-height="1051"
     inkscape:window-x="165"
     inkscape:window-y="-9"
     inkscape:window-maximized="1"
     inkscape:current-layer="svg6347" />
  <path
     id="path6345"
     d="M 24.519853,0.11229261 C 24.21771,0.12119391 23.9599,0.40119341 23.97488,0.70299221 23.979182,1.2061245 23.859106,1.7045823 23.6522,2.1617596 23.373971,2.7804382 23.028092,3.365108 22.728918,3.973538 c -0.605219,1.1984213 -1.081332,2.4725506 -1.453705,3.7531267 -0.299757,1.0274536 -0.547156,2.0858286 -0.756398,3.1425673 -0.09775,0.495828 -0.187695,0.989428 -0.271544,1.49104 -0.250647,1.497424 -0.444646,3.021999 -0.600735,4.533021 -0.3136,3.058501 -0.484468,6.120446 -0.585434,9.192956 -0.07935,2.450672 -0.111493,4.910637 -0.110013,7.365881 9.41e-4,0.265819 0.0054,0.532627 0.01452,0.790728 0.05653,1.633916 0.259103,3.276095 0.764917,4.836036 0.401671,1.232595 1.010644,2.422222 1.923168,3.356043 0.62594,0.641421 1.399344,1.147803 2.258691,1.412894 0.0896,-2.09e-4 0.05797,0.08631 0.0626,0.146905 0.0011,1.209971 -0.0022,2.420052 0.0016,3.629956 0.01406,0.307123 0.309162,0.563142 0.615416,0.5328 0.298052,-0.01409 0.549274,-0.291962 0.534427,-0.589891 0,-1.232827 0,-2.465654 0,-3.69848 0.463834,-0.144357 0.910812,-0.344569 1.317871,-0.610731 1.051134,-0.67733 1.837582,-1.702126 2.379852,-2.817182 0.663841,-1.368161 1.003448,-2.870401 1.179596,-4.374082 0.07592,-0.657891 0.118243,-1.319312 0.137457,-1.981196 0.0021,-0.145403 0.0078,-0.315408 0.008,-0.470439 0.0052,-2.329715 -0.02451,-4.65958 -0.09187,-6.988345 -0.04588,-1.533761 -0.109684,-3.079606 -0.198602,-4.611719 -0.10138,-1.75278 -0.23466,-3.501571 -0.417286,-5.249585 -0.141654,-1.357715 -0.31513,-2.722772 -0.532718,-4.075105 -0.07195,-0.445638 -0.152302,-0.904552 -0.235698,-1.353875 C 28.475231,10.288854 28.243402,9.2304333 27.958829,8.1959703 27.916162,8.0376001 27.871953,7.8875151 27.826234,7.7266647 27.474177,6.5196856 27.032888,5.3148804 26.473384,4.1790041 26.163049,3.528765 25.79666,2.9072977 25.491077,2.2548611 25.271816,1.7908116 25.13111,1.2849361 25.127274,0.76939851 c 0.01689,-0.2080136 -0.06382,-0.4276273 -0.239538,-0.548711 -0.10528,-0.0772881 -0.237652,-0.1152962 -0.367886,-0.1083949 z M 23.974991,4.9530813 c 0,12.5751047 0,25.1502107 0,37.7253167 -0.345663,-0.178841 -0.694998,-0.356894 -0.999881,-0.601743 -0.853409,-0.665012 -1.453854,-1.602712 -1.868956,-2.590937 -0.558126,-1.339036 -0.812935,-2.783753 -0.931203,-4.223409 -0.07578,-0.901645 -0.07708,-1.807065 -0.0718,-2.711233 0.0142,-4.045136 0.110818,-8.091904 0.391527,-12.127918 0.193554,-2.733384 0.467067,-5.464238 0.932115,-8.165881 0.33861,-1.936181 0.77111,-3.8640567 1.445829,-5.7133692 0.217735,-0.5886475 0.454903,-1.1713489 0.73342,-1.7339337 0.106217,-0.1924596 0.212434,-0.3849191 0.31865,-0.5773784 0.01676,0.2401618 0.03353,0.4803237 0.0503,0.7204856 z m 1.550761,-0.088118 c 0.970167,2.0380109 1.544762,4.237223 1.975477,6.4450847 0.517864,2.697388 0.818727,5.431409 1.035858,8.167863 0.315039,4.07553 0.42997,8.163983 0.457443,12.25082 0.0012,1.116312 0.03009,2.234554 -0.05688,3.348657 -0.105952,1.402904 -0.337575,2.809399 -0.838683,4.129225 -0.391271,1.021213 -0.965301,1.998084 -1.801034,2.718183 -0.31573,0.276459 -0.674866,0.498071 -1.050804,0.682632 -0.04456,0.01071 -0.144446,0.112702 -0.120676,0.01065 0,-12.555001 0,-25.110003 0,-37.6650027 0.01677,-0.2401619 0.03353,-0.4803238 0.0503,-0.7204857 0.116332,0.2107891 0.232664,0.4215782 0.348997,0.6323672 z"
     style="fill:#000000;stroke-width:0.104679" />
</svg>
